<svg width="33" height="35" viewBox="0 0 33 35" fill="none" xmlns="http://www.w3.org/2000/svg">
<path fill-rule="evenodd" clip-rule="evenodd" d="M6.72223 0H33V3.66668H6.72223C5.91224 3.66668 5.13495 3.98883 4.56183 4.5619C3.98871 5.13497 3.66712 5.91177 3.66712 6.72229V21.389C3.66712 22.1995 3.98871 22.9763 4.56183 23.5494C5.1349 24.1225 5.9122 24.4446 6.72223 24.4446H12.0759L8.48285 20.8511L11.0737 18.2602L19.0914 26.2779L11.0727 34.2956L8.48182 31.7047L12.0753 28.1112H6.72223C4.93979 28.1112 3.22958 27.403 1.9689 26.1423C0.708213 24.8816 0 23.1718 0 21.389V6.72223C0 4.9394 0.708175 3.22958 1.9689 1.9689C3.22962 0.708211 4.93992 0 6.72223 0ZM32.9965 9.77734H9.77441V13.4439H32.9965V9.77734ZM32.9972 19.5547H21.9971V23.2212H32.9972V19.5547ZM21.9971 29.334H32.9972V33.0005H21.9971V29.334Z" fill="url(#paint0_linear_2561_1963)"/>
<defs>
<linearGradient id="paint0_linear_2561_1963" x1="0" y1="17.1478" x2="33" y2="17.1478" gradientUnits="userSpaceOnUse">
<stop stop-color="#6BBF56"/>
<stop offset="1" stop-color="#23B100"/>
</linearGradient>
</defs>
</svg>
