<svg width="34" height="34" viewBox="0 0 34 34" fill="none" xmlns="http://www.w3.org/2000/svg">
<path fill-rule="evenodd" clip-rule="evenodd" d="M21.9358 0H32.3549C33.2631 0 33.9999 0.736364 33.9999 1.64507V12.0641H30.7098V5.61551L22.5495 13.7749L20.2246 11.45L28.3844 3.29015H21.9358V0ZM2.74175 16.9996V8.77427L2.7417 8.77432C2.7417 7.17452 3.37723 5.6402 4.50847 4.50896C5.63977 3.37769 7.17403 2.74219 8.77383 2.74219H16.9992V6.03233H8.77383C8.04653 6.03233 7.34904 6.32137 6.83475 6.8352C6.32092 7.34943 6.03189 8.04695 6.03189 8.77427V16.9996H2.74175ZM17 31.258H25.2258C26.8256 31.258 28.3599 30.6225 29.4912 29.4912C30.6225 28.3599 31.258 26.8256 31.258 25.2258V17H27.9678V25.2258C27.9678 25.9532 27.6788 26.6502 27.1645 27.1644C26.6502 27.6787 25.9532 27.9678 25.2259 27.9678H17.0001L17 31.258ZM1.64507 33.9995C0.736375 33.9995 0 33.2627 0 32.3544V21.9353H3.29015V28.384L11.4504 20.2246L13.7753 22.5495L5.61551 30.7093H12.0641V33.9995H1.64507Z" fill="url(#paint0_linear_2561_1950)"/>
<defs>
<linearGradient id="paint0_linear_2561_1950" x1="0" y1="16.9997" x2="33.9999" y2="16.9997" gradientUnits="userSpaceOnUse">
<stop stop-color="#6BBF56"/>
<stop offset="1" stop-color="#23B100"/>
</linearGradient>
</defs>
</svg>
