<svg width="32" height="34" viewBox="0 0 32 34" fill="none" xmlns="http://www.w3.org/2000/svg">
<path d="M2.3568 23.818C0.882714 24.786 -0.00194594 26.418 3.21423e-06 28.1653V34H32V28.1653C32.002 26.418 31.1173 24.786 29.6432 23.818L27.0768 22.1303C25.4419 21.0531 23.6541 20.2204 21.772 19.6595C23.58 18.0494 24.6129 15.7598 24.6155 13.3571V8.49991C24.6155 5.46306 22.9729 2.65724 20.3076 1.13882C17.6417 -0.379605 14.3576 -0.379605 11.6922 1.13882C9.0263 2.65724 7.38433 5.46306 7.38433 8.49991V13.3571C7.38991 15.7619 8.42743 18.0514 10.2401 19.6595C8.35332 20.2194 6.56152 21.0521 4.92306 22.1303L2.3568 23.818ZM11.0767 8.50042C11.0767 6.76521 12.0152 5.16166 13.5385 4.29424C15.0618 3.42638 16.9383 3.42638 18.4617 4.29424C19.985 5.16161 20.9229 6.76508 20.9229 8.50042V13.3576C20.9229 15.0928 19.9849 16.6964 18.4617 17.5641C16.9383 18.4315 15.0618 18.4315 13.5385 17.5641C12.0151 16.6963 11.0767 15.0928 11.0767 13.3576V8.50042ZM15.9999 22.4641V22.4647C19.2109 22.4647 22.3504 23.4026 25.0219 25.1604L27.5944 26.8545L27.5939 26.854C28.038 27.147 28.306 27.6383 28.3081 28.1655V30.357H3.69278V28.1655C3.69278 27.6362 3.96078 27.1419 4.40645 26.848L6.97895 25.1538C9.65086 23.3986 12.7904 22.4626 16.0004 22.4645L15.9999 22.4641Z" fill="url(#paint0_linear_2561_1969)"/>
<defs>
<linearGradient id="paint0_linear_2561_1969" x1="0" y1="17" x2="32" y2="17" gradientUnits="userSpaceOnUse">
<stop stop-color="#6BBF56"/>
<stop offset="1" stop-color="#23B100"/>
</linearGradient>
</defs>
</svg>
