<svg width="34" height="34" viewBox="0 0 34 34" fill="none" xmlns="http://www.w3.org/2000/svg">
<path fill-rule="evenodd" clip-rule="evenodd" d="M30.1638 0H25.2285V3.29019H30.1638C30.3095 3.29019 30.4488 3.34809 30.5515 3.45077C30.6546 3.55389 30.7125 3.69322 30.7125 3.83886V8.77415H34.0027V3.83886C34.0027 2.82068 33.5983 1.84407 32.8782 1.12452C32.1586 0.404414 31.182 4.59391e-05 30.1639 4.59391e-05L30.1638 0ZM30.7125 30.1618C30.7125 30.3075 30.6546 30.4468 30.5515 30.5495C30.4488 30.6526 30.3095 30.7105 30.1638 30.7105H25.2285V34.0007H30.1638C31.182 34.0007 32.1586 33.5963 32.8782 32.8762C33.5983 32.1566 34.0026 31.18 34.0026 30.1619V25.2266H30.7124L30.7125 30.1618ZM8.77415 34.0007H3.83886L3.83882 34.0007C2.82063 34.0007 1.84411 33.5963 1.12447 32.8762C0.404379 32.1566 0 31.18 0 30.1619V25.2266H3.2902V30.1619C3.2902 30.4649 3.53581 30.7105 3.83886 30.7105H8.77415V34.0007ZM3.29015 3.83886C3.29015 3.53581 3.53576 3.2902 3.83882 3.2902H8.77411V0H3.83882C2.82063 0 1.84402 0.404379 1.12447 1.12447C0.404368 1.84411 0 2.82063 0 3.83882V8.77411H3.2902L3.29015 3.83886ZM22.1744 12.1086L26.1504 9.81626L27.7955 12.6623L23.825 14.9547C24.2276 16.2868 24.2276 17.7079 23.825 19.04V19.0405L27.7955 21.3329L26.1504 24.1843L22.1744 21.8919C21.221 22.901 19.9938 23.6103 18.6427 23.9319V28.5162H15.3525V23.9319C14.0019 23.6103 12.7743 22.901 11.8212 21.8919V21.8915L7.8453 24.1838L6.20021 21.3324L10.1702 19.0455C9.76811 17.7138 9.76811 16.2922 10.1702 14.9601H10.1707L6.2002 12.6677L7.84529 9.81626L11.8212 12.1086C12.7742 11.0991 14.0019 10.3903 15.3525 10.0687V5.48438H18.6427V10.0687C19.9938 10.3903 21.2209 11.0991 22.1744 12.1086ZM14.2833 19.7144C15.0033 20.4345 15.9799 20.8389 16.9976 20.8389C18.0158 20.8389 18.9923 20.4345 19.7119 19.7144C20.432 18.9949 20.8364 18.0183 20.8364 17.0001C20.8364 15.9823 20.432 15.0058 19.7119 14.2857C18.9924 13.5661 18.0158 13.1617 16.9976 13.1617C15.9799 13.1617 15.0034 13.5661 14.2833 14.2857C13.5636 15.0057 13.1592 15.9823 13.1592 17.0001C13.1592 18.0183 13.5636 18.9948 14.2833 19.7144Z" fill="url(#paint0_linear_2561_1956)"/>
<defs>
<linearGradient id="paint0_linear_2561_1956" x1="0" y1="17.0004" x2="34.0027" y2="17.0004" gradientUnits="userSpaceOnUse">
<stop stop-color="#6BBF56"/>
<stop offset="1" stop-color="#23B100"/>
</linearGradient>
</defs>
</svg>
