<svg width="98" height="49" viewBox="0 0 98 49" fill="none" xmlns="http://www.w3.org/2000/svg">
<path d="M97.672 0.78418H0.919922V48.6286H49.8276" fill="#5D5D75"/>
<path d="M48.7646 10.353V32.8931L40.4716 10.353H32.1786L25.1614 29.0655C24.3108 24.3874 19.42 22.6862 15.5925 21.4104C13.0408 20.5598 10.2764 19.4966 10.2764 18.0081C10.2764 16.9449 11.7649 15.8817 14.5293 16.0943C16.4431 16.307 18.1442 16.307 21.5465 18.0081L24.9487 12.2668C21.7591 10.5657 17.5063 9.71509 14.104 9.71509C10.0638 9.71509 6.66152 10.9909 4.53511 13.1174C3.04661 14.6059 2.40869 16.5196 2.19604 18.646C2.19604 21.623 3.25925 23.7495 5.59832 25.4506C7.51209 26.7264 9.85115 27.577 11.9776 28.2149C14.7419 29.0655 16.8683 29.9161 16.8683 31.4046C16.6557 33.3183 14.5293 33.7436 13.0408 33.7436C10.4891 33.9563 8.36266 33.531 5.17303 31.6172L2.19604 37.3585C5.38567 39.2723 8.78794 40.1229 12.8281 40.1229C15.5925 40.1229 19.8453 39.2723 22.1844 37.1459L21.7591 39.0597H29.8395L31.328 35.4448C34.5176 36.2953 38.1325 36.508 41.3222 35.4448L42.3854 39.0597H56.845V30.554H59.822C67.2645 30.554 71.7299 26.9391 71.7299 20.5598C71.7299 13.33 67.4771 10.353 58.3335 10.353H48.7646ZM33.2418 29.0655L36.2188 19.4966H36.4314L39.4084 29.0655C37.282 29.7034 35.1555 29.7034 33.2418 29.0655ZM56.845 24.1747V16.5196H58.9714C61.7358 16.5196 63.8622 17.3702 63.8622 20.1345C63.8622 23.1115 61.7358 24.1747 58.9714 24.1747H56.845Z" fill="#EFF2F8"/>
</svg>
