<svg width="183" height="22" viewBox="0 0 183 22" fill="none" xmlns="http://www.w3.org/2000/svg">
<path d="M18.2154 8.10107H19.6118V15.1925C19.6118 17.0702 18.7884 18.3573 16.8648 18.3573C16.2956 18.3663 15.729 18.2774 15.1898 18.0946V16.744C15.6496 16.9225 16.139 17.0122 16.6321 17.0085C17.8117 17.0085 18.2189 16.3032 18.2189 15.2859L18.2154 8.10107Z" fill="#5D5D75"/>
<path d="M22.1616 7.56007C22.3458 7.56007 22.5259 7.61472 22.679 7.71709C22.8321 7.81946 22.9515 7.96496 23.0219 8.13517C23.0923 8.30538 23.1106 8.49265 23.0746 8.67328C23.0385 8.85392 22.9497 9.01979 22.8193 9.14992C22.6889 9.28004 22.5229 9.36857 22.3422 9.40429C22.1615 9.44001 21.9742 9.42132 21.8042 9.35059C21.6341 9.27986 21.4888 9.16026 21.3867 9.00694C21.2846 8.85361 21.2303 8.67345 21.2307 8.48925C21.222 8.36485 21.2402 8.24005 21.284 8.12327C21.3277 8.0065 21.396 7.90048 21.4843 7.81239C21.5725 7.72429 21.6787 7.65618 21.7955 7.61265C21.9124 7.56912 22.0372 7.55119 22.1616 7.56007ZM21.474 10.538H22.8087V18.2959H21.474V10.538Z" fill="#5D5D75"/>
<path d="M26.1279 18.2964H24.8232V10.5386H26.1279V11.9033C26.5775 10.9882 27.3533 10.3376 28.8731 10.4293V11.734C27.1664 11.5577 26.1279 12.0743 26.1279 13.7193V18.2964Z" fill="#5D5D75"/>
<path d="M35.1278 16.8999C34.6306 17.9243 33.6997 18.4515 32.5042 18.4515C30.4414 18.4515 29.4011 16.6989 29.4011 14.4174C29.4011 12.2293 30.4872 10.3833 32.6594 10.3833C33.7931 10.3833 34.6623 10.8946 35.1278 11.9031V10.5385H36.4607V18.2963H35.1278V16.8999ZM32.8622 17.2102C34.0558 17.2102 35.1278 16.4503 35.1278 14.7277V14.1071C35.1278 12.3845 34.1493 11.6246 33.012 11.6246C31.5063 11.6246 30.7305 12.6172 30.7305 14.4174C30.7358 16.2793 31.4816 17.2102 32.8622 17.2102Z" fill="#5D5D75"/>
<path d="M44.3588 18.4519C42.3876 18.4519 41.4725 18.064 40.6809 17.6602V16.2338C41.6277 16.7293 43.0858 17.0872 44.4364 17.0872C45.9721 17.0872 46.5522 16.4807 46.5522 15.5815C46.5522 14.6823 45.995 14.2009 44.0555 13.7354C41.7634 13.1765 40.7338 12.3849 40.7338 10.7099C40.7338 9.12304 41.9451 7.94702 44.3183 7.94702C45.7922 7.94702 46.7391 8.29965 47.4373 8.69283V10.0892C46.4668 9.55409 45.3715 9.28637 44.2636 9.31346C42.9289 9.31346 42.1372 9.77893 42.1372 10.7099C42.1372 11.5474 42.7896 11.967 44.5898 12.4166C46.7461 12.9597 47.9556 13.6508 47.9556 15.488C47.9415 17.2565 46.8872 18.4519 44.3588 18.4519Z" fill="#5D5D75"/>
<path d="M53.2949 18.4519C50.3945 18.4519 49.1216 16.7769 49.1216 14.3966C49.1216 12.0534 50.4245 10.3784 52.7836 10.3784C55.1727 10.3784 56.1336 12.0393 56.1336 14.3966V15.0014H50.4721C50.6573 16.3202 51.5106 17.1736 53.3425 17.1736C54.1467 17.1735 54.9446 17.032 55.6999 16.7557V17.9899C55.0634 18.3267 54.0866 18.4519 53.2949 18.4519ZM50.4563 13.8677H54.7795C54.7019 12.4254 54.0496 11.602 52.7166 11.602C51.3096 11.5968 50.5955 12.5101 50.4563 13.8589V13.8677Z" fill="#5D5D75"/>
<path d="M59.0194 18.2964H57.7165V10.5386H59.0194V11.9033C59.469 10.9882 60.2448 10.3376 61.7664 10.4293V11.734C60.0597 11.5577 59.0194 12.0743 59.0194 13.7193V18.2964Z" fill="#5D5D75"/>
<path d="M65.0555 18.2964L62.0459 10.5386H63.4423L65.9565 17.1645L68.4549 10.5386H69.8513L66.8399 18.2964H65.0555Z" fill="#5D5D75"/>
<path d="M71.6809 7.56007C71.8651 7.56007 72.0452 7.61472 72.1983 7.71709C72.3514 7.81946 72.4707 7.96496 72.5412 8.13517C72.6116 8.30538 72.6299 8.49265 72.5938 8.67328C72.5578 8.85392 72.4689 9.01979 72.3386 9.14992C72.2082 9.28004 72.0421 9.36857 71.8614 9.40429C71.6807 9.44001 71.4935 9.42132 71.3234 9.35059C71.1533 9.27986 71.0081 9.16026 70.906 9.00694C70.8039 8.85361 70.7496 8.67345 70.75 8.48925C70.7413 8.36485 70.7595 8.24005 70.8032 8.12327C70.847 8.0065 70.9153 7.90048 71.0036 7.81239C71.0918 7.72429 71.198 7.65618 71.3148 7.61265C71.4317 7.56912 71.5565 7.55119 71.6809 7.56007ZM71.0003 10.538H72.335V18.2959H71.0003V10.538Z" fill="#5D5D75"/>
<path d="M79.8266 18.0955C79.3611 18.3424 78.6471 18.4482 77.933 18.4482C75.1719 18.4482 73.8777 16.7732 73.8777 14.3929C73.8777 12.0497 75.1648 10.3747 77.933 10.3747C78.5688 10.3541 79.2008 10.4815 79.779 10.7467V11.9809C79.2316 11.7227 78.6316 11.5953 78.0264 11.6089C76.0094 11.6089 75.1878 12.8819 75.1878 14.3859C75.1878 15.8898 76.0253 17.1628 78.0582 17.1628C78.658 17.1787 79.2556 17.0843 79.8213 16.8843L79.8266 18.0955Z" fill="#5D5D75"/>
<path d="M85.0546 18.4519C82.1542 18.4519 80.8812 16.7769 80.8812 14.3966C80.8812 12.0534 82.1842 10.3784 84.5433 10.3784C86.9323 10.3784 87.8932 12.0393 87.8932 14.3966V15.0014H82.2318C82.4169 16.3202 83.2703 17.1736 85.1022 17.1736C85.9064 17.1735 86.7043 17.032 87.4595 16.7557V17.9899C86.8248 18.3267 85.8462 18.4519 85.0546 18.4519ZM82.2159 13.8677H86.5444C86.4668 12.4254 85.8162 11.602 84.4815 11.602C83.0693 11.5968 82.3552 12.5101 82.2159 13.8589V13.8677Z" fill="#5D5D75"/>
<path d="M93.9621 8.94033V18.2956H92.5657V8.10107H94.9795L97.291 13.9512L98.2378 16.7599L99.1846 13.9512L101.512 8.10107H103.762V18.2956H102.365V9.04789L101.17 12.7258L98.9254 18.2956H97.5766L95.3586 12.7258L93.9621 8.94033Z" fill="#5D5D75"/>
<path d="M111.262 16.8999C110.765 17.9243 109.834 18.4515 108.639 18.4515C106.576 18.4515 105.537 16.6989 105.537 14.4174C105.537 12.2293 106.622 10.3833 108.794 10.3833C109.927 10.3833 110.797 10.8946 111.262 11.9031V10.5385H112.595V18.2963H111.262V16.8999ZM108.996 17.2102C110.19 17.2102 111.262 16.4503 111.262 14.7277V14.1071C111.262 12.3845 110.284 11.6246 109.146 11.6246C107.641 11.6246 106.865 12.6172 106.865 14.4174C106.87 16.2793 107.616 17.2102 108.996 17.2102Z" fill="#5D5D75"/>
<path d="M121.206 18.296H119.871V13.6095C119.871 12.2131 119.314 11.5925 118.041 11.5925C116.807 11.5925 115.946 12.4159 115.946 13.9833V18.296H114.611V10.5381H115.946V11.8111C116.184 11.3703 116.539 11.0036 116.971 10.7516C117.404 10.4996 117.898 10.3721 118.399 10.383C120.181 10.383 121.206 11.6084 121.206 13.7506V18.296Z" fill="#5D5D75"/>
<path d="M128.328 16.8999C127.833 17.9243 126.902 18.4515 125.706 18.4515C123.643 18.4515 122.603 16.6989 122.603 14.4174C122.603 12.2293 123.689 10.3833 125.862 10.3833C126.995 10.3833 127.863 10.8946 128.33 11.9031V10.5385H129.665V18.2963H128.33L128.328 16.8999ZM126.064 17.2102C127.258 17.2102 128.328 16.4503 128.328 14.7277V14.1071C128.328 12.3845 127.351 11.6246 126.212 11.6246C124.707 11.6246 123.931 12.6172 123.931 14.4174C123.938 16.2793 124.682 17.2102 126.064 17.2102Z" fill="#5D5D75"/>
<path d="M136.909 16.8999C136.412 17.9243 135.481 18.4515 134.287 18.4515C132.238 18.4515 131.214 16.6989 131.214 14.4174C131.214 12.2293 132.284 10.3833 134.442 10.3833C135.574 10.3833 136.443 10.8946 136.911 11.9031V10.5385H138.214V17.5911C138.214 19.8708 137.143 21.4083 134.366 21.4083C133.428 21.4357 132.492 21.2935 131.604 20.9886V19.6857C132.471 19.986 133.38 20.1455 134.298 20.1582C136.237 20.1582 136.905 19.1179 136.905 17.6757L136.909 16.8999ZM134.65 17.2102C135.846 17.2102 136.916 16.4503 136.916 14.7277V14.1071C136.916 12.3845 135.937 11.6246 134.8 11.6246C133.294 11.6246 132.519 12.6172 132.519 14.4174C132.517 16.2793 133.263 17.2102 134.65 17.2102Z" fill="#5D5D75"/>
<path d="M143.937 18.4519C141.037 18.4519 139.764 16.7769 139.764 14.3966C139.764 12.0534 141.067 10.3784 143.426 10.3784C145.815 10.3784 146.776 12.0393 146.776 14.3966V15.0014H141.114C141.299 16.3202 142.153 17.1736 143.985 17.1736C144.789 17.1735 145.587 17.032 146.342 16.7557V17.9899C145.705 18.3267 144.729 18.4519 143.937 18.4519ZM141.098 13.8677H145.427C145.349 12.4254 144.697 11.602 143.364 11.602C141.952 11.5968 141.238 12.5101 141.098 13.8589V13.8677Z" fill="#5D5D75"/>
<path d="M154.953 18.296H153.618V13.6095C153.618 12.2131 153.059 11.5925 151.788 11.5925C150.554 11.5925 149.693 12.4159 149.693 13.9833V18.296H148.359V10.5381H149.693V11.8111C149.931 11.3704 150.285 11.0038 150.717 10.7518C151.15 10.4998 151.644 10.3722 152.144 10.383C153.463 10.383 154.362 11.0494 154.75 12.2766C155.185 11.0812 156.226 10.383 157.513 10.383C159.249 10.383 160.212 11.5625 160.212 13.7506V18.296H158.877V13.9833C158.877 12.3841 158.319 11.5925 157.047 11.5925C155.813 11.5925 154.953 12.4159 154.953 13.9833V18.296Z" fill="#5D5D75"/>
<path d="M165.782 18.4519C162.882 18.4519 161.609 16.7769 161.609 14.3966C161.609 12.0534 162.912 10.3784 165.271 10.3784C167.66 10.3784 168.621 12.0393 168.621 14.3966V15.0014H162.96C163.145 16.3202 163.998 17.1736 165.83 17.1736C166.634 17.1735 167.432 17.032 168.187 16.7557V17.9899C167.551 18.3267 166.574 18.4519 165.782 18.4519ZM162.944 13.8677H167.269C167.191 12.4254 166.539 11.602 165.206 11.602C163.797 11.5968 163.083 12.5101 162.944 13.8589V13.8677Z" fill="#5D5D75"/>
<path d="M176.798 18.2959H175.463V13.6095C175.463 12.2131 174.906 11.5925 173.633 11.5925C172.399 11.5925 171.539 12.4158 171.539 13.9833V18.2959H170.204V10.5381H171.539V11.8111C171.776 11.3705 172.131 11.0041 172.563 10.7521C172.995 10.5001 173.489 10.3723 173.989 10.3829C175.774 10.3829 176.798 11.6083 176.798 13.7505V18.2959Z" fill="#5D5D75"/>
<path d="M181.726 17.0398C182.008 17.0316 182.289 16.9956 182.564 16.9322V18.2193C182.271 18.3028 181.967 18.3444 181.663 18.3428C180.004 18.3428 179.194 17.366 179.194 15.9237V11.7733H177.937V10.5391H179.194V8.89404H180.497V10.5391H182.562V11.7733H180.497V15.8849C180.506 16.5743 180.91 17.0398 181.726 17.0398Z" fill="#5D5D75"/>
<path d="M6.43924 11.7734L10.1242 11.7946C10.2308 11.7951 10.3352 11.8252 10.4256 11.8816C10.5161 11.938 10.5891 12.0184 10.6365 12.1139C10.6838 12.2094 10.7037 12.3162 10.6939 12.4223C10.6841 12.5285 10.645 12.6298 10.5809 12.715L5.14156 19.9721C4.73438 19.6688 4.39096 19.2883 4.13095 18.8523C3.87094 18.4162 3.69943 17.9332 3.62624 17.4308C3.55304 16.9284 3.57959 16.4165 3.70437 15.9244C3.82915 15.4323 4.0497 14.9696 4.35343 14.5627L6.43924 11.7734Z" fill="#A2ABBE"/>
<path d="M4.3536 14.5618L0.689775 14.5389C0.58333 14.5385 0.479088 14.5086 0.388669 14.4524C0.298249 14.3962 0.225203 14.316 0.177672 14.2208C0.130141 14.1256 0.109992 14.019 0.119471 13.913C0.12895 13.8069 0.167684 13.7056 0.231356 13.6203L5.6213 6.42139C6.44256 7.03522 6.98638 7.9501 7.13319 8.96484C7.27999 9.97958 7.01775 11.0111 6.40414 11.8325L4.3536 14.5618Z" fill="#A2ABBE"/>
<path d="M33.9493 3.08724C33.9493 2.38198 33.4997 2.07343 32.6481 1.85303C32.1192 1.71903 31.9905 1.60443 31.9905 1.42635C31.9905 1.21477 32.1774 1.10722 32.5282 1.10722C32.9587 1.12329 33.3803 1.2347 33.7625 1.4334V0.551829C33.3873 0.376213 32.9777 0.286465 32.5635 0.28912C31.6361 0.28912 31.1213 0.735197 31.1213 1.4528C31.1213 2.14043 31.5761 2.49129 32.3555 2.66408C32.8932 2.78398 33.0607 2.8739 33.0607 3.10487C33.0607 3.28118 32.932 3.42576 32.5318 3.42576C32.031 3.41548 31.5414 3.27578 31.1107 3.02024V3.95118C31.5481 4.17091 32.0317 4.28332 32.5212 4.27913C33.4856 4.27913 33.9493 3.80484 33.9493 3.08724Z" fill="#A2ABBE"/>
<path d="M44.6018 0.345757V4.22469H45.434V1.26965L45.7867 2.05249L46.9503 4.22292H47.9871V0.343994H47.1637V2.84767L46.8445 2.12477L45.9066 0.345757H44.6018Z" fill="#A2ABBE"/>
<path d="M39.3705 0.345947H38.4678V4.22488H39.3705V0.345947Z" fill="#A2ABBE"/>
<path d="M24.1279 0.345947V4.22488H25.9721L26.263 3.38562H25.0288V0.345947H24.1279Z" fill="#A2ABBE"/>
<path d="M20.4734 0.345947V1.19402H21.4731V4.22311H22.3741V1.19402H23.446V0.345947H20.4734Z" fill="#A2ABBE"/>
<path d="M19.1633 0.345947H17.9749L16.6244 4.22488H17.6558L17.848 3.56898C18.0833 3.63864 18.3273 3.67485 18.5727 3.67654C18.8182 3.67728 19.0625 3.64102 19.2973 3.56898L19.4895 4.22488H20.5209L19.1633 0.345947ZM18.5656 2.87607C18.3975 2.87451 18.2303 2.8508 18.0684 2.80554L18.5656 1.10763L19.0628 2.80554C18.8999 2.8516 18.7314 2.87533 18.5621 2.87607H18.5656Z" fill="#A2ABBE"/>
<path d="M29.1678 0.345947H27.9794L26.6271 4.22488H27.6585L27.8507 3.56898C28.0866 3.63876 28.3311 3.67496 28.5771 3.67654C28.8227 3.67728 29.067 3.64102 29.3018 3.56898L29.4939 4.22488H30.5254L29.1678 0.345947ZM28.5701 2.87607C28.402 2.87421 28.2348 2.8505 28.0728 2.80554L28.5701 1.10763L29.069 2.80554C28.9065 2.85065 28.7387 2.87436 28.5701 2.87607Z" fill="#A2ABBE"/>
<path d="M42.6129 0.345947H41.4246L40.074 4.22488H41.1054L41.2959 3.56898C41.5318 3.63844 41.7763 3.67464 42.0223 3.67654C42.2678 3.67728 42.5121 3.64102 42.7469 3.56898L42.9391 4.22488H43.9706L42.6129 0.345947ZM42.0223 2.87607C41.8542 2.87451 41.687 2.8508 41.5251 2.80554L42.0223 1.10763L42.5195 2.80554C42.3557 2.85064 42.1868 2.87434 42.017 2.87607H42.0223Z" fill="#A2ABBE"/>
<path d="M37.5413 3.08736C37.5413 2.3821 37.0917 2.07355 36.2401 1.85316C35.7111 1.71916 35.5824 1.60455 35.5824 1.42647C35.5824 1.2149 35.7693 1.10734 36.1114 1.10734C36.5418 1.12341 36.9634 1.23482 37.3456 1.43353V0.551952C36.9661 0.374274 36.5515 0.284476 36.1325 0.289243C35.2051 0.289243 34.6903 0.73532 34.6903 1.45292C34.6903 2.14055 35.1452 2.49142 35.9245 2.66421C36.4622 2.7841 36.6297 2.87402 36.6297 3.10499C36.6297 3.28131 36.4993 3.42589 36.1008 3.42589C35.6 3.41561 35.1105 3.2759 34.6797 3.02036V3.9513C35.1172 4.17103 35.6007 4.28345 36.0902 4.27925C37.0776 4.27925 37.5413 3.80496 37.5413 3.08736Z" fill="#A2ABBE"/>
</svg>
