<svg width="179" height="45" viewBox="0 0 179 45" fill="none" xmlns="http://www.w3.org/2000/svg">
<path d="M66.4664 13.9767H70.1628V32.0208H66.4664V13.9767ZM73.9165 13.9767H84.8915V17.4827H77.5939V21.2172H83.31V24.7232H77.5939V32.0208H73.9165V13.9767ZM89.7312 26.419C89.9789 28.0385 91.3889 28.915 92.9894 28.915C94.4566 28.915 95.5617 28.2291 95.5617 27.0858C95.5617 26.1141 94.8758 25.39 93.1419 24.8946L91.2365 24.3421C88.3974 23.5228 86.5302 21.7507 86.5111 19.007C86.492 15.6725 88.95 13.6719 92.5702 13.6719C96.4572 13.6719 98.7818 16.4728 98.8961 19.1594H95.2378C94.8377 17.6351 93.6373 17.0635 92.5702 17.0635C91.2746 17.0635 90.2647 17.6732 90.2266 18.7402C90.2076 19.8644 91.0078 20.4741 92.494 20.8933L94.609 21.484C97.5243 22.3033 99.2772 24.1515 99.2772 26.9525C99.2772 30.0201 96.7812 32.3257 92.9894 32.3257C88.6642 32.3257 86.2062 29.3914 86.0538 26.419H89.7312ZM112.844 19.0451C114.749 19.0451 116.483 20.0359 117.321 21.2553V19.3118H119.512V32.0208H117.321V30.0583C116.483 31.2777 114.749 32.2685 112.844 32.2685C109.281 32.2685 106.613 29.2961 106.613 25.6568C106.613 22.0365 109.281 19.0451 112.844 19.0451ZM113.168 21.0648C110.595 21.0648 108.823 23.1036 108.823 25.6758C108.823 28.2481 110.595 30.2678 113.168 30.2678C115.74 30.2678 117.493 28.2291 117.493 25.6758C117.493 23.1036 115.74 21.0648 113.168 21.0648ZM127.458 32.2685C124.733 32.2685 122.466 30.8966 122.294 28.3243H124.524C124.829 29.8677 126.143 30.4012 127.477 30.4012C128.849 30.4012 129.916 29.8487 129.916 28.7245C129.916 27.7146 129.306 27.1049 127.801 26.6857L125.972 26.2094C123.781 25.6568 122.694 24.2849 122.694 22.4748C122.694 20.3598 124.524 19.0451 127.096 19.0451C129.821 19.0451 131.497 20.6456 131.726 22.6844H129.535C129.249 21.5793 128.22 20.8362 127.096 20.8743C125.877 20.8743 124.905 21.484 124.905 22.4557C124.905 23.4275 125.495 23.9229 126.829 24.2849L128.868 24.8184C130.983 25.3519 132.126 26.6667 132.126 28.572C132.126 31.1062 130.106 32.2685 127.458 32.2685ZM139.081 32.2685C136.356 32.2685 134.089 30.8966 133.917 28.3243H136.147C136.451 29.8677 137.766 30.4012 139.1 30.4012C140.472 30.4012 141.539 29.8487 141.539 28.7245C141.539 27.7146 140.929 27.1049 139.424 26.6857L137.595 26.2094C135.403 25.6568 134.317 24.2849 134.317 22.4748C134.317 20.3598 136.147 19.0451 138.719 19.0451C141.444 19.0451 143.12 20.6456 143.349 22.6844H141.158C140.872 21.5793 139.843 20.8362 138.719 20.8743C137.499 20.8743 136.528 21.484 136.528 22.4557C136.528 23.4275 137.118 23.9229 138.452 24.2849L140.491 24.8184C142.606 25.3519 143.749 26.6667 143.749 28.572C143.749 31.1062 141.71 32.2685 139.081 32.2685ZM147.312 37.3368L150.075 31.3539L144.511 19.2928H146.931L151.313 28.9341L155.658 19.3118H158.097L149.751 37.3368H147.312ZM163.965 32.2685C161.241 32.2685 158.973 30.8966 158.802 28.3243H161.031C161.336 29.8677 162.651 30.4012 163.984 30.4012C165.356 30.4012 166.423 29.8487 166.423 28.7245C166.423 27.7146 165.814 27.1049 164.308 26.6857L162.479 26.2094C160.288 25.6568 159.202 24.2849 159.202 22.4557C159.202 20.3407 161.031 19.026 163.603 19.026C166.328 19.026 168.005 20.6266 168.233 22.6653H166.042C165.756 21.5602 164.727 20.8171 163.603 20.8552C162.384 20.8552 161.412 21.4649 161.412 22.4367C161.412 23.4084 162.003 23.9038 163.356 24.2659L165.394 24.7994C167.509 25.3329 168.653 26.6476 168.653 28.572C168.653 31.1062 166.614 32.2685 163.965 32.2685ZM176.217 32.1542C174.007 32.1542 172.33 30.9157 172.33 28.2672V21.3316H169.643V19.3118H172.349V15.7678H174.521V19.3118H178.18V21.3125H174.521V27.9814C174.521 29.601 175.264 30.1345 176.636 30.1345C177.17 30.1345 177.684 30.0582 178.18 29.8868V31.8493C177.551 32.0589 176.884 32.1542 176.217 32.1542Z" fill="#5D5D75"/>
<mask id="mask0_159_443" style="mask-type:luminance" maskUnits="userSpaceOnUse" x="0" y="0" width="45" height="45">
<path d="M44.3257 0.506836H0.177734V44.7882H44.3257V0.506836Z" fill="white"/>
</mask>
<g mask="url(#mask0_159_443)">
<mask id="mask1_159_443" style="mask-type:luminance" maskUnits="userSpaceOnUse" x="0" y="0" width="45" height="45">
<path d="M9.49317 4.71701C9.8933 3.95486 10.846 3.66905 11.6082 4.08823C11.6272 4.08823 11.6463 4.10729 11.6653 4.10729L32.1864 17.064C32.396 17.1783 32.4722 17.426 32.3579 17.6165C32.2436 17.8071 31.9959 17.9023 31.8053 17.788H31.7863L10.0838 6.88916C9.32169 6.48903 9.05493 5.53633 9.45506 4.77417C9.45506 4.75512 9.47412 4.73607 9.49317 4.71701ZM22.85 20.0745C22.7738 19.8077 22.507 19.6553 22.2402 19.7315L1.71917 23.8662C0.671206 24.0758 0.0995884 25.219 0.366343 26.2479C0.652152 27.2769 1.73823 27.9247 2.72903 27.5817L22.4879 20.6842C22.7547 20.5889 22.9071 20.3222 22.85 20.0745ZM2.5766 19.903L29.1378 18.3787C29.4045 18.3977 29.6522 18.1881 29.6713 17.9214C29.6903 17.6546 29.4807 17.4069 29.214 17.3879C29.1949 17.3879 29.1759 17.3879 29.1568 17.3879L2.59565 16.0541C1.50958 16.016 0.633098 16.9306 0.633098 17.9976C0.633098 19.0646 1.50958 19.9792 2.5766 19.903ZM34.3585 18.5692C34.4919 18.7216 34.7396 18.7407 34.8921 18.6073C35.0254 18.493 35.0635 18.3215 35.0064 18.1691L25.8986 1.34447C25.4794 0.696635 24.622 0.525149 23.9742 0.925282C23.3454 1.32541 23.1548 2.14473 23.5169 2.79257L34.3585 18.5692ZM5.33942 12.7387L25.0983 16.4542C25.327 16.5114 25.5747 16.378 25.6318 16.1303C25.689 15.9017 25.5556 15.654 25.3079 15.5968L6.34928 9.00415C5.32036 8.64212 4.25334 9.34712 3.98659 10.376C3.71983 11.4049 4.29145 12.5291 5.33942 12.7387ZM16.5241 3.55472L29.8999 14.8346C30.0142 15.0061 30.2619 15.0442 30.4334 14.9299C30.6049 14.8156 30.643 14.5679 30.5287 14.3964C30.5096 14.3583 30.4715 14.3202 30.4334 14.3011L18.5438 1.45879C18.0103 0.86812 17.0385 0.925282 16.486 1.4969C15.9334 2.06852 15.9143 3.04027 16.5241 3.55472ZM34.7396 16.2827C34.7968 16.4542 34.9683 16.5495 35.1398 16.4923C35.3112 16.4352 35.4065 16.2637 35.3493 16.0922L32.4722 3.47851C32.3007 2.86878 31.6719 2.50676 31.0432 2.67824C31.0241 2.67824 31.0051 2.67824 30.986 2.6973C30.3572 2.88784 29.9571 3.55472 30.1857 4.16445L34.7396 16.2827ZM42.285 18.1119L39.9223 21.4082C39.808 21.5035 39.808 21.675 39.9223 21.7893C40.0366 21.8846 40.189 21.8846 40.3034 21.7893L43.6187 19.4266C44.0379 19.1218 43.9808 18.4549 43.5997 18.0929C43.2186 17.7308 42.5898 17.6927 42.285 18.1119ZM42.8566 21.4082L36.1687 25.6573C36.0353 25.7335 35.9972 25.8859 36.0543 26.0193C36.1306 26.1527 36.283 26.1908 36.4164 26.1336L43.7331 23.104C44.2094 22.9135 44.3809 22.3038 44.1332 21.8274C43.8855 21.3511 43.2758 21.1415 42.8566 21.4082ZM38.2265 17.2926C38.3599 17.3307 38.5123 17.2354 38.5504 17.1021L40.7416 11.1953C40.9321 10.6999 40.5511 10.1855 40.0557 10.0712C39.5603 9.95684 38.9886 10.1855 38.9124 10.719L38.055 16.9877C37.9978 17.1211 38.0741 17.2545 38.2265 17.2926ZM36.5879 21.0272C36.7403 21.0272 36.8546 20.9128 36.8546 20.7604L37.4072 7.04159C37.4072 6.52714 37.007 6.127 36.4926 6.127C36.4735 6.127 36.4735 6.127 36.4545 6.127C35.9591 6.10795 35.5399 6.48903 35.5208 6.98443C35.5208 7.00348 35.5208 7.02254 35.5208 7.04159L36.3211 20.7795C36.3211 20.8938 36.4354 21.0081 36.5879 21.0272ZM36.9499 23.7519C37.0833 23.809 37.2357 23.7709 37.3119 23.6376L42.6279 15.2157C42.8756 14.7775 42.7232 14.2059 42.285 13.9582C42.2659 13.9582 42.2659 13.9391 42.2469 13.9391C41.7896 13.6914 41.1989 13.7867 40.9893 14.263L36.8165 23.3708C36.7593 23.5232 36.8165 23.6757 36.9499 23.7519ZM41.8277 30.0206L37.7311 29.6014C37.5787 29.5633 37.4453 29.6395 37.4072 29.792C37.3691 29.9444 37.4453 30.0778 37.5977 30.1159L41.3513 31.8307C41.8277 32.0403 42.3802 31.6593 42.5136 31.1639C42.6279 30.6875 42.3231 30.0587 41.8277 30.0206ZM40.6273 32.6882L31.1003 28.2677C30.9669 28.1914 30.8145 28.2486 30.7383 28.3629C30.6621 28.4773 30.7192 28.6487 30.8336 28.725L39.5984 34.4792C40.0938 34.746 40.7225 34.5745 40.9893 34.0791C41.2751 33.5837 41.1036 32.9549 40.6273 32.6882ZM28.6233 27.3531C28.528 27.2197 28.3566 27.2006 28.2232 27.2959C28.1089 27.3721 28.0707 27.5246 28.147 27.6579L34.3966 39.4523C34.7015 40.0049 35.4446 40.1573 35.9781 39.8143C36.5116 39.4904 36.7022 38.8045 36.3783 38.271C36.3783 38.2519 36.3592 38.2519 36.3592 38.2329L28.6233 27.3531ZM27.2895 19.6362C27.1562 19.4076 26.8513 19.3314 26.6036 19.4648L3.89132 31.2972C2.95768 31.7926 2.67187 33.0311 3.22443 33.9457C3.777 34.8603 4.97739 35.2033 5.87293 34.6126H5.89198L27.099 20.3031C27.3276 20.1507 27.4039 19.8458 27.2705 19.6172L27.2895 19.6362ZM43.0471 24.5521L39.3507 25.9621C39.1982 26.0002 39.122 26.1336 39.1411 26.2861C39.1601 26.4385 39.3126 26.5147 39.465 26.4956L43.4092 26.1717C43.8664 26.1336 44.1332 25.6192 44.0189 25.1809C43.9236 24.7427 43.4282 24.3807 43.009 24.5521H43.0471ZM42.5898 27.1435L33.8631 27.7913C33.7107 27.7913 33.5964 27.9056 33.5964 28.0581C33.5964 28.2105 33.7107 28.3248 33.8631 28.3248L42.5708 29.0298C43.0852 29.0298 43.5044 28.6106 43.5235 28.0962C43.5235 27.5627 43.1233 27.1435 42.5898 27.1435ZM38.8362 35.3938L32.8914 31.0495C32.7771 30.9543 32.6056 30.9733 32.5103 31.0876C32.415 31.202 32.4341 31.3544 32.5294 31.4497L37.2928 37.0706C37.693 37.5469 38.4742 37.4707 38.8934 37.0134C39.3126 36.5561 39.3316 35.7749 38.8172 35.3938H38.8362ZM23.0786 24.5331C22.9262 24.3807 22.6785 24.3997 22.5261 24.5521L8.33088 37.3754C7.64494 37.9852 7.7021 39.0903 8.36899 39.7381C9.03588 40.386 10.141 40.405 10.7317 39.7L23.0786 25.0857C23.231 24.9142 23.212 24.6665 23.0405 24.5331H23.0786ZM26.1844 22.4753C25.9939 22.38 25.7652 22.4372 25.6509 22.6277L14.1042 41.0719C13.6088 41.8531 13.9518 42.9011 14.7711 43.3393C15.5904 43.7776 16.6574 43.5108 17.0385 42.6724L26.3368 22.9897C26.4321 22.8182 26.3749 22.5896 26.1844 22.4753ZM26.9085 25.3905C26.8894 25.219 26.756 25.0857 26.5845 25.1047C26.4131 25.1238 26.2797 25.2571 26.2987 25.4286L26.2606 42.7677C26.2797 43.4727 26.8703 44.0062 27.5753 43.9871C28.2803 43.9681 28.8138 43.3774 28.7948 42.6724C28.7948 42.6534 28.7948 42.6534 28.7948 42.6343L26.9085 25.3905ZM28.7757 30.7637C28.7186 30.6113 28.5661 30.5351 28.4137 30.5922C28.2613 30.6494 28.1851 30.8018 28.2422 30.9543L30.7764 41.4911C30.9288 42.1008 31.6338 42.4247 32.2245 42.2342C32.8342 42.0436 33.2153 41.3577 32.9676 40.7861L28.7757 30.7637ZM25.2127 27.8294C25.0221 27.7913 24.8506 27.9056 24.8125 28.0962L20.6207 42.9582C20.4111 43.7013 20.9446 44.4635 21.7067 44.6159C22.4689 44.7684 23.2692 44.292 23.3644 43.5299L25.4604 28.2486C25.4985 28.0581 25.3841 27.8866 25.2127 27.8294Z" fill="white"/>
</mask>
<g mask="url(#mask1_159_443)">
<path d="M29.6532 60.2968C49.8893 60.2968 66.2939 43.8922 66.2939 23.6561C66.2939 3.41998 49.8893 -12.9846 29.6532 -12.9846C9.41714 -12.9846 -6.98746 3.41998 -6.98746 23.6561C-6.98746 43.8922 9.41714 60.2968 29.6532 60.2968Z" fill="#A2ABBE"/>
</g>
</g>
<path fill-rule="evenodd" clip-rule="evenodd" d="M54.8762 37.7941V8.27954H55.8762V37.7941H54.8762Z" fill="#5D5D75"/>
</svg>
