<svg width="154" height="51" viewBox="0 0 154 51" fill="none" xmlns="http://www.w3.org/2000/svg">
<path d="M70.546 11.2761H71.6095L76.1916 21.8259H74.9762L73.7881 19.0578H68.3188L67.1276 21.8259H65.9639L70.546 11.2761ZM73.3475 17.9973L71.0534 12.6526L68.7563 17.9973H73.3475Z" fill="#A2ABBE"/>
<path d="M82.0711 11.3518H86.5833C87.7319 11.3518 88.6374 11.68 89.2117 12.2634C89.4355 12.4954 89.611 12.7696 89.7278 13.0701C89.8447 13.3706 89.9006 13.6913 89.8923 14.0136V14.0439C89.9065 14.5311 89.778 15.0118 89.5227 15.4269C89.2673 15.842 88.8963 16.1735 88.4551 16.3806C89.634 16.7968 90.4514 17.5018 90.4514 18.9238V18.9542C90.4514 20.8229 88.9747 21.8256 86.7322 21.8256H82.0711V11.3518ZM88.1208 14.3144C88.1208 13.4909 87.4888 12.9835 86.3524 12.9835H83.8152V15.7668H86.2278C87.3642 15.7668 88.1269 15.3019 88.1269 14.3448L88.1208 14.3144ZM86.6016 17.3225H83.8152V20.197H86.7474C87.9385 20.197 88.686 19.7017 88.686 18.7597V18.7293C88.6769 17.8451 88.0054 17.3104 86.6107 17.3104L86.6016 17.3225Z" fill="#A2ABBE"/>
<path d="M92.0856 13.9263H93.8419V15.7068C94.3159 14.5249 95.191 13.7166 96.5279 13.7774V15.6916H96.4277C94.9084 15.6916 93.8419 16.7247 93.8419 18.8183V21.8264H92.0886L92.0856 13.9263Z" fill="#A2ABBE"/>
<path d="M97.2155 17.9184V17.888C97.2046 17.3491 97.3014 16.8135 97.5003 16.3125C97.6991 15.8116 97.9961 15.3554 98.3736 14.9708C98.7512 14.5861 99.2018 14.2808 99.699 14.0726C100.196 13.8645 100.73 13.7577 101.269 13.7586C101.805 13.7548 102.337 13.8588 102.832 14.0642C103.328 14.2697 103.777 14.5725 104.153 14.9547C104.53 15.337 104.825 15.7909 105.023 16.2895C105.221 16.7881 105.316 17.3214 105.304 17.8576V17.888C105.313 18.4269 105.215 18.9622 105.015 19.4626C104.814 19.9629 104.516 20.4182 104.137 20.8017C103.759 21.1852 103.307 21.4892 102.809 21.6959C102.311 21.9025 101.777 22.0077 101.238 22.0052C100.704 22.0077 100.175 21.9033 99.6811 21.698C99.1877 21.4927 98.7403 21.1908 98.3654 20.8099C97.9905 20.429 97.6956 19.977 97.4981 19.4804C97.3006 18.9838 97.2045 18.4527 97.2155 17.9184ZM103.566 17.9184V17.888C103.566 16.4964 102.603 15.3448 101.238 15.3448C99.8742 15.3448 98.9566 16.4812 98.9566 17.8576V17.888C98.9566 19.2645 99.9167 20.4161 101.269 20.4161C102.676 20.4191 103.566 19.2827 103.566 17.9184Z" fill="#A2ABBE"/>
<path d="M106.413 19.5537V19.5234C106.413 17.8157 107.707 16.9801 109.558 16.9801C110.252 16.9739 110.943 17.0859 111.6 17.3113V17.1169C111.6 15.9956 110.937 15.397 109.716 15.397C108.966 15.4004 108.227 15.5684 107.549 15.8893L107.075 14.4673C107.968 14.0296 108.952 13.8079 109.947 13.8201C111.083 13.8201 111.931 14.1239 112.459 14.7043C112.988 15.2846 113.28 16.1111 113.28 17.1351V21.8174H111.584V20.8299C111.291 21.2015 110.915 21.4995 110.486 21.6999C110.057 21.9004 109.587 21.9979 109.114 21.9846C107.692 21.9937 106.413 21.1399 106.413 19.5537ZM111.627 18.9855V18.4447C111.077 18.2351 110.492 18.132 109.904 18.1408C108.783 18.1408 108.123 18.6331 108.123 19.4565V19.4869C108.123 20.2496 108.768 20.6841 109.603 20.6841C110.752 20.675 111.627 19.9883 111.627 18.9855Z" fill="#A2ABBE"/>
<path d="M114.833 17.8915V17.8612C114.833 15.242 116.544 13.7622 118.351 13.7622C118.865 13.7591 119.371 13.8848 119.823 14.1279C120.276 14.3711 120.66 14.7238 120.94 15.1538V10.8999H122.678V21.8386H120.94V20.5229C120.378 21.3463 119.588 22.0057 118.351 22.0057C116.571 21.9936 114.833 20.5108 114.833 17.8915ZM120.968 17.8915V17.8612C120.968 16.3419 119.934 15.3331 118.771 15.3331C117.607 15.3331 116.586 16.3054 116.586 17.8612V17.8915C116.586 19.4108 117.592 20.4196 118.771 20.4196C119.95 20.4196 120.968 19.4047 120.968 17.8915Z" fill="#A2ABBE"/>
<path d="M124.304 17.918V17.8876C124.304 15.6422 125.969 13.7583 128.254 13.7583C128.831 13.7365 129.405 13.848 129.932 14.0841C130.459 14.3202 130.925 14.6745 131.293 15.1195L130.202 16.3349C129.67 15.7667 129.111 15.3474 128.248 15.3474C126.984 15.3474 126.051 16.4838 126.051 17.8603V17.8907C126.051 19.2975 126.984 20.4187 128.321 20.4187C129.138 20.4187 129.728 20.0298 130.287 19.4464L131.338 20.5251C130.975 21.0002 130.504 21.3823 129.964 21.64C129.424 21.8978 128.831 22.0238 128.233 22.0079C125.969 22.0079 124.304 20.1665 124.304 17.918Z" fill="#A2ABBE"/>
<path d="M132.149 17.9183V17.8879C132.147 17.3568 132.25 16.8305 132.451 16.339C132.653 15.8476 132.949 15.4006 133.323 15.0237C133.697 14.6467 134.142 14.3472 134.632 14.1421C135.122 13.937 135.647 13.8304 136.178 13.8284C136.709 13.8264 137.236 13.929 137.727 14.1304C138.219 14.3318 138.666 14.6281 139.042 15.0022C139.419 15.3763 139.719 15.821 139.924 16.311C140.129 16.8009 140.236 17.3264 140.238 17.8575V17.8879C140.247 18.4266 140.148 18.9618 139.947 19.4619C139.747 19.9621 139.449 20.4172 139.07 20.8006C138.691 21.1841 138.24 21.4881 137.743 21.6949C137.245 21.9017 136.711 22.0072 136.172 22.0051C135.638 22.0076 135.108 21.9032 134.615 21.6979C134.121 21.4926 133.674 21.1906 133.299 20.8098C132.924 20.4289 132.629 19.9769 132.432 19.4803C132.234 18.9837 132.138 18.4526 132.149 17.9183ZM138.509 17.9183V17.8879C138.509 16.4962 137.549 15.3446 136.184 15.3446C134.82 15.3446 133.899 16.481 133.899 17.8575V17.8879C133.899 19.2643 134.86 20.4159 136.212 20.4159C137.597 20.419 138.509 19.2825 138.509 17.9183Z" fill="#A2ABBE"/>
<path d="M141.851 13.9254H143.605V15.1226C144.091 14.4176 144.753 13.7613 145.917 13.7613C146.391 13.743 146.859 13.8654 147.263 14.1131C147.667 14.3608 147.988 14.7226 148.187 15.153C148.461 14.7242 148.839 14.3717 149.285 14.1284C149.732 13.885 150.233 13.7588 150.742 13.7613C152.395 13.7613 153.401 14.8521 153.401 16.7998V21.8408H151.663V17.3377C151.663 16.0797 151.104 15.4052 150.125 15.4052C149.147 15.4052 148.503 16.0949 148.503 17.368V21.8256H146.765V17.3103C146.765 16.0949 146.19 15.393 145.227 15.393C144.264 15.393 143.605 16.1435 143.605 17.3559V21.8134H141.851V13.9254Z" fill="#A2ABBE"/>
<path d="M66.3804 29.8292V29.7988C66.3804 26.8362 68.5074 24.3811 71.4669 24.3811C73.29 24.3811 74.3809 25.0557 75.3866 26.0432L74.6118 26.9122C73.764 26.0736 72.816 25.475 71.4517 25.475C69.2245 25.475 67.5594 27.3589 67.5594 29.7684V29.7988C67.5594 32.2296 69.2397 34.1257 71.4517 34.1257C72.8312 34.1257 73.7367 33.5726 74.6969 32.6064L75.4444 33.3691C74.3961 34.4781 73.2475 35.2104 71.4213 35.2104C68.5196 35.2165 66.3804 32.8373 66.3804 29.8292Z" fill="#A2ABBE"/>
<path d="M76.5531 31.2053V31.1749C76.5531 28.9902 78.1908 27.1367 80.4332 27.1367C82.6757 27.1367 84.2952 28.9598 84.2952 31.1476V31.1749C84.2952 33.3596 82.6453 35.2162 80.4029 35.2162C78.1604 35.2162 76.5531 33.39 76.5531 31.2053ZM83.1618 31.2053V31.1749C83.1618 29.5159 81.9707 28.1516 80.4029 28.1516C78.835 28.1516 77.6895 29.5159 77.6895 31.1476V31.1749C77.6895 32.837 78.8654 34.1831 80.4241 34.1831C81.9829 34.1831 83.1618 32.837 83.1618 31.2053Z" fill="#A2ABBE"/>
<path d="M86.152 27.3006H87.258V28.6011C87.7472 27.8385 88.4066 27.1365 89.6584 27.1365C90.1648 27.1237 90.6633 27.2639 91.0888 27.5387C91.5143 27.8135 91.8471 28.2102 92.0437 28.6771C92.5754 27.8233 93.3654 27.1365 94.6568 27.1365C96.3675 27.1365 97.4158 28.3337 97.4158 30.248V35.0367H96.3098V30.5184C96.3098 29.0204 95.5896 28.1818 94.3833 28.1818C93.2621 28.1818 92.3293 29.0508 92.3293 30.5762V35.0367H91.2385V30.4789C91.2385 29.0265 90.5062 28.1727 89.3272 28.1727C88.1483 28.1727 87.258 29.1906 87.258 30.6035V35.0185H86.152V27.3006Z" fill="#A2ABBE"/>
<path d="M99.6303 27.3008H100.736V28.8565C101.344 27.945 102.216 27.1367 103.58 27.1367C105.361 27.1367 107.129 28.6013 107.129 31.1476V31.1749C107.129 33.706 105.376 35.201 103.58 35.201C102.201 35.201 101.311 34.4231 100.736 33.5571V37.4312H99.6303V27.3008ZM105.996 31.1901V31.1628C105.996 29.3396 104.781 28.1668 103.383 28.1668C101.985 28.1668 100.697 29.3822 100.697 31.1476V31.1749C100.697 32.9707 102.003 34.1679 103.383 34.1679C104.817 34.1679 105.996 33.0618 105.996 31.1901Z" fill="#A2ABBE"/>
<path d="M108.467 32.8068V32.7794C108.467 31.1477 109.761 30.2787 111.642 30.2787C112.416 30.2713 113.187 30.3819 113.927 30.6069V30.3395C113.927 28.9478 113.107 28.2125 111.715 28.2125C110.928 28.2225 110.155 28.4171 109.457 28.7807L109.129 27.8388C109.966 27.4132 110.892 27.1924 111.831 27.1946C112.879 27.1946 113.684 27.4802 114.228 28.0484C114.732 28.571 114.991 29.3216 114.991 30.3091V35.037H113.927V33.8702C113.621 34.2936 113.217 34.636 112.749 34.8679C112.281 35.0998 111.763 35.2142 111.241 35.2011C109.862 35.2011 108.467 34.3777 108.467 32.8068ZM113.936 32.199V31.4516C113.228 31.2349 112.492 31.1243 111.752 31.1234C110.357 31.1234 109.582 31.7524 109.582 32.7247V32.7551C109.582 33.7274 110.445 34.2956 111.451 34.2956C112.821 34.2895 113.942 33.4145 113.942 32.199H113.936Z" fill="#A2ABBE"/>
<path d="M117.205 27.3017H118.311V28.6478C118.55 28.1817 118.914 27.7921 119.363 27.5234C119.812 27.2548 120.328 27.1179 120.852 27.1285C122.647 27.1285 123.699 28.3834 123.699 30.2248V35.0287H122.59V30.5195C122.59 29.0823 121.845 28.1829 120.535 28.1829C119.226 28.1829 118.311 29.1582 118.311 30.6137V35.0439H117.205V27.3017Z" fill="#A2ABBE"/>
<path d="M131.256 27.3018H132.432L129.314 35.2931C128.682 36.8944 127.962 37.4778 126.844 37.4778C126.293 37.4844 125.749 37.3506 125.264 37.0888L125.634 36.1773C125.99 36.3747 126.392 36.4723 126.798 36.4599C127.461 36.4599 127.877 36.1013 128.317 35.0075L124.942 27.3018H126.157L128.858 33.7525L131.256 27.3018Z" fill="#A2ABBE"/>
<path d="M49.9874 42.7887H48.5957V48.6804H49.9874V42.7887ZM49.9874 40.3852H48.5957V41.7009H49.9874V40.3852ZM43.5244 49.2456C43.5244 48.9964 43.7554 48.5649 44.515 48.5649C45.8672 48.5649 46.2834 48.9721 46.2834 49.2456C46.2834 49.4491 45.9796 49.9019 45.068 49.9019C43.8982 49.9019 43.5123 49.6953 43.5123 49.2456M43.7493 44.6878C43.7488 44.5566 43.7749 44.4266 43.826 44.3058C43.8772 44.185 43.9524 44.0758 44.047 43.9849C44.1416 43.894 44.2537 43.8232 44.3764 43.7769C44.4992 43.7306 44.6301 43.7097 44.7611 43.7154C45.0198 43.7154 45.2679 43.8182 45.4508 44.0011C45.6337 44.184 45.7365 44.4321 45.7365 44.6908C45.7365 44.9495 45.6337 45.1976 45.4508 45.3805C45.2679 45.5634 45.0198 45.6662 44.7611 45.6662C44.6296 45.6715 44.4984 45.6501 44.3755 45.6033C44.2525 45.5564 44.1403 45.4851 44.0457 45.3936C43.9511 45.3022 43.8761 45.1924 43.8251 45.0711C43.7742 44.9498 43.7484 44.8194 43.7493 44.6878ZM42.23 49.4218C42.23 50.3546 43.2631 50.8286 44.8371 50.8286C46.6997 50.8286 47.5475 49.9171 47.5475 49.0845C47.5475 46.7266 43.7007 48.018 43.7007 47.0669C43.7007 46.7266 44.1838 46.7054 44.7885 46.7054C46.247 46.7054 46.9944 45.9093 46.9944 44.8032C47.0101 44.431 46.9034 44.0638 46.6906 43.758C46.9781 43.6365 47.2916 43.5895 47.6022 43.6213V42.6702C46.9367 42.6459 46.5022 42.8312 46.2287 43.1928C45.8224 42.8634 45.3176 42.6794 44.7946 42.6702C43.2753 42.6702 42.4883 43.6911 42.4883 44.7242C42.4883 45.4413 42.8712 45.891 43.3513 46.283C43.093 46.362 42.4397 46.7935 42.4397 47.3586C42.4397 47.9967 43.0474 48.1426 43.3026 48.3127V48.337C43.1609 48.3339 43.02 48.3601 42.8888 48.4139C42.7576 48.4678 42.6389 48.5481 42.5402 48.65C42.4415 48.7518 42.3649 48.8729 42.3152 49.0057C42.2655 49.1385 42.2437 49.2802 42.2513 49.4218M38.1584 45.733C38.1584 44.4173 38.5291 43.8036 39.3039 43.8036C40.0788 43.8036 40.4525 44.4113 40.4525 45.733C40.4525 47.0548 40.0818 47.6564 39.3039 47.6564C38.5261 47.6564 38.1584 47.0487 38.1584 45.733ZM36.7668 45.733C36.7668 47.5987 37.7178 48.7898 39.3039 48.7898C40.89 48.7898 41.8441 47.5987 41.8441 45.733C41.8441 43.8674 40.89 42.6702 39.3039 42.6702C37.7178 42.6702 36.7668 43.8613 36.7668 45.733ZM35.6273 40.4976H34.2387V48.6774H35.6273V40.5007V40.4976ZM29.4257 45.7361C29.4257 44.4204 29.7964 43.8066 30.5712 43.8066C31.346 43.8066 31.7167 44.4143 31.7167 45.7361C31.7167 47.0578 31.3491 47.6595 30.5712 47.6595C29.7934 47.6595 29.4257 47.0517 29.4257 45.7361ZM28.0341 45.7361C28.0341 47.6017 28.9851 48.7928 30.5712 48.7928C32.1573 48.7928 33.1145 47.6017 33.1145 45.7361C33.1145 43.8704 32.1604 42.6732 30.5712 42.6732C28.9821 42.6732 28.0341 43.8643 28.0341 45.7361ZM23.5127 42.7887H22.2305V48.6804H23.6282V44.4265C23.7889 44.237 23.9878 44.0835 24.2119 43.9762C24.436 43.8688 24.6803 43.81 24.9287 43.8036C25.4027 43.8036 25.6518 44.0558 25.6518 44.8519V48.6774H27.0435V44.6574C27.0435 43.442 26.4814 42.6854 25.3146 42.6854C24.6248 42.6854 24.0323 43.0743 23.5127 43.4329V42.7887ZM17.3628 40.5007H15.9681V48.6804H17.3628V44.4265C17.5246 44.2375 17.7241 44.0844 17.9486 43.9771C18.1731 43.8698 18.4176 43.8107 18.6663 43.8036C19.1373 43.8036 19.3864 44.0558 19.3864 44.8519V48.6774H20.7811V44.6574C20.7811 43.442 20.2159 42.6854 19.0431 42.6854C18.4127 42.7301 17.818 42.9946 17.3628 43.4329V40.5007ZM10.0703 45.7361C10.0703 47.6017 11.0214 48.7928 12.6014 48.7928C13.674 48.7928 14.382 48.3735 14.9441 47.3222L13.8867 46.7145C13.6071 47.228 13.2607 47.6503 12.653 47.6503C11.8266 47.6503 11.4559 47.0426 11.4559 45.7269C11.4559 44.4113 11.8266 43.7975 12.6014 43.7975C13.282 43.7975 13.5281 44.1895 13.753 44.709L14.9107 44.2563C14.7512 43.7771 14.439 43.3634 14.0219 43.0785C13.6048 42.7937 13.1058 42.6535 12.6014 42.6793C11.0214 42.6793 10.0703 43.8704 10.0703 45.7421M5.68874 45.0159C5.71305 44.1986 6.13844 43.7246 6.813 43.7246C7.48755 43.7246 7.91598 44.1986 7.93725 45.0159H5.68874ZM4.2971 45.7421C4.2971 47.6078 5.25119 48.7989 6.76742 48.7989C7.89471 48.7989 8.67865 48.4373 9.21951 47.5835L8.20464 46.9454C7.85825 47.3526 7.55743 47.6503 6.90415 47.6503C6.25087 47.6503 5.71305 47.1763 5.68874 45.9548H9.21039V45.3745C9.21039 43.9616 8.35353 42.655 6.82211 42.6641C5.24208 42.6641 4.28798 43.8552 4.28798 45.7269M1.06714 40.8288V42.7796H0.255859V43.9099H1.06714V47.4255C1.06714 48.2641 1.47127 48.7837 2.50133 48.7837C2.87151 48.7759 3.24088 48.7454 3.60735 48.6925V47.5379C3.39724 47.5982 3.18129 47.6359 2.96318 47.6503C2.61679 47.6503 2.45879 47.5561 2.45879 47.2432V43.9008H3.59824V42.7705H2.45879V40.8197L1.06714 40.8288ZM18.5782 0.294922C7.99194 0.294922 1.77512 7.76969 1.77512 18.0916C1.77512 28.0154 7.7914 35.238 17.9826 35.238C20.7694 35.2588 23.5211 34.6162 26.0104 33.3632C24.1052 31.7193 22.6954 29.325 22.5647 26.016C21.6744 26.8759 20.3952 27.3044 18.9185 27.3044C14.0204 27.3044 12.647 23.6186 12.647 17.3046C12.647 11.0847 14.1237 7.715 18.8942 7.715C21.8598 7.715 24.005 9.3163 24.005 12.3579H33.2421C32.5827 4.37566 26.2626 0.294922 18.5782 0.294922ZM43.8891 19.8114C43.8891 22.6281 43.8405 24.1443 42.5643 26.089C42.0458 26.9237 41.3258 27.6147 40.4704 28.0984C39.615 28.5821 38.6518 28.843 37.6692 28.8571C34.9558 28.8571 32.6951 27.6234 32.6951 24.673C32.6951 20.337 39.0396 18.7935 43.8891 18.517V19.8114ZM44.8006 34.5664H54.2352C53.7543 32.9349 53.5318 31.2381 53.5759 29.5377V12.0479C53.5759 7.794 52.7737 5.43611 50.5009 3.36079C48.3496 1.38575 44.8249 0.294922 40.0605 0.294922C35.9403 0.294922 32.3822 1.17002 29.6718 2.85336C31.7824 4.64455 33.2715 7.05804 33.9258 9.74777C34.8373 8.31359 36.6209 7.68765 38.9272 7.68765C42.7344 7.68765 43.8374 10.3433 43.8708 12.5736L43.8982 13.6371C33.3758 14.1506 23.455 16.1104 23.6525 25.7335C23.7832 32.4759 29.8906 35.2319 34.0838 35.2288C38.9454 35.2288 41.6801 33.9253 44.36 30.6012C44.3972 31.9287 44.5507 33.2505 44.8189 34.5513M54.7731 44.9947H52.5185C52.5398 44.1773 52.9682 43.7033 53.6397 43.7033C54.3112 43.7033 54.7396 44.1773 54.767 44.9947M56.0492 45.3684C56.0492 43.9555 55.1954 42.6489 53.664 42.658C52.0779 42.658 51.1238 43.8491 51.1238 45.7209C51.1238 47.5926 52.0779 48.7776 53.5941 48.7776C54.7214 48.7776 55.5054 48.416 56.0492 47.5622L55.0405 46.9241C54.685 47.3313 54.3841 47.6291 53.7309 47.6291C53.0776 47.6291 52.5398 47.1551 52.5154 45.9336H56.0462L56.0492 45.3684ZM57.7417 32.64H57.4925V32.0475H57.7539C57.9787 32.0475 58.1063 32.1508 58.1063 32.3514C58.1063 32.5519 57.9696 32.6552 57.7417 32.6552M58.6168 33.6883L58.0486 32.8801C58.1687 32.8501 58.2748 32.7796 58.3489 32.6805C58.4231 32.5815 58.4608 32.4598 58.4558 32.3362C58.4558 31.9624 58.1701 31.7588 57.7539 31.7588H57.1462V33.7187H57.4865V32.9044H57.684L58.2917 33.7552L58.6168 33.6883ZM59.2762 32.8132C59.2927 33.0196 59.2652 33.2271 59.1955 33.4221C59.1258 33.617 59.0155 33.7949 58.8718 33.944C58.7282 34.0931 58.5545 34.21 58.3623 34.2869C58.1701 34.3638 57.9637 34.3991 57.7569 34.3902C56.9274 34.3902 56.2589 33.825 56.2589 32.8132C56.2589 31.8014 56.9274 31.2241 57.7569 31.2241C57.9645 31.2165 58.1713 31.253 58.3637 31.3312C58.5562 31.4093 58.7299 31.5273 58.8734 31.6775C59.0169 31.8276 59.127 32.0064 59.1964 32.2022C59.2659 32.398 59.293 32.6062 59.2762 32.8132ZM59.5132 32.8132C59.5048 32.4689 59.395 32.1346 59.1975 31.8524C59.0001 31.5702 58.7237 31.3525 58.4031 31.2266C58.0825 31.1007 57.7318 31.0723 57.3951 31.1448C57.0584 31.2173 56.7505 31.3875 56.5101 31.6342C56.2697 31.8809 56.1074 32.193 56.0436 32.5315C55.9798 32.87 56.0173 33.2198 56.1514 33.5371C56.2855 33.8544 56.5102 34.125 56.7974 34.3152C57.0846 34.5053 57.4216 34.6064 57.766 34.6059C58.0017 34.6137 58.2364 34.5719 58.455 34.4835C58.6735 34.3951 58.8712 34.2618 59.0352 34.0924C59.1992 33.923 59.3259 33.7211 59.4072 33.4997C59.4884 33.2784 59.5225 33.0424 59.5071 32.8071M60.0358 44.3535L60.9139 43.5878C60.6578 43.2948 60.3407 43.0614 59.9848 42.9039C59.6289 42.7465 59.2429 42.6688 58.8538 42.6763C57.845 42.6763 56.9243 43.284 56.9243 44.387C56.9243 46.441 59.8474 46.0794 59.8474 47.0821C59.8474 47.4802 59.5101 47.7506 59.0149 47.7506C58.4071 47.7506 57.9787 47.3556 57.6536 46.9029L56.7208 47.6048C56.9565 47.9762 57.2838 48.2808 57.6712 48.4893C58.0585 48.6979 58.4929 48.8035 58.9328 48.7959C60.1482 48.7959 61.081 48.252 61.081 47.0305C61.081 44.8731 58.161 45.3076 58.161 44.2958C58.161 43.9433 58.4041 43.7185 58.945 43.7185C59.1584 43.741 59.365 43.8065 59.5524 43.9109C59.7399 44.0154 59.9043 44.1566 60.0358 44.3262" fill="#5D5D75"/>
</svg>
