<svg width="107" height="43" viewBox="0 0 107 43" fill="none" xmlns="http://www.w3.org/2000/svg">
<path d="M0.554688 39.9172H21.0863V42.8563H0.554688V39.9172Z" fill="#5D5D75"/>
<path d="M0.554688 34.2803H21.0863V37.2297H0.554688V34.2803Z" fill="#5D5D75"/>
<path d="M6.41168 28.6523H15.2184V31.6019H6.41168V28.6523Z" fill="#5D5D75"/>
<path d="M6.41168 23.0261H15.2184V25.9757H6.41168V23.0261Z" fill="#5D5D75"/>
<path d="M6.41168 17.3989H15.2184V20.3485H6.41168V17.3989Z" fill="#5D5D75"/>
<path d="M6.41168 11.761H15.2184V14.7105H6.41168V11.761Z" fill="#5D5D75"/>
<path d="M21.0863 6.13403H0.554688V9.08358H21.0863V6.13403Z" fill="#5D5D75"/>
<path d="M21.0863 0.506836H0.554688V3.45639H21.0863V0.506836Z" fill="#5D5D75"/>
<path d="M24.0165 37.2298H55.5933C56.1266 36.3199 56.5241 35.3262 56.7648 34.2803H24.0165V37.2298Z" fill="#5D5D75"/>
<path d="M53.1355 23.0261H29.8844V25.9757H55.5935C54.924 24.846 54.0977 23.8524 53.1355 23.0261Z" fill="#5D5D75"/>
<path d="M29.8844 17.3989V20.3485H53.1355C54.1187 19.5222 54.9449 18.5285 55.5935 17.3989H29.8844Z" fill="#5D5D75"/>
<path d="M55.5934 6.13403H24.0165V9.08358H56.7648C56.4928 8.03764 56.0954 7.04407 55.5934 6.13403Z" fill="#5D5D75"/>
<path d="M45.887 0.506836H24.0164V3.45639H53.4281C51.4618 1.63641 48.7947 0.506836 45.887 0.506836Z" fill="#5D5D75"/>
<path d="M38.6806 11.761H29.8844V14.7105H38.6806V11.761Z" fill="#5D5D75"/>
<path d="M47.4868 14.7105H56.691C56.9524 13.7692 57.0884 12.7756 57.0884 11.761H47.4868V14.7105Z" fill="#5D5D75"/>
<path d="M29.8844 28.6523H38.6806V31.6019H29.8844V28.6523Z" fill="#5D5D75"/>
<path d="M47.4868 28.6523V31.6019H57.0884C57.0884 30.5873 56.9524 29.5937 56.691 28.6523H47.4868Z" fill="#5D5D75"/>
<path d="M24.0165 42.8354L45.8871 42.8668C48.8157 42.8668 51.4619 41.7372 53.4386 39.9172H24.0165V42.8354Z" fill="#5D5D75"/>
<path d="M59.2212 39.9172H73.8851V42.8563H59.2212V39.9172Z" fill="#5D5D75"/>
<path d="M59.2212 34.2803H73.8851V37.2297H59.2212V34.2803Z" fill="#5D5D75"/>
<path d="M65.0782 28.6523H73.8849V31.6019H65.0782V28.6523Z" fill="#5D5D75"/>
<path d="M65.0782 23.0261H73.8849V25.9757H65.0782V23.0261Z" fill="#5D5D75"/>
<path d="M77.9644 6.13403H59.2212V9.08358H78.9788L77.9644 6.13403Z" fill="#5D5D75"/>
<path d="M76.0189 0.506836H59.2213V3.45639H77.0335L76.0189 0.506836Z" fill="#5D5D75"/>
<path d="M91.4779 39.9172H106.152V42.8563H91.4779V39.9172Z" fill="#5D5D75"/>
<path d="M91.4779 34.2803H106.152V37.2297H91.4779V34.2803Z" fill="#5D5D75"/>
<path d="M91.4779 28.6523H100.285V31.6019H91.4779V28.6523Z" fill="#5D5D75"/>
<path d="M91.4779 23.0261H100.285V25.9757H91.4779V23.0261Z" fill="#5D5D75"/>
<path d="M91.4776 20.3485H100.284V17.3989H91.4776H83.5076L82.6813 19.7837L81.855 17.3989H73.8849H65.0782V20.3485H73.8849V17.6395L74.8159 20.3485H90.5468L91.4776 17.6395V20.3485Z" fill="#5D5D75"/>
<path d="M100.285 11.761H85.4537L84.4391 14.7105H100.285V11.761Z" fill="#5D5D75"/>
<path d="M89.3548 0.506836L88.3402 3.45639H106.153V0.506836H89.3548Z" fill="#5D5D75"/>
<path d="M82.6824 42.8354L83.6969 39.9172H81.6678L82.6824 42.8354Z" fill="#5D5D75"/>
<path d="M80.7366 37.2297H84.6274L85.6734 34.2803H79.7011L80.7366 37.2297Z" fill="#5D5D75"/>
<path d="M78.759 31.6019H86.6035L87.639 28.6523H77.7235L78.759 31.6019Z" fill="#5D5D75"/>
<path d="M76.793 25.9757H88.5806L89.5847 23.0261H75.7784L76.793 25.9757Z" fill="#5D5D75"/>
<path d="M65.0782 14.7105H80.9241L79.9096 11.761H65.0782V14.7105Z" fill="#5D5D75"/>
<path d="M86.3941 9.08358H106.152V6.13403H87.3982L86.3941 9.08358Z" fill="#5D5D75"/>
</svg>
