<svg width="160" height="47" viewBox="0 0 160 47" fill="none" xmlns="http://www.w3.org/2000/svg">
<path d="M0.339844 8.09204H31.458V15.6034H7.84996V39.2102H0.339844V8.09204Z" fill="#5D5D75"/>
<path d="M31.457 15.6023H38.9684V46.7205H7.8502V39.2104H31.457V15.6023Z" fill="#5D5D75"/>
<path d="M66.0204 24.7567V8.10474H62.8288L57.0813 16.3929L51.3351 8.10474H48.0692V24.7567H51.3351V13.8384L56.0754 20.7504H58.0394L62.7545 13.8384V24.7567H66.0204Z" fill="#5D5D75"/>
<path d="M77.6713 8.10474H74.4041V24.7567H77.6713V8.10474Z" fill="#5D5D75"/>
<path d="M102.387 23.1045V19.3728L99.1211 19.7732V21.5018H89.3221V11.3603H99.1211V13.1129L102.387 13.4893V9.78274C102.387 8.83091 101.674 8.10571 100.742 8.10571H87.6766C86.7688 8.10571 86.0562 8.83091 86.0562 9.78274V23.1045C86.0562 24.0299 86.7688 24.7564 87.6766 24.7564H100.742C101.674 24.7564 102.387 24.0299 102.387 23.1045Z" fill="#5D5D75"/>
<path d="M127.104 24.7567L122.192 18.0964H125.459C126.39 18.0964 127.104 17.3699 127.104 16.4446V9.78302C127.104 8.8312 126.39 8.10474 125.459 8.10474H110.772V24.7567H114.039V18.0964H118.092L122.977 24.7567H127.104ZM123.837 14.8406H114.041V11.3593H123.837V14.8406Z" fill="#5D5D75"/>
<path d="M151.819 23.1036V9.78302C151.819 8.8312 151.108 8.10474 150.175 8.10474H137.11C136.201 8.10474 135.488 8.8312 135.488 9.78302V23.1036C135.488 24.0315 136.201 24.7567 137.11 24.7567H150.175C151.108 24.7567 151.819 24.0315 151.819 23.1036ZM148.553 21.5008H138.755V11.3606H148.553V21.5008Z" fill="#5D5D75"/>
<path d="M64.3991 33.3068V30.0522H48.0682V46.7029H51.3341V40.0162H61.1319V36.7364H51.3341V33.3068H64.3991Z" fill="#5D5D75"/>
<path d="M85.2795 45.0511V31.7293C85.2795 30.7774 84.5669 30.0522 83.6327 30.0522H70.569C69.6612 30.0522 68.9499 30.7774 68.9499 31.7293V45.0511C68.9499 45.9777 69.6612 46.7029 70.569 46.7029H83.6327C84.5669 46.7029 85.2795 45.9777 85.2795 45.0511ZM82.0136 43.4483H72.2158V33.3081H82.0136V43.4483Z" fill="#5D5D75"/>
<path d="M107.457 45.0514V41.3196L104.191 41.72V43.4486H94.3932V33.3084H104.191V35.061L107.457 35.4349V31.7296C107.457 30.7777 106.746 30.0513 105.811 30.0513H92.7476C91.8386 30.0513 91.1273 30.7777 91.1273 31.7296V45.0514C91.1273 45.978 91.8386 46.7032 92.7476 46.7032H105.811C106.746 46.7032 107.457 45.978 107.457 45.0514Z" fill="#5D5D75"/>
<path d="M129.636 45.0514V30.0513H126.372V43.4486H116.571V30.0513H113.307V45.0514C113.307 45.978 114.018 46.7032 114.926 46.7032H127.991C128.925 46.7032 129.636 45.978 129.636 45.0514Z" fill="#5D5D75"/>
<path d="M151.814 45.0514V38.415C151.814 37.4896 151.103 36.738 150.169 36.738H138.749V33.3084H148.55V35.061L151.814 35.4349V31.7296C151.814 30.7777 151.103 30.0513 150.169 30.0513H137.104C136.196 30.0513 135.486 30.7777 135.486 31.7296V38.3407C135.486 39.2674 136.196 40.0178 137.104 40.0178H148.55V43.4486H138.749V41.72L135.486 41.3196V45.0514C135.486 45.978 136.196 46.7032 137.104 46.7032H150.169C151.103 46.7032 151.814 45.978 151.814 45.0514Z" fill="#5D5D75"/>
<path d="M155.48 7.0682C157.427 7.0682 159.013 5.48182 159.013 3.5341C159.013 1.58638 157.427 0 155.48 0C153.531 0 151.946 1.58638 151.946 3.5341C151.946 5.48182 153.531 7.0682 155.48 7.0682ZM155.48 6.38329C154.001 6.38329 152.807 5.18847 152.807 3.5341C152.807 1.87973 154.001 0.686172 155.48 0.686172C156.957 0.686172 158.153 1.87973 158.153 3.5341C158.153 5.18847 156.957 6.38329 155.48 6.38329ZM154.119 5.52211H154.863V3.79975H155.315L156.351 5.52211H157.114L156.038 3.76954C156.694 3.71036 157.085 3.37798 157.085 2.69307C157.085 1.85078 156.565 1.51839 155.607 1.51839H154.119V5.52211ZM154.863 2.08495H155.528C155.911 2.08495 156.341 2.16427 156.341 2.63389C156.341 3.1715 155.958 3.23193 155.519 3.23193H154.863V2.08495Z" fill="#5D5D75"/>
</svg>
