<svg width="136" height="51" viewBox="0 0 136 51" fill="none" xmlns="http://www.w3.org/2000/svg">
<mask id="mask0_159_305" style="mask-type:luminance" maskUnits="userSpaceOnUse" x="0" y="16" width="18" height="10">
<path d="M0 16.7026H17.2349V25.6179H0V16.7026Z" fill="white"/>
</mask>
<g mask="url(#mask0_159_305)">
<path fill-rule="evenodd" clip-rule="evenodd" d="M13.0631 20.6162C11.1843 19.7386 9.22689 18.9852 7.19189 18.3566C5.15638 17.7285 3.03138 17.1769 0.814815 16.7026C0.814815 16.7026 0.372537 17.7734 -0.0309448 19.352C3.83265 20.3901 7.30621 21.7843 10.3897 23.533C11.5154 24.1723 12.6161 24.8711 13.6962 25.6179C14.9072 24.7749 16.0866 23.8646 17.235 22.8881C15.8931 22.0481 14.5037 21.2897 13.0631 20.6162Z" fill="#A2ABBE"/>
</g>
<path fill-rule="evenodd" clip-rule="evenodd" d="M25.317 29.8187C24.7015 29.1091 24.0621 28.4235 23.3953 27.7669C22.6132 26.9962 21.8155 26.2759 21.0044 25.603C19.8333 26.5856 18.5908 27.5046 17.2753 28.3583C18.2509 29.182 19.2089 30.0479 20.1437 30.9684C20.9894 31.8012 21.7907 32.656 22.5568 33.5286C22.8123 33.1338 23.0736 32.7421 23.3436 32.3565C23.9478 31.4946 24.6063 30.649 25.317 29.8187Z" fill="#A2ABBE"/>
<path fill-rule="evenodd" clip-rule="evenodd" d="M27.5329 40.3789C29.2942 43.3746 30.6723 46.7579 31.6675 50.5274C33.1692 50.1662 34.3435 49.718 34.3435 49.718C33.7408 45.4249 32.4761 41.3926 30.5497 37.6211C29.8084 36.1698 28.9973 34.7925 28.12 33.4849C27.1211 34.6315 26.1916 35.8072 25.3318 37.0108C26.1192 38.1065 26.8563 39.2272 27.5329 40.3789Z" fill="#A2ABBE"/>
<path fill-rule="evenodd" clip-rule="evenodd" d="M40.2207 27.6734C39.0863 27.031 37.9767 26.3281 36.8879 25.5747C35.6738 26.4208 34.4944 27.3321 33.3491 28.3081C34.7018 29.1572 36.1 29.9193 37.5469 30.5911C39.4138 31.4566 41.3644 32.2044 43.4 32.8319C45.4355 33.461 47.5605 34.0117 49.7765 34.4864C49.7765 34.4864 50.1314 33.7519 50.6373 31.8055C46.7613 30.7883 43.2887 29.4104 40.2207 27.6734Z" fill="#A2ABBE"/>
<path fill-rule="evenodd" clip-rule="evenodd" d="M25.2817 21.3746C25.9066 22.0964 26.5558 22.7922 27.2324 23.458C28.0021 24.2165 28.7869 24.925 29.5845 25.5888C30.7546 24.6041 31.995 23.6837 33.3079 22.8299C32.3478 22.0175 31.4053 21.1637 30.4841 20.257C29.6285 19.4145 28.8194 18.5516 28.0466 17.6714C27.8019 18.0483 27.5536 18.4227 27.2945 18.792C26.6805 19.6697 26.007 20.5295 25.2817 21.3746Z" fill="#A2ABBE"/>
<path fill-rule="evenodd" clip-rule="evenodd" d="M23.0769 10.8276C21.3279 7.8441 19.9556 4.44956 18.9619 0.646484C17.6764 0.954663 16.2487 1.47067 16.2487 1.47067C16.8514 5.76428 18.1213 9.80269 20.0601 13.5854C20.8013 15.0305 21.6088 16.4028 22.4815 17.7048C23.4819 16.5597 24.4115 15.3866 25.2696 14.1854C24.4834 13.0918 23.7493 11.9737 23.0769 10.8276Z" fill="#A2ABBE"/>
<path fill-rule="evenodd" clip-rule="evenodd" d="M40.3072 23.4092C43.354 21.6717 46.7945 20.3142 50.6286 19.3341C50.1558 17.4794 49.7911 16.7026 49.7911 16.7026C45.4314 17.2951 41.3371 18.541 37.5072 20.438C36.0339 21.1679 34.6352 21.9661 33.3079 22.83C34.4728 23.8152 35.6656 24.7306 36.888 25.5761C37.9996 24.8009 39.1382 24.0755 40.3072 23.4092Z" fill="#A2ABBE"/>
<path fill-rule="evenodd" clip-rule="evenodd" d="M29.5837 25.5884C28.8621 26.1951 28.1658 26.8252 27.499 27.4818C26.7221 28.2464 25.9963 29.0262 25.3171 29.8188C26.3176 30.9711 27.2523 32.1926 28.1193 33.4854C28.95 32.5323 29.8232 31.5971 30.7507 30.6838C31.5954 29.8519 32.4629 29.0634 33.3485 28.309C32.9559 28.0625 32.5658 27.8108 32.181 27.5495C31.299 26.95 30.4336 26.2949 29.5837 25.5884Z" fill="#A2ABBE"/>
<path fill-rule="evenodd" clip-rule="evenodd" d="M20.2367 37.6566C19.3455 39.5072 18.5809 41.4342 17.9426 43.4377C17.3048 45.4426 16.7451 47.5347 16.2625 49.7179C16.2625 49.7179 17.626 50.215 18.9565 50.538C20.0102 46.739 21.4249 43.3225 23.1992 40.2897C23.8526 39.1726 24.5669 38.082 25.331 37.0107C24.4723 35.8167 23.5474 34.6559 22.5568 33.5281C21.6986 34.8555 20.9242 36.2309 20.2367 37.6566Z" fill="#A2ABBE"/>
<path fill-rule="evenodd" clip-rule="evenodd" d="M23.3444 32.3564C23.0744 32.742 22.8132 33.1337 22.5576 33.5285C23.5482 34.6562 24.4731 35.8171 25.3318 37.0111C26.1915 35.8074 27.1211 34.6318 28.12 33.4852C27.253 32.1923 26.3183 30.9708 25.3178 29.8186C24.6071 30.6489 23.9486 31.4945 23.3444 32.3564Z" fill="#5D5D75"/>
<mask id="mask1_159_305" style="mask-type:luminance" maskUnits="userSpaceOnUse" x="0" y="22" width="37" height="13">
<path d="M0 22.8289H36.8875V34.4811H0V22.8289Z" fill="white"/>
</mask>
<g mask="url(#mask1_159_305)">
<path fill-rule="evenodd" clip-rule="evenodd" d="M33.3081 22.8291C31.9952 23.6828 30.7548 24.6033 29.5847 25.5879C30.4346 26.2945 31.3 26.9495 32.1819 27.5491C32.5668 27.8104 32.9568 28.062 33.3494 28.3086C34.4947 27.3326 35.6741 26.4213 36.8882 25.5752C35.6658 24.7296 34.473 23.8143 33.3081 22.8291Z" fill="#5D5D75"/>
</g>
<mask id="mask2_159_305" style="mask-type:luminance" maskUnits="userSpaceOnUse" x="0" y="22" width="37" height="13">
<path d="M0 22.8289H36.8875V34.4811H0V22.8289Z" fill="white"/>
</mask>
<g mask="url(#mask2_159_305)">
<path fill-rule="evenodd" clip-rule="evenodd" d="M10.3137 27.7571C7.28242 29.4809 3.83368 30.8328 -0.0309448 31.8108C0.308911 33.2177 0.811194 34.4815 0.811194 34.4815C5.1719 33.8881 9.27189 32.637 13.1138 30.7279C14.5735 30.0025 15.9604 29.2119 17.2758 28.3582C16.1119 27.3756 14.9186 26.4617 13.6962 25.6172C12.5939 26.3843 11.4683 27.1005 10.3137 27.7571Z" fill="#A2ABBE"/>
</g>
<path fill-rule="evenodd" clip-rule="evenodd" d="M30.3828 13.5089C31.2627 11.671 32.0211 9.75009 32.6589 7.74515C33.2977 5.74072 33.8569 3.64816 34.339 1.46596C34.339 1.46596 32.8555 0.924989 31.6114 0.637695C30.5789 4.44739 29.1817 7.85925 27.4204 10.8758C26.7624 12.0031 26.0418 13.1049 25.269 14.1858C26.1266 15.3788 27.0521 16.5402 28.0458 17.671C28.9153 16.3298 29.6964 14.9438 30.3828 13.5089Z" fill="#A2ABBE"/>
<path fill-rule="evenodd" clip-rule="evenodd" d="M21.0045 25.6029C21.7442 24.9824 22.4571 24.3375 23.1388 23.6657C23.9008 22.9153 24.6131 22.1513 25.2809 21.3739C24.2826 20.2217 23.3489 18.9992 22.4809 17.7048C21.662 18.6421 20.8012 19.5636 19.8877 20.4637C19.0233 21.3143 18.1377 22.1192 17.2346 22.8873C17.6427 23.1425 18.0467 23.4043 18.446 23.6753C19.314 24.2652 20.1665 24.9091 21.0045 25.6029Z" fill="#A2ABBE"/>
<path fill-rule="evenodd" clip-rule="evenodd" d="M18.4462 23.6747C18.0469 23.4037 17.6429 23.1419 17.2347 22.8867C16.0864 23.8632 14.9069 24.7735 13.696 25.6165C14.9183 26.4611 16.1117 27.3749 17.2756 28.3575C18.591 27.5038 19.8336 26.5849 21.0047 25.6023C20.1667 24.9085 19.3142 24.2646 18.4462 23.6747Z" fill="#5D5D75"/>
<path fill-rule="evenodd" clip-rule="evenodd" d="M27.2943 18.7917C27.5534 18.4224 27.8017 18.048 28.0464 17.671C27.0527 16.5402 26.1273 15.3788 25.2696 14.1858C24.4114 15.3869 23.4819 16.56 22.4814 17.7051C23.3494 18.9995 24.2831 20.222 25.2815 21.3742C26.0067 20.5292 26.6802 19.6693 27.2943 18.7917Z" fill="#5D5D75"/>
<path fill-rule="evenodd" clip-rule="evenodd" d="M63.9231 25.5882C63.9231 29.1422 64.9453 33.1561 68.9185 33.1561C73.152 33.1561 73.9134 29.1422 73.9134 25.5882C73.9134 22.0332 72.9849 18.0202 68.9185 18.0202C64.803 18.0202 63.9231 22.0332 63.9231 25.5882ZM59.1201 25.5882C59.1201 19.4817 62.4007 14.8096 68.9185 14.8096C75.5061 14.8096 78.7164 19.4817 78.7164 25.5882C78.7164 31.6942 75.578 36.3668 68.9185 36.3668C62.2342 36.3668 59.1201 31.6942 59.1201 25.5882Z" fill="#5D5D75"/>
<path fill-rule="evenodd" clip-rule="evenodd" d="M79.4703 15.24H96.4998V18.6799H90.2412V35.9368H85.729V18.6799H79.4703V15.24Z" fill="#5D5D75"/>
<path fill-rule="evenodd" clip-rule="evenodd" d="M104.012 24.1553H107.796C109.776 24.1267 110.94 23.1518 110.94 21.317C110.94 19.4822 109.776 18.7089 107.796 18.6799H104.012V24.1553ZM104.012 35.9368H99.5002V15.24H108.437C112.046 15.2685 115.743 16.4151 115.743 20.6293C115.743 23.3239 113.968 25.1007 111.377 25.6457V25.7033C114.841 26.0762 114.841 28.1687 115.219 31.0355C115.423 32.3538 115.598 34.7902 116.442 35.9368H111.465C111.086 34.102 110.883 32.2392 110.678 30.3759C110.562 29.2287 110.271 27.6522 108.786 27.5946H104.012V35.9368Z" fill="#5D5D75"/>
<path fill-rule="evenodd" clip-rule="evenodd" d="M130.533 21.1443C130.358 19.0517 129.222 18.0202 127.039 18.0202C125.381 18.0202 123.692 18.8801 123.692 20.6864C123.692 22.922 125.73 23.1803 127.535 23.6102C130.737 24.4125 135.453 25.3014 135.453 29.458C135.453 34.589 130.911 36.3668 126.399 36.3668C121.596 36.3668 118.19 34.5315 118.336 29.3143H122.935C122.76 31.6081 124.1 33.1561 126.457 33.1561C128.262 33.1561 130.649 32.6116 130.649 30.4044C130.649 27.967 127.651 27.7953 125.846 27.3364C122.906 26.6197 118.889 25.3014 118.889 21.6323C118.889 16.9021 123.314 14.8096 127.622 14.8096C131.697 14.8096 134.871 16.9882 134.871 21.1443H130.533Z" fill="#5D5D75"/>
</svg>
