<svg width="188" height="45" viewBox="0 0 188 45" fill="none" xmlns="http://www.w3.org/2000/svg">
<path d="M3.17368 39.3377C3.85112 41.2658 5.57078 42.2038 7.6031 42.2038C9.16643 42.2038 10.7819 41.37 10.7819 39.6504C10.7819 37.8265 8.95799 37.4617 6.92566 37.0969C4.32012 36.6279 1.50613 36.1068 1.50613 32.2506C1.50613 29.0197 4.37223 27.4043 7.29044 27.4043C9.9481 27.4043 12.3452 28.4986 13.3353 31.1042L10.9382 32.1985C10.2087 30.7394 8.90588 29.8535 7.18622 29.8535C5.83133 29.8535 4.47645 30.4267 4.47645 32.0422C4.47645 33.866 6.144 34.1787 8.17632 34.5435C10.7819 35.0125 13.8043 35.5336 13.8043 39.4419C13.8043 42.8291 10.6255 44.6009 7.55099 44.6009C4.47645 44.6009 1.61035 43.5066 0.672356 40.3799L3.17368 39.3377Z" fill="#5D5D75"/>
<path d="M27.2491 41.6829C26.259 43.8195 24.0182 44.549 21.7775 44.549C17.9213 44.549 15.472 41.9956 15.472 38.1915C15.472 34.5959 17.9734 31.834 21.6211 31.834C25.5816 31.834 27.5097 34.1269 27.5097 38.869H18.4424C18.4424 40.9534 19.6409 42.4646 21.8817 42.4646C23.1845 42.4646 24.2788 41.9435 24.9562 40.6928L27.2491 41.6829ZM24.5914 36.993C24.4872 35.1691 23.3929 34.0226 21.6732 34.0226C19.8494 34.0226 18.755 35.3254 18.4945 36.993H24.5914Z" fill="#5D5D75"/>
<path d="M29.8542 32.1464H32.7724V34.4393C33.6062 32.7718 34.909 31.938 36.785 31.938V34.6478C34.44 34.6478 32.7724 35.4294 32.7724 38.035V44.3404H29.8542V32.1464Z" fill="#5D5D75"/>
<path d="M37.9314 32.1465H41.0581L44.2368 41.4222L47.3635 32.1465H50.1775L45.748 44.3925H42.3608L37.9314 32.1465Z" fill="#5D5D75"/>
<path d="M53.4605 26.9878C54.3985 26.9878 55.1802 27.6652 55.1802 28.6553C55.1802 29.6454 54.4506 30.3229 53.5126 30.3229C52.5746 30.3229 51.7408 29.5933 51.7408 28.6032C51.7408 27.6131 52.5225 26.9878 53.4605 26.9878ZM52.0014 32.1468H54.9196V44.3407H52.0014V32.1468Z" fill="#5D5D75"/>
<path d="M69.2502 40.9021C68.4164 43.4556 66.1756 44.602 63.6222 44.602C59.766 44.602 57.421 41.9965 57.421 38.2445C57.421 34.4925 60.0266 31.887 63.6743 31.887C66.1756 31.887 68.2601 32.9292 69.1981 35.3263L66.8531 36.3685C66.3841 35.0136 65.1855 34.232 63.7264 34.232C61.3293 34.232 60.4434 36.3164 60.4434 38.4008C60.4434 40.4853 61.3814 42.4134 63.7264 42.4134C65.394 42.4134 66.5404 41.4754 67.0094 39.9642L69.2502 40.9021Z" fill="#5D5D75"/>
<path d="M82.4868 41.6829C81.4967 43.8195 79.256 44.549 77.0152 44.549C73.159 44.549 70.7098 41.9956 70.7098 38.1915C70.7098 34.5959 73.2111 31.834 76.8589 31.834C80.8193 31.834 82.7474 34.1269 82.7474 38.869H73.6801C73.6801 40.9534 74.8787 42.4646 77.1194 42.4646C78.4222 42.4646 79.5165 41.9435 80.194 40.6928L82.4868 41.6829ZM79.8813 36.993C79.7771 35.1691 78.6827 34.0226 76.9631 34.0226C75.1392 34.0226 74.0449 35.3254 73.7843 36.993H79.8813Z" fill="#5D5D75"/>
<path d="M85.2482 27.6648H90.8762C96.3478 27.6648 99.6308 30.5309 99.6308 36.0547C99.6308 41.5784 96.1394 44.3403 90.8241 44.3403H85.1961V27.6648H85.2482ZM90.7719 41.839C94.6803 41.839 96.2957 39.5982 96.2957 35.8983C96.2957 32.2506 94.576 30.1661 90.7719 30.1661H88.5312V41.839H90.7719Z" fill="#5D5D75"/>
<path d="M113.023 41.6829C112.033 43.8195 109.793 44.549 107.552 44.549C103.696 44.549 101.246 41.9956 101.246 38.1915C101.246 34.5959 103.748 31.834 107.395 31.834C111.356 31.834 113.284 34.1269 113.284 38.869H104.217C104.217 40.9534 105.415 42.4646 107.656 42.4646C108.959 42.4646 110.053 41.9435 110.731 40.6928L113.023 41.6829ZM110.366 36.993C110.262 35.1691 109.167 34.0226 107.448 34.0226C105.624 34.0226 104.529 35.3254 104.269 36.993H110.366Z" fill="#5D5D75"/>
<path d="M116.984 40.6928C117.453 41.8914 118.704 42.4646 120.007 42.4646C120.945 42.4646 122.143 42.1519 122.143 41.0055C122.143 39.807 120.84 39.4943 119.329 39.1816C117.349 38.7647 115.16 38.2957 115.16 35.5339C115.16 33.0325 117.505 31.834 119.694 31.834C121.622 31.834 123.863 32.5635 124.644 34.4916L122.456 35.4296C121.987 34.3353 120.788 33.9184 119.798 33.9184C118.808 33.9184 117.922 34.3353 117.922 35.3254C117.922 36.4197 119.121 36.6803 120.58 36.993C122.56 37.3577 124.957 37.8267 124.957 40.6928C124.957 43.5589 122.56 44.6012 120.007 44.6012C117.87 44.6012 115.525 43.8716 114.795 41.6829L116.984 40.6928Z" fill="#5D5D75"/>
<path d="M127.25 26.6233H130.168V37.4624L134.598 32.147H137.829L132.982 37.775L138.193 44.3931H134.806L130.168 38.4525V44.3931H127.25V26.6233Z" fill="#5D5D75"/>
<path d="M145.592 27.6648H150.803C154.034 27.6648 156.64 29.0718 156.64 32.7196C156.64 37.149 152.784 37.5659 149.084 37.5659H147.625V44.3403H145.592V27.6648ZM150.908 35.9504C153.201 35.9504 154.608 34.9603 154.608 32.5632C154.608 30.1661 153.201 29.2802 150.908 29.2802H147.625V35.9504H150.908Z" fill="#5D5D75"/>
<path d="M159.506 26.6752L161.486 25.7893V44.3408H159.506V26.6752Z" fill="#5D5D75"/>
<path d="M173.576 42.4123C172.846 43.9235 171.439 44.5489 169.824 44.5489C166.854 44.5489 165.238 42.7771 165.238 39.8589V32.1465H167.166V39.8068C167.166 41.8912 168.261 42.9334 170.345 42.9334C172.429 42.9334 173.576 41.5786 173.576 39.5983V32.1465H175.504V44.3925H173.576V42.4123Z" fill="#5D5D75"/>
<path d="M179.83 40.7458C180.299 42.1528 181.445 42.9345 182.956 42.9345C184.311 42.9345 185.718 42.4655 185.718 41.0064C185.718 39.5473 184.311 39.1825 182.748 38.8177C180.872 38.3487 178.84 37.8797 178.84 35.3263C178.84 33.1897 180.872 31.887 182.904 31.887C184.78 31.887 186.344 32.9813 187.23 34.6488L185.718 35.3263C185.197 34.1277 184.051 33.5024 182.8 33.5024C181.706 33.5024 180.611 34.0235 180.611 35.2742C180.611 36.6812 182.018 36.9938 183.582 37.3065C185.458 37.7234 187.542 38.1403 187.542 40.6937C187.542 43.2471 185.354 44.4978 183.061 44.4978C180.768 44.4978 179.1 43.4035 178.371 41.319L179.83 40.7458Z" fill="#5D5D75"/>
<path fill-rule="evenodd" clip-rule="evenodd" d="M116.254 1.03613C123.393 5.98667 120.423 17.5032 112.815 18.7538C122.56 18.7017 125.738 5.46556 116.254 1.03613Z" fill="#A2ABBE"/>
<path fill-rule="evenodd" clip-rule="evenodd" d="M108.647 0.932061C117.141 -0.3186 120.632 10.1557 116.932 15.0541C123.081 8.85292 118.131 -2.14248 108.647 0.932061Z" fill="#A2ABBE"/>
<path fill-rule="evenodd" clip-rule="evenodd" d="M103.643 6.03939C107.812 -0.161808 116.515 3.6944 117.401 9.94771C118.391 2.23529 108.177 -2.08991 103.643 6.03939Z" fill="#A2ABBE"/>
<path fill-rule="evenodd" clip-rule="evenodd" d="M103.435 10.6766C104.477 4.21481 112.815 3.53737 115.838 8.07102C113.388 1.71349 103.591 2.49515 103.435 10.6766Z" fill="#A2ABBE"/>
<path d="M0.671875 7.29077H4.05908L6.92518 14.7426L9.68706 7.29077H13.0222V18.6509H10.4687V10.678L7.34207 18.7031H6.19563L2.96475 10.678V18.6509H0.671875V7.29077Z" fill="#5D5D75"/>
<path d="M20.0048 17.6602C19.4316 18.5461 18.5457 18.8588 17.5556 18.8588C15.9402 18.8588 14.7416 18.025 14.7416 16.4096C14.7416 14.273 16.7219 13.6998 18.4936 13.6998H19.9527C19.9527 12.5534 19.8485 11.8238 18.5457 11.8238C17.8162 11.8238 17.0866 12.1365 16.8261 12.9181L15.0543 12.1365C15.5754 10.6252 17.2951 10.1562 18.8063 10.1562C20.8386 10.1562 22.2456 11.0421 22.2456 13.2308V18.6503H20.0048V17.6602ZM19.0668 15.0547C18.2331 15.0547 16.9303 15.1068 16.9303 16.2532C16.9303 16.9828 17.5035 17.2433 18.1289 17.2433C19.0147 17.2433 19.9006 16.7743 19.9006 15.7321V15.0547H19.0668Z" fill="#5D5D75"/>
<path d="M24.2256 10.3117H26.5185V11.6145C27.0396 10.5723 28.186 10.1033 29.3325 10.1033C31.2606 10.1033 32.0944 11.5103 32.0944 13.3341V18.6495H29.8536V13.6989C29.8536 12.6567 29.3846 12.0314 28.2903 12.0314C27.1438 12.0314 26.5706 12.7609 26.5706 13.8553V18.6495H24.2777V10.3117H24.2256Z" fill="#5D5D75"/>
<path d="M38.9207 17.6602C38.3475 18.5461 37.4616 18.8588 36.4715 18.8588C34.8561 18.8588 33.6575 18.025 33.6575 16.4096C33.6575 14.273 35.6377 13.6998 37.4095 13.6998H38.9207C38.9207 12.5534 38.8165 11.8238 37.5137 11.8238C36.7842 11.8238 36.0546 12.1365 35.7941 12.9181L34.0223 12.1365C34.5434 10.6252 36.2631 10.1562 37.7743 10.1562C39.8066 10.1562 41.2136 11.0421 41.2136 13.2308V18.6503H38.9728C38.9207 18.6503 38.9207 17.6602 38.9207 17.6602ZM37.9827 15.0547C37.149 15.0547 35.8462 15.1068 35.8462 16.2532C35.8462 16.9828 36.4194 17.2433 37.0447 17.2433C37.9306 17.2433 38.8165 16.7743 38.8165 15.7321V15.0547H37.9827Z" fill="#5D5D75"/>
<path d="M44.7584 18.91C45.1231 19.7438 46.009 20.0043 46.8428 20.0043C48.1977 20.0043 48.9272 19.379 48.9272 17.972V16.7214C48.4061 17.6594 47.3118 18.2847 46.2696 18.2847C43.9246 18.2847 42.6218 16.4087 42.6218 14.1679C42.6218 11.9272 44.0288 10.1033 46.3738 10.1033C47.4681 10.1033 48.4061 10.5202 48.9794 11.5624V10.3117H51.2722V17.972C51.2722 20.6818 49.3441 21.724 46.8949 21.724C45.3316 21.724 43.6119 21.3071 42.9866 19.6917L44.7584 18.91ZM49.0315 14.1679C49.0315 12.8651 48.4061 11.875 46.9991 11.875C45.5921 11.875 45.0189 12.9694 45.0189 14.2721C45.0189 15.4707 45.6964 16.5129 47.0513 16.5129C48.4061 16.5129 49.0315 15.4707 49.0315 14.1679Z" fill="#5D5D75"/>
<path d="M60.912 16.8786C60.2866 18.3898 58.6191 18.8588 57.2121 18.8588C54.4502 18.8588 52.7827 17.1391 52.7827 14.4815C52.7827 11.9801 54.5544 10.1562 57.1079 10.1562C58.7233 10.1562 60.1824 10.8858 60.8077 12.4491C61.1725 13.2829 61.1725 14.1688 61.1725 15.0547H55.1798C55.2319 16.3574 55.9093 17.2433 57.2642 17.2433C58.1501 17.2433 58.8275 17.0349 59.2965 16.149L60.912 16.8786ZM58.8796 13.5956C58.8275 12.4491 58.2543 11.7196 57.1079 11.7196C55.9614 11.7196 55.284 12.5012 55.1277 13.5956H58.8796Z" fill="#5D5D75"/>
<path d="M62.9445 7.29077H70.1879V8.69777H64.7163V12.1892H69.1457V13.5962H64.7163V17.2961H70.4485V18.6509H62.9445V7.29077Z" fill="#5D5D75"/>
<path d="M72.2723 10.3126H73.9399V11.6154C74.461 10.5731 75.5553 10.1562 76.6496 10.1562C78.682 10.1562 79.62 11.6154 79.62 13.5435V18.6503H77.9524V13.5435C77.9524 12.2407 77.3271 11.5111 76.0764 11.5111C74.7215 11.5111 73.8878 12.3449 73.8878 13.6477V18.6503H72.2202V10.3126H72.2723Z" fill="#5D5D75"/>
<path d="M82.9551 19.1193C83.372 20.1094 84.4663 20.4221 85.4564 20.4221C86.9676 20.4221 88.0619 19.6404 88.0619 18.025V16.7743C87.4887 17.7644 86.2902 18.3377 85.1958 18.3377C82.8508 18.3377 81.4439 16.5138 81.4439 14.3251C81.4439 12.1365 82.9551 10.1562 85.248 10.1562C86.3944 10.1562 87.4887 10.6252 88.0619 11.6154V10.3126H89.6774V18.0771C89.6774 20.6305 87.7493 21.7249 85.4043 21.7249C83.841 21.7249 82.3297 21.2559 81.6523 19.6925L82.9551 19.1193ZM88.1141 14.1688C88.1141 12.6576 87.2803 11.459 85.6648 11.459C83.9452 11.459 83.1635 12.7618 83.1635 14.3251C83.1635 15.7321 84.1015 17.0349 85.5606 17.0349C87.2282 17.0349 88.1141 15.7842 88.1141 14.1688Z" fill="#5D5D75"/>
<path d="M92.699 6.92529C93.2722 6.92529 93.7412 7.34218 93.7412 7.9154C93.7412 8.48862 93.2722 8.90551 92.699 8.90551C92.1258 8.90551 91.6568 8.43651 91.6568 7.9154C91.6568 7.39429 92.1779 6.92529 92.699 6.92529ZM91.9173 10.3646H93.5328V18.7024H91.9173V10.3646Z" fill="#5D5D75"/>
<path d="M96.0864 10.3126H97.7539V11.6154C98.2751 10.5731 99.3694 10.1562 100.464 10.1562C102.496 10.1562 103.434 11.6154 103.434 13.5435V18.6503H101.766V13.5435C101.766 12.2407 101.141 11.5111 99.8905 11.5111C98.5356 11.5111 97.7018 12.3449 97.7018 13.6477V18.6503H96.0343V10.3126H96.0864Z" fill="#5D5D75"/>
<path d="M112.971 16.7743C112.242 18.1813 110.939 18.8067 109.428 18.8067C106.822 18.8067 105.259 16.9307 105.259 14.5336C105.259 12.1365 106.822 10.1562 109.271 10.1562C112.19 10.1562 113.128 12.2407 113.128 14.8462H106.979C106.979 16.3574 107.812 17.556 109.376 17.556C110.418 17.556 111.147 17.087 111.616 16.2532L112.971 16.7743ZM111.512 13.6477C111.408 12.2928 110.731 11.4069 109.376 11.4069C108.021 11.4069 107.187 12.397 107.031 13.6477H111.512Z" fill="#5D5D75"/>
</svg>
