<svg width="100" height="42" viewBox="0 0 100 42" fill="none" xmlns="http://www.w3.org/2000/svg">
<path d="M40.6236 33.5309H35.6364V7.39111H40.6236V17.0216C41.3975 16.0757 43.2032 15.1299 45.0949 15.1299C50.34 15.1299 53.2636 19.4292 53.2636 24.5883C53.2636 29.7475 50.34 33.9608 45.0949 33.9608C43.2032 33.9608 41.3975 33.015 40.6236 32.0691V33.5309ZM40.6236 27.5119C41.2255 28.8017 42.5153 29.5755 43.9771 29.5755C46.6426 29.5755 48.2764 27.4259 48.2764 24.5023C48.2764 21.5788 46.6426 19.4292 43.9771 19.4292C42.5153 19.4292 41.1395 20.289 40.6236 21.4928V27.5119Z" fill="#5D5D75"/>
<path d="M75.1921 15.1284C78.8895 15.1284 81.1251 17.708 81.1251 21.7493V33.5294H76.1379V22.7812C76.1379 20.8895 75.2781 19.5997 73.5584 19.5997C72.2686 19.5997 71.0648 20.3736 70.8068 21.9213V33.5294H65.8196V22.7812C65.8196 20.8895 65.0457 19.5997 63.326 19.5997C62.0362 19.5997 60.8324 20.3736 60.4885 21.9213V33.5294H55.5013V15.5583H60.3165V17.0201C61.1764 15.9023 62.8961 15.1284 64.8738 15.1284C67.0234 15.1284 68.6572 16.0743 69.689 17.45C70.8928 16.1603 72.6125 15.1284 75.1921 15.1284Z" fill="#5D5D75"/>
<path d="M91.6977 15.1284C96.255 15.1284 99.0925 17.794 99.6084 21.5774H94.7072C94.4492 20.2016 93.3314 19.3417 91.6977 19.3417C89.3761 19.3417 88.0003 21.4054 88.0003 24.5009C88.0003 27.5104 89.3761 29.5741 91.6977 29.5741C93.3314 29.5741 94.3633 28.7142 94.7072 27.3384H99.6084C99.0925 31.2078 96.255 33.7874 91.6977 33.7874C86.6245 33.7874 83.0131 29.918 83.0131 24.4149C83.0991 18.9118 86.6245 15.1284 91.6977 15.1284Z" fill="#5D5D75"/>
<path d="M4.33686 41.2684C2.70312 41.2684 0.983398 39.9786 0.983398 37.4851V31.638C0.983398 29.3164 2.44516 26.6508 4.50883 25.533L12.6775 20.7178L4.50883 15.9025C2.53115 14.6128 0.983398 12.0332 0.983398 9.71155V3.77851C0.983398 1.28491 2.70312 -0.00488281 4.42284 -0.00488281C5.11073 -0.00488281 5.88461 0.167089 6.57249 0.59702L24.9735 11.5173C26.2633 12.2911 26.9512 13.4949 26.9512 14.6987C26.9512 15.9885 26.1773 17.1923 24.9735 17.8802L20.5882 20.4598L24.9735 23.0394C26.2633 23.8133 27.0372 25.0171 27.0372 26.2209C27.0372 27.5107 26.2633 28.7145 24.9735 29.4024L6.57249 40.6665C5.79862 41.0965 5.11073 41.2684 4.33686 41.2684ZM16.6329 23.0394L6.57249 28.9724C5.79862 29.4024 5.02474 30.7781 5.02474 31.638V36.8832L22.4799 26.5648L16.6329 23.0394ZM5.02474 4.46639V9.71155C5.02474 10.5714 5.79862 11.9472 6.57249 12.3771L16.6329 18.3102L22.5659 14.7847L5.02474 4.46639Z" fill="#A2ABBE"/>
</svg>
