<svg width="104" height="38" viewBox="0 0 104 38" fill="none" xmlns="http://www.w3.org/2000/svg">
<path d="M0.0605469 15.9155H6.18527V36.8601H0.0605469V15.9155Z" fill="#5D5D75"/>
<path d="M0.0605469 4.42847H6.18527V10.5532H0.0605469V4.42847Z" fill="#5D5D75"/>
<path d="M25.1416 15.9155L20.3423 30.1128L15.6232 15.9155H9.03662L16.7076 36.8601H23.495L31.0455 15.9155H25.1416Z" fill="#5D5D75"/>
<path d="M49.9214 23.1646C49.9214 22.2208 49.8812 19.7308 48.4755 18.0239C46.4072 15.6141 42.7524 15.333 41.0255 15.333C39.0374 15.333 36.5876 15.6744 34.6799 17.0399C32.491 18.6062 32.3505 20.8553 32.3103 21.9598H38.3346C38.2944 21.2971 38.4551 20.6545 38.7965 20.0922C39.3387 19.3492 40.2021 18.9074 41.1259 18.9275C41.7082 18.9275 43.3147 19.1283 43.8569 20.6746C44.0979 21.4176 44.138 22.0802 44.138 23.4458C42.1098 23.4458 38.4149 23.4458 35.8646 24.6105C32.0091 26.3977 31.4267 29.45 31.4267 31.1167C31.4066 32.8236 32.0492 34.4903 33.2541 35.7153C34.0774 36.4984 35.4429 37.3619 38.4752 37.3619C39.6399 37.3619 42.4111 37.3619 44.7204 34.0084C44.7003 34.9723 44.7806 35.9161 44.9212 36.8599H50.4636C50.1222 35.1128 49.9415 33.3457 49.9615 31.5585L49.9214 23.1646ZM42.9733 32.2011C42.3107 32.9642 41.3668 33.406 40.3628 33.406C38.3346 33.406 37.3707 31.8396 37.3707 30.4139C37.3707 27.9238 40.1821 26.6788 44.1179 27.0202C44.138 29.2693 44.0376 30.8757 42.9733 32.2011Z" fill="#5D5D75"/>
<path d="M72.6935 19.3092C72.1513 17.8633 70.4244 15.3733 66.3077 15.3733C61.7493 15.3733 60.1027 18.0641 59.5203 19.008L59.3597 15.8954H53.476C53.5964 17.3412 53.5964 19.5903 53.5964 19.6706V36.86H59.7613V24.6106C59.7613 23.0041 60.1429 21.9599 60.5043 21.4177C61.2272 20.3735 62.4321 19.771 63.6972 19.7911C64.9623 19.751 66.127 20.4337 66.6893 21.5783C67.0106 22.241 67.0106 22.984 67.0106 23.8475V36.86H73.2759V25.5544C73.2759 21.6787 73.1353 20.5944 72.6935 19.3092Z" fill="#5D5D75"/>
<path d="M85.5449 10.6343L79.4603 12.301V15.9156H75.4441V19.972H79.4603V31.5989C79.4603 33.3459 79.4603 37.2417 85.6252 37.2417C87.2317 37.2216 88.8382 37.0007 90.3844 36.579V32.5628C89.7016 32.6431 88.9988 32.6833 88.316 32.6833C85.585 32.6833 85.585 31.4784 85.5449 29.5707V19.9519H90.525V15.8955H85.5449V10.6343Z" fill="#5D5D75"/>
<path d="M93.7784 15.9155H99.9032V36.8601H93.7784V15.9155Z" fill="#5D5D75"/>
<path d="M93.7784 6.47778H97.8549V10.5542H93.7784V6.47778Z" fill="#5D5D75"/>
<path d="M99.9233 4.42899V10.5537H104V0.352539H93.7784V4.44907L99.9233 4.42899Z" fill="#5D5D75"/>
</svg>
