<svg width="200" height="42" viewBox="0 0 200 42" fill="none" xmlns="http://www.w3.org/2000/svg">
<path d="M85.1493 8.99114C85.1493 8.88887 85.121 8.81649 85.0644 8.77086C84.9998 8.71739 84.8897 8.69217 84.7371 8.69217H84.5168V9.29639H84.7827C85.0266 9.29639 85.1493 9.19412 85.1493 8.99114ZM85.4908 10.2499H85.1903L84.9967 9.82507C84.8992 9.61266 84.7937 9.50565 84.6805 9.50565H84.5168V10.2499H84.2682V8.47817H84.7686C84.9889 8.47817 85.1556 8.52851 85.2705 8.62766C85.3665 8.7126 85.4153 8.82434 85.4153 8.96123C85.4153 9.08239 85.3759 9.18623 85.2973 9.27119C85.2186 9.35774 85.1069 9.41438 84.9652 9.44427V9.45185C85.0644 9.47384 85.162 9.58247 85.2595 9.77757L85.4908 10.2499ZM86.0431 9.38291C86.0431 9.03202 85.9235 8.74093 85.6859 8.50649C85.4483 8.27204 85.1588 8.15562 84.8158 8.15562C84.4618 8.15562 84.1691 8.27362 83.9362 8.50964C83.7018 8.74566 83.5853 9.03675 83.5853 9.38291C83.5853 9.73536 83.7065 10.0312 83.9472 10.2672C84.1848 10.5001 84.4743 10.6165 84.8158 10.6165C85.1557 10.6165 85.4452 10.4985 85.6843 10.2625C85.9235 10.0265 86.0431 9.73379 86.0431 9.38291ZM86.2099 9.37533C86.2099 9.76555 86.0745 10.0928 85.8055 10.3588C85.5364 10.6247 85.2044 10.7568 84.8095 10.7568C84.4114 10.7568 84.0794 10.6278 83.8166 10.3698C83.5538 10.1101 83.4217 9.78286 83.4217 9.38635C83.4217 8.9977 83.5554 8.67041 83.8229 8.40292C84.0904 8.13701 84.4224 8.00326 84.8205 8.00326C85.2107 8.00326 85.538 8.13072 85.8023 8.38563C86.0745 8.64682 86.2099 8.97724 86.2099 9.37533Z" fill="#5D5D75"/>
<path d="M50.1742 13.988H49.3639V9.33847C49.3639 8.97185 49.3858 8.52339 49.4299 7.99628H49.4111C49.334 8.30468 49.2647 8.52813 49.2034 8.6666L46.8432 13.988H46.4467L44.0802 8.70591C44.0125 8.55801 43.9433 8.32042 43.8725 7.99628H43.8536C43.8788 8.27321 43.893 8.72323 43.893 9.3479V13.988H43.1094V7.06322H44.1825L46.3066 11.8922C46.4671 12.2557 46.5726 12.5326 46.6214 12.723H46.6544C46.7929 12.3438 46.903 12.0605 46.988 11.8733L49.1562 7.06322H50.1743" fill="#5D5D75"/>
<path d="M52.6762 9.04422V13.988H51.8848V9.04422H52.6762ZM52.8116 7.27251C52.8116 7.41727 52.7596 7.53841 52.6589 7.63911C52.5582 7.73823 52.4339 7.78861 52.2891 7.78861C52.1475 7.78861 52.0264 7.73979 51.9241 7.64386C51.8234 7.54787 51.7731 7.42357 51.7731 7.27251C51.7731 7.12618 51.8234 7.00503 51.9241 6.90747C52.0264 6.80834 52.1475 6.75956 52.2891 6.75956C52.4339 6.75956 52.5582 6.80829 52.6589 6.90747C52.7596 7.00503 52.8116 7.12618 52.8116 7.27251Z" fill="#5D5D75"/>
<path d="M57.6096 13.7612C57.2304 13.9925 56.7772 14.1089 56.2533 14.1089C55.5452 14.1089 54.974 13.8744 54.5382 13.404C54.1134 12.9461 53.9009 12.3576 53.9009 11.637C53.9009 10.8251 54.1338 10.1705 54.5996 9.67174C55.0637 9.17296 55.69 8.92277 56.4751 8.92277C56.9063 8.92277 57.287 9.00619 57.619 9.17453V9.98485C57.2524 9.72838 56.859 9.59936 56.4405 9.59936C55.9386 9.59936 55.5295 9.77401 55.2101 10.1249C54.8781 10.4852 54.7129 10.9651 54.7129 11.5646C54.7129 12.1405 54.8639 12.5952 55.1692 12.9304C55.4728 13.2655 55.8804 13.4323 56.3933 13.4323C56.8244 13.4323 57.2304 13.2907 57.6096 13.0075" fill="#5D5D75"/>
<path d="M61.3869 9.84511C61.2484 9.73811 61.047 9.68619 60.7827 9.68619C60.4617 9.68619 60.1911 9.83096 59.9724 10.1205C59.7237 10.4446 59.601 10.8946 59.601 11.4674V13.988H58.808V9.04266H59.601V10.0622H59.6199C59.7347 9.70192 59.9141 9.42342 60.1564 9.22673C60.3814 9.04735 60.6332 8.95611 60.9133 8.95611C61.1225 8.95611 61.2814 8.97972 61.3869 9.0238" fill="#5D5D75"/>
<path d="M65.7988 11.5253C65.7988 10.8911 65.6556 10.4081 65.3692 10.0761C65.0923 9.75828 64.7052 9.59777 64.2048 9.59777C63.7124 9.59777 63.319 9.75985 63.0232 10.0808C62.7101 10.4254 62.5543 10.9132 62.5543 11.5441C62.5543 12.1373 62.7038 12.6 63.0027 12.932C63.3033 13.2655 63.7029 13.4323 64.2048 13.4323C64.7272 13.4323 65.1238 13.264 65.3975 12.9257C65.665 12.5968 65.7988 12.131 65.7988 11.5253ZM66.6107 11.4969C66.6107 12.2852 66.3872 12.9178 65.9435 13.3945C65.4998 13.8697 64.9003 14.1089 64.1482 14.1089C63.404 14.1089 62.8155 13.8697 62.3796 13.3945C61.9548 12.9335 61.7424 12.3261 61.7424 11.574C61.7424 10.7133 61.9847 10.0493 62.4677 9.57888C62.9146 9.14146 63.5141 8.92274 64.2631 8.92274C65.001 8.92274 65.5769 9.15089 65.9891 9.60876C66.403 10.0651 66.6107 10.6945 66.6107 11.4969Z" fill="#5D5D75"/>
<path d="M70.5359 12.6645C70.5359 13.0704 70.3849 13.4071 70.0812 13.6731C69.7508 13.9642 69.2976 14.1089 68.7249 14.1089C68.2544 14.1089 67.8469 14.0082 67.4991 13.8084V12.9587C67.8846 13.275 68.3126 13.4323 68.7831 13.4323C69.4109 13.4323 69.724 13.2026 69.724 12.7416C69.724 12.548 69.6548 12.3891 69.5163 12.2632C69.3779 12.1374 69.1088 11.9879 68.706 11.8101C68.2906 11.6291 67.9964 11.4435 67.8217 11.2499C67.6125 11.0218 67.5086 10.7228 67.5086 10.3562C67.5086 9.94395 67.6707 9.60251 67.9964 9.3303C68.3205 9.05809 68.739 8.92277 69.252 8.92277C69.6438 8.92277 69.9962 8.99984 70.3094 9.15408V9.95023C69.9837 9.71578 69.6107 9.59777 69.189 9.59777C68.9247 9.59777 68.7139 9.66235 68.5565 9.79133C68.3976 9.92035 68.3189 10.0856 68.3189 10.2885C68.3189 10.5072 68.385 10.6787 68.5172 10.7999C68.6368 10.9132 68.8838 11.0501 69.2614 11.2106C69.6831 11.3884 69.9868 11.5693 70.174 11.7566C70.4148 11.9957 70.5359 12.2979 70.5359 12.6645Z" fill="#5D5D75"/>
<path d="M75.375 11.5253C75.375 10.8911 75.2319 10.4081 74.9455 10.0761C74.6686 9.75828 74.2799 9.59777 73.7811 9.59777C73.2886 9.59777 72.8953 9.75985 72.5979 10.0808C72.2863 10.4254 72.1306 10.9132 72.1306 11.5441C72.1306 12.1373 72.28 12.6 72.579 12.932C72.8795 13.2655 73.2792 13.4323 73.7811 13.4323C74.3035 13.4323 74.7 13.264 74.9738 12.9257C75.2413 12.5968 75.375 12.131 75.375 11.5253ZM76.187 11.4969C76.187 12.2852 75.9635 12.9178 75.5198 13.3945C75.0761 13.8697 74.4766 14.1089 73.7229 14.1089C72.9802 14.1089 72.3918 13.8697 71.9559 13.3945C71.5311 12.9335 71.3187 12.3261 71.3187 11.574C71.3187 10.7133 71.561 10.0493 72.044 9.57888C72.4909 9.14146 73.0888 8.92274 73.8393 8.92274C74.5773 8.92274 75.1516 9.15089 75.5654 9.60876C75.9793 10.0651 76.187 10.6945 76.187 11.4969Z" fill="#5D5D75"/>
<path d="M79.677 7.36378C79.5228 7.27723 79.3466 7.23317 79.1499 7.23317C78.5976 7.23317 78.3207 7.58246 78.3207 8.28108V9.04422H79.4787V9.7161H78.3207V13.988H77.5276V9.7161H76.6874V9.04422H77.5276V8.24332C77.5276 7.69891 77.6976 7.27251 78.0343 6.96255C78.3254 6.69663 78.681 6.56288 79.1027 6.56288C79.3466 6.56288 79.5385 6.5912 79.677 6.6494" fill="#5D5D75"/>
<path d="M82.8019 13.939C82.6146 14.046 82.3676 14.0979 82.0576 14.0979C81.1953 14.0979 80.7642 13.6133 80.7642 12.6409V9.71424H79.9146V9.04239H80.7642V7.83553C81.0144 7.75524 81.2788 7.67033 81.5557 7.58064V9.04239H82.8019V9.71424H81.5557V12.5056C81.5557 12.8376 81.6123 13.072 81.7256 13.212C81.8373 13.3521 82.0261 13.4229 82.2905 13.4229C82.4856 13.4229 82.6571 13.3694 82.8019 13.2624" fill="#5D5D75"/>
<path d="M52.8992 30.5944C52.8992 32.0829 52.4052 33.2866 51.4154 34.2039C50.292 35.2471 48.665 35.7695 46.5345 35.7695C45.8218 35.7695 45.0287 35.6578 44.1539 35.4344C43.2806 35.2125 42.6339 34.9576 42.2154 34.6728V32.0121C42.8133 32.5471 43.5623 32.9735 44.4623 33.2961C45.2994 33.5903 46.094 33.7366 46.8429 33.7366C49.3023 33.7366 50.5327 32.7784 50.5327 30.8619C50.5327 30.0327 50.2212 29.2979 49.5965 28.6559C49.0442 28.0942 48.0152 27.3846 46.5078 26.5302C44.9296 25.638 43.825 24.782 43.1925 23.9623C42.5584 23.1425 42.2422 22.1748 42.2422 21.0608C42.2422 19.5896 42.7819 18.3765 43.8597 17.423C44.9926 16.4333 46.4811 15.9392 48.3267 15.9392C50.0465 15.9392 51.3037 16.1673 52.0968 16.6205V19.1349C51.0897 18.3513 49.7932 17.9579 48.2056 17.9579C47.0821 17.9579 46.1915 18.2443 45.5323 18.8139C44.9076 19.3489 44.596 20.0302 44.596 20.8594C44.596 21.7516 44.8808 22.4958 45.452 23.0937C45.9335 23.5925 46.8917 24.2392 48.3267 25.0322C49.8955 25.8961 51.0268 26.73 51.7223 27.5325C52.5074 28.4325 52.8992 29.4536 52.8992 30.5944Z" fill="#5D5D75"/>
<path d="M66.5065 21.7426L60.2079 37.6283C59.0844 40.4542 57.5078 41.8672 55.4749 41.8672C54.9038 41.8672 54.427 41.8137 54.0446 41.7067V39.7399C54.5167 39.9004 54.9446 39.9806 55.3286 39.9806C56.4426 39.9806 57.2749 39.3261 57.8288 38.0154L58.9239 35.4081L53.5757 21.7426H56.0225L59.7138 32.2785C59.7846 32.4752 59.879 32.8229 59.9939 33.3217H60.0742C60.1198 33.1077 60.2079 32.7742 60.3417 32.3194L64.2329 21.7426" fill="#5D5D75"/>
<path d="M75.5125 31.7704C75.5125 32.8938 75.0939 33.8253 74.2553 34.5648C73.3379 35.3673 72.0855 35.7686 70.4978 35.7686C69.1966 35.7686 68.0653 35.4916 67.1023 34.9393V32.5854C68.1723 33.4603 69.3571 33.8961 70.6583 33.8961C72.397 33.8961 73.2656 33.2589 73.2656 31.9844C73.2656 31.4494 73.0752 31.0088 72.6912 30.6611C72.3073 30.3134 71.5583 29.8948 70.4443 29.4039C69.2941 28.9051 68.4791 28.3874 67.9976 27.8525C67.4186 27.2199 67.1291 26.3954 67.1291 25.379C67.1291 24.2382 67.5791 23.291 68.4791 22.5373C69.3791 21.7836 70.5388 21.4076 71.9549 21.4076C73.0437 21.4076 74.0193 21.6215 74.8847 22.0495V24.2555C73.9831 23.6057 72.9493 23.28 71.7818 23.28C71.0517 23.28 70.4664 23.4578 70.0305 23.815C69.5931 24.1706 69.3744 24.63 69.3744 25.1917C69.3744 25.7975 69.5585 26.2695 69.9235 26.6094C70.2524 26.9209 70.94 27.3002 71.9832 27.7455C73.1507 28.2364 73.9925 28.7399 74.5102 29.256C75.1789 29.9168 75.5125 30.7539 75.5125 31.7704Z" fill="#5D5D75"/>
<path d="M84.2515 35.3014C83.7339 35.5956 83.0478 35.7419 82.1919 35.7419C79.8034 35.7419 78.6091 34.3966 78.6091 31.7044V23.6011H76.2552V21.7429H78.6091V18.3992C79.3046 18.1774 80.0347 17.9414 80.8009 17.6912V21.7429H84.2515V23.6011H80.8009V31.33C80.8009 32.2473 80.9567 32.9019 81.2698 33.2889C81.5814 33.676 82.1037 33.8711 82.8338 33.8711C83.3783 33.8711 83.8503 33.7232 84.2515 33.429" fill="#5D5D75"/>
<path d="M95.0098 27.2781C94.9925 26.0304 94.6983 25.058 94.1271 24.3625C93.5292 23.6403 92.6827 23.28 91.586 23.28C90.5522 23.28 89.6742 23.6482 88.952 24.383C88.2314 25.1194 87.7845 26.0839 87.6146 27.2781H95.0098ZM97.2568 29.1364H87.5878C87.624 30.6705 88.0347 31.8475 88.8183 32.6673C89.6034 33.487 90.6813 33.8961 92.0549 33.8961C93.5969 33.8961 95.0099 33.3973 96.2938 32.3998V34.4453C95.0995 35.328 93.5119 35.7686 91.5325 35.7686C89.6616 35.7686 88.1763 35.1801 87.0812 34.0031C85.9042 32.7554 85.3157 30.9679 85.3157 28.6423C85.3157 26.4395 85.953 24.6615 87.2275 23.3067C88.4218 22.0401 89.8835 21.4076 91.6127 21.4076C93.4678 21.4076 94.8855 22.0275 95.8658 23.2674C96.7926 24.4255 97.2568 25.9989 97.2568 27.9862" fill="#5D5D75"/>
<path d="M119.086 35.4355H116.892V27.573C116.892 25.9948 116.639 24.8729 116.131 24.2042C115.659 23.589 114.892 23.2806 113.83 23.2806C112.886 23.2806 112.088 23.707 111.437 24.5582C110.787 25.4095 110.461 26.4322 110.461 27.6265V35.4355H108.268V27.3055C108.268 24.6227 107.23 23.2806 105.153 23.2806C104.199 23.2806 103.414 23.6739 102.799 24.4575C102.157 25.2694 101.836 26.3252 101.836 27.6265V35.4355H99.6439V21.7433H101.836V23.9099H101.889C102.862 22.2421 104.275 21.4097 106.128 21.4097C107.074 21.4097 107.903 21.6756 108.616 22.2122C109.294 22.7283 109.761 23.4096 110.019 24.2577C111.036 22.3585 112.551 21.4097 114.567 21.4097C117.58 21.4097 119.086 23.2727 119.086 26.9986" fill="#5D5D75"/>
<path d="M140.354 34.6451C138.945 35.3941 137.185 35.7686 135.072 35.7686C132.326 35.7686 130.129 34.8764 128.48 33.0937C126.866 31.3471 126.06 29.0514 126.06 26.2082C126.06 23.0786 127.022 20.561 128.948 18.6524C130.774 16.8429 133.07 15.9382 135.835 15.9382C137.661 15.9382 139.169 16.201 140.354 16.7281V19.1072C138.989 18.3409 137.474 17.9569 135.808 17.9569C133.651 17.9569 131.895 18.6666 130.538 20.0843C129.122 21.5633 128.413 23.5601 128.413 26.0744C128.413 28.463 129.081 30.3527 130.419 31.7436C131.684 33.0716 133.338 33.7356 135.38 33.7356C137.304 33.7356 138.963 33.3077 140.354 32.4517" fill="#5D5D75"/>
<path d="M151.808 27.2781C151.79 26.0304 151.496 25.058 150.925 24.3625C150.329 23.6403 149.48 23.28 148.384 23.28C147.35 23.28 146.472 23.6482 145.75 24.383C145.028 25.1194 144.582 26.0839 144.414 27.2781H151.808ZM154.055 29.1364H144.387C144.422 30.6705 144.832 31.8475 145.616 32.6673C146.401 33.487 147.479 33.8961 148.853 33.8961C150.395 33.8961 151.808 33.3973 153.092 32.3998V34.4453C151.897 35.328 150.31 35.7686 148.332 35.7686C146.459 35.7686 144.974 35.1801 143.879 34.0031C142.702 32.7554 142.114 30.9679 142.114 28.6423C142.114 26.4395 142.751 24.6615 144.025 23.3067C145.22 22.0401 146.681 21.4076 148.412 21.4076C150.266 21.4076 151.683 22.0275 152.664 23.2674C153.59 24.4255 154.055 25.9989 154.055 27.9862" fill="#5D5D75"/>
<path d="M167.806 35.4355H165.612V27.6265C165.612 24.7297 164.552 23.2806 162.431 23.2806C161.334 23.2806 160.426 23.6912 159.709 24.511C158.991 25.3308 158.633 26.3693 158.633 27.6265V35.4355H156.441V21.7433H158.633V24.0169H158.686C159.712 22.2783 161.208 21.4097 163.18 21.4097C164.686 21.4097 165.833 21.8991 166.623 22.8793C167.411 23.8612 167.806 25.2505 167.806 27.0522" fill="#5D5D75"/>
<path d="M177.468 35.3014C176.951 35.5956 176.265 35.7419 175.409 35.7419C173.02 35.7419 171.826 34.3966 171.826 31.7044V23.6011H169.472V21.7429H171.826V18.3992C172.521 18.1774 173.252 17.9414 174.018 17.6912V21.7429H177.468V23.6011H174.018V31.33C174.018 32.2473 174.175 32.9019 174.487 33.2889C174.798 33.676 175.321 33.8711 176.051 33.8711C176.595 33.8711 177.067 33.7232 177.468 33.429" fill="#5D5D75"/>
<path d="M188.227 27.2781C188.209 26.0304 187.915 25.058 187.344 24.3625C186.748 23.6403 185.9 23.28 184.804 23.28C183.769 23.28 182.891 23.6482 182.169 24.383C181.448 25.1194 181.001 26.0839 180.833 27.2781H188.227ZM190.474 29.1364H180.806C180.841 30.6705 181.252 31.8475 182.037 32.6673C182.82 33.487 183.898 33.8961 185.272 33.8961C186.814 33.8961 188.227 33.3973 189.511 32.3998V34.4453C188.316 35.328 186.729 35.7686 184.751 35.7686C182.878 35.7686 181.395 35.1801 180.298 34.0031C179.121 32.7554 178.533 30.9679 178.533 28.6423C178.533 26.4395 179.17 24.6615 180.444 23.3067C181.639 22.0401 183.102 21.4076 184.831 21.4076C186.685 21.4076 188.102 22.0275 189.083 23.2674C190.009 24.4255 190.474 25.9989 190.474 27.9862" fill="#5D5D75"/>
<path d="M200.001 23.9615C199.617 23.6672 199.062 23.5209 198.33 23.5209C197.438 23.5209 196.689 23.9221 196.083 24.723C195.397 25.6246 195.054 26.8677 195.054 28.4537V35.4336H192.861V21.7413H195.054V24.5625H195.108C195.429 23.565 195.923 22.794 196.591 22.2496C197.216 21.7508 197.915 21.5006 198.69 21.5006C199.269 21.5006 199.707 21.5635 200.001 21.6878" fill="#5D5D75"/>
<path d="M22.6301 39.1545H22.0935V40.8208H21.8748V39.1545H21.3367V38.9578H22.6301" fill="#5D5D75"/>
<path d="M24.825 40.8208H24.6063V39.5683C24.6063 39.4708 24.6129 39.3496 24.6251 39.208H24.6185C24.598 39.2914 24.5808 39.3512 24.5634 39.3889L23.9277 40.8208H23.8208L23.1835 39.3984C23.1661 39.3591 23.1473 39.2945 23.1284 39.208H23.1237C23.1303 39.2819 23.1332 39.4031 23.1332 39.5715V40.8208H22.9223V38.9562H23.2118L23.783 40.2575C23.8271 40.355 23.8554 40.429 23.8679 40.4809H23.8774C23.9151 40.3787 23.9451 40.3015 23.9671 40.2512L24.5508 38.9562H24.8246" fill="#5D5D75"/>
<path d="M24.5886 19.1494L16.3857 21.8245L9.25431 24.9744L7.25644 25.5024C6.74993 25.9838 6.2124 26.4728 5.63997 26.971C5.01073 27.5185 4.41898 28.0147 3.96903 28.3734C3.46798 28.7727 2.72298 29.5119 2.34219 29.9859C1.77567 30.6911 1.33265 31.4431 1.14217 32.0214C0.799478 33.0619 0.966444 34.1157 1.62737 35.0883C2.47163 36.3307 4.15233 37.5929 6.10701 38.4522C7.10407 38.8905 8.78662 39.4556 10.0483 39.7742C12.1508 40.3051 16.2144 40.882 18.4523 40.9677C18.9062 40.9851 19.5104 40.9835 19.5382 40.9651C19.5873 40.9327 19.9357 40.273 20.3399 39.4473C21.7153 36.6376 22.7104 34.0037 23.2459 31.7542C23.5701 30.3921 23.8229 28.5758 23.9867 26.4222C24.0325 25.8189 24.0492 23.8069 24.0139 23.1231C23.9565 22.0103 23.8585 21.1033 23.7013 20.2132C23.6782 20.0828 23.6697 19.968 23.6818 19.9576C23.7046 19.9381 23.7821 19.9132 24.7897 19.6203L24.5886 19.1494ZM22.714 20.2495C22.7885 20.2495 22.9868 22.1506 23.0383 23.3566C23.0493 23.6129 23.0471 23.777 23.0318 23.777C22.9829 23.777 21.9813 23.1888 21.2714 22.743C20.6514 22.3536 19.4748 21.5718 19.2878 21.4249C19.2287 21.3786 19.235 21.3763 19.7418 21.2018C20.6042 20.9048 22.6488 20.2495 22.714 20.2495ZM18.5353 21.6208C18.5883 21.6207 18.7326 21.7003 19.0737 21.914C20.3532 22.7155 22.0857 23.6798 22.8282 24.004C23.0584 24.1045 23.0846 24.0655 22.5544 24.4256C21.4242 25.1931 20.0191 25.9477 18.294 26.7141C17.9934 26.8476 17.7387 26.9567 17.7284 26.9567C17.7181 26.9567 17.7517 26.8042 17.8023 26.6168C18.2202 25.0709 18.4561 23.5105 18.4627 22.2591C18.4659 21.6402 18.4661 21.6369 18.5249 21.6221C18.5277 21.6214 18.5318 21.6208 18.5353 21.6208ZM17.6752 21.949C17.7122 21.9862 17.6854 23.3731 17.6402 23.751C17.5316 24.6576 17.3543 25.4961 17.0707 26.4494C17.0029 26.6772 16.9394 26.8736 16.9292 26.8853C16.9046 26.9139 16.0565 26.0876 15.7746 25.7606C15.2929 25.2018 14.9119 24.6467 14.6343 24.1C14.4932 23.8221 14.2682 23.2733 14.2892 23.258C14.3845 23.1888 17.6519 21.9257 17.6752 21.949ZM13.6237 23.546C13.6313 23.5468 13.6372 23.5489 13.6405 23.5525C13.6528 23.566 13.696 23.6667 13.7365 23.777C13.9341 24.3135 14.3783 25.1106 14.764 25.6204C15.1852 26.1771 15.7342 26.7703 16.1937 27.1643C16.3412 27.2908 16.4788 27.4088 16.4985 27.4263C16.5379 27.4612 16.5511 27.4553 15.5398 27.8389C14.3678 28.2834 13.0913 28.7286 11.6258 29.2023C11.0673 29.3829 10.5946 29.5354 10.5763 29.5422C10.5204 29.5629 10.5376 29.5286 10.7008 29.2737C11.429 28.1368 12.5321 25.9129 13.1489 24.34C13.2558 24.0672 13.3576 23.7939 13.3759 23.7328C13.4027 23.6431 13.4291 23.6126 13.5134 23.5746C13.56 23.5536 13.6008 23.5437 13.6237 23.546ZM12.3821 24.0585C12.3986 24.073 12.0843 24.7369 11.775 25.3402C11.1751 26.5104 10.5138 27.662 9.63571 29.0674C9.48421 29.3099 9.3446 29.5316 9.32566 29.5591C9.29447 29.6044 9.28169 29.5895 9.18555 29.3982C8.97534 28.9802 8.79923 28.4527 8.70813 27.9621C8.61798 27.4766 8.63331 26.6361 8.74186 26.1147C8.82251 25.7274 8.81895 25.736 9.00133 25.6425C9.78984 25.2384 12.3565 24.0359 12.3821 24.0585ZM23.0759 24.4931V24.7564C23.0746 26.1396 22.927 28.0333 22.7127 29.4151C22.6751 29.6576 22.6425 29.8576 22.64 29.8601C22.6376 29.8625 22.4628 29.8113 22.2521 29.7459C21.3214 29.457 20.3123 29.0253 19.4019 28.5264C18.7991 28.1961 17.9271 27.6609 17.9515 27.6365C17.9582 27.6298 18.215 27.4937 18.5224 27.3342C19.7397 26.7023 20.9026 26.0211 21.9135 25.3454C22.2929 25.0919 22.8604 24.6816 22.9864 24.5709L23.0759 24.4931ZM7.70011 26.3262C7.72539 26.325 7.71897 26.3729 7.67936 26.6012C7.65182 26.76 7.62069 27.0599 7.60931 27.2667C7.55944 28.1734 7.70647 28.8423 8.15677 29.7576C8.28197 30.0121 8.3799 30.2242 8.37472 30.2285C8.32964 30.2663 4.22935 31.4661 2.94025 31.819C2.55813 31.9236 2.22415 32.0158 2.19689 32.024C2.15216 32.0375 2.14818 32.0277 2.16446 31.9228C2.30565 31.0132 2.99954 29.8193 3.96903 28.817C4.61357 28.1507 5.12965 27.756 6.00711 27.2551C6.63686 26.8955 7.61491 26.356 7.68715 26.3288C7.692 26.327 7.69651 26.3264 7.70011 26.3262ZM17.3716 28.0581C17.3755 28.0534 17.5274 28.1348 17.7089 28.2397C19.0333 29.0057 20.8815 29.7241 22.4571 30.0845L22.5998 30.1169L22.4039 30.2259C21.5808 30.6827 18.8702 31.8105 16.1016 32.8491C15.6974 33.0007 15.303 33.1494 15.2259 33.1799C15.1487 33.2105 15.0858 33.2314 15.0858 33.2253C15.0858 33.2192 15.2 32.9995 15.34 32.7375C16.1173 31.2843 16.8931 29.5183 17.2912 28.2929C17.3318 28.168 17.3677 28.0628 17.3716 28.0581ZM16.3857 28.3811C16.3899 28.3854 16.3415 28.5156 16.278 28.6691C15.7377 29.9757 15.0297 31.4011 14.127 33.0022C13.8973 33.4097 13.7037 33.7423 13.6963 33.7417C13.689 33.741 13.5021 33.6304 13.2812 33.4952C11.9664 32.6902 10.803 31.6994 10.0392 30.7358L9.93021 30.5996L10.4971 30.4439C12.5193 29.8899 14.2342 29.2975 15.9394 28.5628C16.1808 28.4587 16.3814 28.3769 16.3857 28.3811ZM22.5103 30.5191C22.5132 30.5197 22.5142 30.5218 22.5142 30.5243C22.5142 30.6621 22.2014 31.9376 21.9408 32.8608C21.7222 33.6351 21.5387 34.2408 21.1987 35.314C21.0486 35.788 20.9197 36.1748 20.912 36.1728C20.9043 36.1708 20.8683 36.1639 20.8316 36.1573C18.9895 35.8239 17.3396 35.359 15.7941 34.738C15.3617 34.5643 14.7373 34.2877 14.7043 34.2554C14.6932 34.2445 15.0666 34.0686 15.5333 33.8649C18.3561 32.6333 21.2808 31.2308 22.2807 30.6294C22.401 30.5571 22.49 30.5149 22.5103 30.5191ZM8.37213 31.003C8.38727 31.0174 7.59767 32.1476 6.49491 33.6911C6.11162 34.2275 5.66136 34.8598 5.49467 35.0961C5.32798 35.3323 5.07583 35.7063 4.93293 35.9276L4.67218 36.3298L4.39455 36.0963C4.06879 35.8228 3.49858 35.2421 3.23993 34.9196C2.70766 34.2561 2.347 33.5579 2.20467 32.9166C2.13896 32.6205 2.13703 32.4696 2.19948 32.4508C2.28975 32.4236 3.94564 32.0338 5.49857 31.6737C6.36117 31.4737 7.35844 31.2396 7.71568 31.1535C8.07293 31.0674 8.36864 30.9997 8.37213 31.003ZM9.16609 31.3066L9.36587 31.5297C10.2591 32.5247 11.1675 33.2672 12.2758 33.9077C12.4714 34.0208 12.6206 34.1191 12.6079 34.127C12.5617 34.1555 8.77532 35.5017 7.02421 36.1119C6.03665 36.4559 5.22542 36.7365 5.22094 36.7359C5.21646 36.7352 5.16052 36.6986 5.0977 36.6541L4.98353 36.5724L5.16256 36.3142C5.74357 35.4726 6.47356 34.5471 8.07115 32.6247L9.16609 31.3066ZM14.1141 34.8431C14.1184 34.8376 14.3953 34.9358 14.7303 35.061C15.5378 35.363 16.1716 35.5599 17.0291 35.7746C18.0824 36.0382 19.6046 36.3018 20.506 36.3778C20.6443 36.3895 20.715 36.4053 20.6928 36.4193C20.6509 36.4458 19.7382 36.7507 19.0672 36.9616C18.0021 37.2964 14.747 38.258 12.0928 39.0217C11.6005 39.1634 11.1795 39.2831 11.1575 39.2877C11.098 39.3001 10.8902 39.2455 10.8902 39.2176C10.8902 39.2044 11.039 39.016 11.2197 38.7999C12.1119 37.7328 12.9981 36.541 13.7378 35.4139C13.9402 35.1056 14.1097 34.8485 14.1141 34.8431ZM13.0178 34.8742C13.0258 34.8822 12.5861 35.5864 11.8126 36.8046C11.486 37.319 11.1157 37.9046 10.9888 38.1058C10.8619 38.3071 10.6759 38.613 10.5763 38.7869L10.3946 39.1035L10.3025 39.0788C10.0803 39.0187 8.51253 38.4648 8.09839 38.3004C7.58511 38.0967 7.0502 37.8507 6.65577 37.6375C6.16289 37.3711 5.53777 36.9759 5.58678 36.9603C5.60089 36.9558 6.44905 36.7237 7.47049 36.4453C10.1878 35.7046 11.6908 35.2791 12.6766 34.9715C12.8608 34.914 13.0143 34.8707 13.0178 34.8742ZM20.7356 36.684C20.7414 36.6827 20.7441 36.6827 20.7447 36.684C20.7704 36.7482 19.7644 39.5344 19.3967 40.4177C19.3144 40.6155 19.2839 40.6634 19.2411 40.6616C19.137 40.657 17.6784 40.4531 16.7956 40.3191C15.2502 40.0845 12.6617 39.6324 12.0085 39.4836L11.8567 39.4499L12.783 39.241C14.7684 38.7937 15.7219 38.5537 16.6892 38.2576C17.9092 37.8842 19.1172 37.4185 20.3373 36.8513C20.5302 36.7617 20.6946 36.6929 20.7356 36.684Z" fill="#A2ABBE"/>
<path d="M16.1352 0.0324653C15.998 0.0164491 13.7965 0.80962 12.3821 1.38427C10.4655 2.16292 8.97744 2.90898 8.05942 3.55339C7.71772 3.79325 7.28804 4.22463 7.22524 4.39016C7.20174 4.4521 7.19072 4.5245 7.19022 4.59903L8.0231 5.3852L9.99891 6.0157L14.7056 6.85636L20.0856 7.78135L20.1401 7.31951C20.1238 7.31694 20.1084 7.31429 20.0921 7.31172L19.3837 7.20015L19.2397 6.94718C18.5085 5.65696 17.7005 4.06036 17.2315 2.97997C16.8682 2.14326 16.5194 1.17938 16.3259 0.481338C16.211 0.0667602 16.1991 0.0399171 16.1352 0.0324653ZM16.0314 0.351606C16.0369 0.350622 16.0397 0.350585 16.0405 0.351606C16.0449 0.356803 16.0699 0.529855 16.095 0.735612C16.2009 1.60216 16.3948 2.44256 16.6983 3.34712C16.9269 4.02874 16.9302 3.9887 16.6581 3.91275C16.0254 3.73619 13.191 3.24965 11.1406 2.9657C10.8102 2.91995 10.5352 2.87927 10.5308 2.87489C10.5048 2.84886 12.0095 2.06047 12.6766 1.75012C13.5321 1.35207 15.8618 0.38211 16.0314 0.351606ZM10.0573 3.12657L10.2973 3.2083C11.6137 3.6564 14.9133 4.2867 16.7372 4.43816C16.9429 4.45525 17.1159 4.47358 17.1212 4.47838C17.1264 4.48318 16.9516 4.57657 16.7333 4.68595C15.8535 5.12669 14.8851 5.66389 14.2152 6.08316C14.0185 6.20629 13.8381 6.3056 13.8143 6.30371C13.7906 6.30181 13.6609 6.28097 13.525 6.2583L13.2772 6.21808L12.6545 5.61353C11.5613 4.55548 10.7078 3.73695 10.3777 3.42755L10.0573 3.12657ZM9.8134 3.32117L10.6852 4.40962C11.1651 5.0083 11.6461 5.60244 11.7529 5.73029C11.8597 5.85815 11.9423 5.9665 11.9371 5.9703C11.9124 5.98839 10.6736 5.7472 10.0171 5.59667C9.34311 5.44213 9.06436 5.36815 8.64711 5.23472L8.30721 5.12574L8.3085 5.04141C8.31283 4.6233 8.83983 4.00659 9.73426 3.37566L9.8134 3.32117ZM17.238 4.80401C17.2641 4.80602 17.2917 4.85917 17.369 5.02844C17.5804 5.49167 18.2386 6.74713 18.3978 6.98999C18.4502 7.06997 18.5332 7.07532 17.6596 6.9342C15.5599 6.59506 14.8807 6.48154 14.8807 6.46847C14.8807 6.4605 14.9437 6.41926 15.0208 6.37636C15.671 6.01477 16.3271 5.55966 16.911 5.06736C17.0506 4.94965 17.1848 4.83751 17.2094 4.81698C17.2195 4.80854 17.2292 4.80333 17.238 4.80401Z" fill="#A2ABBE"/>
<path d="M7.26213 4.30664C7.26213 4.30664 7.1259 4.52264 7.25435 4.84373C7.33383 5.04242 7.57251 5.28109 7.83555 5.5339C7.83555 5.5339 10.5908 8.22154 10.9284 8.61115C12.4549 10.373 13.118 12.1076 13.1792 14.5023C13.2185 16.039 12.9221 17.3899 12.2023 18.9599C10.9122 21.7739 8.19383 24.8771 3.99548 28.3278L4.61171 28.1241C5.00781 27.8274 5.54571 27.5105 6.81456 26.8164C9.7367 25.2181 13.0181 23.7478 17.0491 22.233C22.8486 20.0535 32.3885 17.4963 37.8166 16.6649L38.3822 16.578L38.2953 16.4418C37.799 15.6703 37.4602 15.1946 37.0525 14.6904C35.8619 13.218 34.4205 12.0167 32.6546 11.028C30.2278 9.66944 27.0802 8.61353 23.1011 7.82238C22.3489 7.67281 20.7015 7.39041 19.3609 7.1815C16.5213 6.73897 14.6898 6.44014 12.6668 6.08786C11.9415 5.96201 10.8585 5.78015 10.1396 5.62472C9.76499 5.54373 9.05308 5.37539 8.49978 5.18492C8.04298 5.00507 7.39974 4.83121 7.26213 4.30664ZM8.85913 5.85693C8.863 5.85345 8.96649 5.88546 9.09265 5.92829C9.32517 6.00722 9.632 6.09962 9.9891 6.19943C10.2393 6.26934 10.5143 6.3427 10.8064 6.41738C11.1792 6.51268 11.4875 6.59457 11.4914 6.599C11.5327 6.64541 12.1588 8.64361 12.3723 9.41029C12.4538 9.70292 12.5156 9.94673 12.5098 9.95257C12.5039 9.95841 12.4345 9.85067 12.3567 9.71387C11.6324 8.44006 10.4853 7.14469 9.15881 6.10213C8.99348 5.97218 8.85913 5.86185 8.85913 5.85693ZM11.9117 6.70019C11.9436 6.69799 12.0812 6.72102 12.2451 6.75727C13.3014 6.99087 15.1875 7.355 16.4004 7.55902C16.6025 7.59301 16.7689 7.62962 16.7689 7.64075C16.7689 7.65188 16.6934 7.69963 16.6015 7.74583C16.398 7.8482 15.5745 8.34112 15.299 8.52552C14.6112 8.98587 13.9928 9.47862 13.5425 9.92663C13.3615 10.1067 13.21 10.2536 13.2052 10.2536C13.2003 10.2536 13.1686 10.1486 13.1351 10.02C12.9099 9.15698 12.4444 7.88254 12.0272 6.9856C11.96 6.84127 11.9052 6.71398 11.9052 6.70279C11.9052 6.70138 11.9072 6.70048 11.9117 6.70019ZM17.2813 7.72118C17.3167 7.73297 17.3835 7.94146 17.5019 8.41006C17.7286 9.30735 17.8341 10.315 17.799 11.2473C17.7892 11.5067 17.7728 11.7477 17.7626 11.7831L17.7432 11.848L17.4227 11.7442C16.7622 11.533 15.6829 11.2152 14.758 10.9593C14.2326 10.8139 13.8019 10.6841 13.8019 10.6713C13.8019 10.6329 14.5686 9.8664 14.8982 9.57505C15.5277 9.01853 17.2213 7.70117 17.2813 7.72118ZM17.7081 7.78216C17.7273 7.76437 20.2741 8.20537 21.4314 8.42693C22.2941 8.59207 23.5422 8.85345 23.6174 8.88488C23.6537 8.90005 23.5246 8.97044 23.1102 9.15731C21.471 9.8965 20.2567 10.5562 19.0496 11.3641C18.7316 11.5768 18.4674 11.7507 18.4619 11.7507C18.4564 11.7507 18.4517 11.5731 18.4515 11.3563C18.4507 10.1791 18.2157 8.99095 17.7847 7.98713C17.7383 7.8791 17.7035 7.78648 17.7081 7.78216ZM24.2933 9.08466C24.3131 9.10439 24.2295 9.60661 24.1571 9.90328C23.9318 10.8266 23.3346 12.197 22.5977 13.4852C22.4679 13.7122 22.3517 13.9014 22.3383 13.9055C22.3248 13.9096 22.157 13.8214 21.9659 13.7096C21.2454 13.2881 20.4295 12.8894 19.5335 12.52C19.2836 12.4169 19.0708 12.3252 19.06 12.315C19.0191 12.2767 21.0102 10.9584 22.0658 10.3249C22.9102 9.81822 24.2696 9.06097 24.2933 9.08466ZM24.7643 9.15861C24.8216 9.15861 25.9511 9.46655 26.5351 9.64122C27.9898 10.0763 29.6679 10.6893 30.7566 11.1837L31.2093 11.3887L30.8902 11.4627C28.2265 12.0746 25.9435 12.7807 23.7446 13.6733C23.5619 13.7474 23.4029 13.8082 23.3917 13.8082C23.3805 13.8082 23.4389 13.6669 23.5201 13.4943C24.1811 12.0899 24.608 10.6162 24.7189 9.36489C24.7289 9.25099 24.7495 9.15861 24.7643 9.15861ZM13.5373 11.739C13.5553 11.7212 14.415 11.9226 14.8839 12.0542C15.5887 12.2521 17.0884 12.7539 17.0893 12.7924C17.0893 12.7999 16.924 12.944 16.7222 13.1128C15.9114 13.7912 15.1293 14.5005 14.1924 15.4052C13.9147 15.6734 13.6787 15.8917 13.667 15.8917C13.6553 15.8917 13.6501 15.8525 13.6566 15.8048C13.7977 14.7633 13.7674 13.4259 13.571 12.0646C13.5461 11.892 13.531 11.7452 13.5373 11.739ZM31.6401 11.7558C31.6529 11.7687 31.2412 12.4123 30.9849 12.7794C30.6109 13.3151 30.0689 14.0184 28.834 15.5713C28.1853 16.3869 27.4536 17.31 27.2071 17.6223C26.9606 17.9346 26.7538 18.1905 26.7479 18.1905C26.7419 18.1905 26.6624 18.0787 26.5714 17.9428C25.8753 16.9028 25.0492 15.9892 24.0637 15.1691C23.8798 15.016 23.6723 14.8482 23.6032 14.7968C23.534 14.7453 23.4776 14.6977 23.4773 14.6904C23.4767 14.6734 24.5292 14.222 25.3325 13.8951C26.731 13.326 28.6425 12.6445 30.0729 12.206C30.8272 11.9748 31.6286 11.7444 31.6401 11.7558ZM32.1149 11.8804C32.1375 11.8758 32.2876 11.9484 32.4677 12.0516C33.9743 12.9146 35.4505 14.0228 36.6114 15.1626C36.9416 15.4868 37.7495 16.3272 37.7375 16.3341C37.7344 16.3359 37.4554 16.358 37.1173 16.3834C34.5067 16.5797 31.1691 17.1351 27.9557 17.9077C27.7374 17.9602 27.5488 18.0037 27.5366 18.0037C27.5245 18.0037 27.7634 17.764 28.0672 17.4718C29.9543 15.6576 30.8152 14.5121 31.8282 12.4655C31.979 12.1607 32.1069 11.8977 32.1123 11.8817C32.1126 11.8807 32.1134 11.8807 32.1149 11.8804ZM18.3166 13.2945C18.4028 13.3138 19.2076 13.6883 19.815 13.9924C20.3705 14.2705 21.2118 14.7185 21.2537 14.7578C21.259 14.7628 20.9626 14.9175 20.5947 15.1016C19.4298 15.6844 18.432 16.2348 17.3903 16.8712C17.0932 17.0526 16.8442 17.202 16.8363 17.202C16.8104 17.202 16.8206 17.1795 16.9868 16.8751C17.5416 15.859 17.9891 14.6459 18.2465 13.4605C18.2695 13.3547 18.2972 13.2901 18.3166 13.2945ZM17.5058 13.4398C17.5226 13.4566 17.3137 14.2237 17.1814 14.6333C16.9277 15.419 16.4987 16.4067 16.0865 17.1501C15.9897 17.3247 15.8412 17.5803 15.757 17.7183L15.6039 17.9687L15.2562 17.6327C14.8522 17.241 14.5231 16.9978 14.1029 16.7817C13.9377 16.6967 13.8034 16.6181 13.8032 16.6065C13.8024 16.5554 14.8602 15.5935 15.6765 14.9031C16.2609 14.409 17.4908 13.4248 17.5058 13.4398ZM22.433 15.4662L22.7353 15.6621C23.4287 16.1123 24.2498 16.718 24.8758 17.2396C25.2267 17.532 25.9085 18.1425 26.0486 18.2904L26.1239 18.3696L25.6218 18.5097C22.7822 19.2975 20.5884 19.9989 18.0286 20.9396C17.7445 21.044 17.4992 21.1303 17.4824 21.1303C17.4471 21.1303 17.412 21.1627 18.0506 20.575C19.6879 19.0683 21.1343 17.4082 22.215 15.7931L22.433 15.4662ZM21.1383 15.7905C21.1531 15.8053 20.2991 17.0014 19.7916 17.6768C19.1845 18.4849 18.1032 19.8357 17.3592 20.7151C17.0483 21.0826 16.782 21.3874 16.7676 21.3923C16.7518 21.3977 16.7419 21.3077 16.7416 21.1653C16.7402 20.4149 16.5504 19.613 16.2149 18.9339C16.0733 18.6471 16.0495 18.5777 16.0787 18.5512C16.1954 18.4454 18.0017 17.4155 19.1404 16.805C19.9225 16.3857 21.1234 15.7756 21.1383 15.7905ZM13.3076 17.7092C13.3232 17.7092 13.468 17.782 13.6294 17.8714C14.0247 18.0904 14.3799 18.3314 14.6932 18.5927C14.7053 18.6028 14.543 18.7353 14.3325 18.8872C13.745 19.3111 12.8503 19.9864 12.3321 20.3986C11.7853 20.8335 11.7672 20.8468 11.8287 20.7528C12.2381 20.1266 12.444 19.772 12.659 19.3192C12.8501 18.9167 13.0406 18.4389 13.1766 18.0232C13.2331 17.8505 13.2921 17.7092 13.3076 17.7092ZM15.3937 19.3465C15.422 19.343 15.4621 19.3955 15.6298 19.6461C15.9833 20.1743 16.254 20.8786 16.3239 21.452L16.3382 21.5753L15.491 21.9035C13.9704 22.4936 12.5706 23.0753 11.625 23.5083C11.3605 23.6294 10.8934 23.8525 10.5885 24.0051C10.2835 24.1577 10.0345 24.2776 10.0345 24.2711C10.0345 24.2645 10.226 24.1205 10.46 23.9506C12.3158 22.6034 13.9158 21.1284 15.1213 19.6539C15.2502 19.4962 15.3673 19.3595 15.3821 19.3504C15.386 19.3479 15.3897 19.347 15.3937 19.3465ZM14.4311 19.5852C14.4557 19.6097 13.7464 20.4118 13.2687 20.8994C12.0732 22.1196 10.8879 23.0762 9.41958 24.0077C9.23586 24.1243 9.06799 24.2296 9.04595 24.2425C9.00564 24.2661 9.05898 24.2055 9.70369 23.5031C10.11 23.0604 10.4209 22.693 10.774 22.2343C11.0065 21.9322 11.0509 21.8899 11.3915 21.644C12.309 20.9818 14.4067 19.5608 14.4311 19.5852Z" fill="#A2ABBE"/>
</svg>
