<svg width="185" height="29" viewBox="0 0 185 29" fill="none" xmlns="http://www.w3.org/2000/svg">
<path fill-rule="evenodd" clip-rule="evenodd" d="M44.9247 9.22607C42.9406 9.22607 41.24 9.93466 39.8228 11.0684V9.50951H35.0045V27.7911H39.9646V16.1702C40.6732 15.1782 42.3738 13.9028 44.4995 13.9028C45.2081 13.9028 45.9167 14.0445 46.4836 14.1862V9.50951C45.9167 9.36779 45.3498 9.22607 44.9247 9.22607Z" fill="#5D5D75"/>
<path fill-rule="evenodd" clip-rule="evenodd" d="M2.26748 22.1195C3.54294 23.2533 5.52698 23.9619 7.22759 23.9619C8.50305 23.9619 9.63679 23.2533 9.63679 22.403C9.63679 19.5686 0.708587 20.5607 0.708587 14.7502C0.708587 11.2073 4.10981 9.08154 7.65274 9.08154C10.0619 9.08154 12.6129 9.93185 13.8883 10.9239L11.6208 14.4668C10.6288 13.8999 9.49507 13.1913 8.0779 13.1913C6.66072 13.1913 5.6687 13.7582 5.6687 14.7502C5.6687 17.1594 14.5969 16.1674 14.5969 22.5447C14.5969 26.0876 11.1957 28.2134 7.36931 28.2134C4.81839 28.2134 2.12576 27.3631 0 25.8042L2.26748 22.1195Z" fill="#5D5D75"/>
<path fill-rule="evenodd" clip-rule="evenodd" d="M32.8791 18.4349C32.8791 13.3331 29.3361 9.08154 24.2343 9.08154C18.849 9.08154 15.3061 13.6165 15.3061 18.5766C15.3061 24.387 19.4159 28.0717 24.8012 28.0717C27.6355 28.0717 30.4699 26.9379 32.3122 24.8122L29.4778 21.9778C28.6275 22.9699 26.9269 24.1036 24.9429 24.1036C22.392 24.1036 20.2662 22.2613 19.9828 19.7104H32.5956C32.8791 19.4269 32.8791 19.0018 32.8791 18.4349ZM20.4079 16.3091C20.6914 14.6085 22.392 13.0496 24.376 13.0496C26.3601 13.0496 27.7772 14.6085 28.0607 16.3091H20.4079Z" fill="#5D5D75"/>
<path fill-rule="evenodd" clip-rule="evenodd" d="M68.0241 9.51001L59.6628 27.7916H56.2616L47.9003 9.51001H52.8604L57.9622 20.7057L62.9223 9.51001H68.0241Z" fill="#5D5D75"/>
<path fill-rule="evenodd" clip-rule="evenodd" d="M72.1326 0.865967C73.9749 0.865967 75.3921 2.28314 75.3921 3.98375C75.3921 5.82608 73.9749 7.10154 72.1326 7.10154C70.2902 7.10154 69.0148 5.68436 69.0148 3.98375C69.0148 2.14142 70.2902 0.865967 72.1326 0.865967Z" fill="#5D5D75"/>
<path d="M74.6842 9.51001H69.7241V27.7916H74.6842V9.51001Z" fill="#5D5D75"/>
<path fill-rule="evenodd" clip-rule="evenodd" d="M94.8091 23.9619C92.6833 26.7962 89.9907 28.0717 86.5895 28.0717C80.9208 28.0717 76.811 23.8202 76.811 18.5766C76.811 13.1913 81.0625 9.08154 86.5895 9.08154C89.849 9.08154 92.5416 10.6404 94.2422 12.7662L90.9827 15.7423C89.9907 14.4668 88.5735 13.6165 86.8729 13.6165C84.0386 13.6165 81.9128 15.884 81.9128 18.5766C81.9128 21.411 83.8968 23.5367 86.8729 23.5367C88.857 23.5367 90.4158 22.403 91.2662 21.1275L94.8091 23.9619Z" fill="#5D5D75"/>
<path fill-rule="evenodd" clip-rule="evenodd" d="M112.525 24.8122C110.682 26.9379 107.848 28.0717 105.014 28.0717C99.6284 28.0717 95.5186 24.387 95.5186 18.5766C95.5186 13.4748 98.9198 9.08154 104.447 9.08154C109.407 9.08154 113.092 13.3331 113.092 18.4349C113.092 19.0018 113.092 19.4269 112.95 19.8521H100.195C100.479 22.403 102.604 24.2453 105.155 24.2453C107.139 24.2453 108.84 23.1116 109.69 22.1195L112.525 24.8122ZM107.99 16.3091C107.848 14.7502 106.431 13.0496 104.305 13.0496C102.321 13.0496 100.62 14.6085 100.337 16.3091H107.99Z" fill="#5D5D75"/>
<path fill-rule="evenodd" clip-rule="evenodd" d="M114.933 27.7891V9.50756H119.609V11.0664C121.026 9.93271 122.727 9.22412 124.711 9.22412C127.262 9.22412 129.529 10.3579 131.088 12.2002C132.222 13.6174 133.072 15.4597 133.072 18.5775V27.9308H128.112V18.1523C128.112 16.31 127.687 15.318 126.979 14.7511C126.27 14.0425 125.42 13.6174 124.144 13.6174C122.16 13.6174 120.46 14.8928 119.609 15.8848V27.7891H114.933Z" fill="#5D5D75"/>
<path fill-rule="evenodd" clip-rule="evenodd" d="M145.686 9.08496C139.733 9.08496 135.057 13.7616 135.057 19.7138C135.057 22.8316 136.332 25.6659 138.316 27.6499C139.025 28.3585 140.3 28.3585 141.151 27.7917C142.284 26.7996 143.985 26.2328 145.686 26.2328C147.528 26.2328 148.945 26.7996 150.221 27.7917C151.071 28.5003 152.205 28.3585 153.055 27.5082C155.039 25.5242 156.314 22.8316 156.314 19.7138C156.173 13.9034 151.496 9.08496 145.686 9.08496ZM145.544 25.2408C142.284 25.2408 140.159 22.8316 140.159 19.8555C140.159 16.8794 142.284 14.4702 145.544 14.4702C148.803 14.4702 150.929 16.8794 150.929 19.8555C150.929 22.8316 148.803 25.2408 145.544 25.2408Z" fill="#A2ABBE"/>
<path fill-rule="evenodd" clip-rule="evenodd" d="M155.04 9.51025H159.858L163.826 19.9973L167.794 9.51025H171.904L175.73 19.9973L179.698 9.51025H184.659L177.431 27.7918H173.746L169.778 17.4464L165.952 27.7918H162.267L155.04 9.51025Z" fill="#5D5D75"/>
</svg>
