<svg width="131" height="36" viewBox="0 0 131 36" fill="none" xmlns="http://www.w3.org/2000/svg">
<path d="M125.197 6.54938V22.6768H113.439C111.476 22.6768 110.488 21.7061 110.488 19.7669V6.54938C110.488 4.62585 109.526 3.76067 107.583 3.76067C105.65 3.76067 104.693 4.66304 104.693 6.54938V19.6457C104.693 25.45 107.631 28.3587 113.389 28.3587C118.468 28.3587 124.218 26.7651 125.304 26.3847C125.564 27.7011 126.472 28.3767 128.045 28.3767C128.063 28.3767 128.079 28.3575 128.096 28.3575V28.3767C130.045 28.3767 131 27.4407 131 25.5003V6.54938C131 4.36785 129.656 3.76067 128.116 3.76067C126.166 3.74268 125.197 4.67744 125.197 6.54938ZM96.8672 3.75947C94.9046 3.75947 93.9331 4.67744 93.9125 6.54818V22.6756H82.1588C80.1926 22.6756 79.2028 21.7049 79.2028 19.7657V6.54938C79.2028 4.62585 78.2276 3.76067 76.3027 3.76067C74.3704 3.76067 73.3988 4.66304 73.3988 6.54938V19.6457C73.3988 25.45 76.3354 28.3587 82.1055 28.3587C87.1684 28.3587 92.9227 26.7651 94.001 26.3847C94.2678 27.7191 95.2382 28.3947 96.8175 28.3767C98.7461 28.3767 99.7225 27.4407 99.7225 25.5711V6.56498C99.7225 4.50345 98.5496 3.75947 96.8672 3.75947ZM62.7733 18.7962C62.7733 20.7365 60.7937 22.6924 58.8275 22.6924H47.7968V9.47728H58.8275C60.7937 9.47728 62.7733 11.3828 62.7733 13.2008V18.7962ZM58.8275 3.77627C53.0016 3.77627 47.6913 5.75141 47.6913 5.75141C47.6913 5.75141 46.6142 3.77627 44.8602 3.77627C43.0869 3.77627 41.9904 4.60785 41.9904 6.54818V33.1753C41.9904 35.0628 42.9656 35.9988 44.893 35.9988C46.8216 35.9988 47.7968 35.028 47.7968 33.1045V26.3835C50.327 27.4407 55.4094 28.3755 58.8602 28.3755C64.4763 28.3755 68.5615 24.4936 68.5615 18.6918V13.2872C68.5627 7.58735 64.6485 3.77627 58.8275 3.77627ZM31.0155 19.7837C31.0155 21.7253 30.0439 22.6936 28.0777 22.6936H21.3178V9.47728H28.0777C30.0439 9.47728 31.0155 10.3953 31.0155 12.2324V19.7837ZM8.73091 22.6936C6.78168 22.6936 5.7919 21.7253 5.7919 19.7837V12.2324C5.7919 10.3953 6.78168 9.47728 8.73091 9.47728H15.5102V22.6936H8.73091ZM18.4128 0C16.4648 0 15.5089 0.953968 15.5089 2.8943V5.75261C14.2002 4.71224 10.2871 3.76067 8.7297 3.77747C2.90747 3.84587 0 6.61778 0 12.2996V19.6637C0 25.4656 2.90747 28.4979 8.69573 28.3767C11.2624 28.3251 14.4816 26.9043 15.5089 26.3847V33.1765C15.5089 35.064 16.4648 36 18.4128 36C20.3414 36 21.3178 35.064 21.3178 33.1765V26.3847C22.5041 26.9559 25.6348 28.3767 28.1104 28.3767C33.9181 28.3767 36.8219 25.4668 36.8219 19.6637V12.2996C36.8219 6.61778 33.9023 3.83027 28.0765 3.77747C25.9707 3.76067 23.3689 4.43625 21.3166 5.75261V2.80671C21.3178 0.935969 20.3414 0 18.4128 0Z" fill="#5D5D75"/>
</svg>
