<svg width="160" height="51" viewBox="0 0 160 51" fill="none" xmlns="http://www.w3.org/2000/svg">
<path d="M129.198 44.3907L131.387 40.473H132.86V46.4856H131.387V42.5624L129.198 46.4856H127.725V40.473H129.198V44.3907ZM131.115 38.1113H132.182C132.182 38.4225 132.106 38.6985 131.954 38.9393C131.802 39.1801 131.585 39.369 131.304 39.5061C131.026 39.6395 130.696 39.7062 130.315 39.7062C129.741 39.7062 129.285 39.558 128.948 39.2616C128.611 38.9652 128.442 38.5818 128.442 38.1113H129.509C129.509 38.3077 129.57 38.4836 129.692 38.6392C129.815 38.7948 130.022 38.8726 130.315 38.8726C130.607 38.8726 130.813 38.7948 130.932 38.6392C131.054 38.4836 131.115 38.3077 131.115 38.1113Z" fill="#5D5D75"/>
<path d="M122.719 44.3908L124.909 40.4731H126.381V46.4857H124.909V42.5625L122.719 46.4857H121.247V40.4731H122.719V44.3908Z" fill="#5D5D75"/>
<path d="M118.871 42.9404V44.0907H115.787V42.9404H118.871ZM116.249 40.4731V46.4857H114.776V40.4731H116.249ZM119.899 40.4731V46.4857H118.421V40.4731H119.899Z" fill="#5D5D75"/>
<path d="M111.962 45.2079V42.435C111.962 42.2313 111.927 42.0553 111.857 41.9071C111.786 41.7589 111.679 41.6441 111.535 41.5626C111.39 41.4811 111.207 41.4403 110.984 41.4403C110.788 41.4403 110.616 41.4737 110.468 41.5404C110.323 41.6071 110.212 41.7015 110.134 41.8238C110.056 41.9423 110.018 42.0794 110.018 42.235H108.545C108.545 41.9868 108.604 41.7515 108.723 41.5293C108.841 41.3033 109.01 41.1032 109.228 40.9291C109.451 40.7513 109.716 40.6124 110.023 40.5123C110.334 40.4123 110.682 40.3623 111.068 40.3623C111.523 40.3623 111.929 40.4401 112.285 40.5957C112.644 40.7476 112.926 40.9773 113.129 41.2848C113.337 41.5922 113.441 41.9794 113.441 42.4462V45.069C113.441 45.3691 113.459 45.6266 113.496 45.8414C113.537 46.0526 113.596 46.236 113.674 46.3916V46.486H112.179C112.109 46.3341 112.055 46.1415 112.018 45.9081C111.981 45.671 111.962 45.4376 111.962 45.2079ZM112.168 42.824L112.179 43.6965H111.251C111.021 43.6965 110.82 43.7205 110.645 43.7687C110.471 43.8132 110.329 43.8798 110.218 43.9687C110.106 44.054 110.023 44.1577 109.967 44.2799C109.912 44.3985 109.884 44.5337 109.884 44.6856C109.884 44.8338 109.917 44.9671 109.984 45.0857C110.055 45.2042 110.155 45.2987 110.284 45.3691C110.418 45.4358 110.573 45.4691 110.751 45.4691C111.01 45.4691 111.236 45.4173 111.429 45.3135C111.622 45.2061 111.772 45.0764 111.879 44.9245C111.987 44.7727 112.044 44.6282 112.051 44.4911L112.474 45.1246C112.422 45.2765 112.344 45.4376 112.24 45.608C112.137 45.7785 112.003 45.9378 111.84 46.0859C111.677 46.2341 111.481 46.3564 111.251 46.4527C111.021 46.549 110.755 46.5972 110.451 46.5972C110.062 46.5972 109.714 46.5194 109.406 46.3638C109.099 46.2082 108.856 45.9952 108.678 45.7247C108.5 45.4543 108.412 45.1468 108.412 44.8023C108.412 44.4837 108.471 44.2021 108.589 43.9576C108.708 43.7131 108.884 43.5075 109.117 43.3408C109.351 43.1704 109.64 43.0426 109.984 42.9574C110.332 42.8685 110.731 42.824 111.179 42.824H112.168Z" fill="#5D5D75"/>
<path d="M106.209 40.4731V41.6345H103.27V40.4731H106.209ZM103.659 40.4731V46.4857H102.186V40.4731H103.659ZM107.321 40.4731V46.4857H105.843V40.4731H107.321Z" fill="#5D5D75"/>
<path d="M97.1713 44.752L98.8606 40.4731H100.089L97.6715 46.4857H96.6768L94.2651 40.4731H95.4987L97.1713 44.752ZM95.1375 40.4731V46.4857H93.6649V40.4731H95.1375ZM99.233 46.4857V40.4731H100.706V46.4857H99.233Z" fill="#5D5D75"/>
<path d="M86.8594 43.5409V43.4242C86.8594 42.9833 86.9224 42.5777 87.0483 42.2072C87.1743 41.833 87.3576 41.5089 87.5984 41.2347C87.8392 40.9606 88.1338 40.7476 88.482 40.5957C88.8302 40.4401 89.2266 40.3623 89.6712 40.3623C90.1231 40.3623 90.5232 40.4401 90.8715 40.5957C91.2234 40.7476 91.5198 40.9606 91.7606 41.2347C92.0014 41.5089 92.1848 41.833 92.3107 42.2072C92.4367 42.5777 92.4997 42.9833 92.4997 43.4242V43.5409C92.4997 43.978 92.4367 44.3837 92.3107 44.7578C92.1848 45.1283 92.0014 45.4524 91.7606 45.7303C91.5198 46.0044 91.2253 46.2175 90.877 46.3693C90.5288 46.5212 90.1306 46.5972 89.6823 46.5972C89.2377 46.5972 88.8395 46.5212 88.4876 46.3693C88.1356 46.2175 87.8392 46.0044 87.5984 45.7303C87.3576 45.4524 87.1743 45.1283 87.0483 44.7578C86.9224 44.3837 86.8594 43.978 86.8594 43.5409ZM88.3264 43.4242V43.5409C88.3264 43.8039 88.3523 44.0503 88.4042 44.2799C88.4561 44.5096 88.5357 44.7115 88.6431 44.8856C88.7506 45.0598 88.8895 45.1968 89.0599 45.2969C89.234 45.3932 89.4415 45.4413 89.6823 45.4413C89.9194 45.4413 90.1231 45.3932 90.2936 45.2969C90.464 45.1968 90.6029 45.0598 90.7103 44.8856C90.8215 44.7115 90.903 44.5096 90.9548 44.2799C91.0067 44.0503 91.0326 43.8039 91.0326 43.5409V43.4242C91.0326 43.1648 91.0067 42.9222 90.9548 42.6962C90.903 42.4665 90.8215 42.2646 90.7103 42.0905C90.6029 41.9127 90.4621 41.7738 90.288 41.6737C90.1176 41.57 89.912 41.5181 89.6712 41.5181C89.4341 41.5181 89.2303 41.57 89.0599 41.6737C88.8895 41.7738 88.7506 41.9127 88.6431 42.0905C88.5357 42.2646 88.4561 42.4665 88.4042 42.6962C88.3523 42.9222 88.3264 43.1648 88.3264 43.4242Z" fill="#5D5D75"/>
<path d="M82.5666 40.4731V46.4857H81.0995V40.4731H82.5666ZM86.4842 40.4731L83.8336 44.1629H82.2721L82.0887 42.8182H83.1723L84.6338 40.4731H86.4842ZM84.7227 46.4857L83.0778 43.9073L84.3003 43.1405L86.6731 46.4857H84.7227Z" fill="#5D5D75"/>
<path d="M79.7356 42.4409V43.6023H76.696V42.4409H79.7356Z" fill="#5D5D75"/>
<path d="M74.7957 38.395V46.4859H73.2731V38.395H74.7957ZM77.3074 38.395V39.6009H70.7891V38.395H77.3074Z" fill="#5D5D75"/>
<path d="M64.9888 44.0409L68.4064 38.395H69.9401V46.4859H68.4064V40.8401L64.9888 46.4859H63.4607V38.395H64.9888V44.0409Z" fill="#5D5D75"/>
<path d="M156.165 25.0767L157.238 26.9882L158.327 25.0767H159.922L158.155 28.0218L159.994 31.0893H158.399L157.249 29.0832L156.093 31.0893H154.498L156.332 28.0218L154.576 25.0767H156.165Z" fill="#5D5D75"/>
<path d="M146.775 26.9271H148.531C149.064 26.9271 149.518 27.016 149.892 27.1938C150.27 27.368 150.557 27.6125 150.753 27.9274C150.953 28.2386 151.053 28.5998 151.053 29.011C151.053 29.3073 150.996 29.5833 150.881 29.8389C150.77 30.0909 150.607 30.3113 150.392 30.5002C150.177 30.6855 149.912 30.8299 149.597 30.9337C149.286 31.0374 148.931 31.0893 148.531 31.0893H145.83V25.0767H147.302V29.939H148.531C148.786 29.939 148.99 29.8964 149.142 29.8112C149.297 29.7223 149.408 29.6093 149.475 29.4722C149.546 29.3314 149.581 29.1814 149.581 29.0221C149.581 28.8591 149.546 28.7072 149.475 28.5664C149.408 28.4219 149.297 28.3052 149.142 28.2163C148.99 28.1274 148.786 28.083 148.531 28.083H146.775V26.9271ZM153.521 25.0767V31.0893H152.048V25.0767H153.521Z" fill="#5D5D75"/>
<path d="M143.357 27.5439V28.6942H140.273V27.5439H143.357ZM140.734 25.0767V31.0893H139.261V25.0767H140.734ZM144.385 25.0767V31.0893H142.907V25.0767H144.385Z" fill="#5D5D75"/>
<path d="M136.894 27.5439V28.6942H133.81V27.5439H136.894ZM134.271 25.0767V31.0893H132.799V25.0767H134.271ZM137.922 25.0767V31.0893H136.444V25.0767H137.922Z" fill="#5D5D75"/>
<path d="M129.985 29.811V27.0381C129.985 26.8343 129.95 26.6583 129.88 26.5102C129.809 26.362 129.702 26.2471 129.557 26.1656C129.413 26.0841 129.23 26.0434 129.007 26.0434C128.811 26.0434 128.639 26.0767 128.491 26.1434C128.346 26.2101 128.235 26.3046 128.157 26.4268C128.079 26.5454 128.04 26.6824 128.04 26.838H126.568C126.568 26.5898 126.627 26.3546 126.746 26.1323C126.864 25.9063 127.033 25.7063 127.251 25.5321C127.474 25.3543 127.738 25.2154 128.046 25.1154C128.357 25.0153 128.705 24.9653 129.091 24.9653C129.546 24.9653 129.952 25.0431 130.308 25.1987C130.667 25.3506 130.949 25.5803 131.152 25.8878C131.36 26.1953 131.463 26.5824 131.463 27.0492V29.672C131.463 29.9721 131.482 30.2296 131.519 30.4445C131.56 30.6556 131.619 30.839 131.697 30.9946V31.0891H130.202C130.132 30.9372 130.078 30.7445 130.041 30.5111C130.004 30.274 129.985 30.0407 129.985 29.811ZM130.191 27.4271L130.202 28.2995H129.274C129.044 28.2995 128.842 28.3236 128.668 28.3717C128.494 28.4162 128.352 28.4829 128.24 28.5718C128.129 28.657 128.046 28.7607 127.99 28.883C127.935 29.0015 127.907 29.1367 127.907 29.2886C127.907 29.4368 127.94 29.5702 128.007 29.6887C128.077 29.8073 128.177 29.9017 128.307 29.9721C128.44 30.0388 128.596 30.0721 128.774 30.0721C129.033 30.0721 129.259 30.0203 129.452 29.9166C129.644 29.8091 129.795 29.6795 129.902 29.5276C130.009 29.3757 130.067 29.2312 130.074 29.0941L130.497 29.7276C130.445 29.8795 130.367 30.0407 130.263 30.2111C130.159 30.3815 130.026 30.5408 129.863 30.689C129.7 30.8372 129.504 30.9594 129.274 31.0557C129.044 31.152 128.778 31.2002 128.474 31.2002C128.085 31.2002 127.737 31.1224 127.429 30.9668C127.122 30.8112 126.879 30.5982 126.701 30.3278C126.523 30.0573 126.434 29.7498 126.434 29.4053C126.434 29.0867 126.494 28.8052 126.612 28.5607C126.731 28.3162 126.907 28.1106 127.14 27.9438C127.374 27.7734 127.663 27.6456 128.007 27.5604C128.355 27.4715 128.754 27.4271 129.202 27.4271H130.191Z" fill="#5D5D75"/>
<path d="M123.188 28.5442H121.282L121.271 27.5495H122.838C123.071 27.5495 123.262 27.5254 123.41 27.4773C123.558 27.4291 123.667 27.3569 123.738 27.2605C123.812 27.1642 123.849 27.0475 123.849 26.9104C123.849 26.7919 123.827 26.69 123.782 26.6048C123.738 26.5159 123.671 26.4437 123.582 26.3881C123.497 26.3325 123.388 26.2918 123.254 26.2658C123.125 26.2362 122.973 26.2214 122.799 26.2214H121.804V31.0893H120.331V25.0767H122.799C123.188 25.0767 123.538 25.1119 123.849 25.1822C124.16 25.2489 124.425 25.3508 124.644 25.4879C124.862 25.6249 125.029 25.7991 125.144 26.0102C125.262 26.2177 125.322 26.4622 125.322 26.7437C125.322 26.929 125.281 27.1031 125.199 27.2661C125.118 27.4291 124.997 27.5736 124.838 27.6995C124.679 27.8255 124.483 27.9292 124.249 28.0107C124.016 28.0885 123.749 28.1367 123.449 28.1552L123.188 28.5442ZM123.188 31.0893H120.887L121.432 29.9445H123.188C123.403 29.9445 123.58 29.9186 123.721 29.8667C123.862 29.8112 123.966 29.7315 124.032 29.6278C124.103 29.5241 124.138 29.3981 124.138 29.2499C124.138 29.1054 124.105 28.9813 124.038 28.8776C123.975 28.7702 123.873 28.6887 123.732 28.6331C123.595 28.5738 123.414 28.5442 123.188 28.5442H121.671L121.682 27.5495H123.443L123.832 27.944C124.232 27.97 124.564 28.0515 124.827 28.1885C125.09 28.3219 125.286 28.4923 125.416 28.6998C125.546 28.9035 125.611 29.1277 125.611 29.3722C125.611 29.6574 125.557 29.9075 125.449 30.1223C125.342 30.3372 125.185 30.5169 124.977 30.6614C124.77 30.8021 124.516 30.9096 124.216 30.9837C123.916 31.0541 123.573 31.0893 123.188 31.0893Z" fill="#5D5D75"/>
<path d="M113.518 28.1439V28.0272C113.518 27.5863 113.581 27.1807 113.707 26.8102C113.833 26.4361 114.016 26.1119 114.257 25.8378C114.498 25.5636 114.792 25.3506 115.14 25.1987C115.489 25.0431 115.885 24.9653 116.33 24.9653C116.782 24.9653 117.182 25.0431 117.53 25.1987C117.882 25.3506 118.178 25.5636 118.419 25.8378C118.66 26.1119 118.843 26.4361 118.969 26.8102C119.095 27.1807 119.158 27.5863 119.158 28.0272V28.1439C119.158 28.581 119.095 28.9867 118.969 29.3609C118.843 29.7313 118.66 30.0555 118.419 30.3333C118.178 30.6075 117.884 30.8205 117.535 30.9724C117.187 31.1243 116.789 31.2002 116.341 31.2002C115.896 31.2002 115.498 31.1243 115.146 30.9724C114.794 30.8205 114.498 30.6075 114.257 30.3333C114.016 30.0555 113.833 29.7313 113.707 29.3609C113.581 28.9867 113.518 28.581 113.518 28.1439ZM114.985 28.0272V28.1439C114.985 28.4069 115.011 28.6533 115.063 28.883C115.114 29.1127 115.194 29.3146 115.302 29.4887C115.409 29.6628 115.548 29.7999 115.718 29.8999C115.892 29.9962 116.1 30.0444 116.341 30.0444C116.578 30.0444 116.782 29.9962 116.952 29.8999C117.122 29.7999 117.261 29.6628 117.369 29.4887C117.48 29.3146 117.561 29.1127 117.613 28.883C117.665 28.6533 117.691 28.4069 117.691 28.1439V28.0272C117.691 27.7679 117.665 27.5252 117.613 27.2992C117.561 27.0696 117.48 26.8677 117.369 26.6935C117.261 26.5157 117.121 26.3768 116.946 26.2768C116.776 26.173 116.57 26.1212 116.33 26.1212C116.092 26.1212 115.889 26.173 115.718 26.2768C115.548 26.3768 115.409 26.5157 115.302 26.6935C115.194 26.8677 115.114 27.0696 115.063 27.2992C115.011 27.5252 114.985 27.7679 114.985 28.0272Z" fill="#5D5D75"/>
<path d="M111.17 25.0767V31.0893H109.697V25.0767H111.17ZM113.126 25.0767V26.2214H107.774V25.0767H113.126Z" fill="#5D5D75"/>
<path d="M103.258 28.9943L105.448 25.0767H106.92V31.0893H105.448V27.1661L103.258 31.0893H101.786V25.0767H103.258V28.9943Z" fill="#5D5D75"/>
<path d="M95.7979 25.0767H97.265L97.2094 27.1438C97.1909 27.7699 97.1168 28.3108 96.9871 28.7665C96.8612 29.2184 96.6926 29.5981 96.4814 29.9056C96.274 30.2131 96.0369 30.4613 95.7702 30.6503C95.5071 30.8392 95.2311 30.9855 94.9422 31.0893H94.5921L94.5865 29.9445L94.7588 29.9334C94.9329 29.7482 95.0792 29.5667 95.1978 29.3888C95.32 29.2073 95.4182 29.0128 95.4923 28.8054C95.5664 28.5979 95.622 28.3608 95.659 28.0941C95.6998 27.8236 95.7257 27.5069 95.7368 27.1438L95.7979 25.0767ZM96.1925 25.0767H100.088V31.0893H98.6209V26.2825H96.1925V25.0767ZM94.2587 29.9334H100.927V32.8897H99.46V31.0893H95.7535V32.8897H94.2531L94.2587 29.9334Z" fill="#5D5D75"/>
<path d="M91.2859 31.2002C90.8302 31.2002 90.4208 31.1261 90.0578 30.9779C89.6947 30.8297 89.3854 30.6241 89.1298 30.3611C88.8779 30.0944 88.6834 29.785 88.5463 29.4331C88.4129 29.0775 88.3463 28.6959 88.3463 28.2884V28.0661C88.3463 27.603 88.4129 27.1825 88.5463 26.8047C88.6797 26.4231 88.8686 26.0952 89.1131 25.8211C89.3576 25.547 89.6503 25.3358 89.9911 25.1876C90.3319 25.0394 90.7079 24.9653 91.1192 24.9653C91.5452 24.9653 91.9212 25.0376 92.2472 25.1821C92.5732 25.3228 92.8455 25.5229 93.0641 25.7822C93.2827 26.0415 93.4475 26.3527 93.5586 26.7158C93.6698 27.0751 93.7254 27.4734 93.7254 27.9105V28.5273H89.0131V27.516H92.2806V27.4048C92.2731 27.1714 92.2287 26.9584 92.1472 26.7658C92.0657 26.5694 91.9397 26.4138 91.7693 26.299C91.5989 26.1804 91.3785 26.1212 91.108 26.1212C90.8895 26.1212 90.6987 26.1693 90.5357 26.2657C90.3764 26.3583 90.243 26.4916 90.1356 26.6658C90.0319 26.8362 89.9541 27.0399 89.9022 27.277C89.8503 27.5141 89.8244 27.7771 89.8244 28.0661V28.2884C89.8244 28.5403 89.8577 28.7737 89.9244 28.9885C89.9948 29.2034 90.0967 29.3905 90.2301 29.5498C90.3671 29.7054 90.5301 29.8276 90.7191 29.9166C90.9117 30.0018 91.1303 30.0444 91.3748 30.0444C91.6823 30.0444 91.9601 29.9851 92.2083 29.8665C92.4602 29.7443 92.6788 29.5646 92.864 29.3275L93.6031 30.0944C93.4771 30.2796 93.3067 30.4574 93.0919 30.6278C92.8807 30.7983 92.6251 30.9372 92.325 31.0446C92.0249 31.1483 91.6786 31.2002 91.2859 31.2002Z" fill="#5D5D75"/>
<path d="M83.6587 26.2323V33.4007H82.1862V25.0765H83.5476L83.6587 26.2323ZM87.5208 28.0216V28.1383C87.5208 28.5755 87.4689 28.9811 87.3652 29.3553C87.2652 29.7258 87.117 30.0499 86.9207 30.3278C86.7243 30.6019 86.4798 30.8168 86.1871 30.9724C85.8982 31.1243 85.5648 31.2002 85.1869 31.2002C84.8164 31.2002 84.4941 31.1298 84.22 30.989C83.9459 30.8446 83.7143 30.6408 83.5254 30.3778C83.3364 30.1147 83.1846 29.8091 83.0697 29.4609C82.9586 29.1089 82.8752 28.7255 82.8196 28.3106V27.9383C82.8752 27.4974 82.9586 27.0973 83.0697 26.738C83.1846 26.3749 83.3364 26.0619 83.5254 25.7989C83.7143 25.5321 83.944 25.3265 84.2144 25.1821C84.4886 25.0376 84.809 24.9653 85.1758 24.9653C85.5574 24.9653 85.8926 25.0376 86.1816 25.1821C86.4743 25.3265 86.7206 25.534 86.9207 25.8044C87.1207 26.0749 87.2707 26.3972 87.3708 26.7713C87.4708 27.1455 87.5208 27.5623 87.5208 28.0216ZM86.0482 28.1383V28.0216C86.0482 27.7549 86.0241 27.5086 85.976 27.2826C85.9278 27.0529 85.8537 26.8528 85.7537 26.6824C85.6537 26.5083 85.524 26.3731 85.3647 26.2768C85.2054 26.1804 85.0128 26.1323 84.7868 26.1323C84.5608 26.1323 84.3663 26.1693 84.2033 26.2434C84.0403 26.3175 83.907 26.4231 83.8032 26.5602C83.6995 26.6972 83.618 26.8602 83.5587 27.0492C83.5031 27.2344 83.4661 27.44 83.4476 27.666V28.5884C83.4809 28.8626 83.5458 29.1089 83.6421 29.3275C83.7384 29.5461 83.8792 29.7202 84.0644 29.8499C84.2533 29.9795 84.4978 30.0444 84.7979 30.0444C85.0239 30.0444 85.2165 29.9943 85.3758 29.8943C85.5351 29.7943 85.6648 29.6572 85.7648 29.4831C85.8648 29.3053 85.9371 29.1015 85.9815 28.8719C86.026 28.6422 86.0482 28.3977 86.0482 28.1383Z" fill="#5D5D75"/>
<path d="M77.4032 25.0767V31.0893H75.9362V25.0767H77.4032ZM81.3208 25.0767L78.6702 28.7665H77.1087L76.9253 27.4217H78.0089L79.4704 25.0767H81.3208ZM79.5593 31.0893L77.9144 28.5108L79.1369 27.744L81.5098 31.0893H79.5593Z" fill="#5D5D75"/>
<path d="M71.0633 25.0767V31.0893H69.5963V25.0767H71.0633ZM74.981 25.0767L72.3303 28.7665H70.7688L70.5854 27.4217H71.669L73.1305 25.0767H74.981ZM73.2194 31.0893L71.5746 28.5108L72.7971 27.744L75.1699 31.0893H73.2194Z" fill="#5D5D75"/>
<path d="M66.693 29.811V27.0381C66.693 26.8343 66.6578 26.6583 66.5874 26.5102C66.517 26.362 66.4096 26.2471 66.2651 26.1656C66.1206 26.0841 65.9372 26.0434 65.7149 26.0434C65.5186 26.0434 65.3463 26.0767 65.1982 26.1434C65.0537 26.2101 64.9425 26.3046 64.8647 26.4268C64.7869 26.5454 64.748 26.6824 64.748 26.838H63.2755C63.2755 26.5898 63.3347 26.3546 63.4533 26.1323C63.5718 25.9063 63.7404 25.7063 63.959 25.5321C64.1812 25.3543 64.4461 25.2154 64.7536 25.1154C65.0648 25.0153 65.413 24.9653 65.7983 24.9653C66.254 24.9653 66.6596 25.0431 67.0153 25.1987C67.3746 25.3506 67.6562 25.5803 67.8599 25.8878C68.0674 26.1953 68.1711 26.5824 68.1711 27.0492V29.672C68.1711 29.9721 68.1896 30.2296 68.2267 30.4445C68.2674 30.6556 68.3267 30.839 68.4045 30.9946V31.0891H66.9097C66.8393 30.9372 66.7856 30.7445 66.7485 30.5111C66.7115 30.274 66.693 30.0407 66.693 29.811ZM66.8986 27.4271L66.9097 28.2995H65.9817C65.752 28.2995 65.5501 28.3236 65.376 28.3717C65.2019 28.4162 65.0592 28.4829 64.9481 28.5718C64.837 28.657 64.7536 28.7607 64.698 28.883C64.6425 29.0015 64.6147 29.1367 64.6147 29.2886C64.6147 29.4368 64.648 29.5702 64.7147 29.6887C64.7851 29.8073 64.8851 29.9017 65.0148 29.9721C65.1481 30.0388 65.3037 30.0721 65.4816 30.0721C65.7409 30.0721 65.9669 30.0203 66.1595 29.9166C66.3521 29.8091 66.5022 29.6795 66.6096 29.5276C66.717 29.3757 66.7745 29.2312 66.7819 29.0941L67.2042 29.7276C67.1523 29.8795 67.0745 30.0407 66.9708 30.2111C66.8671 30.3815 66.7337 30.5408 66.5707 30.689C66.4077 30.8372 66.2114 30.9594 65.9817 31.0557C65.752 31.152 65.4853 31.2002 65.1815 31.2002C64.7925 31.2002 64.4443 31.1224 64.1368 30.9668C63.8293 30.8112 63.5866 30.5982 63.4088 30.3278C63.231 30.0573 63.1421 29.7498 63.1421 29.4053C63.1421 29.0867 63.2014 28.8052 63.3199 28.5607C63.4385 28.3162 63.6144 28.1106 63.8478 27.9438C64.0812 27.7734 64.3702 27.6456 64.7147 27.5604C65.0629 27.4715 65.4612 27.4271 65.9094 27.4271H66.8986Z" fill="#5D5D75"/>
<path d="M95.9872 10.8349V18.0033H94.5146V9.67901H95.876L95.9872 10.8349ZM99.8492 12.6242V12.7409C99.8492 13.178 99.7974 13.5837 99.6936 13.9578C99.5936 14.3283 99.4454 14.6525 99.2491 14.9303C99.0527 15.2044 98.8082 15.4193 98.5156 15.5749C98.2266 15.7268 97.8932 15.8027 97.5153 15.8027C97.1449 15.8027 96.8226 15.7324 96.5484 15.5916C96.2743 15.4471 96.0427 15.2433 95.8538 14.9803C95.6649 14.7173 95.513 14.4117 95.3981 14.0634C95.287 13.7115 95.2036 13.3281 95.1481 12.9131V12.5408C95.2036 12.1 95.287 11.6999 95.3981 11.3405C95.513 10.9775 95.6649 10.6644 95.8538 10.4014C96.0427 10.1347 96.2724 9.92907 96.5429 9.78459C96.817 9.64011 97.1375 9.56787 97.5042 9.56787C97.8858 9.56787 98.2211 9.64011 98.51 9.78459C98.8027 9.92907 99.049 10.1365 99.2491 10.407C99.4491 10.6774 99.5992 10.9997 99.6992 11.3739C99.7992 11.748 99.8492 12.1648 99.8492 12.6242ZM98.3767 12.7409V12.6242C98.3767 12.3574 98.3526 12.1111 98.3044 11.8851C98.2563 11.6554 98.1822 11.4554 98.0821 11.285C97.9821 11.1108 97.8524 10.9756 97.6931 10.8793C97.5339 10.783 97.3412 10.7348 97.1152 10.7348C96.8892 10.7348 96.6948 10.7719 96.5318 10.846C96.3687 10.9201 96.2354 11.0256 96.1317 11.1627C96.0279 11.2998 95.9464 11.4628 95.8871 11.6517C95.8316 11.8369 95.7945 12.0426 95.776 12.2685V13.191C95.8094 13.4651 95.8742 13.7115 95.9705 13.9301C96.0668 14.1486 96.2076 14.3227 96.3928 14.4524C96.5818 14.5821 96.8263 14.6469 97.1263 14.6469C97.3523 14.6469 97.545 14.5969 97.7043 14.4969C97.8636 14.3968 97.9932 14.2598 98.0932 14.0857C98.1933 13.9078 98.2655 13.7041 98.31 13.4744C98.3544 13.2447 98.3767 13.0002 98.3767 12.7409Z" fill="#5D5D75"/>
<path d="M91.7007 9.67871V15.6913H90.2281V9.67871H91.7007ZM93.6567 9.67871V10.8234H88.3054V9.67871H93.6567Z" fill="#5D5D75"/>
<path d="M85.3231 14.6469C85.5306 14.6469 85.7158 14.6062 85.8788 14.5246C86.0418 14.4431 86.1715 14.3283 86.2678 14.1801C86.3678 14.0319 86.4215 13.8597 86.4289 13.6633H87.8126C87.8052 14.0708 87.6904 14.4357 87.4681 14.758C87.2458 15.0803 86.9494 15.336 86.579 15.5249C86.2122 15.7101 85.801 15.8027 85.3453 15.8027C84.8823 15.8027 84.4785 15.7249 84.1339 15.5694C83.7894 15.4138 83.5023 15.197 83.2726 14.9192C83.0466 14.6413 82.8762 14.319 82.7614 13.9523C82.6502 13.5855 82.5947 13.1928 82.5947 12.7742V12.5964C82.5947 12.1778 82.6502 11.7851 82.7614 11.4183C82.8762 11.0516 83.0466 10.7293 83.2726 10.4514C83.5023 10.1736 83.7894 9.95686 84.1339 9.80126C84.4785 9.64567 84.8804 9.56787 85.3398 9.56787C85.8251 9.56787 86.2511 9.66234 86.6179 9.85127C86.9883 10.0402 87.2773 10.3069 87.4848 10.6515C87.6959 10.996 87.8052 11.4017 87.8126 11.8684H86.4289C86.4215 11.6536 86.3734 11.4609 86.2845 11.2905C86.1956 11.1201 86.0696 10.983 85.9066 10.8793C85.7436 10.7756 85.5454 10.7237 85.312 10.7237C85.0638 10.7237 84.8563 10.7756 84.6896 10.8793C84.5266 10.983 84.3988 11.1257 84.3062 11.3072C84.2173 11.485 84.1543 11.6851 84.1173 11.9073C84.0839 12.1259 84.0673 12.3556 84.0673 12.5964V12.7742C84.0673 13.0187 84.0839 13.2521 84.1173 13.4744C84.1543 13.6967 84.2173 13.8967 84.3062 14.0745C84.3988 14.2487 84.5266 14.3876 84.6896 14.4913C84.8563 14.595 85.0675 14.6469 85.3231 14.6469Z" fill="#5D5D75"/>
<path d="M79.4314 15.8027C78.9757 15.8027 78.5663 15.7287 78.2033 15.5805C77.8402 15.4323 77.5309 15.2267 77.2753 14.9636C77.0234 14.6969 76.8289 14.3876 76.6918 14.0356C76.5584 13.68 76.4918 13.2984 76.4918 12.8909V12.6686C76.4918 12.2056 76.5584 11.7851 76.6918 11.4072C76.8252 11.0256 77.0141 10.6978 77.2586 10.4236C77.5031 10.1495 77.7958 9.93833 78.1366 9.79015C78.4774 9.64196 78.8535 9.56787 79.2647 9.56787C79.6907 9.56787 80.0667 9.64011 80.3927 9.78459C80.7187 9.92537 80.991 10.1254 81.2096 10.3847C81.4282 10.6441 81.593 10.9553 81.7042 11.3183C81.8153 11.6777 81.8709 12.0759 81.8709 12.513V13.1299H77.1586V12.1185H80.4261V12.0074C80.4187 11.774 80.3742 11.561 80.2927 11.3683C80.2112 11.172 80.0852 11.0164 79.9148 10.9015C79.7444 10.783 79.524 10.7237 79.2536 10.7237C79.035 10.7237 78.8442 10.7719 78.6812 10.8682C78.5219 10.9608 78.3885 11.0942 78.2811 11.2683C78.1774 11.4387 78.0996 11.6425 78.0477 11.8796C77.9958 12.1166 77.9699 12.3797 77.9699 12.6686V12.8909C77.9699 13.1428 78.0032 13.3762 78.0699 13.5911C78.1403 13.806 78.2422 13.993 78.3756 14.1523C78.5126 14.3079 78.6756 14.4302 78.8646 14.5191C79.0572 14.6043 79.2758 14.6469 79.5203 14.6469C79.8278 14.6469 80.1056 14.5876 80.3538 14.4691C80.6057 14.3468 80.8243 14.1672 81.0095 13.9301L81.7486 14.6969C81.6227 14.8821 81.4522 15.06 81.2374 15.2304C81.0262 15.4008 80.7706 15.5397 80.4705 15.6471C80.1704 15.7509 79.8241 15.8027 79.4314 15.8027Z" fill="#5D5D75"/>
<path d="M73.3039 15.8027C72.8483 15.8027 72.4389 15.7287 72.0759 15.5805C71.7128 15.4323 71.4035 15.2267 71.1478 14.9636C70.8959 14.6969 70.7014 14.3876 70.5644 14.0356C70.431 13.68 70.3643 13.2984 70.3643 12.8909V12.6686C70.3643 12.2056 70.431 11.7851 70.5644 11.4072C70.6977 11.0256 70.8867 10.6978 71.1312 10.4236C71.3757 10.1495 71.6683 9.93833 72.0092 9.79015C72.35 9.64196 72.726 9.56787 73.1372 9.56787C73.5633 9.56787 73.9393 9.64011 74.2653 9.78459C74.5913 9.92537 74.8636 10.1254 75.0821 10.3847C75.3007 10.6441 75.4656 10.9553 75.5767 11.3183C75.6879 11.6777 75.7434 12.0759 75.7434 12.513V13.1299H71.0311V12.1185H74.2986V12.0074C74.2912 11.774 74.2468 11.561 74.1653 11.3683C74.0838 11.172 73.9578 11.0164 73.7874 10.9015C73.617 10.783 73.3965 10.7237 73.1261 10.7237C72.9075 10.7237 72.7168 10.7719 72.5537 10.8682C72.3944 10.9608 72.2611 11.0942 72.1536 11.2683C72.0499 11.4387 71.9721 11.6425 71.9203 11.8796C71.8684 12.1166 71.8425 12.3797 71.8425 12.6686V12.8909C71.8425 13.1428 71.8758 13.3762 71.9425 13.5911C72.0129 13.806 72.1148 13.993 72.2481 14.1523C72.3852 14.3079 72.5482 14.4302 72.7371 14.5191C72.9298 14.6043 73.1483 14.6469 73.3928 14.6469C73.7003 14.6469 73.9782 14.5876 74.2264 14.4691C74.4783 14.3468 74.6969 14.1672 74.8821 13.9301L75.6212 14.6969C75.4952 14.8821 75.3248 15.06 75.1099 15.2304C74.8988 15.4008 74.6432 15.5397 74.3431 15.6471C74.043 15.7509 73.6966 15.8027 73.3039 15.8027Z" fill="#5D5D75"/>
<path d="M66.5971 12.7407H64.5133V11.5404H66.5971C66.9379 11.5404 67.2139 11.4849 67.4251 11.3737C67.64 11.2589 67.7974 11.1033 67.8974 10.907C67.9975 10.7069 68.0475 10.4791 68.0475 10.2235C68.0475 9.97525 67.9975 9.74371 67.8974 9.52884C67.7974 9.31397 67.64 9.13985 67.4251 9.00649C67.2139 8.87312 66.9379 8.80644 66.5971 8.80644H65.0134V15.6915H63.4852V7.60059H66.5971C67.2269 7.60059 67.7641 7.71358 68.2086 7.93956C68.6569 8.16184 68.9977 8.47117 69.2311 8.86757C69.4682 9.26025 69.5867 9.70851 69.5867 10.2123C69.5867 10.7347 69.4682 11.1848 69.2311 11.5627C68.9977 11.9405 68.6569 12.2314 68.2086 12.4351C67.7641 12.6389 67.2269 12.7407 66.5971 12.7407Z" fill="#5D5D75"/>
<path fill-rule="evenodd" clip-rule="evenodd" d="M34.2284 16.8631C33.447 16.178 32.323 16.1937 31.6781 16.3927C32.1007 15.8739 33.0844 15.4486 33.3745 15.397C33.5953 15.4798 34.2284 16.1305 34.2284 16.8631L34.2284 16.8631ZM36.7236 14.026C36.2097 11.2769 29.8205 13.0984 26.6029 11.9307C26.5412 12.7321 27.5935 14.0162 28.5999 14.4915C26.8795 15.9846 25.3349 18.9929 25.0233 22.6681C24.7126 18.9929 23.1679 15.9846 21.4476 14.4915C22.454 14.0162 23.507 12.7321 23.4446 11.9307C20.227 13.0984 13.8377 11.2769 13.3229 14.026C13.2146 14.6078 13.4945 15.4946 13.797 15.7495C13.851 15.5651 14.1336 14.9619 15.0242 14.8267C19.5256 14.1465 23.2837 21.0841 19.8914 23.8891C19.8397 23.9317 19.8687 24.0105 19.9388 24.0105H30.1094C30.1786 24.0105 30.2078 23.9317 30.157 23.8891C26.7636 21.0841 30.5219 14.1465 35.0232 14.8267C35.9147 14.9619 36.1962 15.565 36.2504 15.7494C36.5528 15.4946 36.8327 14.6079 36.7236 14.026V14.026ZM37.8184 7.71616C37.7376 7.45644 40.3769 7.44994 40.3769 9.10187C40.3769 10.2091 38.7982 10.7334 38.7982 11.8824C38.7982 12.4175 39.3739 12.81 39.5505 12.81C39.1439 10.9654 40.8253 11.9307 41.2793 12.2757C40.377 9.79507 42.4082 9.81073 42.2082 8.67332C42.0691 7.87841 40.3037 8.11856 39.6647 7.71616C38.5309 7.00244 37.1896 4.22524 36.3055 7.00244C37.9535 8.53246 36.9946 10.7843 34.9026 10.7843C34.9026 10.7843 34.8909 11.1145 34.91 11.1407C37.4053 11.0185 38.2751 9.18471 37.8185 7.71616H37.8184ZM8.7074 12.2757C9.16155 11.9307 10.8427 10.9654 10.4371 12.81C10.6128 12.81 11.1885 12.4175 11.1885 11.8824C11.1885 10.7334 9.60967 10.2091 9.60967 9.10187C9.60967 7.44986 12.2491 7.45644 12.1682 7.71616C11.7125 9.18463 12.5824 11.0186 15.0775 11.1407C15.0958 11.1145 15.0841 10.7843 15.0841 10.7843C12.993 10.7843 12.034 8.5323 13.6812 7.00244C12.7972 4.22524 11.4559 7.00244 10.3221 7.71616C9.68312 8.11864 7.91765 7.87841 7.77851 8.67332C7.57931 9.81073 9.60959 9.79515 8.70732 12.2757H8.7074ZM15.7923 16.8631C16.5745 16.1779 17.6985 16.1936 18.3426 16.3926C17.9218 15.8739 16.9363 15.4485 16.6471 15.3969C16.4263 15.4797 15.7924 16.1304 15.7924 16.863L15.7923 16.8631ZM26.2105 1.48405L24.9933 0L23.7762 1.48405L24.9934 3.04594L26.2107 1.48405H26.2105ZM33.1588 5.97152L32.2931 4.9168L31.4284 5.97152L32.2931 7.00237L33.1588 5.97145V5.97152ZM40.1795 36.4572L39.0823 35.296L37.985 36.4572L39.0823 37.4757L40.1795 36.457V36.4572ZM18.5591 5.97137L17.6934 4.91664L16.8286 5.97137L17.6934 7.00229L18.559 5.97137H18.5591ZM16.0797 11.1405H19.308C22.0223 11.1405 23.2437 9.47459 23.6128 8.02984H26.3746C26.7437 9.47466 27.9641 11.1406 30.6794 11.1406H33.9078C33.9078 11.1406 34.4725 10.3744 34.6141 9.99506C35.124 8.62979 34.4725 7.99304 33.5219 7.99304L32.293 9.10672L31.0642 7.99304C30.1136 7.99304 29.4621 8.62979 29.972 9.99506C30.037 10.1697 30.1928 10.426 30.3402 10.6514C29.1947 10.494 27.7325 9.70988 27.4117 8.02984C27.4117 8.02984 28.2582 6.68516 28.4707 6.14105C29.2339 4.18429 28.2591 3.38436 26.8336 3.38436L24.9932 5.54783L23.153 3.38436C21.7275 3.38436 20.7527 4.18421 21.5167 6.14105C21.7284 6.68524 22.5757 8.02992 22.5757 8.02992C22.2541 9.70996 20.7919 10.4941 19.6464 10.6515C19.7947 10.4261 19.9496 10.1697 20.0146 9.99514C20.5236 8.62987 19.8738 7.99312 18.9223 7.99312L17.6935 9.1068L16.4648 7.99312C15.5134 7.99312 14.8635 8.62987 15.3726 9.99514C15.5142 10.3745 16.0799 11.1407 16.0799 11.1407L16.0797 11.1405ZM49.4571 21.1479C48.8338 21.4634 45.1781 23.1761 40.4952 22.5426C40.5437 22.3192 40.5848 22.0943 40.6185 21.8682C43.7352 21.4953 46.2687 20.9668 47.8833 20.0686C49.7237 19.0443 50.5285 16.5991 49.5995 14.7798C49.5755 14.734 49.5089 14.7258 49.4755 14.7642C48.9665 15.3502 45.7656 18.8321 40.7227 19.9146C40.7098 19.6534 40.6859 19.3928 40.6511 19.1336C43.1003 17.7446 45.4915 16.1441 46.6304 14.6806C48.3517 12.468 48.1933 9.64583 46.5555 8.2068C46.5385 8.19221 46.516 8.18566 46.4938 8.18881C46.4716 8.19195 46.4519 8.2045 46.4396 8.22325C45.9215 9.07791 41.0711 16.9177 35.7457 20.3021C35.6807 20.3436 35.6152 20.3844 35.5491 20.4242C35.3966 20.5168 35.38 20.7151 35.51 20.8331C36.1239 21.3895 36.5055 22.1639 36.5055 23.0236C36.5055 24.5182 35.3533 25.7613 33.8303 26.0309C33.0563 26.1809 31.939 26.1374 30.866 25.7827C30.8177 25.7671 30.7677 25.799 30.7677 25.8474V30.5815C30.7677 30.6576 30.8836 30.6765 30.911 30.6034C31.5633 28.8753 33.5161 28.5081 34.3702 28.5081C34.6776 30.3552 35.2265 31.8852 35.9397 32.7087C37.1009 34.0469 38.9972 34.0281 39.8196 33.1029C39.8331 33.0876 39.839 33.0669 39.8354 33.0468C39.8318 33.0266 39.8192 33.0092 39.8012 32.9995C39.318 32.7219 36.5537 31.0248 36.0004 28.2435C36.2189 28.1681 36.432 28.0828 36.6362 27.982C37.5285 29.4587 38.8273 30.774 39.8728 31.2763C41.6291 32.1188 43.237 31.709 43.9501 30.4757C43.976 30.4323 43.9443 30.3782 43.8918 30.3733C42.8054 30.2864 39.4713 29.3309 38.0516 27.0028C38.2141 26.8536 38.3733 26.6979 38.5216 26.5324C40.0069 27.6632 42.1074 28.663 43.6112 28.867C45.3706 29.1063 47.3643 28.545 47.4127 26.4988C47.4135 26.4578 47.3769 26.4242 47.3336 26.4268C46.7078 26.4643 42.5664 26.6447 39.6154 24.9508C39.7179 24.7559 39.8135 24.5575 39.902 24.3558C39.902 24.3558 44.361 25.4098 46.4737 25.0605C48.5732 24.714 49.803 23.1488 49.5655 21.2018C49.5588 21.1533 49.5022 21.1247 49.4572 21.1476L49.4571 21.1479ZM10.0845 24.3561C10.1732 24.5577 10.2691 24.7561 10.3719 24.951C7.42184 26.644 3.28203 26.4654 2.65389 26.427C2.60973 26.4244 2.57309 26.4596 2.57387 26.4998C2.6232 28.5452 4.61598 29.1065 6.37542 28.8673C7.8785 28.6632 9.97965 27.6634 11.465 26.5326C11.6142 26.6981 11.7725 26.8538 11.9348 27.003C10.5144 29.3309 7.18114 30.2865 6.09471 30.3734C6.04224 30.3782 6.01139 30.4324 6.03645 30.4758C6.74962 31.7091 8.35755 32.1188 10.1146 31.2764C11.1594 30.7741 12.4582 29.4588 13.3505 27.9822C13.5554 28.0829 13.7687 28.1682 13.9861 28.2436C13.4329 31.0249 10.6686 32.722 10.1853 32.9996C10.1675 33.0095 10.1551 33.0269 10.1515 33.0469C10.148 33.067 10.1537 33.0876 10.167 33.103C10.9893 34.0282 12.8864 34.047 14.0477 32.7088C14.761 31.8852 15.3091 30.3553 15.6165 28.5082C16.4712 28.5082 18.4232 28.8755 19.0756 30.6036C19.1039 30.6766 19.2196 30.6576 19.2196 30.5815V25.8474C19.2196 25.7991 19.1689 25.7671 19.1206 25.7827C18.0475 26.1374 16.9303 26.181 16.1572 26.0309C14.6334 25.7614 13.4812 24.5183 13.4812 23.0236C13.4812 22.1638 13.8636 21.3887 14.4767 20.8322C14.6075 20.715 14.5901 20.5167 14.4384 20.4241C14.3718 20.3843 14.3057 20.3435 14.2401 20.302C8.91811 16.9194 4.07014 9.08527 3.54779 8.22473C3.52351 8.18456 3.46526 8.17642 3.42939 8.20751C1.79399 9.64732 1.63488 12.4687 3.3561 14.6805C4.495 16.1439 6.88595 17.7444 9.3346 19.1335C9.30005 19.3927 9.27644 19.6532 9.26381 19.9143C4.2251 18.8327 1.02671 15.3564 0.512656 14.7664C0.478517 14.7263 0.410081 14.7345 0.386826 14.7804C-0.540267 16.6004 0.26444 19.0441 2.1032 20.0684C3.71778 20.9665 6.25131 21.4951 9.36803 21.8679C9.4017 22.094 9.44281 22.319 9.49128 22.5424C4.8133 23.175 1.15919 21.4665 0.531057 21.1484C0.484389 21.1247 0.427699 21.1542 0.421905 21.2034C0.185434 23.1504 1.41414 24.714 3.51365 25.0605C5.6256 25.4098 10.0845 24.3558 10.0845 24.3558V24.3561ZM39.0822 38.9712L37.4576 37.6929C36.8094 38.0789 36.3329 38.692 36.1479 39.4106C35.1707 39.5475 32.5063 38.9558 32.7653 38.5634C35.6855 34.4561 33.4518 32.0108 30.7676 32.1468V34.9053C30.7676 35.7911 29.9944 36.5089 29.0421 36.5089H27.1886C25.8588 36.5089 24.9932 37.8455 24.9932 37.8455C24.9932 37.8455 24.1277 36.5089 22.798 36.5089H20.9443C19.9914 36.5089 19.2199 35.7911 19.2199 34.9053V32.1469C16.5355 32.011 14.3002 34.4563 17.2212 38.5634C17.4778 38.9518 14.7393 39.5738 13.4547 39.4165C13.1164 39.0657 12.6281 38.8445 12.0816 38.8445C11.8492 38.8445 11.6188 38.8859 11.4009 38.9666C11.4009 38.9666 6.3531 34.1875 6.26063 34.1407L6.30229 34.044C6.58965 33.5065 6.14983 32.9205 5.87163 32.9616C6.19478 32.574 6.20989 30.8768 4.41694 30.4843C4.4694 30.8252 4.49602 31.521 4.49602 31.521C4.49602 31.521 3.11227 30.7727 2.41742 31.4184C1.80683 32.1413 2.65413 33.4524 2.65413 33.4524C2.65413 33.4524 1.94597 33.4696 1.5969 33.4401C2.11017 35.1757 3.8314 35.0528 4.2038 34.7103C4.17953 34.9865 4.80202 35.3798 5.32931 35.0642L5.56092 34.952C5.6018 35.0068 10.518 39.6517 10.518 39.6517C10.2922 39.9868 10.1848 40.3982 10.2589 40.8366C10.3755 41.5218 10.9464 42.0896 11.6753 42.237C12.1901 42.3404 12.6742 42.2403 13.0624 42.0133L14.3638 43.2213C14.4796 43.3262 14.6362 43.3917 14.8111 43.3795C15.1294 43.3581 15.3677 43.0999 15.3435 42.8042C15.3335 42.6706 15.2652 42.556 15.171 42.469C15.1502 42.446 13.8456 41.2349 13.8456 41.2349C14.9218 40.48 16.9272 39.9484 18.5917 39.9484C18.8842 39.9484 19.0216 39.7009 18.9208 39.4582C18.1668 37.6447 19.7881 36.3312 21.4652 37.4006C22.1967 37.8669 22.9399 38.7855 23.4998 40.3179C20.7479 40.9842 17.293 42.8196 16.594 44.8233C16.3249 45.597 17.2139 46.6515 18.2936 46.8639C18.3127 46.8681 18.3327 46.8645 18.3491 46.8539C18.3656 46.8432 18.377 46.8264 18.381 46.8073C18.9451 43.8162 22.1617 41.5871 23.8355 41.2085C23.9197 41.4339 23.8921 41.361 23.9763 41.5855C22.1534 42.4476 20.3856 44.266 19.8807 46.4277C19.649 47.4176 20.7529 48.31 21.6644 48.5543C21.7102 48.5666 21.7552 48.5346 21.7577 48.4904C21.931 45.7566 23.1382 43.4351 24.2195 42.3788C24.2491 42.5852 24.2714 42.7927 24.2862 43.0007C24.2862 43.0007 23.179 46.086 23.179 48.3371C23.179 49.3843 24.7353 50.1154 24.9653 50.2178C25.2526 50.1154 26.8081 49.3843 26.8081 48.3371C26.8081 46.086 25.7009 43.0007 25.7009 43.0007C25.716 42.7927 25.7385 42.5852 25.7684 42.3788C26.849 43.4351 28.0569 45.7558 28.2294 48.4894C28.2319 48.5337 28.2777 48.5666 28.3226 48.5543C29.235 48.3101 30.3381 47.4177 30.1073 46.4278C29.6014 44.2661 27.8345 42.4477 26.0115 41.5856C26.0948 41.3611 26.0674 41.434 26.1515 41.2086C27.8262 41.5872 31.042 43.8161 31.606 46.8072C31.6101 46.8263 31.6216 46.843 31.6381 46.8537C31.6545 46.8643 31.6745 46.8679 31.6936 46.8638C32.7724 46.6516 33.663 45.5969 33.3923 44.8234C32.695 42.8197 29.2391 40.9843 26.4874 40.3179C27.048 38.7856 27.7911 37.8669 28.5226 37.4007C30.1989 36.3313 31.8201 37.645 31.0661 39.4584C30.9653 39.7009 31.1019 39.9484 31.3952 39.9484C33.278 39.9484 35.5974 40.6286 36.5154 41.5406C37.102 42.4207 38.1859 42.9837 39.409 42.8631C40.7986 42.7272 41.9317 41.6831 42.0883 40.3926C42.2249 39.2617 41.6401 38.2463 40.7078 37.6932L39.0823 38.9716L39.0822 38.9712ZM27.1077 30.7331C27.6867 30.5186 28.594 30.6922 28.5631 31.528C28.5557 31.7173 28.8215 31.7173 28.8407 31.5239C29.0139 30.2726 28.1683 29.912 27.2835 30.0587C27.1736 29.6284 27.0836 29.2523 26.9811 28.8795C26.8995 28.578 26.8695 28.0117 27.2186 28.0117C27.4069 28.0117 27.3311 28.5386 27.3137 28.7655C27.2978 28.9647 27.3694 29.0852 27.5311 29.0909C27.632 29.095 27.7578 28.9664 27.8328 28.881C28.3394 28.3083 28.4568 27.4217 27.8636 26.994C27.3672 26.635 26.1241 26.9021 25.7823 27.4134C25.7308 27.2208 25.4842 26.9029 25.3658 26.7643C25.2509 26.6292 25.2209 26.5366 25.38 26.4178C25.455 26.3604 25.6816 26.1352 25.6816 25.9024C25.6816 25.7647 25.575 25.5106 25.236 25.5106C24.9685 25.5106 24.6711 25.6959 24.6711 26.1088C24.6711 26.2007 24.6936 26.2991 24.7527 26.4048C24.5835 26.3769 24.1245 26.3884 23.8888 26.4466L27.1488 35.3927C28.0819 34.9321 28.7659 34.2028 28.7659 33.4203C28.7659 32.7531 27.7835 32.9744 27.3062 33.4948C27.1529 32.6491 27.0162 31.8682 26.8671 31.0896C26.8264 30.8749 26.9355 30.7979 27.1079 30.7332L27.1077 30.7331ZM22.4981 24.6561L23.1829 26.5588C22.5964 26.6982 21.6533 27.1259 21.6533 27.6921C21.6533 28.4461 22.9871 28.9369 23.7586 28.8779C23.7203 29.05 23.7645 29.2032 23.8845 29.3433C23.6045 29.3433 23.0764 29.4736 22.903 29.6605C22.494 29.2794 21.8541 29.1409 21.55 29.3728C21.2443 29.6064 21.2352 30.0022 21.5542 30.4497C21.7766 30.7594 21.86 31.0651 21.61 31.424C22.5398 31.424 22.1973 30.2153 22.5614 30.2153C22.5139 30.4497 22.5431 30.7209 22.6489 31.0216C22.7189 31.2216 22.7189 31.3634 22.599 31.5559C22.2991 32.0353 21.8326 33.1367 21.8958 34.1323C21.5909 34.1306 21.436 34.056 21.5435 33.6398C21.5834 33.4848 21.4876 33.3742 21.361 33.5652C21.221 33.7758 21.1535 34.1356 21.1535 34.2895C21.1535 35.1763 22.2098 35.3549 22.6131 35.1673C23.7795 36.296 26.0706 35.9949 26.8379 35.6163L22.804 24.5477C22.7214 24.3388 22.4258 24.4387 22.4982 24.656L22.4981 24.6561ZM22.3581 33.7734C22.2747 33.3177 22.9087 32.5032 23.7153 31.7174C23.5436 32.2295 23.6503 33.1121 23.9868 33.4161C23.4019 33.4161 22.7071 33.5259 22.3581 33.7734H22.3581Z" fill="#5D5D75"/>
</svg>
