<svg width="112" height="44" viewBox="0 0 112 44" fill="none" xmlns="http://www.w3.org/2000/svg">
<path d="M8.00514 0.238846C6.2095 0.615709 5.21192 2.89906 6.09866 4.56169C6.91889 6.11348 9.1579 6.57901 10.5102 5.51493C13.126 3.47543 11.2639 -0.448374 8.00514 0.238846Z" fill="#A2ABBE"/>
<path d="M34.0533 0.238373C32.169 0.526562 30.5285 1.34679 29.1541 2.7434C27.6023 4.33953 27.0038 5.89132 27.0038 8.28551C27.0038 9.77079 27.1146 10.2142 27.691 11.3891C28.9102 13.8941 30.6394 15.2686 35.9155 17.9731C40.8369 20.5003 42.5438 22.4511 41.8788 24.8675C41.5462 26.1754 40.9477 26.9291 39.7284 27.6385C38.8195 28.1927 38.4648 28.2592 36.8022 28.2592C35.1174 28.2592 34.7405 28.1706 33.4548 27.5499C30.8832 26.2641 28.7772 23.5817 27.8462 20.323C27.6245 19.5249 27.3585 19.0594 27.1589 19.0594C26.8708 19.0594 26.8264 19.8353 26.8264 24.3798C26.8264 29.3898 26.8486 29.7002 27.2254 29.7002C27.4693 29.7002 27.7575 29.4563 27.8905 29.146C28.0235 28.8356 28.489 28.4144 28.9324 28.2149C29.6861 27.8602 29.7526 27.8602 32.1912 28.7026C35.0287 29.6559 37.0017 29.8997 39.0634 29.4785C41.2581 29.0573 43.0094 28.1041 44.406 26.5966C45.9578 24.934 46.5785 23.36 46.6006 21.121C46.6006 16.9755 44.7607 14.8917 37.6889 11.2339C32.5015 8.50719 31.3931 7.50961 31.3931 5.44795C31.3709 3.34195 32.9449 1.8345 35.4499 1.61281C38.9969 1.28029 42.7655 4.16218 43.8296 8.01949C44.0734 8.88405 44.2951 9.30525 44.539 9.30525C44.8493 9.30525 44.8937 8.79538 44.8272 4.93808C44.805 2.52172 44.7163 0.41572 44.672 0.26054C44.4946 -0.204996 44.1843 -0.0276489 44.0513 0.637403C43.8739 1.45764 43.3419 1.98968 42.6768 1.98968C42.3886 1.98968 41.3689 1.65715 40.3935 1.23595C39.4181 0.814751 38.1323 0.41572 37.5338 0.327045C36.9574 0.26054 36.2258 0.149698 35.9155 0.105362C35.6051 0.0831928 34.7849 0.127531 34.0533 0.238373Z" fill="#5D5D75"/>
<path d="M46.7747 0.992117C46.7747 1.23597 47.0186 1.32464 47.6171 1.32464C48.792 1.34681 50.2773 2.0562 50.5433 2.76559C50.6764 3.12028 50.765 7.68698 50.765 14.5814C50.765 24.8453 50.7207 25.8872 50.366 26.5745C49.8561 27.6164 49.0137 28.1706 47.7945 28.3036C47.1294 28.3923 46.7747 28.5253 46.7747 28.7248C46.7747 28.9687 47.6615 29.0352 51.5409 29.0352C55.4204 29.0352 56.3071 28.9687 56.3071 28.7248C56.3071 28.5475 55.9746 28.3923 55.4426 28.3036C54.2011 28.1484 53.4031 27.7051 52.8267 26.8405L52.3168 26.0868V14.7587C52.339 3.69666 52.339 3.45281 52.738 4.20654C52.9597 4.62774 55.4647 10.3915 58.3023 17.0199C61.1399 23.6261 63.5784 29.013 63.6892 28.9687C63.8222 28.9243 66.1942 23.4709 68.9875 16.8204C71.7585 10.192 74.2192 4.40605 74.4187 3.98485C74.7956 3.23113 74.8178 3.58582 74.8843 14.537C74.9286 23.1827 74.8621 26.0868 74.6626 26.7296C74.3079 27.7716 73.2881 28.3701 71.8915 28.3701C71.1821 28.3701 70.9383 28.4588 70.9383 28.7026C70.9383 28.9908 71.8915 29.0352 78.2539 29.0352C84.6162 29.0352 85.5694 28.9908 85.5694 28.7026C85.5694 28.4588 85.3256 28.3701 84.6827 28.3701C84.195 28.3701 83.4413 28.2371 83.0201 28.0597C81.557 27.439 81.5791 27.6607 81.5791 15.0026C81.5791 7.42096 81.6678 3.3863 81.823 2.92077C82.1112 2.10054 83.5299 1.32464 84.7492 1.32464C85.3256 1.32464 85.5694 1.23597 85.5694 0.992117C85.5694 0.703928 84.7935 0.65959 79.8722 0.65959H74.1527L70.3397 9.92599C68.2559 15.0026 66.4603 19.148 66.3494 19.148C66.2608 19.1259 64.3986 14.9804 62.2483 9.94815L58.3466 0.770432L52.5607 0.703928C47.5063 0.65959 46.7747 0.703928 46.7747 0.992117Z" fill="#5D5D75"/>
<path d="M87.5685 0.992117C87.5685 1.23597 87.8123 1.32464 88.3444 1.32464C89.342 1.32464 90.4282 1.76801 91.0046 2.43306C91.4258 2.92077 91.448 3.23113 91.448 14.8252C91.448 25.9316 91.4258 26.7518 91.0489 27.306C90.5834 27.9932 89.6301 28.3701 88.433 28.3701C87.8123 28.3701 87.5685 28.4588 87.5685 28.7026C87.5685 28.9908 88.5217 29.0352 94.8841 29.0352C101.246 29.0352 102.2 28.9908 102.2 28.7026C102.2 28.4588 101.934 28.3701 101.158 28.3701C99.8941 28.3701 98.7414 27.7494 98.431 26.907C98.298 26.5966 98.2093 23.9143 98.2093 20.9215V15.5124H99.2734C101.69 15.5124 103.84 16.8869 104.594 18.9042C104.838 19.5249 105.104 20.5225 105.17 21.0989C105.281 21.8083 105.436 22.1629 105.658 22.1629C105.924 22.1629 105.968 21.0989 105.968 15.0691C105.968 9.23877 105.924 7.97517 105.658 7.97517C105.481 7.97517 105.237 8.52938 105.015 9.41611C104.306 12.3202 102.488 13.8498 99.6503 14.005L98.3202 14.0715L98.2537 8.10818L98.2093 2.14487L101.69 2.25572C104.594 2.36656 105.414 2.45523 106.478 2.87643C108.651 3.69666 109.936 5.15978 110.291 7.19927C110.38 7.68698 110.557 8.26336 110.668 8.46287C111.156 9.43828 111.289 8.68456 111.289 4.76075V0.65959H99.4286C89.0316 0.65959 87.5685 0.703928 87.5685 0.992117Z" fill="#5D5D75"/>
<path d="M20.3979 6.55686C18.5135 8.46335 16.2967 9.99297 14.3902 10.7689C13.5478 11.1014 13.304 11.3231 13.1266 11.8995L12.9049 12.631H14.3237C15.0996 12.631 15.7425 12.6753 15.7425 12.6975C15.7425 12.7418 14.9444 15.5129 13.969 18.8603C12.8384 22.6955 12.129 25.5109 12.0404 26.5084C11.9295 28.0159 11.9295 28.1046 12.5946 28.8361C13.2375 29.5455 13.3483 29.5898 14.7892 29.5898C15.9198 29.5898 16.5627 29.4568 17.3386 29.08C19.1786 28.1711 21.6615 25.3335 21.1072 24.7793C20.9077 24.5798 20.5309 24.868 19.5998 25.9099C18.58 27.0183 18.2254 27.2622 17.7598 27.2178C17.4051 27.1735 17.1613 26.9961 17.1169 26.7523C17.0726 26.5084 17.915 23.2497 18.9791 19.481L20.9299 12.631H22.3265H23.7009L23.9891 11.5669L24.2995 10.525L23.0137 10.4585C22.1935 10.4142 21.728 10.3033 21.728 10.126C21.728 9.9708 22.0827 8.7072 22.5039 7.31059C22.9251 5.91398 23.2797 4.73905 23.2797 4.69472C23.2797 4.67255 23.0581 4.65038 22.7699 4.65038C22.4373 4.65038 21.6615 5.2711 20.3979 6.55686Z" fill="#A2ABBE"/>
<path d="M4.94356 10.3693C2.19467 10.8126 1.55179 10.99 1.55179 11.2782C1.55179 11.522 1.77347 11.655 2.26118 11.6772C3.19225 11.7437 3.63562 12.2092 3.59128 13.1403C3.56911 13.5393 2.77105 16.6651 1.77347 20.079C0.798063 23.4708 0 26.5744 0 26.9956C0 29.3454 2.39419 30.3873 4.98789 29.1681C6.8057 28.3257 9.97579 24.5792 9.2664 24.1358C9.06688 24.0028 8.8452 24.1358 8.53484 24.557C6.87221 26.8404 5.51994 27.6385 5.36476 26.4192C5.29825 26.0645 9.04471 12.4531 9.86494 10.0146C9.99796 9.6377 8.9117 9.70421 4.94356 10.3693Z" fill="#A2ABBE"/>
<path d="M0 34.356C0 34.5111 18.688 34.5776 55.6427 34.5776C92.5975 34.5776 111.285 34.5111 111.285 34.356C111.285 34.2008 92.5975 34.1343 55.6427 34.1343C18.688 34.1343 0 34.2008 0 34.356Z" fill="#A2ABBE"/>
<path d="M111.83 42.2427H110.108V42.068C110.159 42.0636 110.221 42.0561 110.294 42.0457C110.369 42.0352 110.42 42.024 110.446 42.0121C110.502 41.9897 110.541 41.9591 110.565 41.9203C110.589 41.8815 110.601 41.8322 110.601 41.7725V39.3991L109.508 42.1912H109.226C109.213 42.1419 109.179 42.0442 109.125 41.8979C109.073 41.7516 109.031 41.6344 108.998 41.5463L108.194 39.3632V41.2956C108.194 41.4807 108.206 41.6217 108.23 41.7187C108.255 41.8143 108.295 41.8844 108.351 41.9292C108.388 41.9606 108.454 41.9904 108.55 42.0188C108.647 42.0471 108.715 42.0636 108.754 42.068V42.2427H107.388V42.068C107.425 42.0636 107.486 42.0539 107.569 42.0389C107.654 42.0225 107.724 41.9949 107.777 41.9561C107.837 41.9143 107.877 41.8441 107.898 41.7456C107.919 41.6456 107.93 41.5038 107.93 41.3202V39.7461C107.93 39.6506 107.918 39.5715 107.894 39.5088C107.87 39.4446 107.834 39.3938 107.786 39.3565C107.727 39.3102 107.665 39.2804 107.603 39.2669C107.54 39.2535 107.477 39.2446 107.412 39.2401V39.0654H108.875L109.658 41.1635L110.319 39.4595C110.341 39.3968 110.363 39.3222 110.384 39.2356C110.405 39.149 110.416 39.0923 110.417 39.0654H111.826V39.2401C111.778 39.2431 111.728 39.249 111.676 39.258C111.623 39.2669 111.573 39.2789 111.526 39.2938C111.467 39.3132 111.429 39.3438 111.409 39.3856C111.391 39.4274 111.382 39.4737 111.382 39.5244V41.7747C111.382 41.8285 111.391 41.874 111.409 41.9113C111.429 41.9471 111.467 41.9785 111.526 42.0053C111.555 42.0188 111.604 42.0315 111.671 42.0434C111.74 42.0554 111.793 42.0636 111.83 42.068V42.2427Z" fill="#5D5D75"/>
<path d="M105.547 42.3279C105.353 42.3279 105.172 42.304 105.003 42.2562C104.836 42.2085 104.694 42.1518 104.578 42.0861L104.423 42.2428H104.233L104.204 41.0942H104.396C104.44 41.2031 104.495 41.3181 104.562 41.439C104.629 41.5599 104.707 41.6681 104.795 41.7637C104.886 41.8637 104.987 41.945 105.099 42.0077C105.213 42.0704 105.345 42.1018 105.496 42.1018C105.699 42.1018 105.854 42.0525 105.961 41.954C106.07 41.854 106.125 41.7286 106.125 41.5778C106.125 41.4539 106.079 41.3502 105.986 41.2666C105.895 41.1815 105.753 41.1083 105.561 41.0471C105.435 41.0068 105.32 40.9695 105.214 40.9352C105.109 40.9009 105.011 40.8658 104.918 40.83C104.705 40.7449 104.546 40.6232 104.441 40.465C104.338 40.3068 104.287 40.1299 104.287 39.9343C104.287 39.8104 104.314 39.6918 104.367 39.5783C104.421 39.4634 104.499 39.3604 104.602 39.2693C104.701 39.1842 104.827 39.1148 104.981 39.0611C105.135 39.0073 105.302 38.9805 105.482 38.9805C105.658 38.9805 105.823 39.0051 105.977 39.0544C106.131 39.1021 106.252 39.1506 106.34 39.1999L106.476 39.0656H106.671L106.689 40.1493H106.497C106.452 40.0328 106.399 39.9142 106.338 39.7933C106.278 39.6709 106.214 39.5693 106.147 39.4887C106.074 39.4022 105.99 39.3335 105.894 39.2827C105.799 39.2305 105.687 39.2044 105.558 39.2044C105.397 39.2044 105.265 39.2499 105.162 39.341C105.061 39.432 105.01 39.5447 105.01 39.6791C105.01 39.8059 105.054 39.9097 105.142 39.9903C105.232 40.0709 105.37 40.1418 105.558 40.203C105.669 40.2403 105.782 40.2776 105.897 40.315C106.011 40.3523 106.114 40.3881 106.203 40.4224C106.42 40.506 106.584 40.6217 106.696 40.7695C106.809 40.9158 106.866 41.0979 106.866 41.3158C106.866 41.4532 106.834 41.586 106.77 41.7144C106.706 41.8428 106.619 41.9495 106.51 42.0346C106.391 42.1286 106.253 42.201 106.096 42.2518C105.939 42.3025 105.756 42.3279 105.547 42.3279Z" fill="#5D5D75"/>
<path d="M103.753 39.9745H103.58C103.534 39.8387 103.459 39.6931 103.356 39.5379C103.255 39.3826 103.161 39.299 103.074 39.2871C103.026 39.2811 102.967 39.2759 102.897 39.2714C102.827 39.2669 102.767 39.2647 102.716 39.2647H102.611V41.7568C102.611 41.8105 102.62 41.8583 102.64 41.9001C102.659 41.9404 102.697 41.9725 102.754 41.9964C102.788 42.0098 102.841 42.024 102.913 42.0389C102.986 42.0524 103.048 42.0621 103.099 42.068V42.2427H101.328V42.068C101.371 42.0636 101.431 42.0576 101.509 42.0501C101.588 42.0412 101.642 42.0307 101.67 42.0188C101.728 41.9949 101.767 41.9628 101.787 41.9225C101.806 41.8822 101.816 41.8344 101.816 41.7792V39.2647H101.711C101.66 39.2647 101.599 39.2669 101.529 39.2714C101.459 39.2759 101.4 39.2811 101.352 39.2871C101.266 39.299 101.171 39.3826 101.068 39.5379C100.966 39.6931 100.893 39.8387 100.846 39.9745H100.674V39.0654H103.753V39.9745Z" fill="#5D5D75"/>
<path d="M100.225 42.2427H98.4633V42.068C98.5036 42.0651 98.5625 42.0606 98.6401 42.0546C98.7193 42.0486 98.7737 42.0397 98.8036 42.0277C98.8588 42.0053 98.8961 41.9762 98.9156 41.9404C98.9364 41.9031 98.9469 41.8561 98.9469 41.7994V39.5468C98.9469 39.4961 98.9372 39.4513 98.9178 39.4125C98.8984 39.3737 98.8603 39.3423 98.8036 39.3184C98.7678 39.3035 98.7148 39.2886 98.6446 39.2737C98.5745 39.2572 98.514 39.246 98.4633 39.2401V39.0654H100.225V39.2401C100.181 39.2446 100.125 39.2513 100.057 39.2602C99.9903 39.2677 99.9336 39.2789 99.8873 39.2938C99.8291 39.3132 99.7903 39.3438 99.7709 39.3856C99.7515 39.4259 99.7418 39.4722 99.7418 39.5244V41.7747C99.7418 41.8285 99.7515 41.8747 99.7709 41.9135C99.7918 41.9509 99.8306 41.9815 99.8873 42.0053C99.9187 42.0188 99.9702 42.0322 100.042 42.0457C100.115 42.0576 100.176 42.0651 100.225 42.068V42.2427Z" fill="#5D5D75"/>
<path d="M96.0912 40.785C96.1867 40.8507 96.2643 40.9336 96.3241 41.0336C96.3838 41.1321 96.4136 41.2485 96.4136 41.3829C96.4136 41.5441 96.3793 41.6807 96.3106 41.7926C96.2434 41.9031 96.1464 41.9904 96.0195 42.0546C95.8852 42.1233 95.7299 42.1718 95.5538 42.2001C95.3792 42.2285 95.1732 42.2427 94.9358 42.2427H93.2856V42.068C93.3319 42.0636 93.3901 42.0568 93.4603 42.0479C93.5304 42.0389 93.5797 42.0285 93.608 42.0165C93.6633 41.9942 93.7006 41.965 93.72 41.9292C93.7409 41.8919 93.7513 41.8441 93.7513 41.7859V39.5468C93.7513 39.4931 93.7431 39.4483 93.7267 39.4125C93.7103 39.3767 93.6707 39.3453 93.608 39.3184C93.5618 39.299 93.508 39.2834 93.4468 39.2714C93.3856 39.258 93.3319 39.2475 93.2856 39.2401V39.0654H95.0119C95.4463 39.0654 95.7598 39.1251 95.9524 39.2446C96.1449 39.364 96.2412 39.5401 96.2412 39.773C96.2412 39.8805 96.2196 39.9752 96.1763 40.0573C96.133 40.138 96.071 40.2081 95.9904 40.2678C95.9173 40.323 95.83 40.3708 95.7285 40.4111C95.6269 40.4514 95.518 40.485 95.4015 40.5119V40.5544C95.518 40.5664 95.6389 40.5925 95.7643 40.6328C95.8897 40.6716 95.9986 40.7224 96.0912 40.785ZM95.3702 39.829C95.3702 39.6528 95.3202 39.5155 95.2202 39.417C95.1217 39.3184 94.9731 39.2692 94.7746 39.2692C94.7462 39.2692 94.7089 39.2707 94.6627 39.2737C94.6179 39.2752 94.5791 39.2766 94.5462 39.2781V40.4559H94.6627C94.9045 40.4559 95.0829 40.3999 95.1978 40.288C95.3127 40.1745 95.3702 40.0215 95.3702 39.829ZM95.5269 41.3538C95.5269 41.1329 95.4613 40.9634 95.3299 40.8455C95.1985 40.7276 95.0097 40.6686 94.7634 40.6686C94.735 40.6686 94.697 40.6701 94.6492 40.6731C94.6029 40.6746 94.5686 40.6761 94.5462 40.6776V41.8397C94.5597 41.8949 94.6014 41.9419 94.6716 41.9807C94.7418 42.018 94.8269 42.0367 94.9269 42.0367C95.1045 42.0367 95.2485 41.977 95.359 41.8576C95.471 41.7381 95.5269 41.5702 95.5269 41.3538Z" fill="#5D5D75"/>
<path d="M92.1882 39.4191C92.3449 39.5624 92.4688 39.7356 92.5599 39.9386C92.6524 40.1416 92.6987 40.373 92.6987 40.6327C92.6987 40.8641 92.6599 41.0843 92.5823 41.2932C92.5047 41.5022 92.3927 41.6821 92.2464 41.8329C92.0927 41.9896 91.912 42.112 91.7046 42.2001C91.4971 42.2866 91.25 42.3299 90.9634 42.3299C90.732 42.3299 90.5134 42.2919 90.3074 42.2157C90.1014 42.1396 89.92 42.0292 89.7633 41.8844C89.608 41.7426 89.4849 41.5701 89.3938 41.3671C89.3028 41.1641 89.2572 40.938 89.2572 40.6887C89.2572 40.429 89.3013 40.1939 89.3893 39.9834C89.4789 39.7714 89.6013 39.59 89.7565 39.4393C89.9103 39.2915 90.0924 39.1781 90.3029 39.0989C90.5149 39.0183 90.7403 38.978 90.9791 38.978C91.2164 38.978 91.4388 39.0168 91.6463 39.0945C91.8553 39.1721 92.0359 39.2803 92.1882 39.4191ZM91.6127 41.6918C91.6799 41.556 91.7284 41.4022 91.7583 41.2305C91.7881 41.0589 91.8031 40.8648 91.8031 40.6484C91.8031 40.4648 91.7896 40.2864 91.7628 40.1132C91.7374 39.9386 91.6934 39.7834 91.6307 39.6475C91.5665 39.5117 91.4814 39.4027 91.3754 39.3206C91.2694 39.2385 91.1373 39.1975 90.9791 39.1975C90.7089 39.1975 90.5037 39.3258 90.3633 39.5826C90.223 39.8378 90.1529 40.1991 90.1529 40.6663C90.1529 40.8648 90.1678 41.0522 90.1976 41.2283C90.229 41.4044 90.2775 41.5582 90.3432 41.6896C90.4104 41.8224 90.4954 41.9262 90.5984 42.0008C90.7014 42.0739 90.8283 42.1105 90.9791 42.1105C91.1269 42.1105 91.2537 42.0732 91.3597 41.9986C91.4657 41.9239 91.5501 41.8217 91.6127 41.6918Z" fill="#5D5D75"/>
<path d="M86.1713 39.3184C86.1295 39.299 86.0668 39.2826 85.9832 39.2692C85.8996 39.2543 85.8459 39.2446 85.822 39.2401V39.0654H88.6678V39.2401C88.6201 39.2431 88.5663 39.2498 88.5066 39.2602C88.4469 39.2692 88.3932 39.2811 88.3454 39.2961C88.2887 39.3155 88.2506 39.3461 88.2312 39.3879C88.2118 39.4297 88.2021 39.4752 88.2021 39.5244V41.7747C88.2021 41.8285 88.2118 41.874 88.2312 41.9113C88.2506 41.9486 88.2887 41.98 88.3454 42.0053C88.3812 42.0203 88.4327 42.0337 88.4999 42.0457C88.5686 42.0576 88.6246 42.0651 88.6678 42.068V42.2427H86.9393V42.068C86.9796 42.0651 87.0356 42.0606 87.1072 42.0546C87.1803 42.0486 87.2318 42.0397 87.2617 42.0277C87.3169 42.0053 87.355 41.9762 87.3759 41.9404C87.3968 41.9031 87.4072 41.8561 87.4072 41.7994V39.2826H86.6482C86.6288 39.8185 86.575 40.279 86.487 40.6641C86.3989 41.0493 86.2937 41.3612 86.1713 41.6001C86.0399 41.8568 85.9033 42.0397 85.7615 42.1486C85.6197 42.2576 85.4846 42.3121 85.3562 42.3121C85.2562 42.3121 85.1749 42.2979 85.1122 42.2696C85.0495 42.2427 85.001 42.2084 84.9666 42.1666C84.9308 42.1248 84.9069 42.0777 84.895 42.0255C84.883 41.9718 84.8771 41.9232 84.8771 41.88C84.8771 41.7367 84.9211 41.6277 85.0092 41.5531C85.0973 41.4769 85.1995 41.4389 85.3159 41.4389C85.3965 41.4389 85.4749 41.4657 85.551 41.5195C85.6287 41.5732 85.7048 41.6434 85.7794 41.7299C85.8347 41.6419 85.8944 41.5247 85.9586 41.3784C86.0242 41.2306 86.0817 41.0716 86.131 40.9015C86.1877 40.7104 86.2325 40.5208 86.2653 40.3328C86.2981 40.1432 86.3146 39.9334 86.3146 39.7036C86.3146 39.605 86.3056 39.5237 86.2877 39.4595C86.2713 39.3953 86.2325 39.3483 86.1713 39.3184Z" fill="#5D5D75"/>
<path d="M84.8406 42.2426H83.1098V42.0679C83.1904 42.0619 83.2852 42.0477 83.3942 42.0254C83.5031 42.0015 83.5576 41.9724 83.5576 41.938C83.5576 41.9261 83.5561 41.9127 83.5532 41.8977C83.5517 41.8828 83.5457 41.8627 83.5352 41.8373L83.2643 41.179H82.1672C82.1418 41.2402 82.1134 41.3118 82.0821 41.3939C82.0522 41.476 82.0261 41.5492 82.0037 41.6134C81.9753 41.697 81.9582 41.7574 81.9522 41.7947C81.9477 41.8321 81.9455 41.8582 81.9455 41.8731C81.9455 41.9209 81.9813 41.9619 82.053 41.9963C82.1261 42.0291 82.247 42.053 82.4157 42.0679V42.2426H81.1125V42.0679C81.1618 42.0649 81.217 42.0575 81.2782 42.0455C81.3409 42.0321 81.3902 42.0142 81.426 41.9918C81.4872 41.9559 81.5387 41.9119 81.5805 41.8597C81.6238 41.8074 81.6596 41.7455 81.688 41.6738C81.8611 41.2544 82.0343 40.8342 82.2075 40.4132C82.3821 39.9923 82.5747 39.528 82.7851 39.0205H83.233C83.5255 39.74 83.7547 40.3087 83.9204 40.7267C84.0861 41.1447 84.2271 41.491 84.3435 41.7656C84.363 41.8104 84.3876 41.8515 84.4174 41.8888C84.4473 41.9246 84.4898 41.9589 84.5451 41.9918C84.5869 42.0157 84.6354 42.0336 84.6906 42.0455C84.7458 42.0575 84.7958 42.0649 84.8406 42.0679V42.2426ZM83.1725 40.9573L82.7113 39.8064L82.2567 40.9573H83.1725Z" fill="#5D5D75"/>
<path d="M80.8099 42.2427H79.0925V42.068C79.1298 42.0651 79.1843 42.0606 79.2559 42.0546C79.3276 42.0486 79.3768 42.0397 79.4037 42.0277C79.4589 42.0053 79.497 41.9762 79.5179 41.9404C79.5388 41.9031 79.5493 41.8561 79.5493 41.7994V40.7044H78.1924V41.7747C78.1924 41.8255 78.2028 41.871 78.2237 41.9113C78.2461 41.9516 78.2834 41.983 78.3357 42.0053C78.364 42.0173 78.4125 42.03 78.4812 42.0434C78.5499 42.0568 78.6059 42.0651 78.6491 42.068V42.2427H76.9318V42.068C76.9691 42.0665 77.0236 42.0621 77.0952 42.0546C77.1684 42.0457 77.2214 42.0352 77.2542 42.0233C77.3079 42.0039 77.3452 41.9747 77.3661 41.9359C77.387 41.8956 77.3975 41.8486 77.3975 41.7949V39.5468C77.3975 39.4946 77.3878 39.4506 77.3684 39.4147C77.3505 39.3789 77.3124 39.3476 77.2542 39.3207C77.2109 39.3013 77.1542 39.2841 77.084 39.2692C77.0139 39.2528 76.9631 39.2431 76.9318 39.2401V39.0654H78.6491V39.2401C78.6029 39.2431 78.5476 39.2505 78.4834 39.2625C78.4193 39.2744 78.37 39.2856 78.3357 39.2961C78.2775 39.3155 78.2386 39.3468 78.2192 39.3901C78.2013 39.4319 78.1924 39.4767 78.1924 39.5244V40.4738H79.5493V39.5468C79.5493 39.4946 79.5395 39.4506 79.5201 39.4147C79.5007 39.3789 79.4619 39.3476 79.4037 39.3207C79.3649 39.3028 79.3127 39.2864 79.247 39.2714C79.1828 39.255 79.1313 39.2446 79.0925 39.2401V39.0654H80.8099V39.2401C80.7621 39.2431 80.7084 39.2498 80.6486 39.2602C80.5889 39.2692 80.5352 39.2811 80.4874 39.2961C80.4307 39.3155 80.3926 39.3461 80.3732 39.3879C80.3538 39.4297 80.3441 39.4752 80.3441 39.5244V41.7747C80.3441 41.8285 80.3538 41.874 80.3732 41.9113C80.3926 41.9486 80.4307 41.98 80.4874 42.0053C80.5233 42.0203 80.5748 42.0337 80.6419 42.0457C80.7106 42.0576 80.7666 42.0651 80.8099 42.068V42.2427Z" fill="#5D5D75"/>
<path d="M75.8285 39.4191C75.9852 39.5624 76.1091 39.7356 76.2002 39.9386C76.2927 40.1416 76.339 40.373 76.339 40.6327C76.339 40.8641 76.3002 41.0843 76.2226 41.2932C76.1449 41.5022 76.033 41.6821 75.8867 41.8329C75.7329 41.9896 75.5523 42.112 75.3448 42.2001C75.1374 42.2866 74.8903 42.3299 74.6037 42.3299C74.3723 42.3299 74.1536 42.2919 73.9477 42.2157C73.7417 42.1396 73.5603 42.0292 73.4036 41.8844C73.2483 41.7426 73.1252 41.5701 73.0341 41.3671C72.9431 41.1641 72.8975 40.938 72.8975 40.6887C72.8975 40.429 72.9416 40.1939 73.0296 39.9834C73.1192 39.7714 73.2416 39.59 73.3968 39.4393C73.5506 39.2915 73.7327 39.1781 73.9432 39.0989C74.1551 39.0183 74.3805 38.978 74.6194 38.978C74.8567 38.978 75.0791 39.0168 75.2866 39.0945C75.4956 39.1721 75.6762 39.2803 75.8285 39.4191ZM75.253 41.6918C75.3202 41.556 75.3687 41.4022 75.3986 41.2305C75.4284 41.0589 75.4434 40.8648 75.4434 40.6484C75.4434 40.4648 75.4299 40.2864 75.4031 40.1132C75.3777 39.9386 75.3336 39.7834 75.271 39.6475C75.2068 39.5117 75.1217 39.4027 75.0157 39.3206C74.9097 39.2385 74.7776 39.1975 74.6194 39.1975C74.3492 39.1975 74.1439 39.3258 74.0036 39.5826C73.8633 39.8378 73.7932 40.1991 73.7932 40.6663C73.7932 40.8648 73.8081 41.0522 73.8379 41.2283C73.8693 41.4044 73.9178 41.5582 73.9835 41.6896C74.0507 41.8224 74.1357 41.9262 74.2387 42.0008C74.3417 42.0739 74.4686 42.1105 74.6194 42.1105C74.7672 42.1105 74.894 42.0732 75 41.9986C75.106 41.9239 75.1903 41.8217 75.253 41.6918Z" fill="#5D5D75"/>
<path d="M72.3045 42.2427H70.6006V42.068C70.6379 42.0651 70.6924 42.0606 70.764 42.0546C70.8357 42.0471 70.8849 42.0374 70.9118 42.0255C70.967 42.0031 71.0051 41.974 71.026 41.9382C71.0469 41.9009 71.0573 41.8538 71.0573 41.7971V39.9409L69.6288 41.7143C69.6288 41.8173 69.6385 41.8852 69.6579 41.918C69.6788 41.9509 69.7169 41.98 69.7721 42.0053C69.8034 42.0188 69.8527 42.0322 69.9199 42.0457C69.987 42.0576 70.0423 42.0651 70.0856 42.068V42.2427H68.3883V42.068C68.4257 42.0665 68.4801 42.0621 68.5518 42.0546C68.6249 42.0457 68.6779 42.0352 68.7108 42.0233C68.7645 42.0039 68.8018 41.9747 68.8227 41.9359C68.8436 41.8956 68.8541 41.8486 68.8541 41.7949V39.5468C68.8541 39.4946 68.8444 39.4506 68.825 39.4147C68.807 39.3789 68.769 39.3476 68.7108 39.3207C68.6675 39.3013 68.6108 39.2841 68.5406 39.2692C68.4704 39.2528 68.4197 39.2431 68.3883 39.2401V39.0654H70.0923V39.2401C70.046 39.2431 69.9908 39.2505 69.9266 39.2625C69.8624 39.2744 69.8131 39.2856 69.7788 39.2961C69.7206 39.3155 69.6818 39.3468 69.6624 39.3901C69.6445 39.4319 69.6355 39.4767 69.6355 39.5244V41.3426L71.064 39.5692C71.064 39.4916 71.0528 39.4371 71.0305 39.4058C71.0081 39.3729 70.9707 39.3446 70.9185 39.3207C70.8752 39.2998 70.8222 39.2826 70.7595 39.2692C70.6983 39.2558 70.6476 39.246 70.6073 39.2401V39.0654H72.3045V39.2401C72.2567 39.2431 72.203 39.2498 72.1433 39.2602C72.0836 39.2692 72.0298 39.2811 71.9821 39.2961C71.9253 39.3155 71.8873 39.3461 71.8679 39.3879C71.8485 39.4297 71.8388 39.4752 71.8388 39.5244V41.7747C71.8388 41.8285 71.8485 41.874 71.8679 41.9113C71.8873 41.9486 71.9253 41.98 71.9821 42.0053C72.0179 42.0203 72.0694 42.0337 72.1366 42.0457C72.2052 42.0576 72.2612 42.0651 72.3045 42.068V42.2427Z" fill="#5D5D75"/>
<path d="M66.4963 42.3279C66.2635 42.3279 66.0455 42.2906 65.8425 42.2159C65.6395 42.1398 65.4626 42.0301 65.3119 41.8868C65.1641 41.7465 65.0476 41.5733 64.9626 41.3673C64.8775 41.1598 64.8349 40.9322 64.8349 40.6844C64.8349 40.4381 64.8775 40.2105 64.9626 40.0015C65.0491 39.791 65.17 39.6089 65.3253 39.4552C65.4775 39.3044 65.6604 39.188 65.8739 39.1059C66.0873 39.0223 66.3157 38.9805 66.559 38.9805C66.7352 38.9805 66.8956 39.0021 67.0404 39.0454C67.1852 39.0872 67.3076 39.135 67.4076 39.1887L67.5465 39.0656H67.7413L67.7614 40.2254H67.5644C67.4524 39.8716 67.3181 39.6119 67.1613 39.4462C67.0046 39.2805 66.8135 39.1977 66.5881 39.1977C66.3075 39.1977 66.094 39.3216 65.9478 39.5693C65.8015 39.8156 65.7283 40.162 65.7283 40.6083C65.7283 40.8606 65.753 41.0763 65.8022 41.2554C65.853 41.433 65.9186 41.5763 65.9993 41.6853C66.0858 41.7987 66.1881 41.8823 66.306 41.9361C66.4239 41.9883 66.5545 42.0144 66.6978 42.0144C66.9068 42.0144 67.0927 41.9577 67.2554 41.8443C67.4196 41.7308 67.5689 41.5591 67.7032 41.3293L67.8958 41.4457C67.8316 41.5771 67.7584 41.695 67.6763 41.7995C67.5942 41.9025 67.4994 41.9913 67.392 42.0659C67.274 42.148 67.1434 42.2122 67.0001 42.2585C66.8583 42.3048 66.6904 42.3279 66.4963 42.3279Z" fill="#5D5D75"/>
<path d="M62.9429 42.3279C62.7101 42.3279 62.4921 42.2906 62.2891 42.2159C62.0861 42.1398 61.9092 42.0301 61.7584 41.8868C61.6107 41.7465 61.4942 41.5733 61.4092 41.3673C61.3241 41.1598 61.2815 40.9322 61.2815 40.6844C61.2815 40.4381 61.3241 40.2105 61.4092 40.0015C61.4957 39.791 61.6166 39.6089 61.7719 39.4552C61.9241 39.3044 62.107 39.188 62.3205 39.1059C62.5339 39.0223 62.7623 38.9805 63.0056 38.9805C63.1818 38.9805 63.3422 39.0021 63.487 39.0454C63.6318 39.0872 63.7542 39.135 63.8542 39.1887L63.9931 39.0656H64.1879L64.208 40.2254H64.011C63.899 39.8716 63.7647 39.6119 63.6079 39.4462C63.4512 39.2805 63.2601 39.1977 63.0347 39.1977C62.7541 39.1977 62.5406 39.3216 62.3943 39.5693C62.2481 39.8156 62.1749 40.162 62.1749 40.6083C62.1749 40.8606 62.1995 41.0763 62.2488 41.2554C62.2996 41.433 62.3652 41.5763 62.4458 41.6853C62.5324 41.7987 62.6347 41.8823 62.7526 41.9361C62.8705 41.9883 63.0011 42.0144 63.1444 42.0144C63.3534 42.0144 63.5393 41.9577 63.702 41.8443C63.8662 41.7308 64.0154 41.5591 64.1498 41.3293L64.3424 41.4457C64.2782 41.5771 64.205 41.695 64.1229 41.7995C64.0408 41.9025 63.946 41.9913 63.8386 42.0659C63.7206 42.148 63.59 42.2122 63.4467 42.2585C63.3049 42.3048 63.137 42.3279 62.9429 42.3279Z" fill="#5D5D75"/>
<path d="M60.5097 39.876H60.3395C60.2962 39.7551 60.2216 39.6327 60.1156 39.5088C60.0096 39.3849 59.9044 39.3117 59.7999 39.2893C59.7551 39.2789 59.6924 39.2729 59.6118 39.2714C59.5327 39.2684 59.467 39.2669 59.4148 39.2669H58.9535V40.494H59.2804C59.3625 40.494 59.4372 40.4843 59.5044 40.4649C59.5715 40.4455 59.6327 40.4081 59.688 40.3529C59.7223 40.3186 59.7566 40.2581 59.791 40.1715C59.8268 40.085 59.8499 40.0096 59.8604 39.9454H60.0305V41.2709H59.8604C59.8514 41.2082 59.8283 41.1299 59.791 41.0358C59.7551 40.9403 59.7208 40.8746 59.688 40.8388C59.6387 40.785 59.5805 40.7485 59.5133 40.7291C59.4461 40.7082 59.3685 40.6977 59.2804 40.6977H58.9535V41.6135C58.9535 41.709 58.9603 41.7852 58.9737 41.8419C58.9886 41.8971 59.0155 41.9397 59.0543 41.9695C59.0916 41.9979 59.1424 42.0165 59.2066 42.0255C59.2722 42.0345 59.361 42.0389 59.473 42.0389C59.5252 42.0389 59.5879 42.0382 59.6611 42.0367C59.7342 42.0352 59.7984 42.0307 59.8536 42.0233C59.9163 42.0158 59.9746 42.0046 60.0283 41.9897C60.0835 41.9747 60.1246 41.9531 60.1514 41.9247C60.2231 41.8516 60.3037 41.7404 60.3933 41.5911C60.4828 41.4404 60.5418 41.3277 60.5702 41.253H60.7336L60.6732 42.2427H57.6929V42.068C57.7347 42.0651 57.7915 42.0591 57.8631 42.0501C57.9348 42.0412 57.9855 42.0307 58.0154 42.0188C58.0721 41.9949 58.1101 41.965 58.1296 41.9292C58.149 41.8919 58.1587 41.8449 58.1587 41.7882V39.5468C58.1587 39.4931 58.1505 39.4491 58.134 39.4147C58.1176 39.3789 58.0781 39.3468 58.0154 39.3184C57.9765 39.3005 57.9221 39.2841 57.8519 39.2692C57.7817 39.2543 57.7288 39.2446 57.6929 39.2401V39.0654H60.5097V39.876Z" fill="#5D5D75"/>
<path d="M54.1798 41.215C54.2395 41.3344 54.3187 41.4262 54.4172 41.4904C54.5172 41.5546 54.6374 41.5867 54.7777 41.5867V39.6924H54.7083C54.5814 39.6924 54.4769 39.723 54.3948 39.7842C54.3127 39.8454 54.247 39.9208 54.1977 40.0104C54.1515 40.0925 54.1164 40.191 54.0925 40.3059C54.0686 40.4208 54.0567 40.5328 54.0567 40.6418C54.0567 40.7194 54.0627 40.8052 54.0746 40.8993C54.0865 40.9933 54.1216 41.0985 54.1798 41.215ZM56.1592 41.215C56.2099 41.115 56.2435 41.012 56.2599 40.906C56.2764 40.8 56.2846 40.7119 56.2846 40.6418C56.2846 40.5462 56.2726 40.4388 56.2487 40.3193C56.2264 40.1999 56.1913 40.0969 56.1435 40.0104C56.0913 39.9148 56.0248 39.8379 55.9442 39.7797C55.8651 39.7215 55.7614 39.6924 55.633 39.6924H55.5636V41.5867C55.7024 41.5867 55.8226 41.5538 55.9241 41.4881C56.0271 41.4225 56.1054 41.3314 56.1592 41.215ZM56.6831 41.477C56.5353 41.5829 56.3659 41.662 56.1749 41.7143C55.9853 41.7665 55.7808 41.7927 55.5613 41.7927V41.8576C55.5613 41.9098 55.5696 41.9531 55.586 41.9875C55.6039 42.0218 55.6397 42.0494 55.6935 42.0703C55.7203 42.0808 55.7666 42.0905 55.8323 42.0994C55.8994 42.1069 55.9614 42.1114 56.0181 42.1129V42.2875H54.3522V42.1129C54.3881 42.1099 54.4396 42.1054 54.5067 42.0994C54.5754 42.092 54.6232 42.0822 54.65 42.0703C54.6948 42.0509 54.7277 42.024 54.7486 41.9897C54.7695 41.9554 54.7799 41.9113 54.7799 41.8576V41.7927C54.5515 41.7927 54.341 41.7658 54.1485 41.7121C53.9559 41.6583 53.7895 41.5799 53.6492 41.477C53.5074 41.374 53.3969 41.2478 53.3178 41.0985C53.2402 40.9493 53.2014 40.7791 53.2014 40.588C53.2014 40.4417 53.229 40.3044 53.2842 40.176C53.3409 40.0477 53.4342 39.9305 53.5641 39.8245C53.6865 39.7245 53.8477 39.6439 54.0477 39.5827C54.2478 39.5215 54.4829 39.4909 54.753 39.4909H54.7799C54.7799 39.4222 54.7709 39.3715 54.753 39.3386C54.7366 39.3058 54.7023 39.2782 54.65 39.2558C54.6068 39.2364 54.556 39.2207 54.4978 39.2088C54.4411 39.1968 54.3911 39.1894 54.3478 39.1864V39.0117H55.9935V39.1864C55.9502 39.1879 55.9002 39.1923 55.8435 39.1998C55.7867 39.2058 55.7367 39.2162 55.6935 39.2311C55.6412 39.2491 55.6061 39.2759 55.5882 39.3118C55.5703 39.3461 55.5613 39.4058 55.5613 39.4909H55.586C55.8606 39.4909 56.0957 39.5215 56.2913 39.5827C56.4883 39.6424 56.6503 39.723 56.7772 39.8245C56.9011 39.926 56.9921 40.0424 57.0503 40.1738C57.11 40.3052 57.1399 40.4432 57.1399 40.588C57.1399 40.7761 57.0989 40.9463 57.0168 41.0985C56.9347 41.2508 56.8234 41.3769 56.6831 41.477Z" fill="#5D5D75"/>
<path d="M52.1333 39.4191C52.29 39.5624 52.4139 39.7356 52.505 39.9386C52.5975 40.1416 52.6438 40.373 52.6438 40.6327C52.6438 40.8641 52.605 41.0843 52.5273 41.2932C52.4497 41.5022 52.3378 41.6821 52.1915 41.8329C52.0377 41.9896 51.8571 42.112 51.6496 42.2001C51.4421 42.2866 51.1951 42.3299 50.9085 42.3299C50.6771 42.3299 50.4584 42.2919 50.2524 42.2157C50.0464 42.1396 49.8651 42.0292 49.7083 41.8844C49.5531 41.7426 49.4299 41.5701 49.3389 41.3671C49.2478 41.1641 49.2023 40.938 49.2023 40.6887C49.2023 40.429 49.2463 40.1939 49.3344 39.9834C49.424 39.7714 49.5464 39.59 49.7016 39.4393C49.8554 39.2915 50.0375 39.1781 50.248 39.0989C50.4599 39.0183 50.6853 38.978 50.9242 38.978C51.1615 38.978 51.3839 39.0168 51.5914 39.0945C51.8004 39.1721 51.981 39.2803 52.1333 39.4191ZM51.5578 41.6918C51.625 41.556 51.6735 41.4022 51.7034 41.2305C51.7332 41.0589 51.7481 40.8648 51.7481 40.6484C51.7481 40.4648 51.7347 40.2864 51.7078 40.1132C51.6825 39.9386 51.6384 39.7834 51.5757 39.6475C51.5115 39.5117 51.4265 39.4027 51.3205 39.3206C51.2145 39.2385 51.0824 39.1975 50.9242 39.1975C50.654 39.1975 50.4487 39.3258 50.3084 39.5826C50.1681 39.8378 50.0979 40.1991 50.0979 40.6663C50.0979 40.8648 50.1129 41.0522 50.1427 41.2283C50.1741 41.4044 50.2226 41.5582 50.2883 41.6896C50.3554 41.8224 50.4405 41.9262 50.5435 42.0008C50.6465 42.0739 50.7734 42.1105 50.9242 42.1105C51.0719 42.1105 51.1988 42.0732 51.3048 41.9986C51.4108 41.9239 51.4951 41.8217 51.5578 41.6918Z" fill="#5D5D75"/>
<path d="M48.6855 39.8603C48.6855 40.0394 48.6482 40.1939 48.5736 40.3238C48.5004 40.4522 48.3989 40.5567 48.2691 40.6373C48.1347 40.7209 47.981 40.7813 47.8078 40.8186C47.6361 40.856 47.4428 40.8746 47.2279 40.8746H46.9682V41.768C46.9682 41.8217 46.9779 41.8688 46.9973 41.9091C47.0182 41.9479 47.057 41.9792 47.1137 42.0031C47.1435 42.015 47.1921 42.0277 47.2592 42.0412C47.3264 42.0546 47.3831 42.0636 47.4294 42.068V42.2427H45.7076V42.068C45.7508 42.0636 45.8083 42.0576 45.88 42.0501C45.9516 42.0412 46.0016 42.0307 46.03 42.0188C46.0882 41.9949 46.1263 41.9658 46.1442 41.9315C46.1636 41.8971 46.1733 41.8494 46.1733 41.7882V39.5468C46.1733 39.4946 46.1643 39.4498 46.1464 39.4125C46.1285 39.3737 46.0897 39.3416 46.03 39.3162C45.9882 39.2983 45.9322 39.2826 45.862 39.2692C45.7934 39.2543 45.7419 39.2446 45.7076 39.2401V39.0654H47.4608C47.8713 39.0654 48.178 39.1311 48.381 39.2625C48.584 39.3923 48.6855 39.5916 48.6855 39.8603ZM47.8123 39.9745C47.8123 39.7357 47.7638 39.5588 47.6667 39.4438C47.5712 39.3274 47.4003 39.2692 47.154 39.2692H46.9682V40.6641H47.0622C47.307 40.6641 47.4928 40.6082 47.6197 40.4962C47.7481 40.3828 47.8123 40.2089 47.8123 39.9745Z" fill="#5D5D75"/>
<path d="M45.1238 42.2427H43.4198V42.068C43.4571 42.0651 43.5094 42.0606 43.5766 42.0546C43.6437 42.0486 43.6908 42.0397 43.7176 42.0277C43.7729 42.0053 43.8109 41.9762 43.8318 41.9404C43.8527 41.9031 43.8632 41.8561 43.8632 41.7994V39.3028H42.5645V41.7747C42.5645 41.8255 42.5749 41.871 42.5958 41.9113C42.6182 41.9516 42.6556 41.983 42.7078 42.0053C42.7362 42.0173 42.7824 42.03 42.8466 42.0434C42.9108 42.0568 42.9645 42.0651 43.0078 42.068V42.2427H41.3039V42.068C41.3412 42.0665 41.3957 42.0621 41.4673 42.0546C41.5405 42.0457 41.5935 42.0352 41.6263 42.0233C41.6801 42.0039 41.7174 41.9747 41.7383 41.9359C41.7592 41.8956 41.7696 41.8486 41.7696 41.7949V39.5468C41.7696 39.4946 41.7599 39.4506 41.7405 39.4147C41.7226 39.3789 41.6845 39.3476 41.6263 39.3207C41.583 39.3013 41.5263 39.2841 41.4562 39.2692C41.386 39.2528 41.3352 39.2431 41.3039 39.2401V39.0654H45.1238V39.2401C45.076 39.2431 45.0223 39.2498 44.9626 39.2602C44.9028 39.2692 44.8491 39.2811 44.8013 39.2961C44.7446 39.3155 44.7066 39.3461 44.6872 39.3879C44.6677 39.4297 44.658 39.4752 44.658 39.5244V41.7747C44.658 41.8285 44.6677 41.874 44.6872 41.9113C44.7066 41.9486 44.7446 41.98 44.8013 42.0053C44.8372 42.0203 44.8887 42.0337 44.9558 42.0457C45.0245 42.0576 45.0805 42.0651 45.1238 42.068V42.2427Z" fill="#5D5D75"/>
<path d="M38.7582 39.4191C38.9149 39.5624 39.0388 39.7356 39.1299 39.9386C39.2224 40.1416 39.2687 40.373 39.2687 40.6327C39.2687 40.8641 39.2299 41.0843 39.1522 41.2932C39.0746 41.5022 38.9627 41.6821 38.8164 41.8329C38.6626 41.9896 38.482 42.112 38.2745 42.2001C38.067 42.2866 37.82 42.3299 37.5334 42.3299C37.302 42.3299 37.0833 42.2919 36.8773 42.2157C36.6713 42.1396 36.49 42.0292 36.3332 41.8844C36.178 41.7426 36.0548 41.5701 35.9638 41.3671C35.8727 41.1641 35.8272 40.938 35.8272 40.6887C35.8272 40.429 35.8712 40.1939 35.9593 39.9834C36.0489 39.7714 36.1713 39.59 36.3265 39.4393C36.4803 39.2915 36.6624 39.1781 36.8729 39.0989C37.0848 39.0183 37.3102 38.978 37.5491 38.978C37.7864 38.978 38.0088 39.0168 38.2163 39.0945C38.4253 39.1721 38.6059 39.2803 38.7582 39.4191ZM38.1827 41.6918C38.2499 41.556 38.2984 41.4022 38.3283 41.2305C38.3581 41.0589 38.373 40.8648 38.373 40.6484C38.373 40.4648 38.3596 40.2864 38.3327 40.1132C38.3074 39.9386 38.2633 39.7834 38.2006 39.6475C38.1365 39.5117 38.0514 39.4027 37.9454 39.3206C37.8394 39.2385 37.7073 39.1975 37.5491 39.1975C37.2789 39.1975 37.0736 39.3258 36.9333 39.5826C36.793 39.8378 36.7228 40.1991 36.7228 40.6663C36.7228 40.8648 36.7378 41.0522 36.7676 41.2283C36.799 41.4044 36.8475 41.5582 36.9132 41.6896C36.9803 41.8224 37.0654 41.9262 37.1684 42.0008C37.2714 42.0739 37.3983 42.1105 37.5491 42.1105C37.6968 42.1105 37.8237 42.0732 37.9297 41.9986C38.0357 41.9239 38.12 41.8217 38.1827 41.6918Z" fill="#5D5D75"/>
<path d="M34.88 40.785C34.9755 40.8507 35.0532 40.9336 35.1129 41.0336C35.1726 41.1321 35.2024 41.2485 35.2024 41.3829C35.2024 41.5441 35.1681 41.6807 35.0994 41.7926C35.0323 41.9031 34.9352 41.9904 34.8084 42.0546C34.674 42.1233 34.5188 42.1718 34.3426 42.2001C34.168 42.2285 33.962 42.2427 33.7246 42.2427H32.0744V42.068C32.1207 42.0636 32.1789 42.0568 32.2491 42.0479C32.3192 42.0389 32.3685 42.0285 32.3969 42.0165C32.4521 41.9942 32.4894 41.965 32.5088 41.9292C32.5297 41.8919 32.5402 41.8441 32.5402 41.7859V39.5468C32.5402 39.4931 32.532 39.4483 32.5155 39.4125C32.4991 39.3767 32.4596 39.3453 32.3969 39.3184C32.3506 39.299 32.2968 39.2834 32.2356 39.2714C32.1744 39.258 32.1207 39.2475 32.0744 39.2401V39.0654H33.8008C34.2351 39.0654 34.5486 39.1251 34.7412 39.2446C34.9337 39.364 35.03 39.5401 35.03 39.773C35.03 39.8805 35.0084 39.9752 34.9651 40.0573C34.9218 40.138 34.8599 40.2081 34.7792 40.2678C34.7061 40.323 34.6188 40.3708 34.5173 40.4111C34.4158 40.4514 34.3068 40.485 34.1904 40.5119V40.5544C34.3068 40.5664 34.4277 40.5925 34.5531 40.6328C34.6785 40.6716 34.7875 40.7224 34.88 40.785ZM34.159 39.829C34.159 39.6528 34.109 39.5155 34.009 39.417C33.9105 39.3184 33.762 39.2692 33.5634 39.2692C33.5351 39.2692 33.4977 39.2707 33.4515 39.2737C33.4067 39.2752 33.3679 39.2766 33.335 39.2781V40.4559H33.4515C33.6933 40.4559 33.8717 40.3999 33.9866 40.288C34.1015 40.1745 34.159 40.0215 34.159 39.829ZM34.3158 41.3538C34.3158 41.1329 34.2501 40.9634 34.1187 40.8455C33.9874 40.7276 33.7985 40.6686 33.5522 40.6686C33.5239 40.6686 33.4858 40.6701 33.438 40.6731C33.3918 40.6746 33.3574 40.6761 33.335 40.6776V41.8397C33.3485 41.8949 33.3903 41.9419 33.4604 41.9807C33.5306 42.018 33.6157 42.0367 33.7157 42.0367C33.8933 42.0367 34.0374 41.977 34.1478 41.8576C34.2598 41.7381 34.3158 41.5702 34.3158 41.3538Z" fill="#5D5D75"/>
<path d="M31.6115 39.9745H31.4391C31.3928 39.8387 31.3182 39.6931 31.2152 39.5379C31.1137 39.3826 31.0197 39.299 30.9331 39.2871C30.8853 39.2811 30.8263 39.2759 30.7562 39.2714C30.686 39.2669 30.6256 39.2647 30.5748 39.2647H30.4696V41.7568C30.4696 41.8105 30.4793 41.8583 30.4987 41.9001C30.5181 41.9404 30.5562 41.9725 30.6129 41.9964C30.6472 42.0098 30.7002 42.024 30.7719 42.0389C30.845 42.0524 30.907 42.0621 30.9577 42.068V42.2427H29.1866V42.068C29.2299 42.0636 29.2903 42.0576 29.368 42.0501C29.4471 42.0412 29.5008 42.0307 29.5292 42.0188C29.5874 41.9949 29.6262 41.9628 29.6456 41.9225C29.665 41.8822 29.6747 41.8344 29.6747 41.7792V39.2647H29.5695C29.5187 39.2647 29.4583 39.2669 29.3881 39.2714C29.3179 39.2759 29.259 39.2811 29.2112 39.2871C29.1246 39.299 29.0299 39.3826 28.9269 39.5379C28.8253 39.6931 28.7515 39.8387 28.7052 39.9745H28.5328V39.0654H31.6115V39.9745Z" fill="#5D5D75"/>
<path d="M26.7698 42.3279C26.5369 42.3279 26.319 42.2906 26.116 42.2159C25.9129 42.1398 25.7361 42.0301 25.5853 41.8868C25.4375 41.7465 25.3211 41.5733 25.236 41.3673C25.1509 41.1598 25.1084 40.9322 25.1084 40.6844C25.1084 40.4381 25.1509 40.2105 25.236 40.0015C25.3226 39.791 25.4435 39.6089 25.5987 39.4552C25.751 39.3044 25.9338 39.188 26.1473 39.1059C26.3608 39.0223 26.5891 38.9805 26.8325 38.9805C27.0086 38.9805 27.1691 39.0021 27.3139 39.0454C27.4587 39.0872 27.5811 39.135 27.6811 39.1887L27.8199 39.0656H28.0147L28.0349 40.2254H27.8378C27.7259 39.8716 27.5915 39.6119 27.4348 39.4462C27.278 39.2805 27.087 39.1977 26.8616 39.1977C26.5809 39.1977 26.3675 39.3216 26.2212 39.5693C26.0749 39.8156 26.0018 40.162 26.0018 40.6083C26.0018 40.8606 26.0264 41.0763 26.0757 41.2554C26.1264 41.433 26.1921 41.5763 26.2727 41.6853C26.3593 41.7987 26.4615 41.8823 26.5794 41.9361C26.6974 41.9883 26.828 42.0144 26.9713 42.0144C27.1803 42.0144 27.3661 41.9577 27.5288 41.8443C27.693 41.7308 27.8423 41.5591 27.9766 41.3293L28.1692 41.4457C28.105 41.5771 28.0319 41.695 27.9498 41.7995C27.8677 41.9025 27.7729 41.9913 27.6654 42.0659C27.5475 42.148 27.4169 42.2122 27.2736 42.2585C27.1318 42.3048 26.9638 42.3279 26.7698 42.3279Z" fill="#5D5D75"/>
<path d="M24.3365 39.876H24.1664C24.1231 39.7551 24.0484 39.6327 23.9425 39.5088C23.8365 39.3849 23.7312 39.3117 23.6268 39.2893C23.582 39.2789 23.5193 39.2729 23.4387 39.2714C23.3596 39.2684 23.2939 39.2669 23.2416 39.2669H22.7804V40.494H23.1073C23.1894 40.494 23.264 40.4843 23.3312 40.4649C23.3984 40.4455 23.4596 40.4081 23.5148 40.3529C23.5491 40.3186 23.5835 40.2581 23.6178 40.1715C23.6536 40.085 23.6768 40.0096 23.6872 39.9454H23.8574V41.2709H23.6872C23.6783 41.2082 23.6551 41.1299 23.6178 41.0358C23.582 40.9403 23.5476 40.8746 23.5148 40.8388C23.4655 40.785 23.4073 40.7485 23.3402 40.7291C23.273 40.7082 23.1954 40.6977 23.1073 40.6977H22.7804V41.6135C22.7804 41.709 22.7871 41.7852 22.8005 41.8419C22.8155 41.8971 22.8423 41.9397 22.8811 41.9695C22.9185 41.9979 22.9692 42.0165 23.0334 42.0255C23.0991 42.0345 23.1879 42.0389 23.2998 42.0389C23.3521 42.0389 23.4148 42.0382 23.4879 42.0367C23.5611 42.0352 23.6253 42.0307 23.6805 42.0233C23.7432 42.0158 23.8014 42.0046 23.8551 41.9897C23.9104 41.9747 23.9514 41.9531 23.9783 41.9247C24.0499 41.8516 24.1305 41.7404 24.2201 41.5911C24.3097 41.4404 24.3686 41.3277 24.397 41.253H24.5605L24.5 42.2427H21.5198V42.068C21.5616 42.0651 21.6183 42.0591 21.6899 42.0501C21.7616 42.0412 21.8123 42.0307 21.8422 42.0188C21.8989 41.9949 21.937 41.965 21.9564 41.9292C21.9758 41.8919 21.9855 41.8449 21.9855 41.7882V39.5468C21.9855 39.4931 21.9773 39.4491 21.9609 39.4147C21.9445 39.3789 21.9049 39.3468 21.8422 39.3184C21.8034 39.3005 21.7489 39.2841 21.6788 39.2692C21.6086 39.2543 21.5556 39.2446 21.5198 39.2401V39.0654H24.3365V39.876Z" fill="#5D5D75"/>
<path d="M19.7804 42.2427H15.3336V42.068C15.3709 42.0665 15.4254 42.0621 15.497 42.0546C15.5702 42.0457 15.6232 42.0352 15.656 42.0233C15.7098 42.0039 15.7471 41.9747 15.768 41.9359C15.7889 41.8956 15.7993 41.8486 15.7993 41.7949V39.5468C15.7993 39.4946 15.7896 39.4506 15.7702 39.4147C15.7523 39.3789 15.7142 39.3476 15.656 39.3207C15.6127 39.3013 15.556 39.2841 15.4858 39.2692C15.4157 39.2528 15.3649 39.2431 15.3336 39.2401V39.0654H17.0039V39.2401C16.9592 39.2431 16.9092 39.2505 16.8539 39.2625C16.7987 39.2744 16.7547 39.2856 16.7218 39.2961C16.6681 39.314 16.6315 39.3431 16.6121 39.3834C16.5942 39.4237 16.5852 39.4707 16.5852 39.5244V41.7747C16.5852 41.8359 16.6046 41.8926 16.6435 41.9449C16.6823 41.9971 16.7532 42.0233 16.8562 42.0233C16.9189 42.0233 16.9689 42.0248 17.0062 42.0277C17.045 42.0292 17.1054 42.03 17.1875 42.03C17.2592 42.03 17.3197 42.0292 17.3689 42.0277C17.4182 42.0262 17.4801 42.0248 17.5548 42.0233C17.6264 42.0218 17.6749 42.0053 17.7003 41.974C17.7272 41.9412 17.7406 41.8904 17.7406 41.8217V39.5468C17.7406 39.4946 17.7316 39.4506 17.7137 39.4147C17.6973 39.3789 17.66 39.3476 17.6018 39.3207C17.563 39.3028 17.5159 39.2864 17.4607 39.2714C17.407 39.255 17.3607 39.2446 17.3219 39.2401V39.0654H18.9542V39.2401C18.9064 39.2431 18.8549 39.2505 18.7997 39.2625C18.7445 39.2729 18.6989 39.2841 18.6631 39.2961C18.6064 39.3155 18.5691 39.3461 18.5512 39.3879C18.5347 39.4297 18.5265 39.4752 18.5265 39.5244V41.7747C18.5265 41.8359 18.5459 41.8926 18.5847 41.9449C18.6235 41.9971 18.6945 42.0233 18.7975 42.0233C18.8601 42.0233 18.9102 42.0248 18.9475 42.0277C18.9863 42.0292 19.0467 42.03 19.1288 42.03C19.2005 42.03 19.2609 42.0292 19.3102 42.0277C19.3595 42.0262 19.4214 42.0248 19.496 42.0233C19.5677 42.0218 19.6162 42.0053 19.6416 41.974C19.6685 41.9412 19.6819 41.8904 19.6819 41.8217V39.5468C19.6819 39.4946 19.6729 39.4506 19.655 39.4147C19.6386 39.3789 19.6013 39.3476 19.5431 39.3207C19.5043 39.3028 19.4572 39.2864 19.402 39.2714C19.3483 39.255 19.302 39.2446 19.2632 39.2401V39.0654H20.9335V39.2401C20.8858 39.2431 20.832 39.2498 20.7723 39.2602C20.7126 39.2692 20.6589 39.2811 20.6111 39.2961C20.5544 39.3155 20.5163 39.3461 20.4969 39.3879C20.4775 39.4297 20.4678 39.4752 20.4678 39.5244V41.7994C20.4678 41.8785 20.4924 41.9374 20.5417 41.9762C20.5925 42.0136 20.6648 42.0322 20.7589 42.0322H20.9694V43.0353H20.8014C20.7537 42.8681 20.6634 42.7039 20.5305 42.5427C20.3977 42.383 20.276 42.2912 20.1655 42.2673C20.1207 42.2569 20.0581 42.2502 19.9774 42.2472C19.8983 42.2442 19.8327 42.2427 19.7804 42.2427Z" fill="#5D5D75"/>
<path d="M13.8601 41.3224C13.8601 41.0925 13.7944 40.9172 13.663 40.7962C13.5332 40.6738 13.3458 40.6126 13.101 40.6126C13.0727 40.6126 13.0354 40.6141 12.9891 40.6171C12.9443 40.6186 12.9107 40.6201 12.8883 40.6216V41.8397C12.9018 41.8979 12.9428 41.9456 13.0115 41.983C13.0816 42.0188 13.166 42.0367 13.2645 42.0367C13.4421 42.0367 13.5854 41.974 13.6944 41.8486C13.8049 41.7217 13.8601 41.5463 13.8601 41.3224ZM14.7445 41.2911C14.7445 41.4493 14.7094 41.5896 14.6393 41.712C14.5706 41.8344 14.4766 41.9359 14.3572 42.0165C14.2407 42.0927 14.1124 42.1494 13.972 42.1867C13.8332 42.224 13.6884 42.2427 13.5377 42.2427H11.6277V42.068C11.671 42.0636 11.7285 42.0576 11.8001 42.0501C11.8718 42.0412 11.9218 42.0307 11.9501 42.0188C12.0039 41.9979 12.0412 41.9688 12.0621 41.9315C12.083 41.8941 12.0934 41.8464 12.0934 41.7882V39.5468C12.0934 39.4961 12.0837 39.452 12.0643 39.4147C12.0464 39.3759 12.0084 39.3438 11.9501 39.3184C11.9083 39.3005 11.8531 39.2841 11.7845 39.2692C11.7158 39.2543 11.6635 39.2446 11.6277 39.2401V39.0654H14.4646V39.9745H14.2922C14.2251 39.8013 14.1415 39.6476 14.0414 39.5132C13.9429 39.3789 13.8549 39.3058 13.7772 39.2938C13.7295 39.2849 13.6742 39.2781 13.6115 39.2737C13.5489 39.2692 13.4847 39.2669 13.419 39.2669H12.8883V40.3999C12.957 40.3984 13.0331 40.3962 13.1167 40.3932C13.2003 40.3887 13.2809 40.3865 13.3585 40.3865C13.5571 40.3865 13.7377 40.4022 13.9004 40.4335C14.0631 40.4649 14.2086 40.5171 14.337 40.5902C14.4624 40.6604 14.5617 40.7537 14.6348 40.8701C14.7079 40.9851 14.7445 41.1254 14.7445 41.2911Z" fill="#5D5D75"/>
<path d="M10.5245 39.4191C10.6812 39.5624 10.8051 39.7356 10.8962 39.9386C10.9887 40.1416 11.035 40.373 11.035 40.6327C11.035 40.8641 10.9962 41.0843 10.9185 41.2932C10.8409 41.5022 10.729 41.6821 10.5827 41.8329C10.4289 41.9896 10.2483 42.112 10.0408 42.2001C9.83334 42.2866 9.58629 42.3299 9.29969 42.3299C9.06832 42.3299 8.84963 42.2919 8.64364 42.2157C8.43764 42.1396 8.25627 42.0292 8.09954 41.8844C7.9443 41.7426 7.82115 41.5701 7.73009 41.3671C7.63903 41.1641 7.59351 40.938 7.59351 40.6887C7.59351 40.429 7.63754 40.1939 7.72561 39.9834C7.81518 39.7714 7.93758 39.59 8.09282 39.4393C8.24657 39.2915 8.42868 39.1781 8.63916 39.0989C8.85112 39.0183 9.07653 38.978 9.31536 38.978C9.5527 38.978 9.77512 39.0168 9.98261 39.0945C10.1916 39.1721 10.3722 39.2803 10.5245 39.4191ZM9.94902 41.6918C10.0162 41.556 10.0647 41.4022 10.0946 41.2305C10.1244 41.0589 10.1393 40.8648 10.1393 40.6484C10.1393 40.4648 10.1259 40.2864 10.099 40.1132C10.0737 39.9386 10.0296 39.7834 9.96694 39.6475C9.90275 39.5117 9.81766 39.4027 9.71168 39.3206C9.6057 39.2385 9.47359 39.1975 9.31536 39.1975C9.04518 39.1975 8.83993 39.3258 8.69961 39.5826C8.5593 39.8378 8.48914 40.1991 8.48914 40.6663C8.48914 40.8648 8.50407 41.0522 8.53392 41.2283C8.56527 41.4044 8.61378 41.5582 8.67946 41.6896C8.74663 41.8224 8.83172 41.9262 8.93472 42.0008C9.03772 42.0739 9.1646 42.1105 9.31536 42.1105C9.46314 42.1105 9.59002 42.0732 9.69601 41.9986C9.80199 41.9239 9.88633 41.8217 9.94902 41.6918Z" fill="#5D5D75"/>
<path d="M6.49023 39.4191C6.64696 39.5624 6.77086 39.7356 6.86191 39.9386C6.95446 40.1416 7.00074 40.373 7.00074 40.6327C7.00074 40.8641 6.96193 41.0843 6.88431 41.2932C6.80668 41.5022 6.69473 41.6821 6.54844 41.8329C6.39469 41.9896 6.21407 42.112 6.00658 42.2001C5.7991 42.2866 5.55205 42.3299 5.26545 42.3299C5.03408 42.3299 4.81539 42.2919 4.6094 42.2157C4.4034 42.1396 4.22203 42.0292 4.0653 41.8844C3.91006 41.7426 3.78691 41.5701 3.69585 41.3671C3.60479 41.1641 3.55927 40.938 3.55927 40.6887C3.55927 40.429 3.6033 40.1939 3.69137 39.9834C3.78093 39.7714 3.90334 39.59 4.05858 39.4393C4.21233 39.2915 4.39444 39.1781 4.60492 39.0989C4.81688 39.0183 5.04229 38.978 5.28112 38.978C5.51846 38.978 5.74088 39.0168 5.94837 39.0945C6.15735 39.1721 6.33797 39.2803 6.49023 39.4191ZM5.91478 41.6918C5.98195 41.556 6.03047 41.4022 6.06032 41.2305C6.09018 41.0589 6.1051 40.8648 6.1051 40.6484C6.1051 40.4648 6.09167 40.2864 6.0648 40.1132C6.03942 39.9386 5.99539 39.7834 5.93269 39.6475C5.86851 39.5117 5.78342 39.4027 5.67744 39.3206C5.57146 39.2385 5.43935 39.1975 5.28112 39.1975C5.01094 39.1975 4.80569 39.3258 4.66537 39.5826C4.52506 39.8378 4.4549 40.1991 4.4549 40.6663C4.4549 40.8648 4.46983 41.0522 4.49968 41.2283C4.53103 41.4044 4.57954 41.5582 4.64522 41.6896C4.71239 41.8224 4.79748 41.9262 4.90048 42.0008C5.00347 42.0739 5.13036 42.1105 5.28112 42.1105C5.4289 42.1105 5.55578 42.0732 5.66177 41.9986C5.76775 41.9239 5.85209 41.8217 5.91478 41.6918Z" fill="#5D5D75"/>
<path d="M1.6614 42.3279C1.42854 42.3279 1.2106 42.2906 1.00759 42.2159C0.804578 42.1398 0.62769 42.0301 0.476925 41.8868C0.329145 41.7465 0.212713 41.5733 0.127628 41.3673C0.0425426 41.1598 0 40.9322 0 40.6844C0 40.4381 0.0425426 40.2105 0.127628 40.0015C0.214206 39.791 0.335116 39.6089 0.490359 39.4552C0.642617 39.3044 0.825476 39.188 1.03894 39.1059C1.25239 39.0223 1.48078 38.9805 1.72409 38.9805C1.90024 38.9805 2.0607 39.0021 2.2055 39.0454C2.35029 39.0872 2.4727 39.135 2.57271 39.1887L2.71153 39.0656H2.90633L2.92648 40.2254H2.72944C2.61749 39.8716 2.48314 39.6119 2.32641 39.4462C2.16967 39.2805 1.9786 39.1977 1.7532 39.1977C1.47257 39.1977 1.25911 39.3216 1.11282 39.5693C0.966538 39.8156 0.893395 40.162 0.893395 40.6083C0.893395 40.8606 0.918025 41.0763 0.967284 41.2554C1.01804 41.433 1.08372 41.5763 1.16432 41.6853C1.2509 41.7987 1.35315 41.8823 1.47108 41.9361C1.589 41.9883 1.71962 42.0144 1.86292 42.0144C2.0719 42.0144 2.25774 41.9577 2.42045 41.8443C2.58465 41.7308 2.73392 41.5591 2.86827 41.3293L3.06083 41.4457C2.99664 41.5771 2.9235 41.695 2.8414 41.7995C2.7593 41.9025 2.66451 41.9913 2.55703 42.0659C2.43911 42.148 2.3085 42.2122 2.16519 42.2585C2.02339 42.3048 1.85545 42.3279 1.6614 42.3279Z" fill="#5D5D75"/>
</svg>
