<svg width="100" height="49" viewBox="0 0 100 49" fill="none" xmlns="http://www.w3.org/2000/svg">
<path d="M6.03122 7.95687C6.03122 8.33246 5.96207 8.65789 5.82647 8.93179C5.68952 9.20569 5.51325 9.4362 5.29494 9.62467C5.07799 9.81315 4.83257 9.95823 4.55867 10.0613C4.28612 10.1643 4.00951 10.2281 3.72748 10.2538V10.9603H2.3295V10.2538H2.31594C1.89289 10.2118 1.53492 10.1196 1.24204 9.97857C0.947802 9.83755 0.709156 9.65586 0.523393 9.43349C0.337629 9.21111 0.204747 8.94941 0.122035 8.64975C0.0406784 8.35009 0 8.0206 0 7.66127V4.77312C0 4.40566 0.0664415 4.08024 0.200679 3.7982C0.333562 3.51616 0.511189 3.27616 0.730851 3.07955C0.951869 2.88294 1.20136 2.73379 1.48204 2.63074C1.76137 2.52769 2.04476 2.47616 2.3295 2.47616V2.02734H3.72748L3.74104 2.47616C4.02172 2.49379 4.29968 2.55345 4.57358 2.65514C4.84613 2.75819 5.09155 2.90599 5.3085 3.09854C5.52681 3.29244 5.70173 3.52837 5.83461 3.8104C5.96613 4.0938 6.03257 4.41787 6.03257 4.78533V7.95687H6.03122ZM2.3295 3.60701C2.01764 3.6504 1.77221 3.75617 1.59187 3.92837C1.41018 4.09922 1.31933 4.34736 1.31933 4.67278V8.08568C1.31933 8.24839 1.34916 8.39212 1.41018 8.51551C1.46984 8.6389 1.54848 8.74467 1.6434 8.83009C1.73831 8.91552 1.84543 8.98196 1.96747 9.02941C2.08815 9.07687 2.20883 9.10399 2.3295 9.11348V3.60701ZM4.73765 4.67278C4.73765 4.34736 4.64138 4.09515 4.44884 3.91481C4.25765 3.73583 4.01765 3.63278 3.72748 3.60701L3.74104 9.11213C3.85222 9.0945 3.96612 9.0606 4.08544 9.00908C4.20477 8.95891 4.31324 8.88975 4.41087 8.80433C4.5085 8.7189 4.58714 8.61585 4.6468 8.49653C4.70647 8.37721 4.7363 8.24026 4.7363 8.08568V4.67278H4.73765Z" fill="#5D5D75"/>
<path d="M12.9152 8.67538C12.9152 9.45369 12.7389 10.0422 12.3863 10.4395C12.0338 10.8368 11.4792 11.0361 10.7212 11.0361C9.96463 11.0361 9.41277 10.8462 9.06836 10.4652C8.72395 10.0856 8.5531 9.53505 8.5531 8.8164V4.32553C8.5531 3.9757 8.59378 3.65434 8.67514 3.36281C8.75649 3.07264 8.88259 2.82179 9.0548 2.61298C9.227 2.40281 9.45344 2.2401 9.73277 2.1262C10.0134 2.01094 10.3457 1.95264 10.7335 1.95264C11.147 1.95264 11.4928 2.00552 11.7721 2.11264C12.0514 2.21976 12.2752 2.37569 12.4433 2.58044C12.6114 2.78518 12.7321 3.03468 12.8053 3.32485C12.8785 3.61502 12.9152 3.94587 12.9152 4.31333V8.67538ZM11.5172 4.21028C11.5172 3.96214 11.4629 3.73976 11.3558 3.54315C11.2474 3.34654 11.0426 3.24756 10.7416 3.24756C10.5762 3.24756 10.4433 3.28417 10.3402 3.35739C10.2358 3.43061 10.1572 3.5201 10.1002 3.62722C10.0433 3.73434 10.004 3.85366 9.98362 3.98655C9.96192 4.11943 9.95107 4.24146 9.95107 4.35265V8.84488C9.95107 9.07539 10.0094 9.28285 10.126 9.46725C10.2426 9.65031 10.4433 9.74251 10.728 9.74251C11.0128 9.74251 11.2148 9.64624 11.3368 9.45369C11.4575 9.26115 11.5172 9.02793 11.5172 8.75403V4.21028Z" fill="#5D5D75"/>
<path d="M18.559 10.9604V7.05934H16.9522V10.9604H15.5542V2.02881H16.9522V5.76307H18.559V2.02881H19.9569V10.9604H18.559Z" fill="#5D5D75"/>
<path d="M23.2598 10.9605V12.6554H22.0829V9.80659L22.6131 9.69133C22.8544 9.43506 23.0185 9.13675 23.1053 8.79912C23.192 8.46149 23.2436 8.01403 23.2598 7.4581L23.4158 2.03027H27.4538V9.70489H28.0233V12.6568H26.8463V10.9618H23.2598V10.9605ZM24.5168 7.44861C24.4992 7.96115 24.4653 8.40319 24.4124 8.77472C24.3609 9.14624 24.2619 9.4554 24.1154 9.70353H26.0571V3.3252H24.6198L24.5168 7.44861Z" fill="#5D5D75"/>
<path d="M36.4137 1.95117C36.7852 1.95117 37.1038 2.00134 37.3723 2.10439C37.6394 2.20609 37.8618 2.34846 38.0394 2.53016C38.2157 2.71185 38.3459 2.9288 38.4286 3.17965C38.5099 3.4305 38.5506 3.70576 38.5506 4.00542L37.1906 4.35254C37.1906 4.02847 37.1282 3.76271 37.0049 3.55796C36.8801 3.35186 36.6821 3.25016 36.4082 3.25016C36.2455 3.25016 36.1126 3.28406 36.011 3.35321C35.9079 3.42237 35.8293 3.50915 35.7737 3.61627C35.7181 3.72338 35.6787 3.83999 35.6571 3.96339C35.6367 4.08813 35.6259 4.20474 35.6259 4.31729V8.85697C35.6259 8.9424 35.634 9.03596 35.6516 9.13901C35.6679 9.24206 35.7045 9.33833 35.7615 9.42782C35.8171 9.51731 35.8943 9.59325 35.992 9.65291C36.0896 9.71392 36.2157 9.74376 36.3716 9.74376C36.8855 9.74376 37.1459 9.3763 37.154 8.64002C37.3872 8.68205 37.6204 8.71866 37.8537 8.7485C38.0869 8.77833 38.3201 8.81087 38.5533 8.84477C38.5357 9.52002 38.3486 10.0556 37.9893 10.4488C37.6313 10.8434 37.1025 11.04 36.4042 11.04C35.6625 11.04 35.1147 10.8543 34.7608 10.4814C34.4069 10.1085 34.2292 9.56342 34.2292 8.84477V4.38915C34.2292 4.05559 34.2659 3.74101 34.3391 3.44677C34.4123 3.15118 34.5357 2.89219 34.7092 2.66982C34.8815 2.44745 35.1065 2.27253 35.3886 2.14372C35.6652 2.0149 36.0069 1.95117 36.4137 1.95117Z" fill="#5D5D75"/>
<path d="M45.2057 8.67538C45.2057 9.45369 45.0281 10.0422 44.6755 10.4395C44.323 10.8368 43.767 11.0361 43.0104 11.0361C42.2525 11.0361 41.702 10.8462 41.3575 10.4652C41.0145 10.0856 40.8423 9.53505 40.8423 8.8164V4.32553C40.8423 3.9757 40.883 3.65434 40.9643 3.36281C41.047 3.07264 41.1731 2.82179 41.3453 2.61298C41.5189 2.40281 41.744 2.2401 42.0233 2.1262C42.3026 2.01094 42.6362 1.95264 43.0226 1.95264C43.4362 1.95264 43.782 2.00552 44.0626 2.11264C44.342 2.21976 44.5657 2.37569 44.7325 2.58044C44.9006 2.78518 45.0213 3.03468 45.0945 3.32485C45.1677 3.61502 45.2043 3.94587 45.2043 4.31333V8.67538H45.2057ZM43.8077 4.21028C43.8077 3.96214 43.7535 3.73976 43.645 3.54315C43.5379 3.34654 43.3331 3.24756 43.0308 3.24756C42.8667 3.24756 42.7338 3.28417 42.6294 3.35739C42.525 3.43061 42.445 3.5201 42.3894 3.62722C42.3325 3.73434 42.2931 3.85366 42.2714 3.98655C42.2498 4.11943 42.2403 4.24146 42.2403 4.35265V8.84488C42.2403 9.07539 42.2986 9.28285 42.4152 9.46725C42.5318 9.65031 42.7325 9.74251 43.0172 9.74251C43.302 9.74251 43.504 9.64624 43.6247 9.45369C43.7454 9.26115 43.8064 9.02793 43.8064 8.75403V4.21028H43.8077Z" fill="#5D5D75"/>
<path d="M48.4481 10.9605V12.6554H47.2698V9.80659L47.8013 9.69133C48.0427 9.43506 48.2067 9.13675 48.2935 8.79912C48.3789 8.46149 48.4318 8.01403 48.4481 7.4581L48.6027 2.03027H52.642V9.70489H53.2115V12.6568H52.0332V10.9618H48.4481V10.9605ZM49.7037 7.44861C49.6861 7.96115 49.6508 8.40319 49.5993 8.77472C49.5478 9.14624 49.4488 9.4554 49.3023 9.70353H51.244V3.3252H49.8067L49.7037 7.44861Z" fill="#5D5D75"/>
<path d="M55.4856 10.9604V2.02881H59.4856V3.32509H56.8836V5.76307H59.148V7.08511H56.8836V9.6641H59.4856V10.9604H55.4856Z" fill="#5D5D75"/>
<path d="M64.9472 5.3641L63.057 10.9587H61.7106V2.02849H63.0706V7.68818H63.1221L64.9987 2.02849H66.3587V10.9601H64.9865V5.3641H64.9472ZM63.2645 0C63.2726 0.0949157 63.3011 0.189832 63.3485 0.288815C63.396 0.387799 63.457 0.478647 63.5302 0.564071C63.6035 0.649495 63.6875 0.72136 63.7825 0.776954C63.8774 0.832547 63.9858 0.859665 64.1052 0.859665C64.2353 0.859665 64.3492 0.832547 64.4482 0.776954C64.5486 0.72136 64.6313 0.650851 64.7018 0.564071C64.7709 0.478647 64.8238 0.387799 64.8631 0.288815C64.9011 0.189832 64.9214 0.0949157 64.9214 0H65.9438C65.9262 0.18034 65.8787 0.374239 65.8001 0.58441C65.7228 0.793225 65.6075 0.985768 65.457 1.16204C65.3052 1.33696 65.1208 1.48204 64.8997 1.59865C64.6801 1.71391 64.4143 1.77221 64.1038 1.77221C63.7675 1.77221 63.4828 1.71526 63.2496 1.59865C63.0163 1.4834 62.8265 1.33696 62.6787 1.16204C62.5323 0.985768 62.4238 0.793225 62.356 0.58441C62.2855 0.374239 62.2475 0.18034 62.2394 0H63.2645Z" fill="#5D5D75"/>
<path d="M71.1251 1.95117C71.4966 1.95117 71.8166 2.00134 72.0824 2.10439C72.3495 2.20609 72.5719 2.34846 72.7495 2.53016C72.9258 2.71185 73.056 2.9288 73.1373 3.17965C73.22 3.4305 73.2607 3.70576 73.2607 4.00542L71.9021 4.35254C71.9021 4.02847 71.8397 3.76271 71.7163 3.55796C71.5915 3.35186 71.3922 3.25016 71.1197 3.25016C70.957 3.25016 70.8241 3.28406 70.7224 3.35321C70.6193 3.42237 70.5393 3.50915 70.4851 3.61627C70.4295 3.72338 70.3902 3.83999 70.3698 3.96339C70.3482 4.08813 70.3373 4.20474 70.3373 4.31729V8.85697C70.3373 8.9424 70.3454 9.03596 70.3631 9.13901C70.3793 9.24206 70.4159 9.33833 70.4715 9.42782C70.5271 9.51731 70.6044 9.59325 70.7021 9.65291C70.801 9.71392 70.9271 9.74376 71.0804 9.74376C71.5943 9.74376 71.8546 9.3763 71.8641 8.64002C72.0973 8.68205 72.3292 8.71866 72.5638 8.7485C72.797 8.77833 73.0302 8.81087 73.2621 8.84477C73.2444 9.52002 73.0573 10.0556 72.6993 10.4488C72.3414 10.8434 71.8126 11.04 71.1143 11.04C70.3726 11.04 69.8234 10.8543 69.4709 10.4814C69.117 10.1085 68.9393 9.56342 68.9393 8.84477V4.38915C68.9393 4.05559 68.9759 3.74101 69.0492 3.44677C69.1224 3.15118 69.2444 2.89219 69.418 2.66982C69.5902 2.44745 69.8166 2.27253 70.0973 2.14372C70.3766 2.0149 70.7197 1.95117 71.1251 1.95117Z" fill="#5D5D75"/>
<path d="M77.8348 3.32509V10.9604H76.4368V3.32509H74.9873V2.02881H79.2843V3.32509H77.8348Z" fill="#5D5D75"/>
<path d="M84.6556 6.28917C85.0529 6.41663 85.3254 6.6607 85.4719 7.02002C85.6197 7.37935 85.6915 7.78884 85.6915 8.25121C85.6915 9.1841 85.4908 9.86749 85.0908 10.3055C84.6881 10.7421 84.0739 10.959 83.2454 10.959H81.381V2.02881H83.3485C84.143 2.02881 84.7193 2.23627 85.0786 2.65118C85.4366 3.0661 85.6156 3.66678 85.6156 4.45323C85.6156 4.86408 85.5437 5.2234 85.4027 5.53256C85.259 5.84035 85.0108 6.07086 84.6569 6.22544V6.28917H84.6556ZM84.2813 4.48035C84.2813 4.0695 84.1986 3.7739 84.0359 3.59492C83.8718 3.41593 83.5993 3.32509 83.2196 3.32509H82.7803V5.63561H83.2332C83.5952 5.63561 83.8596 5.53662 84.0291 5.34001C84.1959 5.14205 84.2813 4.85594 84.2813 4.48035ZM84.3573 8.13732C84.3573 7.71833 84.2813 7.40646 84.1254 7.20036C83.9695 6.99562 83.6969 6.89256 83.3091 6.89256H82.779V9.6641H83.3349C83.5586 9.6641 83.7376 9.62343 83.8718 9.54207C84.0061 9.46071 84.1091 9.35224 84.1824 9.21529C84.2556 9.07834 84.303 8.91562 84.3261 8.72851C84.3478 8.54003 84.3573 8.34206 84.3573 8.13732Z" fill="#5D5D75"/>
<path d="M91.4909 5.36442L89.6021 10.959H88.2556V2.02881H89.6156V7.6885H89.6672L91.5438 2.02881H92.9038V10.9604H91.5316V5.36442H91.4909Z" fill="#5D5D75"/>
<path d="M95.2229 10.9605L95.7273 8.12251C95.787 7.82285 95.8832 7.5503 96.0121 7.30759C96.1409 7.06352 96.3226 6.87233 96.5558 6.73538C96.1409 6.56453 95.8575 6.30555 95.7016 5.95979C95.547 5.61402 95.4683 5.19639 95.4683 4.70961C95.4683 3.8296 95.6826 3.16248 96.1097 2.7096C96.5355 2.25671 97.1212 2.03027 97.8629 2.03027H99.9212V10.9618H98.5246V7.1503H98.1626C97.9212 7.1503 97.6975 7.24386 97.4955 7.43369C97.2921 7.62217 97.1483 7.95573 97.0616 8.43437L96.6344 10.9618H95.2229V10.9605ZM97.9795 3.32519C97.5578 3.32519 97.2622 3.4513 97.0927 3.7035C96.9246 3.95571 96.8419 4.28791 96.8419 4.69741C96.8419 5.13402 96.9477 5.43504 97.1592 5.60182C97.3694 5.7686 97.6405 5.85267 97.9673 5.85267H98.5233V3.32519H97.9795Z" fill="#5D5D75"/>
<path d="M4.21597 18.3943L1.87291 25.3326H0.202393V14.2573H1.88783V21.2743H1.95291L4.2797 14.2573H5.96513V25.3326H4.26479V18.3943H4.21597Z" fill="#5D5D75"/>
<path d="M14.4373 25.3326V20.496H12.4468V25.3326H10.7125V14.2573H12.4468V18.8879H14.4373V14.2573H16.1715V25.3326H14.4373Z" fill="#5D5D75"/>
<path d="M24.7027 25.3326V20.496H22.7108V25.3326H20.9779V14.2573H22.7108V18.8879H24.7027V14.2573H26.4356V25.3326H24.7027Z" fill="#5D5D75"/>
<path d="M36.5439 22.5002C36.5439 23.4656 36.3256 24.1951 35.8862 24.6886C35.4496 25.1822 34.7622 25.4276 33.8211 25.4276C32.8828 25.4276 32.2008 25.1917 31.7737 24.7198C31.3465 24.248 31.1337 23.5659 31.1337 22.6751V17.1062C31.1337 16.671 31.1838 16.2737 31.2869 15.913C31.3872 15.5523 31.5445 15.2418 31.7588 14.9815C31.9716 14.7211 32.2523 14.5205 32.5994 14.3767C32.9452 14.233 33.3588 14.1611 33.8388 14.1611C34.3513 14.1611 34.7811 14.2262 35.1283 14.3605C35.474 14.4933 35.752 14.6859 35.9608 14.9408C36.1683 15.1957 36.3174 15.5035 36.4083 15.8642C36.4991 16.2249 36.5452 16.633 36.5452 17.0886V22.5002H36.5439ZM34.8096 16.9625C34.8096 16.6547 34.7418 16.3794 34.6089 16.1354C34.4747 15.8913 34.2211 15.7693 33.8469 15.7693C33.6422 15.7693 33.4781 15.814 33.3493 15.9049C33.2205 15.9944 33.1215 16.1056 33.0523 16.2384C32.9818 16.3713 32.9344 16.5191 32.9086 16.6845C32.8815 16.8486 32.8693 17.0005 32.8693 17.1388V22.7076C32.8693 22.9937 32.9411 23.2514 33.0849 23.4791C33.2299 23.7069 33.4794 23.8208 33.832 23.8208C34.1859 23.8208 34.4367 23.7015 34.5859 23.4629C34.735 23.2242 34.811 22.9354 34.811 22.5951V16.9625H34.8096Z" fill="#5D5D75"/>
<path d="M45.342 19.5401C45.8343 19.7001 46.1719 20.0024 46.3536 20.4472C46.5353 20.8933 46.6261 21.4018 46.6261 21.974C46.6261 23.1306 46.3766 23.9794 45.8804 24.5204C45.3827 25.0615 44.6207 25.3326 43.5929 25.3326H41.281V14.2573H43.7231C44.7061 14.2573 45.4207 14.515 45.8654 15.0289C46.3088 15.5441 46.5326 16.2885 46.5326 17.2648C46.5326 17.7746 46.4431 18.2194 46.2668 18.6018C46.0905 18.9841 45.7827 19.2702 45.3448 19.4614V19.5401H45.342ZM44.877 17.296C44.877 16.7862 44.7753 16.42 44.5732 16.1977C44.3698 15.9753 44.0322 15.8641 43.5617 15.8641H43.0153V18.7279H43.5766C44.0268 18.7279 44.3549 18.6058 44.5651 18.3618C44.7725 18.1177 44.877 17.7638 44.877 17.296ZM44.9732 21.8316C44.9732 21.3123 44.877 20.9245 44.6844 20.6696C44.4919 20.4146 44.1542 20.2872 43.6729 20.2872H43.0139V23.7245H43.7041C43.982 23.7245 44.2044 23.6743 44.3698 23.5726C44.5366 23.4723 44.6641 23.3367 44.7563 23.1672C44.8471 22.9977 44.9054 22.7957 44.9326 22.5625C44.9597 22.3306 44.9732 22.0865 44.9732 21.8316Z" fill="#5D5D75"/>
<path d="M55.3404 25.3326L54.9065 23.0262H52.8523C52.7763 23.4072 52.7045 23.7923 52.6353 24.1787C52.5661 24.5665 52.4997 24.9516 52.4346 25.3326H50.6692C51.0434 23.4764 51.4177 21.6309 51.7919 19.795C52.1661 17.959 52.5417 16.1136 52.916 14.2573H54.8428L57.1058 25.3326H55.3404ZM53.8312 16.8187C53.7241 17.5821 53.6116 18.3441 53.495 19.1021C53.3756 19.8601 53.2482 20.633 53.1085 21.418H54.6326L53.9099 16.8187H53.8312Z" fill="#5D5D75"/>
<path d="M66.6399 14.2582V23.7254H67.3626V27.4325H65.9172V25.3321H61.2297V14.2568H62.964V23.724H64.9057V14.2568H66.6399V14.2582Z" fill="#5D5D75"/>
<path d="M75.499 18.3943L73.156 25.3326H71.4868V14.2573H73.1722V21.2743H73.236L75.5641 14.2573H77.2496V25.3326H75.5479V18.3943H75.499Z" fill="#5D5D75"/>
<path d="M81.5835 25.3326L82.2099 21.8126C82.2845 21.4411 82.4025 21.1035 82.5625 20.8011C82.7238 20.4987 82.9489 20.2614 83.2364 20.0919C82.7238 19.8804 82.3699 19.559 82.1774 19.1306C81.9849 18.7007 81.8886 18.1841 81.8886 17.5794C81.8886 16.4878 82.153 15.6607 82.6818 15.0994C83.212 14.538 83.9374 14.2573 84.8581 14.2573H87.41V25.3326H85.6771V20.6058H85.2283C84.9272 20.6058 84.652 20.7224 84.4011 20.957C84.1489 21.1902 83.9699 21.6038 83.8628 22.1991L83.3327 25.334H81.5835V25.3326ZM85.0032 15.8641C84.4784 15.8641 84.111 16.02 83.9035 16.3333C83.6947 16.6465 83.5903 17.056 83.5903 17.5658C83.5903 18.1068 83.7218 18.4811 83.9835 18.6872C84.2452 18.8933 84.5801 18.9977 84.9869 18.9977H85.6771V15.8641H85.0032Z" fill="#5D5D75"/>
<path d="M95.4289 22.9139L94.6289 20.861L93.9414 18.9193H93.8601V25.3316H92.1272V14.2562H93.8126L95.0235 17.4061L95.9008 19.8088H95.9808L96.8798 17.3424L98.0838 14.2549H99.7516V25.3302H98.0187V18.9491H97.955L97.2526 20.922L96.4689 22.9112H95.4289V22.9139Z" fill="#5D5D75"/>
<path d="M10.1674 28.6958H0.244629C13.4393 42.6593 32.3234 47.9637 48.1947 48.6552C48.9351 48.6864 49.6659 48.7068 50.3927 48.719C50.611 48.7217 50.8279 48.7244 51.0449 48.7257C51.7066 48.7325 52.3669 48.7352 53.0151 48.7271C63.3134 48.5779 74.7521 46.3379 84.7007 41.0362C90.4078 37.9935 95.6268 33.946 99.8546 28.6972C99.8546 28.6972 99.8546 28.6972 99.8533 28.6985C75.784 52.2458 27.6536 48.1684 10.1674 28.6958Z" fill="#5D5D75"/>
<path d="M99.8474 28.697C99.8352 28.7038 99.8243 28.712 99.8135 28.7201C99.4365 28.9832 99.0853 29.2204 98.7545 29.4401C98.5633 29.5662 98.383 29.6855 98.2053 29.7981C98.0575 29.8943 97.9057 29.9838 97.7579 30.0787C97.2589 30.3988 96.7572 30.7174 96.2514 31.0225C96.0575 31.1391 95.8623 31.2503 95.667 31.3655C95.1504 31.6706 94.6324 31.9716 94.1104 32.2605C93.9192 32.3662 93.7267 32.4652 93.5355 32.5696C93.0039 32.8571 92.4724 33.1418 91.9355 33.413C91.747 33.5079 91.5558 33.5974 91.3673 33.6923C90.8236 33.9622 90.2799 34.2279 89.7307 34.4815C89.5436 34.5683 89.3551 34.6483 89.1666 34.7337C88.6121 34.9845 88.0575 35.2313 87.4988 35.4672C87.3104 35.5459 87.1205 35.6191 86.932 35.6964C86.3707 35.9269 85.8093 36.1547 85.2439 36.369C85.0514 36.4422 84.8575 36.51 84.6649 36.5805C84.1009 36.7893 83.5354 36.9968 82.9673 37.1907C82.7693 37.2598 82.5686 37.3208 82.3707 37.3859C81.8066 37.573 81.2412 37.7601 80.6744 37.9337C80.4669 37.9974 80.2581 38.053 80.0507 38.1154C79.4907 38.2808 78.9293 38.4463 78.3679 38.5981C78.1469 38.6578 77.9259 38.7093 77.7049 38.7676C77.153 38.9113 76.6025 39.0551 76.0493 39.1852C75.812 39.2408 75.5733 39.2896 75.3361 39.3439C74.7978 39.4659 74.2594 39.588 73.7211 39.6978C73.4649 39.7493 73.2086 39.7927 72.951 39.8429C72.4303 39.9432 71.9096 40.0449 71.3889 40.1344C71.1015 40.1832 70.814 40.2225 70.5265 40.2686C70.0357 40.3473 69.5448 40.4286 69.054 40.4964C68.7231 40.5439 68.3937 40.5778 68.0628 40.6198C67.6153 40.6768 67.1679 40.7378 66.7204 40.7866C66.3082 40.8313 65.8974 40.8639 65.4865 40.9019C65.1218 40.9358 64.7557 40.9751 64.3909 41.0036C63.614 41.0646 62.8397 41.1134 62.0668 41.1513C62.0655 41.1513 62.0641 41.1513 62.0641 41.1513C61.6112 41.173 61.1597 41.1907 60.7095 41.2042C60.7014 41.2042 60.6946 41.2056 60.6865 41.2056C60.2417 41.2191 59.7997 41.2286 59.3563 41.2341C59.3414 41.2341 59.3265 41.2341 59.3116 41.2354C58.8777 41.2408 58.4438 41.2422 58.0112 41.2408C57.9855 41.2408 57.9611 41.2395 57.9366 41.2395C57.5136 41.2368 57.0905 41.2313 56.6688 41.2219C56.6377 41.2219 56.6065 41.2205 56.5753 41.2191C56.1604 41.2097 55.7468 41.1975 55.3332 41.1812C55.2953 41.1798 55.2573 41.1785 55.218 41.1758C54.8126 41.1595 54.4085 41.1391 54.0058 41.1161C53.9597 41.1134 53.9149 41.1107 53.8688 41.1066C53.4742 41.0836 53.081 41.0578 52.6892 41.028C52.6322 41.0239 52.5753 41.0185 52.517 41.0144C52.1359 40.9846 51.7563 40.9534 51.378 40.9181C51.3142 40.9127 51.2505 40.9046 51.1868 40.8991C50.8166 40.8639 50.4464 40.8259 50.079 40.7852C50.0058 40.7771 49.9325 40.7676 49.8593 40.7595C49.5013 40.7188 49.1434 40.6768 48.7868 40.6293C48.7081 40.6198 48.6295 40.609 48.5508 40.5981C48.2024 40.552 47.8552 40.5046 47.5095 40.453C47.4213 40.4395 47.3346 40.4259 47.2464 40.4124C46.9115 40.3608 46.5766 40.3093 46.243 40.2537C46.1468 40.2374 46.0518 40.2198 45.9556 40.2035C45.6315 40.148 45.3088 40.0924 44.9874 40.0313C44.8844 40.0124 44.784 39.992 44.681 39.973C44.3678 39.9134 44.0559 39.8524 43.7454 39.7886C43.6342 39.7656 43.5244 39.7412 43.4132 39.7181C43.1135 39.6557 42.8152 39.592 42.5183 39.5242C42.3989 39.4971 42.281 39.4686 42.1616 39.4415C41.8742 39.3751 41.5881 39.3086 41.3033 39.2395C41.1786 39.2083 41.0552 39.1771 40.9305 39.1446C40.6538 39.0754 40.3786 39.0063 40.1047 38.933C39.9704 38.8978 39.8389 38.8598 39.706 38.8232C39.4443 38.7527 39.1813 38.6808 38.9223 38.6063C38.7826 38.5669 38.6457 38.5249 38.506 38.4829C38.2552 38.4096 38.0016 38.3351 37.7535 38.2578C37.6125 38.2144 37.4728 38.1683 37.3318 38.1235C37.0877 38.0462 36.845 37.969 36.6036 37.889C36.4572 37.8401 36.3121 37.79 36.167 37.7398C35.9352 37.6598 35.7019 37.5825 35.4728 37.4998C35.3209 37.4469 35.1718 37.39 35.0199 37.3344C34.7989 37.253 34.5779 37.1744 34.3596 37.0903C34.2023 37.0306 34.0491 36.9696 33.8931 36.9086C33.683 36.8259 33.4728 36.7459 33.2653 36.6618C33.1053 36.5968 32.9494 36.5303 32.7907 36.4639C32.5901 36.3812 32.3894 36.2984 32.1914 36.213C32.0287 36.1425 31.8687 36.0693 31.7074 35.9988C31.5175 35.9147 31.325 35.832 31.1379 35.7452C30.9738 35.6693 30.8124 35.592 30.6497 35.5161C30.468 35.4293 30.285 35.3466 30.106 35.2584C29.9392 35.1771 29.7751 35.093 29.6097 35.0103C29.4389 34.9249 29.2653 34.8408 29.0972 34.7527C28.9304 34.6659 28.7663 34.5778 28.6009 34.4896C28.4368 34.4028 28.2714 34.3161 28.1087 34.2279C27.9419 34.1371 27.7805 34.0435 27.6165 33.95C27.4605 33.8618 27.3019 33.7737 27.146 33.6842C26.9792 33.5866 26.8165 33.4876 26.6524 33.3886C26.5046 33.3005 26.3541 33.2123 26.2077 33.1215C26.0436 33.0211 25.8849 32.9167 25.7236 32.815C25.5799 32.7242 25.4361 32.6347 25.2951 32.5425C25.1283 32.434 24.967 32.3228 24.8029 32.2116C24.6714 32.1222 24.5385 32.0354 24.4083 31.9459C24.2402 31.8293 24.0775 31.7099 23.9121 31.592C23.7914 31.5052 23.6666 31.4184 23.5473 31.3303C23.3846 31.2096 23.2246 31.0862 23.0646 30.9642C22.948 30.8747 22.8287 30.7865 22.7134 30.6971C22.5493 30.5682 22.3893 30.4367 22.228 30.3052C22.1222 30.2184 22.0124 30.133 21.908 30.0462C21.7371 29.9038 21.5731 29.7601 21.4063 29.615C21.3154 29.5364 21.2219 29.4591 21.131 29.3791C20.8775 29.154 20.628 28.9248 20.3839 28.6943H10.1642C27.6477 48.1683 75.7781 52.2456 99.8474 28.697Z" fill="#A2ABBE"/>
<path d="M61.1304 37.8227C60.9433 37.8241 60.7548 37.8241 60.5691 37.8241C60.485 37.8241 60.4036 37.8227 60.3196 37.8227C60.047 37.8214 59.7758 37.82 59.506 37.8146C59.3582 37.8132 59.2104 37.8092 59.0626 37.8065C58.7955 37.801 58.5311 37.7943 58.2667 37.7861C58.1175 37.7821 57.9697 37.7766 57.8219 37.7699C57.5616 37.7604 57.3026 37.7495 57.045 37.736C56.8958 37.7278 56.7467 37.7197 56.5975 37.7116C56.344 37.698 56.0918 37.6831 55.8409 37.6655C55.6904 37.656 55.5412 37.6451 55.3907 37.6343C55.1453 37.6153 54.8999 37.5977 54.6558 37.576C54.5026 37.5624 54.3507 37.5488 54.1989 37.5353C53.9602 37.5122 53.7229 37.4905 53.487 37.4661C53.3338 37.4499 53.1819 37.4336 53.0301 37.4173C52.7995 37.3915 52.569 37.3658 52.3399 37.3373C52.1839 37.3183 52.0294 37.298 51.8748 37.2777C51.6524 37.2492 51.4314 37.2193 51.2117 37.1895C51.0544 37.1665 50.8985 37.1434 50.7412 37.1204C50.527 37.0892 50.3127 37.0553 50.0999 37.0227C49.9426 36.997 49.7853 36.9699 49.628 36.9427C49.4205 36.9075 49.2144 36.8736 49.0097 36.8356C48.8497 36.8071 48.6924 36.776 48.5338 36.7461C48.3358 36.7082 48.1365 36.6702 47.9399 36.6309C47.7785 36.5983 47.6199 36.5644 47.4598 36.5319C47.27 36.4912 47.0788 36.4519 46.8904 36.4099C46.7276 36.3732 46.5663 36.3353 46.4049 36.2973C46.2246 36.2553 46.0429 36.2132 45.8639 36.1699C45.6985 36.1292 45.5358 36.0885 45.3717 36.0465C45.1995 36.0017 45.0273 35.9583 44.8578 35.9136C44.691 35.8688 44.5283 35.8227 44.3629 35.7766C44.1988 35.7319 44.0347 35.6858 43.872 35.6397C43.7053 35.5909 43.5425 35.5407 43.3785 35.4919C43.2212 35.4444 43.0639 35.397 42.908 35.3482C42.7425 35.2966 42.5798 35.2424 42.4158 35.1881C42.2666 35.1393 42.1147 35.0905 41.9669 35.0404C41.8015 34.9848 41.6388 34.9265 41.4761 34.8681C41.3337 34.818 41.19 34.7678 41.049 34.7163C40.8849 34.6566 40.7235 34.5942 40.5608 34.5319C40.4252 34.4803 40.2883 34.4302 40.154 34.3773C39.9913 34.3122 39.8313 34.2471 39.67 34.182C39.5398 34.1292 39.4096 34.0776 39.2822 34.0234C39.1222 33.9556 38.9635 33.8864 38.8062 33.8173C38.6829 33.7631 38.5581 33.7102 38.4361 33.6546C38.2761 33.5827 38.1188 33.5081 37.9615 33.4336C37.8462 33.3793 37.7283 33.3251 37.6144 33.2709C37.4557 33.1949 37.2998 33.1149 37.1439 33.0376C37.0354 32.982 36.9242 32.9292 36.8171 32.8736C36.6598 32.7922 36.5066 32.7081 36.352 32.6254C36.2503 32.5698 36.1459 32.5156 36.0456 32.46C35.8923 32.3746 35.7418 32.2878 35.5913 32.201C35.4937 32.1454 35.3947 32.0898 35.2984 32.0329C35.1479 31.9434 35.0015 31.8525 34.8537 31.7617C34.7628 31.7061 34.6693 31.6505 34.5798 31.5936C34.4333 31.5 34.2896 31.4051 34.1459 31.3115C34.0591 31.2546 33.971 31.199 33.8869 31.1407C33.7418 31.043 33.6021 30.9427 33.4611 30.8424C33.3825 30.7868 33.3011 30.7325 33.2238 30.6756C33.0828 30.5739 32.9459 30.4695 32.8076 30.3651C32.7343 30.3095 32.6584 30.2552 32.5852 30.1983C32.4442 30.0885 32.3072 29.9759 32.1703 29.8647C32.1065 29.8132 32.0401 29.7617 31.9764 29.7102C31.8259 29.5841 31.6794 29.4566 31.5343 29.3291C31.4882 29.2885 31.4408 29.2505 31.396 29.2098C31.2076 29.0403 31.0232 28.8695 30.8442 28.6973H22.1702H20.379C20.6231 28.9278 20.8712 29.1569 21.1262 29.382C21.2156 29.462 21.3092 29.5393 21.4014 29.6179C21.5682 29.763 21.7323 29.9081 21.9031 30.0491C22.0075 30.1359 22.1173 30.2213 22.2231 30.3081C22.3845 30.4383 22.5431 30.5712 22.7085 30.7C22.8238 30.7908 22.9431 30.8776 23.0597 30.9671C23.2197 31.0891 23.3784 31.2125 23.5424 31.3332C23.6618 31.4213 23.7865 31.5068 23.9072 31.5949C24.0726 31.7129 24.2353 31.8322 24.4035 31.9488C24.5336 32.0383 24.6665 32.1251 24.798 32.2146C24.9621 32.3244 25.1235 32.4369 25.2902 32.5454C25.4313 32.6376 25.5763 32.7271 25.7187 32.818C25.8801 32.921 26.0401 33.0241 26.2028 33.1244C26.3492 33.2153 26.4997 33.302 26.6475 33.3915C26.8116 33.4905 26.9743 33.5895 27.1411 33.6871C27.2957 33.7766 27.4543 33.8634 27.6116 33.9529C27.7757 34.0464 27.9384 34.14 28.1038 34.2309C28.2665 34.319 28.432 34.4058 28.596 34.4926C28.7614 34.5807 28.9255 34.6688 29.0923 34.7556C29.2618 34.8437 29.434 34.9278 29.6048 35.0132C29.7703 35.0959 29.9343 35.18 30.1011 35.2614C30.2801 35.3495 30.4631 35.4336 30.6448 35.519C30.8076 35.5949 30.9689 35.6736 31.133 35.7482C31.3215 35.8349 31.5126 35.9176 31.7025 36.0017C31.8638 36.0722 32.0238 36.1454 32.1866 36.216C32.3845 36.3 32.5852 36.3827 32.7859 36.4668C32.9445 36.5332 33.1018 36.5997 33.2605 36.6648C33.4679 36.7488 33.6794 36.8302 33.8883 36.9115C34.0428 36.9712 34.1974 37.0336 34.3547 37.0932C34.573 37.176 34.794 37.256 35.015 37.3373C35.1655 37.3916 35.3161 37.4485 35.4679 37.5027C35.6971 37.5841 35.9303 37.6627 36.1622 37.7427C36.3072 37.7916 36.4523 37.8431 36.5988 37.8919C36.8401 37.9719 37.0842 38.0492 37.3269 38.1265C37.4679 38.1712 37.6062 38.2173 37.7486 38.2607C37.9981 38.338 38.2503 38.4126 38.5012 38.4858C38.6395 38.5265 38.7778 38.5699 38.9174 38.6092C39.1778 38.6851 39.4395 38.7556 39.7012 38.8261C39.834 38.8627 39.9656 38.9007 40.0998 38.936C40.3737 39.0092 40.649 39.0783 40.9256 39.1475C41.0503 39.1787 41.1737 39.2112 41.2985 39.2424C41.5832 39.3116 41.8707 39.3794 42.1568 39.4444C42.2761 39.4716 42.3941 39.5 42.5134 39.5272C42.8103 39.5936 43.11 39.6573 43.4083 39.7211C43.5195 39.7441 43.6293 39.7685 43.7405 39.7916C44.051 39.8553 44.3629 39.9163 44.6761 39.976C44.7778 39.995 44.8795 40.0167 44.9825 40.0343C45.3039 40.0939 45.6266 40.1509 45.9507 40.2065C46.047 40.2228 46.1419 40.2404 46.2381 40.2566C46.5717 40.3122 46.9053 40.3638 47.2415 40.4153C47.3297 40.4289 47.4165 40.4424 47.5046 40.456C47.8504 40.5075 48.1988 40.555 48.546 40.6011C48.6246 40.6119 48.7032 40.6228 48.7819 40.6322C49.1385 40.6797 49.4951 40.7204 49.8544 40.7624C49.9277 40.7706 50.0009 40.78 50.0741 40.7882C50.4416 40.8289 50.8117 40.8668 51.1819 40.9021C51.2456 40.9075 51.3094 40.9156 51.3731 40.9211C51.7514 40.9563 52.1311 40.9875 52.5121 41.0173C52.569 41.0214 52.626 41.0268 52.6843 41.0309C53.0761 41.0607 53.4694 41.0865 53.864 41.1095C53.9101 41.1122 53.9548 41.1163 54.0009 41.119C54.4036 41.1421 54.809 41.1611 55.2131 41.1787C55.2511 41.18 55.289 41.1814 55.3284 41.1841C55.7419 41.2004 56.1555 41.2139 56.5704 41.2221C56.6016 41.2234 56.6328 41.2248 56.664 41.2248C57.0857 41.2343 57.5087 41.2397 57.9318 41.2424C57.9562 41.2424 57.9806 41.2438 58.0063 41.2438C58.4389 41.2451 58.8728 41.2438 59.3067 41.2384C59.3216 41.237 59.3365 41.237 59.3514 41.237C59.7935 41.2316 60.2369 41.2221 60.6816 41.2085C60.6897 41.2085 60.6965 41.2072 60.7047 41.2072C61.1562 41.1936 61.6077 41.176 62.0592 41.1543C62.0606 41.1543 62.0606 41.1543 62.062 41.1543C62.8349 41.1163 63.6091 41.0675 64.386 41.0065C64.7508 40.978 65.1169 40.9387 65.4816 40.9048C65.8925 40.8668 66.3033 40.8343 66.7155 40.7895C67.163 40.7407 67.6105 40.6797 68.0579 40.6228C68.3888 40.5807 68.7183 40.5455 69.0491 40.4994C69.54 40.4316 70.0308 40.3502 70.5217 40.2716C70.8091 40.2255 71.0966 40.1861 71.384 40.1373C71.9047 40.0492 72.4254 39.9461 72.9461 39.8458C73.2024 39.797 73.4586 39.7522 73.7163 39.7007C74.2546 39.5909 74.7929 39.4689 75.3312 39.3468C75.5685 39.2939 75.8071 39.2451 76.0444 39.1882C76.5976 39.058 77.1481 38.9143 77.7 38.7705C77.921 38.7122 78.142 38.6607 78.3631 38.601C78.9258 38.4492 79.4858 38.2838 80.0458 38.1183C80.2532 38.056 80.4621 38.0004 80.6695 37.9366C81.2363 37.7631 81.8017 37.5773 82.3658 37.3888C82.5651 37.3224 82.7644 37.2614 82.9624 37.1936C83.5305 36.9997 84.0946 36.7922 84.66 36.5834C84.8526 36.5129 85.0465 36.4451 85.239 36.3719C85.8045 36.1563 86.3658 35.9298 86.9272 35.6993C87.1156 35.6221 87.3055 35.5488 87.494 35.4702C88.0526 35.2356 88.6085 34.9875 89.1618 34.7366C89.3502 34.6526 89.5387 34.5712 89.7258 34.4844C90.275 34.2309 90.8187 33.9651 91.3625 33.6953C91.5523 33.6017 91.7421 33.5122 91.9306 33.4159C92.4675 33.1434 92.9991 32.86 93.5306 32.5725C93.7218 32.4681 93.9143 32.3692 94.1055 32.2634C94.6276 31.9746 95.1455 31.6722 95.6621 31.3685C95.856 31.2532 96.0527 31.142 96.2466 31.0254C96.7537 30.7203 97.254 30.403 97.753 30.0817C98.0852 29.8688 98.4215 29.6627 98.751 29.443C99.1062 29.2071 99.4574 28.9671 99.81 28.723C99.814 28.7203 99.8195 28.7162 99.8235 28.7135C99.8303 28.7095 99.8371 28.7054 99.8438 28.7C97.9062 29.5759 95.9821 30.3841 94.0743 31.1244C82.1638 35.7454 70.9135 37.7495 61.1304 37.8227Z" fill="white"/>
</svg>
