<svg width="82" height="40" viewBox="0 0 82 40" fill="none" xmlns="http://www.w3.org/2000/svg">
<path d="M42.5495 34.6797C40.9648 34.574 39.1374 34.2962 37.6962 33.8788C37.4262 33.8006 36.3084 33.3897 36.024 33.2593C31.0063 30.935 27.5107 25.8612 27.5107 19.9748C27.5107 11.901 34.0793 5.32465 42.1582 5.32465C50.1655 5.32465 56.6897 11.7889 56.8018 19.7713H62.0935C61.9813 8.8724 53.0845 0.039547 42.1582 0.039547C31.1667 0.039547 22.2204 8.98066 22.2204 19.9748C22.2204 27.5542 26.4829 34.1462 32.7241 37.514C33.851 38.11 35.4684 38.7244 36.0175 38.8926C37.7966 39.4222 39.98 39.7744 41.9235 39.9217C42.5834 39.9713 44.8882 39.9974 45.5599 40H82V34.7292H45.6212C45.1373 34.7292 43.023 34.711 42.5495 34.6797ZM45.6212 26.4038C45.2364 26.4038 43.2239 26.3907 42.8521 26.3594C42.2221 26.3059 41.3091 26.212 40.7222 26.0777C40.0596 25.9003 39.4374 25.6655 39.157 25.5116C37.1914 24.4486 35.8518 22.3695 35.8518 19.9748C35.8518 16.4909 38.6731 13.6658 42.1582 13.6658C45.5703 13.6658 48.3446 16.3801 48.4555 19.7713H53.5397C53.4328 13.5758 48.3825 8.58285 42.1582 8.58285C35.8649 8.58285 30.7637 13.6827 30.7637 19.9748C30.7637 24.4121 33.3071 28.2442 37.0114 30.1211C37.5814 30.455 38.6535 30.8045 38.9587 30.8841C40.0048 31.1593 41.4096 31.3471 42.5495 31.4306C42.9708 31.4658 45.0343 31.4815 45.4699 31.4841V31.4919H81.9987V26.4038H45.6212ZM18.9596 39.9804H13.6328V5.33639H5.84857V0.00824356H18.9596V39.9804ZM0 7.99851V13.1219H5.84857V39.9804H10.9667V7.99851H0Z" fill="#5D5D75"/>
<path d="M72.5957 0.380642C70.6771 0.380642 69.0858 1.91061 69.0858 3.83057C69.0858 5.75053 70.6771 7.3418 72.5957 7.3418C74.5731 7.3418 76.1031 5.75053 76.1031 3.83057C76.1031 1.91061 74.5731 0.380642 72.5957 0.380642ZM72.5957 6.77572C71.011 6.77572 69.6454 5.5301 69.6454 3.83057C69.6454 2.21712 71.011 0.940195 72.5957 0.940195C74.1792 0.940195 75.5383 2.21712 75.5383 3.83057C75.5383 5.5301 74.1792 6.77572 72.5957 6.77572Z" fill="#5D5D75"/>
<path d="M73.9295 4.77552C73.9295 4.38814 73.8721 4.02814 73.4286 3.88597C73.9843 3.69293 74.039 3.32903 74.039 3.1086C74.039 2.21775 73.2304 2.10427 72.8978 2.10427H71.3678V5.5542H72.0056V4.13901H72.5078C73.2304 4.13901 73.2904 4.47161 73.2904 4.77552C73.2904 5.36377 73.2904 5.47464 73.4286 5.5542H74.0677C73.9295 5.41464 73.9843 5.30638 73.9295 4.77552ZM72.7582 3.63554H72.0056V2.54905H72.6499C73.096 2.54905 73.3986 2.68991 73.3986 3.1086C73.3986 3.32903 73.2904 3.63554 72.7582 3.63554Z" fill="#5D5D75"/>
</svg>
