<svg width="61" height="30" viewBox="0 0 61 30" fill="none" xmlns="http://www.w3.org/2000/svg">
<path d="M31.6527 25.7922C30.4738 25.7136 29.1144 25.5069 28.0423 25.1964C27.8414 25.1382 27.0099 24.8326 26.7984 24.7356C23.0657 23.0065 20.4653 19.2321 20.4653 14.8532C20.4653 8.84711 25.3517 3.95492 31.3616 3.95492C37.3182 3.95492 42.1716 8.76366 42.255 14.7018H46.1915C46.108 6.5941 39.4897 0.0233212 31.3616 0.0233212C23.185 0.0233212 16.5298 6.67464 16.5298 14.8532C16.5298 20.4915 19.7007 25.3954 24.3435 27.9006C25.1819 28.3441 26.385 28.8011 26.7935 28.9262C28.117 29.3202 29.7412 29.5821 31.187 29.6918C31.6779 29.7287 33.3924 29.7481 33.8921 29.75H61V25.8291H33.9377C33.5778 25.8291 32.0049 25.8155 31.6527 25.7922ZM33.9377 19.6357C33.6515 19.6357 32.1543 19.626 31.8778 19.6027C31.4092 19.563 30.73 19.4931 30.2933 19.3932C29.8004 19.2612 29.3376 19.0865 29.129 18.9721C27.6668 18.1813 26.6703 16.6346 26.6703 14.8532C26.6703 12.2615 28.769 10.1599 31.3616 10.1599C33.8999 10.1599 35.9637 12.1791 36.0462 14.7018H39.8283C39.7488 10.093 35.9918 6.3787 31.3616 6.3787C26.68 6.3787 22.8852 10.1725 22.8852 14.8532C22.8852 18.1541 24.7772 21.0048 27.5329 22.401C27.9569 22.6494 28.7545 22.9095 28.9815 22.9687C29.7597 23.1734 30.8047 23.3131 31.6527 23.3752C31.9661 23.4014 33.5011 23.4131 33.8252 23.415V23.4208H60.999V19.6357H33.9377ZM14.1041 29.7354H10.1414V3.96366H4.35077V3.43323e-05H14.1041V29.7354ZM0 5.94401V9.7553H4.35077V29.7354H8.15817V5.94401H0Z" fill="url(#paint0_linear_2561_1445)"/>
<path d="M53.9981 0.278122C52.5708 0.278122 51.3871 1.41627 51.3871 2.84453C51.3871 4.27279 52.5708 5.45654 53.9981 5.45654C55.4691 5.45654 56.6072 4.27279 56.6072 2.84453C56.6072 1.41627 55.4691 0.278122 53.9981 0.278122ZM53.9981 5.03544C52.8192 5.03544 51.8033 4.10881 51.8033 2.84453C51.8033 1.64429 52.8192 0.694376 53.9981 0.694376C55.1761 0.694376 56.1871 1.64429 56.1871 2.84453C56.1871 4.10881 55.1761 5.03544 53.9981 5.03544Z" fill="url(#paint1_linear_2561_1445)"/>
<path d="M54.9919 3.54672C54.9919 3.25854 54.9492 2.99074 54.6193 2.88498C55.0326 2.74138 55.0734 2.47067 55.0734 2.30669C55.0734 1.64398 54.4718 1.55957 54.2244 1.55957H53.0862V4.12598H53.5607V3.07322H53.9343C54.4718 3.07322 54.5164 3.32064 54.5164 3.54672C54.5164 3.98431 54.5164 4.06679 54.6193 4.12598H55.0947C54.9919 4.02216 55.0326 3.94162 54.9919 3.54672ZM54.1206 2.69868H53.5607V1.89044H54.04C54.3719 1.89044 54.597 1.99523 54.597 2.30669C54.597 2.47067 54.5164 2.69868 54.1206 2.69868Z" fill="url(#paint2_linear_2561_1445)"/>
<defs>
<linearGradient id="paint0_linear_2561_1445" x1="0" y1="14.875" x2="61" y2="14.875" gradientUnits="userSpaceOnUse">
<stop stop-color="#6BBF56"/>
<stop offset="1" stop-color="#23B100"/>
</linearGradient>
<linearGradient id="paint1_linear_2561_1445" x1="51.3871" y1="2.86733" x2="56.6072" y2="2.86733" gradientUnits="userSpaceOnUse">
<stop stop-color="#6BBF56"/>
<stop offset="1" stop-color="#23B100"/>
</linearGradient>
<linearGradient id="paint2_linear_2561_1445" x1="53.0862" y1="2.84277" x2="55.0947" y2="2.84277" gradientUnits="userSpaceOnUse">
<stop stop-color="#6BBF56"/>
<stop offset="1" stop-color="#23B100"/>
</linearGradient>
</defs>
</svg>
