<svg width="43" height="49" viewBox="0 0 43 49" fill="none" xmlns="http://www.w3.org/2000/svg">
<path d="M11.6193 20.4398C9.86614 21.8293 6.48652 24.9072 5.67814 28.5351C5.59049 28.9114 5.67814 29.2974 5.89241 29.5965C5.20091 29.7991 4.5581 30.0017 4.11008 30.1754C1.61676 31.1885 0 33.5717 0 36.2444V47.6395C0 48.3921 0.61359 49 1.37327 49H41.6267C42.3864 49 43 48.3921 43 47.6395V36.2541C43 33.5814 41.3832 31.1981 38.8899 30.185C38.5101 30.0307 37.9744 29.8473 37.3706 29.6544C37.614 29.3359 37.7114 28.9403 37.6238 28.5448C36.8251 24.9554 33.5916 21.9547 31.6827 20.4495C31.8482 19.7355 31.8385 17.9987 31.819 17.7575C33.8059 16.9181 35.1012 15.7409 35.1012 14.1971C35.1012 13.1647 34.4974 11.7657 31.8385 10.6368C31.7216 9.89381 30.8743 4.87649 30.699 3.12042C30.5139 0.939816 28.118 -0.748707 25.6929 0.341596C23.1411 1.57663 20.1998 1.57663 17.648 0.341596C17.6383 0.341596 17.6285 0.331947 17.6188 0.331947C15.1839 -0.690815 13.012 0.766139 12.6322 3.11077C12.4569 4.83789 11.5998 9.86487 11.4829 10.6368C8.82401 11.7657 8.22016 13.1647 8.22016 14.1971C8.22016 15.7313 9.51551 16.9084 11.5024 17.7575C11.4245 18.6452 11.4732 19.5425 11.6193 20.4398ZM15.3495 3.38094C15.3884 2.8792 15.9923 2.55115 16.4403 2.80202C19.7518 4.39405 23.5599 4.3844 26.8713 2.79237C27.3291 2.58009 27.8745 2.85026 27.9427 3.39059C28.1277 5.23349 28.9361 10.0096 29.0238 10.5692C24.3391 12.4314 18.9239 12.4314 14.2392 10.5692C14.3463 9.971 15.1644 5.20454 15.3495 3.38094ZM10.9472 14.2068C10.9862 14.0524 11.4439 13.5314 12.9341 12.9814C18.4272 15.2681 24.865 15.2681 30.3581 12.9814C31.8385 13.5314 32.2963 14.0524 32.345 14.1778C32.1599 14.8629 28.5952 16.6768 21.651 16.6768C14.7067 16.6672 11.1323 14.8629 10.9472 14.2068ZM29.0822 18.6162C29.0043 23.4116 25.7026 27.2808 21.651 27.2808C17.5993 27.2808 14.2879 23.402 14.21 18.6162C16.4598 19.1469 19.0895 19.3978 21.6412 19.3978C24.2027 19.3978 26.8324 19.1373 29.0822 18.6162ZM2.74655 46.2887V36.2541C2.74655 34.691 3.69128 33.3016 5.15221 32.7033C5.82424 32.4332 7.24621 32.0472 8.42469 31.7288L13.5185 35.8585L10.6648 39.0329C10.1291 39.6118 10.2362 40.5188 10.8401 41.0109L17.6578 46.2887H2.74655ZM13.684 39.7565L16.5182 36.6014C17.0247 35.9935 16.976 35.1445 16.3624 34.6427L8.59026 28.3518C9.26229 26.5571 10.8011 24.7625 12.4179 23.3441C14.0444 27.2711 17.5604 30.0114 21.6412 30.0114C25.7221 30.0114 29.2283 27.2808 30.8646 23.3441C32.4911 24.7721 34.0299 26.5668 34.7019 28.3518L26.9298 34.6427C26.287 35.2024 26.287 36.0514 26.774 36.6014L29.6082 39.7565L21.6412 45.9221L13.684 39.7565ZM40.2437 46.2887H25.6344L32.4521 41.0109C33.0852 40.4706 33.1533 39.6215 32.6274 39.0329L29.7737 35.8585L34.8675 31.7288C35.9778 32.0665 37.2245 32.4621 37.8381 32.7033C39.299 33.2919 40.2437 34.691 40.2437 36.2541V46.2887Z" fill="url(#paint0_linear_2561_1794)"/>
<defs>
<linearGradient id="paint0_linear_2561_1794" x1="0" y1="24.5" x2="43" y2="24.5" gradientUnits="userSpaceOnUse">
<stop stop-color="#6BBF56"/>
<stop offset="1" stop-color="#23B100"/>
</linearGradient>
</defs>
</svg>
