<svg width="49" height="49" viewBox="0 0 49 49" fill="none" xmlns="http://www.w3.org/2000/svg">
<path d="M1.7219 48.2133H46.4914C46.9481 48.2133 47.3861 48.0319 47.709 47.709C48.0319 47.3861 48.2133 46.9481 48.2133 46.4914V1.7219C48.2133 1.26523 48.0319 0.827254 47.709 0.504334C47.3861 0.181414 46.9481 0 46.4914 0H1.7219C1.26523 0 0.827254 0.181414 0.504334 0.504334C0.181414 0.827254 0 1.26523 0 1.7219V46.4914C0 46.9481 0.181414 47.3861 0.504334 47.709C0.827254 48.0319 1.26523 48.2133 1.7219 48.2133ZM3.44381 44.7695V39.6038H44.7695V44.7695H3.44381ZM44.7695 3.44381V36.16H3.44381V3.44381H44.7695Z" fill="url(#paint0_linear_2561_1785)"/>
<path d="M38.2258 26.8608L34.2506 21.5615L30.4893 25.3232C30.318 25.4945 30.1126 25.6277 29.8863 25.7142C29.66 25.8007 29.4181 25.8385 29.1762 25.8251C28.9343 25.8117 28.698 25.7474 28.4827 25.6364C28.2673 25.5255 28.0779 25.3703 27.9266 25.1811L22.0816 17.8747L16.5298 22.0395C16.1719 22.3079 15.7236 22.4265 15.2798 22.3702C14.836 22.3138 14.4315 22.087 14.152 21.7376L7.26443 13.1281C6.97923 12.7713 6.84744 12.3159 6.89806 11.8619C6.94868 11.408 7.17756 10.9927 7.53433 10.7075C7.89111 10.4223 8.34657 10.2906 8.80051 10.3412C9.25446 10.3918 9.66971 10.6207 9.9549 10.9775L15.8001 18.2838L21.3512 14.1187C21.709 13.8503 22.1573 13.7318 22.6011 13.7881C23.0449 13.8444 23.4493 14.0713 23.7288 14.4206L29.4148 21.5279L33.2202 17.7225C33.3946 17.5479 33.6045 17.4129 33.8356 17.3265C34.0667 17.2402 34.3137 17.2046 34.5598 17.2221C34.8059 17.2395 35.0454 17.3097 35.262 17.4279C35.4786 17.5461 35.6672 17.7094 35.8152 17.9069L40.9809 24.7945C41.2549 25.1599 41.3725 25.6191 41.3079 26.0712C41.2434 26.5233 41.0018 26.9312 40.6365 27.2052C40.2711 27.4792 39.8119 27.5969 39.3598 27.5323C38.9077 27.4677 38.4998 27.2262 38.2258 26.8608Z" fill="url(#paint1_linear_2561_1785)"/>
<defs>
<linearGradient id="paint0_linear_2561_1785" x1="0" y1="24.1067" x2="48.2133" y2="24.1067" gradientUnits="userSpaceOnUse">
<stop stop-color="#6BBF56"/>
<stop offset="1" stop-color="#23B100"/>
</linearGradient>
<linearGradient id="paint1_linear_2561_1785" x1="41.3253" y1="18.9401" x2="6.88745" y2="18.9401" gradientUnits="userSpaceOnUse">
<stop stop-color="#6BBF56"/>
<stop offset="1" stop-color="#23B100"/>
</linearGradient>
</defs>
</svg>
