<svg width="41" height="50" viewBox="0 0 41 50" fill="none" xmlns="http://www.w3.org/2000/svg">
<path d="M11.3677 44.65L17.0757 48.3331C18.0825 48.9844 19.2363 49.3091 20.389 49.3091C21.5519 49.3091 22.7159 48.9783 23.7289 48.3156L29.3321 44.6562C36.3777 40.0536 40.5848 32.2796 40.5848 23.8635V11.0677C40.5848 8.48495 38.9492 6.17134 36.5164 5.31041L22.6707 0.406834C21.1379 -0.135611 19.4489 -0.135611 17.9151 0.406834L4.06834 5.31041C1.63453 6.17237 0 8.48598 0 11.0677V23.7833C0 32.2549 4.24915 40.0546 11.3677 44.65ZM4.10943 11.0677C4.10943 10.2232 4.64469 9.46505 5.43986 9.18355L19.2876 4.27997C19.6112 4.16594 19.9513 4.10738 20.2924 4.10738C20.6335 4.10738 20.9735 4.16594 21.2982 4.27997L35.1449 9.18458C35.9401 9.46505 36.4753 10.2232 36.4753 11.0677V23.8635C36.4753 30.8875 32.9648 37.3743 27.0842 41.2156L21.481 44.876C20.8204 45.3075 19.9667 45.3106 19.3041 44.8812L13.595 41.1971C7.65485 37.364 4.10841 30.8536 4.10841 23.7833L4.10943 11.0677Z" fill="url(#paint0_linear_2561_1791)"/>
<path d="M13.7551 29.1363C14.1568 29.538 14.6818 29.7383 15.2078 29.7383C15.7338 29.7383 16.2598 29.538 16.6605 29.1363L20.2933 25.5036L23.926 29.1363C24.3277 29.538 24.8527 29.7383 25.3787 29.7383C25.9047 29.7383 26.4297 29.538 26.8314 29.1363C27.6337 28.3339 27.6337 27.0333 26.8314 26.2309L23.1986 22.5982L26.8314 18.9655C27.6337 18.1631 27.6337 16.8625 26.8314 16.0601C26.029 15.2577 24.7284 15.2577 23.926 16.0601L20.2933 19.6928L16.6605 16.0601C15.8592 15.2577 14.5565 15.2577 13.7551 16.0601C12.9528 16.8625 12.9528 18.1631 13.7551 18.9655L17.3879 22.5982L13.7551 26.2309C12.9528 27.0333 12.9528 28.3339 13.7551 29.1363Z" fill="url(#paint1_linear_2561_1791)"/>
<defs>
<linearGradient id="paint0_linear_2561_1791" x1="0" y1="24.6545" x2="40.5848" y2="24.6545" gradientUnits="userSpaceOnUse">
<stop stop-color="#6BBF56"/>
<stop offset="1" stop-color="#23B100"/>
</linearGradient>
<linearGradient id="paint1_linear_2561_1791" x1="13.1534" y1="22.5983" x2="27.4331" y2="22.5983" gradientUnits="userSpaceOnUse">
<stop stop-color="#6BBF56"/>
<stop offset="1" stop-color="#23B100"/>
</linearGradient>
</defs>
</svg>
