<svg width="49" height="49" viewBox="0 0 49 49" fill="none" xmlns="http://www.w3.org/2000/svg">
<path d="M19.7625 29.2371C20.1043 29.5789 20.5521 29.7498 20.9998 29.7498C21.4476 29.7498 21.8953 29.5789 22.2371 29.2371C22.9207 28.5535 22.9207 27.446 22.2371 26.7625L19.9744 24.4998L22.2371 22.2371C22.9207 21.5535 22.9207 20.446 22.2371 19.7625C21.5536 19.0789 20.4461 19.0789 19.7625 19.7625L16.2625 23.2625C15.5789 23.946 15.5789 25.0535 16.2625 25.7371L19.7625 29.2371Z" fill="url(#paint0_linear_2561_1459)"/>
<path d="M26.7632 29.2371C27.105 29.5789 27.5527 29.7498 28.0005 29.7498C28.4482 29.7498 28.896 29.5789 29.2378 29.2371L32.7378 25.7371C33.4214 25.0535 33.4214 23.946 32.7378 23.2625L29.2378 19.7625C28.5542 19.0789 27.4468 19.0789 26.7632 19.7625C26.0796 20.446 26.0796 21.5535 26.7632 22.2371L29.0259 24.4998L26.7632 26.7625C26.0796 27.446 26.0796 28.5535 26.7632 29.2371Z" fill="url(#paint1_linear_2561_1459)"/>
<path d="M38.5 36.75V12.25C38.5 11.2827 37.7173 10.5 36.75 10.5H12.25C11.2836 10.5 10.5 11.2827 10.5 12.25V15.75H5.25V6.51315C6.29109 5.90582 7 4.78932 7 3.5C7 1.57056 5.4303 0 3.5 0C1.5697 0 0 1.57056 0 3.5C0 4.78932 0.708908 5.90582 1.75 6.51315V17.5C1.75 18.4673 2.53357 19.25 3.5 19.25H10.5V29.75H3.5C2.53357 29.75 1.75 30.5327 1.75 31.5V42.4868C0.708908 43.0942 0 44.2107 0 45.5C0 47.4294 1.5697 49 3.5 49C5.4303 49 7 47.4294 7 45.5C7 44.2107 6.29109 43.0942 5.25 42.4868V33.25H10.5V36.75C10.5 37.7173 11.2836 38.5 12.25 38.5H36.75C37.7173 38.5 38.5 37.7173 38.5 36.75ZM35 35H14V14H35V35Z" fill="url(#paint2_linear_2561_1459)"/>
<path d="M47.2499 17.5H44.2865C44.0405 16.7993 43.7585 16.1174 43.444 15.4543L45.5358 13.3625C46.2194 12.679 46.2194 11.5715 45.5358 10.8879L38.112 3.46411C37.4284 2.78052 36.321 2.78052 35.6374 3.46411L33.5456 5.55591C32.8825 5.24146 32.2006 4.95947 31.4999 4.71338V1.75C31.4999 0.782715 30.7172 0 29.7499 0H19.2499C18.2835 0 17.4999 0.782715 17.4999 1.75V4.71338C16.372 5.10986 15.2885 5.59863 14.2665 6.16943C13.4231 6.64282 13.1215 7.70752 13.594 8.55176C14.0649 9.39258 15.1304 9.69507 15.9755 9.2251C17.1385 8.57397 18.4006 8.05273 19.7276 7.67676C20.4804 7.46313 20.9999 6.77612 20.9999 5.99341V3.5H27.9999V5.99341C27.9999 6.77612 28.5195 7.46313 29.2731 7.67676C30.5993 8.05273 31.8622 8.57397 33.0243 9.2251C33.7079 9.6062 34.5624 9.48828 35.1161 8.93457L36.8747 7.17603L41.8239 12.1252L40.0654 13.8838C39.5116 14.4375 39.3937 15.292 39.7748 15.9756C40.426 17.1377 40.9472 18.4006 41.3232 19.7268C41.5368 20.4805 42.2238 21 43.0065 21H45.4999V28H43.0065C42.2238 28 41.5368 28.5195 41.3232 29.2732C40.9472 30.5994 40.426 31.8623 39.7748 33.0244C39.3937 33.708 39.5116 34.5625 40.0654 35.1162L41.8239 36.8748L36.8747 41.824L35.1161 40.0654C34.5624 39.5117 33.7079 39.3972 33.0243 39.7749C31.8622 40.426 30.5993 40.9473 29.2731 41.3232C28.5195 41.5369 27.9999 42.2239 27.9999 43.0066V45.5H20.9999V43.0066C20.9999 42.2239 20.4804 41.5369 19.7276 41.3232C18.4006 40.9473 17.1385 40.426 15.9755 39.7749C15.1296 39.3032 14.0649 39.6057 13.594 40.4482C13.1215 41.2925 13.4231 42.3572 14.2665 42.8306C15.2885 43.4014 16.372 43.8901 17.4999 44.2866V47.25C17.4999 48.2173 18.2835 49 19.2499 49H29.7499C30.7172 49 31.4999 48.2173 31.4999 47.25V44.2866C32.2006 44.0405 32.8825 43.7585 33.5456 43.4441L35.6374 45.5359C36.321 46.2195 37.4284 46.2195 38.112 45.5359L45.5358 38.1121C46.2194 37.4285 46.2194 36.321 45.5358 35.6375L43.444 33.5457C43.7585 32.8826 44.0405 32.2007 44.2865 31.5H47.2499C48.2172 31.5 48.9999 30.7173 48.9999 29.75V19.25C48.9999 18.2827 48.2172 17.5 47.2499 17.5Z" fill="url(#paint3_linear_2561_1459)"/>
<defs>
<linearGradient id="paint0_linear_2561_1459" x1="15.7498" y1="24.4998" x2="22.7498" y2="24.4998" gradientUnits="userSpaceOnUse">
<stop stop-color="#6BBF56"/>
<stop offset="1" stop-color="#23B100"/>
</linearGradient>
<linearGradient id="paint1_linear_2561_1459" x1="26.2505" y1="24.4998" x2="33.2505" y2="24.4998" gradientUnits="userSpaceOnUse">
<stop stop-color="#6BBF56"/>
<stop offset="1" stop-color="#23B100"/>
</linearGradient>
<linearGradient id="paint2_linear_2561_1459" x1="0" y1="24.5" x2="38.5" y2="24.5" gradientUnits="userSpaceOnUse">
<stop stop-color="#6BBF56"/>
<stop offset="1" stop-color="#23B100"/>
</linearGradient>
<linearGradient id="paint3_linear_2561_1459" x1="13.3706" y1="24.5" x2="48.9999" y2="24.5" gradientUnits="userSpaceOnUse">
<stop stop-color="#6BBF56"/>
<stop offset="1" stop-color="#23B100"/>
</linearGradient>
</defs>
</svg>
