<svg width="44" height="44" viewBox="0 0 44 44" fill="none" xmlns="http://www.w3.org/2000/svg">
<path d="M22 0C9.90042 0 0 9.89949 0 22C0 34.1005 9.89949 44 22 44C34.1005 44 44 34.1005 44 22C44.0004 9.90042 34.1005 0 22 0ZM22 39.5998C20.2402 39.5998 17.8202 36.2997 16.2799 30.7999H27.4997C26.1801 36.2997 23.7601 39.5998 21.9999 39.5998H22ZM15.6201 26.4002C15.4002 25.0802 15.4002 23.5403 15.4002 22.0001C15.4002 20.4602 15.4002 18.92 15.6201 17.6H28.3803C28.6002 18.9203 28.6002 20.4602 28.6002 22.0001C28.6002 23.54 28.6002 25.0802 28.3803 26.4002H15.6201ZM4.40037 22.0001C4.40037 20.4602 4.62031 18.92 5.06054 17.6H11.2205C11.0002 18.9203 11.0002 20.4602 11.0002 22.0001C11.0002 23.54 11.0002 25.0802 11.2202 26.4002H5.06018C4.62031 25.0802 4.40037 23.5403 4.40037 22.0001ZM22.0002 4.40028C23.76 4.40028 26.18 7.70042 27.7202 13.2002H16.2803C17.8202 7.70005 20.2402 4.40028 22 4.40028H22.0002ZM32.7805 17.5999H38.9404C39.3803 18.9199 39.6006 20.4597 39.6006 22C39.6006 23.5399 39.3807 25.0801 38.9404 26.4001H32.7805C33.0004 25.0801 33.0004 23.5403 33.0004 22C33.0008 20.4597 33.0008 18.9199 32.7805 17.5999ZM37.1805 13.1998H32.1206C31.6807 10.5599 30.8006 8.13988 29.7006 6.1598C33.0007 7.69967 35.4207 10.1197 37.1805 13.1998ZM14.0805 6.1598C13.2004 8.13988 12.3203 10.5599 11.8804 13.1998H6.82047C8.58027 10.1197 11.0003 7.69967 14.0805 6.1598ZM6.82047 30.8003H11.8804C12.3203 33.4402 13.2004 35.8602 14.3004 37.8403C11.0003 36.3 8.58036 33.88 6.82047 30.8003ZM29.9205 37.8403C30.8006 35.8602 31.6803 33.4402 32.3405 30.8003H37.4005C35.4207 33.88 33.0007 36.3 29.9205 37.8403Z" fill="url(#paint0_linear_2561_1427)"/>
<defs>
<linearGradient id="paint0_linear_2561_1427" x1="0" y1="22" x2="44" y2="22" gradientUnits="userSpaceOnUse">
<stop stop-color="#6BBF56"/>
<stop offset="1" stop-color="#23B100"/>
</linearGradient>
</defs>
</svg>
