<svg width="43" height="50" viewBox="0 0 43 50" fill="none" xmlns="http://www.w3.org/2000/svg">
<path d="M21.3672 19.5867C23.3042 19.5867 25.1976 19.0123 26.8081 17.9362C28.4186 16.8601 29.6739 15.3306 30.4151 13.5411C31.1563 11.7516 31.3503 9.78247 30.9724 7.88275C30.5945 5.98303 29.6618 4.23803 28.2922 2.86841C26.9226 1.49878 25.1775 0.566058 23.2778 0.188181C21.3781 -0.189697 19.409 0.00424333 17.6195 0.745477C15.83 1.48671 14.3005 2.74195 13.2244 4.35245C12.1483 5.96296 11.5739 7.8564 11.5739 9.79334C11.5768 12.3898 12.6096 14.8791 14.4455 16.715C16.2815 18.551 18.7708 19.5837 21.3672 19.5867ZM21.3672 3.56122C22.5998 3.56122 23.8048 3.92672 24.8296 4.61152C25.8545 5.29631 26.6533 6.26964 27.125 7.40841C27.5967 8.54718 27.7201 9.80025 27.4796 11.0092C27.2392 12.2181 26.6456 13.3285 25.774 14.2001C24.9024 15.0717 23.792 15.6652 22.5831 15.9057C21.3742 16.1462 20.1211 16.0228 18.9823 15.5511C17.8435 15.0794 16.8702 14.2806 16.1854 13.2557C15.5006 12.2309 15.1351 11.0259 15.1351 9.79334C15.1371 8.14108 15.7943 6.55707 16.9627 5.38875C18.131 4.22043 19.715 3.5632 21.3672 3.56122Z" fill="url(#paint0_linear_2561_1788)"/>
<path d="M1.78061 49.857H40.9539C41.4262 49.857 41.8791 49.6694 42.213 49.3355C42.547 49.0016 42.7345 48.5486 42.7345 48.0764V35.6122C42.7302 31.8355 41.228 28.2148 38.5575 25.5443C35.8871 22.8738 32.2663 21.3716 28.4897 21.3673H14.2448C10.4682 21.3716 6.8475 22.8738 4.17701 25.5443C1.50652 28.2148 0.00433566 31.8355 0 35.6122V48.0764C0 48.5486 0.187599 49.0016 0.521528 49.3355C0.855456 49.6694 1.30836 49.857 1.78061 49.857ZM21.0943 29.3227L18.3317 24.9285H24.4036L21.641 29.3227C21.5132 29.526 21.4279 29.753 21.3901 29.9901C21.3523 30.2273 21.3628 30.4696 21.421 30.7025L25.3186 46.2958H17.4159L21.3139 30.7025C21.3721 30.4696 21.3827 30.2273 21.345 29.9902C21.3072 29.7531 21.222 29.526 21.0943 29.3227ZM39.1733 35.6122V46.2958H28.9899L25.0597 30.5755L28.606 24.9344C31.4175 24.9672 34.1031 26.1062 36.0809 28.1047C38.0588 30.1032 39.1698 32.8004 39.1733 35.6122ZM3.56121 35.6122C3.56477 32.8004 4.67578 30.1032 6.65364 28.1047C8.6315 26.1062 11.317 24.9672 14.1286 24.9344L17.6748 30.5755L13.7447 46.2958H3.56121V35.6122Z" fill="url(#paint1_linear_2561_1788)"/>
<defs>
<linearGradient id="paint0_linear_2561_1788" x1="11.5739" y1="9.79334" x2="31.1606" y2="9.79334" gradientUnits="userSpaceOnUse">
<stop stop-color="#6BBF56"/>
<stop offset="1" stop-color="#23B100"/>
</linearGradient>
<linearGradient id="paint1_linear_2561_1788" x1="0" y1="35.6122" x2="42.7345" y2="35.6122" gradientUnits="userSpaceOnUse">
<stop stop-color="#6BBF56"/>
<stop offset="1" stop-color="#23B100"/>
</linearGradient>
</defs>
</svg>
