<svg width="49" height="49" viewBox="0 0 49 49" fill="none" xmlns="http://www.w3.org/2000/svg">
<path d="M41.9998 40.25H40.2498V29.75C40.2498 26.855 37.8948 24.5 34.9998 24.5H13.9998C11.1047 24.5 8.74976 26.855 8.74976 29.75V40.25H6.99976C6.03247 40.25 5.24976 41.0327 5.24976 42C5.24976 45.8606 8.38916 49 12.2498 49H36.7498C40.6104 49 43.7498 45.8606 43.7498 42C43.7498 41.0327 42.967 40.25 41.9998 40.25ZM12.2498 29.75C12.2498 28.7844 13.0342 28 13.9998 28H34.9998C35.9653 28 36.7498 28.7844 36.7498 29.75V40.25H12.2498V29.75ZM36.7498 45.5H12.2498C10.9561 45.5 9.82471 44.7959 9.21973 43.75H39.7798C39.1748 44.7959 38.0435 45.5 36.7498 45.5Z" fill="url(#paint0_linear_2561_1452)"/>
<path d="M10.4995 12.25C10.4995 16.1106 13.6389 19.25 17.4995 19.25H31.4995C35.3601 19.25 38.4995 16.1106 38.4995 12.25C38.4995 8.75395 35.9171 5.87495 32.5639 5.35767C31.236 2.21313 28.1216 0 24.4995 0C20.8774 0 17.763 2.21313 16.4351 5.35767C13.0819 5.87495 10.4995 8.75395 10.4995 12.25ZM15.8381 9.189C16.0365 9.93764 16.688 10.5 17.4995 10.5C18.4668 10.5 19.2495 9.71729 19.2495 8.75C19.2495 5.85498 21.6045 3.5 24.4995 3.5C27.3945 3.5 29.7495 5.85498 29.7495 8.75C29.7495 9.71729 30.5322 10.5 31.4995 10.5C32.3111 10.5 32.9626 9.93764 33.1611 9.189C34.2501 9.78308 34.9995 10.9249 34.9995 12.25C34.9995 14.1794 33.429 15.75 31.4995 15.75H17.4995C15.5701 15.75 13.9995 14.1794 13.9995 12.25C13.9995 10.9249 14.749 9.78308 15.8381 9.189Z" fill="url(#paint1_linear_2561_1452)"/>
<path d="M5.7627 23.2637C5.0791 23.9473 5.0791 25.0547 5.7627 25.7383C6.10449 26.0801 6.55225 26.251 7 26.251C7.44775 26.251 7.89551 26.0801 8.2373 25.7383L11.7373 22.2383C12.4209 21.5547 12.4209 20.4473 11.7373 19.7637L8.2373 16.2637C7.55371 15.5801 6.44629 15.5801 5.7627 16.2637C5.0791 16.9473 5.0791 18.0547 5.7627 18.7383L6.27539 19.251H1.75C0.782715 19.251 0 20.0337 0 21.001C0 21.9683 0.782715 22.751 1.75 22.751H6.27539L5.7627 23.2637Z" fill="url(#paint2_linear_2561_1452)"/>
<path d="M44.9873 16.2637C44.3037 15.5801 43.1963 15.5801 42.5127 16.2637C41.8291 16.9473 41.8291 18.0547 42.5127 18.7383L43.0254 19.251H38.5C37.5327 19.251 36.75 20.0337 36.75 21.001C36.75 21.9683 37.5327 22.751 38.5 22.751H43.0254L42.5127 23.2637C41.8291 23.9473 41.8291 25.0547 42.5127 25.7383C42.8545 26.0801 43.3022 26.251 43.75 26.251C44.1978 26.251 44.6455 26.0801 44.9873 25.7383L48.4873 22.2383C49.1709 21.5547 49.1709 20.4473 48.4873 19.7637L44.9873 16.2637Z" fill="url(#paint3_linear_2561_1452)"/>
<path d="M1.75 7H6.27539L5.7627 7.5127C5.0791 8.19629 5.0791 9.30371 5.7627 9.9873C6.10449 10.3291 6.55225 10.5 7 10.5C7.44775 10.5 7.89551 10.3291 8.2373 9.9873L11.7373 6.4873C12.4209 5.80371 12.4209 4.69629 11.7373 4.0127L8.2373 0.512695C7.55371 -0.170898 6.44629 -0.170898 5.7627 0.512695C5.0791 1.19629 5.0791 2.30371 5.7627 2.9873L6.27539 3.5H1.75C0.782715 3.5 0 4.28271 0 5.25C0 6.21729 0.782715 7 1.75 7Z" fill="url(#paint4_linear_2561_1452)"/>
<path d="M38.5 7H43.0254L42.5127 7.5127C41.8291 8.19629 41.8291 9.30371 42.5127 9.9873C42.8545 10.3291 43.3022 10.5 43.75 10.5C44.1978 10.5 44.6455 10.3291 44.9873 9.9873L48.4873 6.4873C49.1709 5.80371 49.1709 4.69629 48.4873 4.0127L44.9873 0.512695C44.3037 -0.170898 43.1963 -0.170898 42.5127 0.512695C41.8291 1.19629 41.8291 2.30371 42.5127 2.9873L43.0254 3.5H38.5C37.5327 3.5 36.75 4.28271 36.75 5.25C36.75 6.21729 37.5327 7 38.5 7Z" fill="url(#paint5_linear_2561_1452)"/>
<defs>
<linearGradient id="paint0_linear_2561_1452" x1="5.24976" y1="36.75" x2="43.7498" y2="36.75" gradientUnits="userSpaceOnUse">
<stop stop-color="#6BBF56"/>
<stop offset="1" stop-color="#23B100"/>
</linearGradient>
<linearGradient id="paint1_linear_2561_1452" x1="10.4995" y1="9.625" x2="38.4995" y2="9.625" gradientUnits="userSpaceOnUse">
<stop stop-color="#6BBF56"/>
<stop offset="1" stop-color="#23B100"/>
</linearGradient>
<linearGradient id="paint2_linear_2561_1452" x1="0" y1="21.001" x2="12.25" y2="21.001" gradientUnits="userSpaceOnUse">
<stop stop-color="#6BBF56"/>
<stop offset="1" stop-color="#23B100"/>
</linearGradient>
<linearGradient id="paint3_linear_2561_1452" x1="36.75" y1="21.001" x2="49" y2="21.001" gradientUnits="userSpaceOnUse">
<stop stop-color="#6BBF56"/>
<stop offset="1" stop-color="#23B100"/>
</linearGradient>
<linearGradient id="paint4_linear_2561_1452" x1="0" y1="5.25" x2="12.25" y2="5.25" gradientUnits="userSpaceOnUse">
<stop stop-color="#6BBF56"/>
<stop offset="1" stop-color="#23B100"/>
</linearGradient>
<linearGradient id="paint5_linear_2561_1452" x1="36.75" y1="5.25" x2="49" y2="5.25" gradientUnits="userSpaceOnUse">
<stop stop-color="#6BBF56"/>
<stop offset="1" stop-color="#23B100"/>
</linearGradient>
</defs>
</svg>
