<svg width="42" height="49" viewBox="0 0 42 49" fill="none" xmlns="http://www.w3.org/2000/svg">
<path d="M41.7642 0.926386C41.6156 0.647283 41.3941 0.413723 41.1232 0.250585C40.8523 0.0874475 40.5423 0.000843729 40.2261 0H29.7387C29.4508 0.00148942 29.1677 0.0740675 28.9147 0.211285C28.6616 0.348503 28.4463 0.546112 28.2879 0.786554L20.9992 11.7109L13.7105 0.786554C13.5521 0.546112 13.3369 0.348503 13.0838 0.211285C12.8307 0.0740675 12.5476 0.00148942 12.2597 0H1.77232C1.45612 0.000843729 1.14607 0.0874475 0.875201 0.250585C0.604331 0.413723 0.382788 0.647283 0.234174 0.926386C0.0807638 1.1921 0 1.49352 0 1.80034C0 2.10716 0.0807638 2.40857 0.234174 2.67428L12.4695 20.9398H12.2597C11.7961 20.9398 11.3516 21.124 11.0238 21.4518C10.696 21.7796 10.5118 22.2241 10.5118 22.6877V27.9314C10.5118 28.395 10.696 28.8396 11.0238 29.1674C11.3516 29.4952 11.7961 29.6793 12.2597 29.6793H15.2137C13.3336 30.9228 11.9042 32.739 11.1373 34.8587C10.3705 36.9784 10.307 39.2887 10.9563 41.4473C11.6056 43.6059 12.9331 45.4978 14.742 46.8427C16.551 48.1876 18.7451 48.9139 20.9992 48.9139C23.2533 48.9139 25.4475 48.1876 27.2564 46.8427C29.0654 45.4978 30.3928 43.6059 31.0421 41.4473C31.6914 39.2887 31.6279 36.9784 30.8611 34.8587C30.0942 32.739 28.6648 30.9228 26.7848 29.6793H29.7387C30.2023 29.6793 30.6469 29.4952 30.9747 29.1674C31.3024 28.8396 31.4866 28.395 31.4866 27.9314V22.7227C31.4866 22.2591 31.3024 21.8145 30.9747 21.4867C30.6469 21.1589 30.2023 20.9748 29.7387 20.9748H29.5115L41.7468 2.70924C41.9094 2.44099 41.9968 2.1339 41.9999 1.82021C42.003 1.50652 41.9216 1.19778 41.7642 0.926386ZM20.9992 45.4454C19.6164 45.4454 18.2647 45.0353 17.1149 44.2671C15.9651 43.4988 15.069 42.4069 14.5398 41.1293C14.0106 39.8518 13.8722 38.446 14.142 37.0898C14.4117 35.7335 15.0776 34.4878 16.0554 33.51C17.0332 32.5322 18.279 31.8663 19.6352 31.5965C20.9915 31.3267 22.3972 31.4652 23.6748 31.9944C24.9523 32.5236 26.0443 33.4197 26.8125 34.5694C27.5808 35.7192 27.9908 37.071 27.9908 38.4538C27.9908 40.3081 27.2542 42.0864 25.943 43.3976C24.6318 44.7087 22.8535 45.4454 20.9992 45.4454ZM5.04089 3.4958H11.3159L22.9743 20.9748H16.6994L5.04089 3.4958ZM27.9908 26.2185H14.0076V24.4706H27.9908V26.2185ZM26.2429 19.5765L23.0967 14.8571L30.6826 3.4958H36.9575L26.2429 19.5765Z" fill="url(#paint0_linear_2561_1464)"/>
<path d="M20.9992 36.7053C21.4628 36.7053 21.9074 36.5211 22.2352 36.1933C22.563 35.8655 22.7471 35.4209 22.7471 34.9574C22.7471 34.4938 22.563 34.0492 22.2352 33.7214C21.9074 33.3936 21.4628 33.2095 20.9992 33.2095C19.6085 33.2095 18.2748 33.7619 17.2914 34.7453C16.308 35.7287 15.7556 37.0625 15.7556 38.4532C15.7556 38.9167 15.9397 39.3613 16.2675 39.6891C16.5953 40.0169 17.0399 40.2011 17.5035 40.2011C17.967 40.2011 18.4116 40.0169 18.7394 39.6891C19.0672 39.3613 19.2514 38.9167 19.2514 38.4532C19.2514 37.9896 19.4355 37.545 19.7633 37.2172C20.0911 36.8894 20.5357 36.7053 20.9992 36.7053Z" fill="url(#paint1_linear_2561_1464)"/>
<path d="M24.4944 36.7056C24.0309 36.7056 23.5863 36.8897 23.2585 37.2175C22.9307 37.5453 22.7465 37.9899 22.7465 38.4535C22.7465 38.917 22.5624 39.3616 22.2346 39.6894C21.9068 40.0172 21.4622 40.2014 20.9986 40.2014C20.5351 40.2014 20.0905 40.3855 19.7627 40.7133C19.4349 41.0411 19.2507 41.4857 19.2507 41.9493C19.2507 42.4128 19.4349 42.8574 19.7627 43.1852C20.0905 43.513 20.5351 43.6972 20.9986 43.6972C22.3893 43.6972 23.7231 43.1447 24.7065 42.1613C25.6899 41.1779 26.2423 39.8442 26.2423 38.4535C26.2423 37.9899 26.0582 37.5453 25.7304 37.2175C25.4026 36.8897 24.958 36.7056 24.4944 36.7056Z" fill="url(#paint2_linear_2561_1464)"/>
<defs>
<linearGradient id="paint0_linear_2561_1464" x1="0" y1="24.4569" x2="42" y2="24.4569" gradientUnits="userSpaceOnUse">
<stop stop-color="#6BBF56"/>
<stop offset="1" stop-color="#23B100"/>
</linearGradient>
<linearGradient id="paint1_linear_2561_1464" x1="15.7556" y1="36.7053" x2="22.7471" y2="36.7053" gradientUnits="userSpaceOnUse">
<stop stop-color="#6BBF56"/>
<stop offset="1" stop-color="#23B100"/>
</linearGradient>
<linearGradient id="paint2_linear_2561_1464" x1="19.2507" y1="40.2014" x2="26.2423" y2="40.2014" gradientUnits="userSpaceOnUse">
<stop stop-color="#6BBF56"/>
<stop offset="1" stop-color="#23B100"/>
</linearGradient>
</defs>
</svg>
