<svg width="31" height="43" viewBox="0 0 31 43" fill="none" xmlns="http://www.w3.org/2000/svg">
<path d="M23.6515 0H6.45032C2.79506 0 0 2.79506 0 6.45068V36.5534C0 40.2087 2.79506 43.0041 6.45069 43.0041H23.6519C27.3071 43.0041 30.1025 40.209 30.1025 36.5534L30.1018 6.45068C30.1018 2.79506 27.3068 0 23.6515 0H23.6515ZM6.45032 4.30043H23.6515C24.9416 4.30043 25.8017 5.16059 25.8017 6.45068V30.1026H4.30006V6.45068C4.30006 5.16026 5.16023 4.30043 6.45032 4.30043ZM23.6515 38.7028H6.45032C5.16026 38.7028 4.30006 37.8426 4.30006 36.5525V34.4022H25.8017V36.5525C25.8021 37.8426 24.9419 38.7028 23.6519 38.7028H23.6515Z" fill="url(#paint0_linear_2561_1429)"/>
<path d="M13.9777 10.7508H16.1278C17.4177 10.7508 18.2778 9.89071 18.2778 8.60074C18.2778 7.31077 17.4177 6.45068 16.1278 6.45068H13.9777C12.6878 6.45068 11.8277 7.31077 11.8277 8.60074C11.828 9.89068 12.6878 10.7508 13.9777 10.7508Z" fill="url(#paint1_linear_2561_1429)"/>
<defs>
<linearGradient id="paint0_linear_2561_1429" x1="0" y1="21.502" x2="30.1025" y2="21.502" gradientUnits="userSpaceOnUse">
<stop stop-color="#6BBF56"/>
<stop offset="1" stop-color="#23B100"/>
</linearGradient>
<linearGradient id="paint1_linear_2561_1429" x1="11.8277" y1="8.60074" x2="18.2778" y2="8.60074" gradientUnits="userSpaceOnUse">
<stop stop-color="#6BBF56"/>
<stop offset="1" stop-color="#23B100"/>
</linearGradient>
</defs>
</svg>
