<svg width="28" height="28" viewBox="0 0 28 28" fill="none" xmlns="http://www.w3.org/2000/svg">
<path fill-rule="evenodd" clip-rule="evenodd" d="M12.6768 5.2439C12.1184 5.2439 11.6297 4.89489 11.4552 4.37137L11.0713 3.14983C10.7223 2.10279 11.4901 1.02086 12.607 1.02086H12.8513V0.985958C12.7815 0.776551 12.8164 0.567144 12.9909 0.392638L13.2003 0.183231C13.4446 -0.061077 13.7936 -0.061077 14.0379 0.183231L14.2473 0.392638C14.3869 0.532242 14.4567 0.776551 14.3869 0.985958V1.02086H14.6312C15.7481 1.02086 16.5159 2.10279 16.1669 3.14983L15.783 4.37137C15.6085 4.89489 15.1199 5.2439 14.5614 5.2439H12.6768ZM26.4621 4.54611C26.5319 4.61591 26.5668 4.68571 26.6017 4.79042C27.195 7.1986 27.2997 9.67658 26.9507 12.1197C26.6017 14.0043 25.5197 16.9011 23.6351 17.8784C21.7504 18.8905 20.1799 18.1227 19.0979 17.5642L19.0979 17.5642C18.4697 17.2501 18.0509 17.0407 17.7019 17.1105C17.4925 17.1454 17.3878 17.4595 17.5274 17.634L18.9234 19.3791C19.3073 19.8328 19.412 20.3912 19.3073 20.9148L20.7034 22.1712C21.0873 21.7524 21.6457 21.5081 22.2739 21.5081C23.4955 21.5081 24.4727 22.4853 24.4727 23.7068C24.4727 24.9284 23.4955 25.9056 22.2739 25.9056C21.0524 25.9056 20.0751 24.9284 20.0751 23.7068C20.0751 23.6719 20.0839 23.6283 20.0926 23.5847C20.1013 23.5411 20.11 23.4974 20.11 23.4625L18.4697 21.9967C18.2254 22.1363 17.9462 22.1712 17.6321 22.1363C16.7246 21.9967 15.8172 21.5779 15.0145 21.1242C14.6493 22.3041 15.8445 23.3032 16.7797 24.0849C17.0063 24.2743 17.2176 24.4509 17.3878 24.6143C17.7368 24.9284 18.3301 25.4868 17.9113 26.0103C17.6831 26.3037 17.2723 26.4144 16.9063 26.513C16.8804 26.52 16.8547 26.5269 16.8293 26.5338C16.6548 26.6036 16.4803 26.6385 16.3058 26.6734C15.538 26.813 14.84 27.1621 14.2467 27.6158C14.1826 27.6638 14.1259 27.7118 14.0732 27.7565C14.011 27.8092 13.9543 27.8572 13.8976 27.895C13.8278 27.9648 13.7231 27.9997 13.6184 27.9997C13.5137 27.9997 13.409 27.9648 13.3392 27.895C13.2564 27.8121 13.1735 27.7511 13.0734 27.6774C13.047 27.658 13.0193 27.6376 12.9902 27.6158C12.362 27.1621 11.664 26.848 10.931 26.6734C10.7565 26.6036 10.582 26.5687 10.4075 26.5338C10.3639 26.5208 10.3181 26.5077 10.2709 26.4942C9.94018 26.3997 9.53936 26.2852 9.32559 26.0103C8.93303 25.5196 9.4297 25.0289 9.78091 24.6819C9.8044 24.6587 9.82723 24.6362 9.84911 24.6143C10.0113 24.4645 10.2059 24.3037 10.4134 24.132C11.367 23.3435 12.595 22.328 12.2224 21.1242C11.4197 21.5779 10.5122 22.0316 9.6048 22.1363C9.29069 22.2061 8.97658 22.1363 8.73227 21.9967L7.05701 23.4974L8.13895 24.4747C8.45306 24.719 8.45306 25.1727 8.20875 25.4519C7.96444 25.766 7.51073 25.766 7.23152 25.5217L5.55626 24.021L4.61393 23.1833C4.29982 23.3229 3.95081 23.4276 3.5669 23.4276C3.18299 23.4276 2.86888 23.1135 2.86888 22.7296C2.86888 22.3457 3.18299 22.0316 3.5669 22.0316C3.98571 22.0316 4.36963 21.6826 4.36963 21.2289C4.36963 20.845 4.68374 20.5308 5.06765 20.5308C5.45156 20.5308 5.76567 20.845 5.76567 21.2289C5.76567 21.543 5.69587 21.892 5.55626 22.1712L5.97508 22.5551L7.89464 20.845C7.78994 20.3214 7.89464 19.763 8.27855 19.3442L9.6746 17.5991C9.84911 17.3897 9.7444 17.1105 9.5001 17.0756C9.15108 17.0058 8.73227 17.1803 8.10405 17.5293C7.02211 18.0878 5.45156 18.8207 3.5669 17.8435C1.68224 16.8662 0.565399 13.9694 0.251288 12.0848C-0.167526 9.64168 -0.0628219 7.1637 0.565399 4.79042C0.565399 4.68571 0.635201 4.61591 0.705003 4.54611C0.809707 4.47631 0.879509 4.44141 0.984213 4.44141C1.08892 4.44141 1.19362 4.47631 1.26342 4.51121C1.36813 4.54611 1.43793 4.61591 1.47283 4.72062C1.78694 5.27903 2.38026 6.29117 2.93868 7.09389C4.57903 9.46717 6.25429 11.1424 8.62757 11.2122C8.90678 11.2122 9.18598 11.1424 9.43029 11.0377C10.1632 10.6887 10.6169 9.85109 10.5122 9.01346C10.5122 8.66445 10.4075 8.28053 10.1981 7.96642C9.98871 7.65231 9.7095 7.408 9.36049 7.2335C8.87188 6.98919 8.24365 6.95429 7.68524 7.05899C7.40603 7.09389 7.12682 7.1986 6.88251 7.3382C6.6382 7.47781 6.4986 7.40801 6.4637 7.1288C6.42879 6.39587 6.5684 5.41864 7.23152 4.96492C8.10405 4.3716 9.43029 4.79042 10.233 5.24413C11.1055 5.69785 11.8385 6.39587 12.4667 7.1637C12.8855 7.68721 13.2694 8.28053 13.5835 8.87385C13.8627 8.24563 14.2816 7.68721 14.7004 7.1637C15.3286 6.39587 16.0615 5.69785 16.934 5.24413C17.7717 4.79042 19.0979 4.3716 19.9355 4.96492C20.5987 5.41864 20.7383 6.39587 20.7034 7.1288C20.6685 7.44291 20.5289 7.47781 20.2846 7.3382C20.0402 7.1986 19.761 7.09389 19.4818 7.05899C18.9583 6.95429 18.2952 6.98919 17.8066 7.2335C17.4576 7.408 17.1784 7.65231 16.9689 7.96642C16.7944 8.28053 16.6548 8.62955 16.6548 9.01346C16.5152 9.85109 16.9689 10.6887 17.7368 11.0377C17.9811 11.1424 18.2603 11.2122 18.5395 11.2122C20.9128 11.1424 22.588 9.46717 24.2284 7.09389C24.7868 6.29117 25.3801 5.27903 25.6942 4.72062C25.764 4.61591 25.8338 4.54611 25.9036 4.51121C25.9734 4.44141 26.0781 4.44141 26.1828 4.44141C26.2876 4.44141 26.3923 4.47631 26.4621 4.54611ZM22.2739 22.8343C21.9249 22.8343 21.6108 23.0786 21.5061 23.3927C21.4712 23.4625 21.4712 23.5672 21.4712 23.637C21.4712 24.0559 21.8202 24.4398 22.2739 24.4398C22.6927 24.4398 23.0766 24.0908 23.0766 23.637C23.0766 23.2182 22.7276 22.8343 22.2739 22.8343Z" fill="url(#paint0_linear_2561_1944)"/>
<defs>
<linearGradient id="paint0_linear_2561_1944" x1="0" y1="13.9998" x2="27.1501" y2="13.9998" gradientUnits="userSpaceOnUse">
<stop stop-color="#6BBF56"/>
<stop offset="1" stop-color="#23B100"/>
</linearGradient>
</defs>
</svg>
