<svg width="52" height="52" viewBox="0 0 52 52" fill="none" xmlns="http://www.w3.org/2000/svg">
<path d="M3.78399 20.7907C5.53671 21.8063 7.55816 21.8063 10.913 21.8063C14.2678 21.8063 16.2892 21.8063 18.042 20.7907C19.1919 20.129 20.1485 19.1723 20.8006 18.0322C21.8161 16.2794 21.8161 14.258 21.8161 10.9032C21.8161 7.54835 21.8161 5.5269 20.8006 3.77417C20.1388 2.62422 19.1821 1.6676 18.0322 1.01559C16.2794 -4.99907e-07 14.258 0 10.9032 0C7.54835 0 5.5269 -4.99907e-07 3.77417 1.01559C2.62422 1.67738 1.6676 2.63404 1.01559 3.77417C-4.99907e-07 5.5269 0 7.54835 0 10.9032C0 14.258 -4.99907e-07 16.2794 1.01559 18.0322C1.67738 19.1821 2.63404 20.1289 3.77417 20.7907H3.78399ZM5.37618 6.28031C5.59569 5.90354 5.91347 5.58576 6.2902 5.35639C6.82749 5.04515 7.98397 5.02222 10.9031 5.02222C14.0221 5.02222 15.0114 5.06481 15.516 5.35639C15.9026 5.5759 16.2105 5.89368 16.4399 6.28031C16.7347 6.7914 16.774 7.77421 16.774 10.8932C16.774 13.8188 16.7413 14.9688 16.4399 15.5061C16.2204 15.8828 15.9026 16.2006 15.5259 16.43C14.9886 16.7412 13.8321 16.7642 10.913 16.7642C7.99387 16.7642 6.83738 16.7379 6.3001 16.43C5.91351 16.2105 5.60555 15.8927 5.37618 15.5061C5.08133 15.0015 5.04201 14.0122 5.04201 10.8932C5.04201 7.96753 5.07477 6.81758 5.37618 6.28031Z" fill="white"/>
<path d="M3.78399 50.9845C5.53671 52.0001 7.55816 52.0001 10.913 52.0001C14.2678 52.0001 16.2892 52.0001 18.042 50.9845C19.1919 50.3227 20.1485 49.366 20.8006 48.2259C21.8161 46.4732 21.8161 44.4517 21.8161 41.0969C21.8161 37.7421 21.8161 35.7206 20.8006 33.9679C20.1388 32.818 19.1821 31.8613 18.0322 31.2093C16.2794 30.1937 14.258 30.1937 10.9032 30.1937C7.54835 30.1937 5.5269 30.1937 3.77417 31.2093C2.62422 31.8711 1.6676 32.8278 1.01559 33.9679C-4.99907e-07 35.7206 0 37.7421 0 41.0969C0 44.4517 -4.99907e-07 46.4732 1.01559 48.2259C1.67738 49.3758 2.63404 50.3226 3.77417 50.9845H3.78399ZM5.37618 36.474C5.59569 36.0973 5.91347 35.7795 6.2902 35.5501C6.82749 35.2389 7.98397 35.2159 10.9031 35.2159C14.0221 35.2159 15.0114 35.2585 15.516 35.5501C15.9026 35.7696 16.2105 36.0874 16.4399 36.474C16.7347 36.9851 16.774 37.9679 16.774 41.0869C16.774 44.0126 16.7413 45.1625 16.4399 45.6998C16.2204 46.0766 15.9026 46.3943 15.5259 46.6237C14.9886 46.9349 13.8321 46.9579 10.913 46.9579C7.99387 46.9579 6.83738 46.9317 6.3001 46.6237C5.91351 46.4042 5.60555 46.0864 5.37618 45.6998C5.08133 45.1953 5.04201 44.2059 5.04201 41.0869C5.04201 38.1613 5.07477 37.0113 5.37618 36.474Z" fill="white"/>
<path d="M50.9933 3.77417C50.3315 2.62422 49.3749 1.6676 48.2249 1.01559C46.4722 -4.99907e-07 44.4507 0 41.0959 0C37.7411 0 35.7196 -4.99907e-07 33.9669 1.01559C32.817 1.67738 31.8603 2.63404 31.2083 3.77417C30.1927 5.5269 30.1927 7.54835 30.1927 10.9032C30.1927 14.258 30.1927 16.2794 31.2083 18.0322C31.8701 19.1821 32.8268 20.1289 33.9669 20.7907C35.7196 21.8063 37.7411 21.8063 41.0959 21.8063C44.4507 21.8063 46.4722 21.8063 48.2249 20.7907C49.3749 20.129 50.3315 19.1723 50.9835 18.0322C51.9991 16.2794 51.9991 14.258 51.9991 10.9032C51.9991 7.54835 51.9991 5.5269 50.9835 3.77417H50.9933ZM46.6327 15.516C46.4132 15.8928 46.0954 16.2106 45.7187 16.44C45.1814 16.7512 44.0249 16.7741 41.1058 16.7741C38.1867 16.7741 37.0302 16.7479 36.4929 16.44C36.1063 16.2205 35.7984 15.9027 35.569 15.516C35.2742 15.0115 35.2348 14.0221 35.2348 10.9032C35.2348 7.97751 35.2676 6.82756 35.569 6.29029C35.7885 5.91353 36.1063 5.59574 36.483 5.36637C37.0203 5.05513 38.1768 5.0322 41.0959 5.0322C44.2149 5.0322 45.2042 5.07479 45.7088 5.36637C46.0954 5.58588 46.4033 5.90366 46.6327 6.29029C46.9276 6.80138 46.9669 7.78419 46.9669 10.9032C46.9669 13.8288 46.9341 14.9788 46.6327 15.516Z" fill="white"/>
<path d="M50.3314 32.7098C50.3314 31.3273 49.1978 30.1937 47.8153 30.1937H37.7509C33.5901 30.1937 30.2025 33.5813 30.2025 37.7421V47.8065C30.2025 49.1891 31.3361 50.3226 32.7186 50.3226C34.1012 50.3226 35.2347 49.1891 35.2347 47.8065V38.7804L47.7138 51.2595C48.6607 52.2063 50.3217 52.2063 51.2685 51.2595C52.2153 50.3127 52.2514 48.6844 51.2685 47.7048L38.7894 35.2257H47.8156C49.1981 35.2257 50.3314 34.0924 50.3314 32.7098Z" fill="white"/>
</svg>
