<svg width="37" height="37" viewBox="0 0 37 37" fill="none" xmlns="http://www.w3.org/2000/svg">
<path d="M36.0781 19.879V16.1806C36.0781 15.4039 35.8932 14.6827 35.5788 14.017L33.3783 5.25176C32.6016 2.16358 29.8463 0 26.6471 0H9.43098C6.25034 0 3.47652 2.16358 2.69985 5.25176L0.499287 14.0355C0.184921 14.6827 0 15.4224 0 16.1806V19.879C0 21.3399 0.628732 22.6528 1.60881 23.5774C0.61024 24.5021 0 25.815 0 27.2759V30.9743C0 33.7851 2.27453 36.0596 5.08533 36.0596H30.9743C33.7851 36.0596 36.0596 33.7851 36.0596 30.9743V27.2759C36.0596 25.815 35.4309 24.5021 34.4508 23.5774C35.4494 22.6528 36.0596 21.3399 36.0596 19.879H36.0781ZM5.3997 5.91748C5.862 4.06827 7.52629 2.77382 9.43098 2.77382H26.6656C28.5888 2.77382 30.2346 4.06827 30.6969 5.91748L32.0099 11.1877C31.677 11.1138 31.3441 11.0768 30.9928 11.0768H5.10383C4.75247 11.0768 4.40112 11.1138 4.08676 11.1877L5.3997 5.91748ZM33.3043 27.2759V30.9743C33.3043 32.2503 32.2687 33.2858 30.9928 33.2858H5.10383C3.82787 33.2858 2.79231 32.2503 2.79231 30.9743V27.2759C2.79231 25.9999 3.82787 24.9644 5.10383 24.9644H30.9928C32.2687 24.9644 33.3043 25.9999 33.3043 27.2759ZM5.10383 22.1905C3.82787 22.1905 2.79231 21.155 2.79231 19.879V16.1806C2.79231 14.9046 3.82787 13.8691 5.10383 13.8691H30.9928C32.2687 13.8691 33.3043 14.9046 33.3043 16.1806V19.879C33.3043 21.155 32.2687 22.1905 30.9928 22.1905H5.10383Z" fill="white"/>
<path d="M21.7429 16.6429H8.79844C8.04026 16.6429 7.41153 17.2717 7.41153 18.0299C7.41153 18.788 8.04026 19.4168 8.79844 19.4168H21.7429C22.5011 19.4168 23.1298 18.788 23.1298 18.0299C23.1298 17.2717 22.5011 16.6429 21.7429 16.6429Z" fill="white"/>
<path d="M27.3341 16.6429C26.5759 16.6429 25.9472 17.2717 25.9472 18.0299C25.9472 18.788 26.5759 19.4168 27.3341 19.4168C28.0923 19.4168 28.721 18.788 28.721 18.0299C28.721 17.2717 28.1108 16.6429 27.3341 16.6429Z" fill="white"/>
<path d="M8.79844 30.512H21.7429C22.5011 30.512 23.1298 29.8832 23.1298 29.1251C23.1298 28.3669 22.5011 27.7382 21.7429 27.7382H8.79844C8.04026 27.7382 7.41153 28.3669 7.41153 29.1251C7.41153 29.8832 8.04026 30.512 8.79844 30.512Z" fill="white"/>
<path d="M27.3341 30.512C28.1108 30.512 28.721 29.8832 28.721 29.1251C28.721 28.3669 28.1108 27.7382 27.3341 27.7382C26.5759 27.7382 25.9472 28.3669 25.9472 29.1251C25.9472 29.8832 26.5759 30.512 27.3341 30.512Z" fill="white"/>
</svg>
