<svg width="43" height="43" viewBox="0 0 43 43" fill="none" xmlns="http://www.w3.org/2000/svg">
<path d="M38.3117 29.9134C39.6152 27.3198 40.314 24.4439 40.314 21.5013C40.314 20.7622 39.7093 20.1575 38.9702 20.1575H33.3532C32.0766 16.5829 27.0642 16.5829 25.7874 20.1575H22.8579V16.126C22.8579 15.3869 22.2532 14.7822 21.5141 14.7822C20.775 14.7822 20.1703 15.3869 20.1703 16.126V20.1575H16.1388C15.3997 20.1575 14.795 20.7622 14.795 21.5013C14.795 22.2404 14.1903 22.8451 13.4512 22.8451C12.7121 22.8451 12.1074 22.2404 12.1074 21.5013C12.1074 20.7622 11.5027 20.1575 10.7635 20.1575H5.44201C5.64359 17.7386 6.40956 15.4272 7.63246 13.3442C10.6157 12.9411 12.954 10.6028 13.3569 7.61975C15.4399 6.39686 17.7513 5.6309 20.1702 5.42931V10.7508C20.1702 11.49 20.7749 12.0946 21.514 12.0946C22.2531 12.0946 22.8578 11.49 22.8578 10.7508V4.03174C22.8578 3.29261 22.2531 2.68792 21.514 2.68792C18.571 2.68792 15.6954 3.3867 13.1019 4.69019C12.2284 1.98913 9.7289 0.000366211 6.73242 0.000366211C3.01007 0.000366211 0 3.01052 0 6.71946C0 9.7162 1.97544 12.2289 4.68982 13.0889C2.02906 18.3834 2.02906 24.6054 4.68982 29.9136C1.98877 30.787 0 33.2866 0 36.283C0 39.992 3.01015 43.0021 6.71909 43.0021C9.71583 43.0021 12.2285 41.0133 13.0886 38.2986C13.9352 38.7286 14.8087 39.1048 15.709 39.4005C16.4212 39.6289 17.1738 39.2392 17.4023 38.5404C17.6307 37.8282 17.241 37.0757 16.5422 36.8472C15.4268 36.4844 14.3652 35.9738 13.3439 35.3825C12.9408 32.4127 10.5891 30.061 7.61947 29.658C6.38316 27.5751 5.63062 25.2636 5.42903 22.8448H9.64862C10.9253 26.4193 15.9377 26.4193 17.2144 22.8448H20.1439V26.8762C20.1439 27.6153 20.7486 28.22 21.4878 28.22C22.2269 28.22 22.8316 28.8247 22.8316 29.5639C22.8316 30.303 22.2269 30.9077 21.4878 30.9077C20.7486 30.9077 20.1439 31.5124 20.1439 32.2515V38.9706C20.1439 39.7097 20.7486 40.3144 21.4878 40.3144C24.4308 40.3144 27.3064 39.6156 29.8999 38.3121C30.7733 41.0132 33.2729 43.002 36.2693 43.002C39.9783 43.002 42.9884 39.9918 42.9884 36.2829C42.9884 33.2861 41.013 30.7734 38.2986 29.9134H38.3117ZM2.68699 6.71886C2.68699 4.50158 4.50117 2.6874 6.71845 2.6874C8.93573 2.6874 10.7499 4.50158 10.7499 6.71886C10.7499 8.93614 8.93573 10.7503 6.71845 10.7503C4.50117 10.7503 2.68699 8.93614 2.68699 6.71886ZM10.7499 36.2829C10.7499 38.5001 8.93573 40.3143 6.71845 40.3143C4.50117 40.3143 2.68699 38.5001 2.68699 36.2829C2.68699 34.0656 4.50117 32.2514 6.71845 32.2514C8.93573 32.2514 10.7499 34.0656 10.7499 36.2829ZM22.8443 33.3533C26.4188 32.0767 26.4188 27.0643 22.8443 25.7875V22.858H26.8757C27.6149 22.858 28.2195 22.2533 28.2195 21.5142C28.2195 20.7751 28.8242 20.1704 29.5634 20.1704C30.3025 20.1704 30.9072 20.7751 30.9072 21.5142C30.9072 22.2533 31.5119 22.858 32.251 22.858H37.5725C37.3709 25.2769 36.605 27.5883 35.3821 29.6713C32.3988 30.0744 30.0606 32.4127 29.6576 35.3957C27.5747 36.6186 25.2632 37.3846 22.8444 37.5862L22.8443 33.3533ZM36.2825 40.3145C34.0652 40.3145 32.251 38.5004 32.251 36.2831C32.251 34.0658 34.0652 32.2516 36.2825 32.2516C38.4997 32.2516 40.3139 34.0658 40.3139 36.2831C40.3139 38.5004 38.4997 40.3145 36.2825 40.3145Z" fill="white"/>
<path d="M43.002 6.71909C43.002 3.01015 39.9918 0 36.2829 0C33.2862 0 30.7735 1.97544 29.9134 4.68982C27.3199 3.38634 24.444 2.68755 21.5013 2.68755C20.7622 2.68755 20.1575 3.29225 20.1575 4.03137V9.63499C16.583 10.8982 16.583 15.9645 20.1575 17.2412V21.5011C20.1575 22.2402 20.7622 22.8449 21.5013 22.8449H26.8766C27.6157 22.8449 28.2204 22.2402 28.2204 21.5011C28.2204 20.762 28.8251 20.1573 29.5642 20.1573C30.3034 20.1573 30.9081 20.762 30.9081 21.5011C30.9081 22.2402 31.5128 22.8449 32.2519 22.8449H38.971C39.7101 22.8449 40.3148 22.2402 40.3148 21.5011C40.3148 18.5581 39.616 15.6825 38.3125 13.089C41.0136 12.2155 43.0023 9.716 43.0023 6.71952L43.002 6.71909ZM33.3669 20.1573C32.1037 16.5827 27.0374 16.5827 25.7607 20.1573H22.8446V16.1258C22.8446 15.3867 22.2399 14.782 21.5008 14.782C20.7617 14.782 20.157 14.1773 20.157 13.4382C20.157 12.6991 20.7617 12.0944 21.5008 12.0944C22.2399 12.0944 22.8446 11.4897 22.8446 10.7505V5.42903C25.2635 5.6306 27.5749 6.39658 29.6579 7.61947C30.061 10.6028 32.4127 12.941 35.3824 13.3439C36.6187 15.4269 37.3712 17.7383 37.5728 20.1572L33.3669 20.1573ZM36.283 10.7505C34.0657 10.7505 32.2515 8.93637 32.2515 6.71909C32.2515 4.50181 34.0657 2.68764 36.283 2.68764C38.5003 2.68764 40.3144 4.50181 40.3144 6.71909C40.3144 8.93637 38.5003 10.7505 36.283 10.7505Z" fill="white"/>
</svg>
