<svg width="48" height="47" viewBox="0 0 48 47" fill="none" xmlns="http://www.w3.org/2000/svg">
<path d="M43.1652 33.8948C45.5894 29.9426 42.6951 24.9766 38.1699 24.9766C33.6448 24.9766 30.7505 29.9422 33.1746 33.8948C31.676 34.9232 30.5594 36.3777 29.9277 38.0673C29.6045 37.7147 29.3106 37.4062 28.4879 36.8332C30.912 32.881 28.0177 27.915 23.4926 27.915C18.9674 27.915 16.0732 32.8957 18.4973 36.8332C17.9684 37.2005 17.4835 37.5972 17.0574 38.0526C16.3522 36.1574 15.1915 34.8498 13.8105 33.8948C16.2347 29.9426 13.3404 24.9766 8.81523 24.9766C4.29008 24.9766 1.39586 29.9573 3.81993 33.8948C1.46921 35.5256 0 38.1848 0 41.1378V42.607C0 43.4151 0.661119 44.0762 1.46921 44.0762H4.40762C5.2157 44.0762 5.87682 43.4151 5.87682 42.607C5.87682 41.7989 5.2157 41.1378 4.40762 41.1378H2.93841C2.93841 38.9634 4.12844 37.0094 6.00903 35.9808C7.7574 36.9505 9.74081 37.0092 11.6066 35.9808C13.7222 37.1415 14.6919 39.1396 14.6919 41.1232H10.2843C9.47621 41.1232 8.81509 41.7844 8.81509 42.5925C8.81509 43.4005 9.47621 44.0617 10.2843 44.0617H14.6919V45.5309C14.6919 46.3389 15.353 47.0001 16.1611 47.0001H30.8532C31.6613 47.0001 32.3224 46.3389 32.3224 45.5309V44.0617H45.5452C46.3533 44.0617 47.0144 43.4005 47.0144 42.5925V41.1232C47.0144 38.3611 45.7362 35.6282 43.1945 33.8802L43.1652 33.8948ZM5.84739 30.8535C5.84739 29.2374 7.16967 27.9151 8.7858 27.9151C10.4019 27.9151 11.7242 29.2374 11.7242 30.8535C11.7242 32.4696 10.4019 33.7919 8.7858 33.7919C7.16967 33.7919 5.84739 32.4696 5.84739 30.8535ZM23.4779 30.8535C25.094 30.8535 26.4163 32.1758 26.4163 33.7919C26.4163 35.408 25.094 36.7303 23.4779 36.7303C21.8617 36.7303 20.5394 35.408 20.5394 33.7919C20.5394 32.1758 21.8617 30.8535 23.4779 30.8535ZM17.601 44.0763C17.601 41.9019 18.7911 39.9479 20.6716 38.9193C22.42 39.889 24.4181 39.9477 26.2692 38.9193C28.3702 40.0653 29.3545 42.0634 29.3545 44.0618H17.6009L17.601 44.0763ZM38.1699 27.9151C39.786 27.9151 41.1083 29.2374 41.1083 30.8535C41.1083 32.4696 39.786 33.7919 38.1699 33.7919C36.5538 33.7919 35.2315 32.4696 35.2315 30.8535C35.2315 29.2374 36.5538 27.9151 38.1699 27.9151ZM32.2931 41.1379C32.2931 38.9635 33.4831 37.0095 35.3637 35.9809C37.1121 36.9506 39.1102 37.0093 40.9613 35.9809C43.0622 37.1269 44.0466 39.125 44.0466 41.1233H32.2929L32.2931 41.1379Z" fill="white"/>
<path d="M33.7655 23.5073C33.5011 23.5073 33.7949 23.5661 28.7114 22.2878C25.5086 23.8746 21.4684 23.8746 18.2507 22.2878L13.5492 23.4632C12.4768 23.7276 11.507 22.758 11.7715 21.6855L12.9469 16.984C9.1123 9.25576 14.7099 0 23.481 0C32.252 0 37.8646 9.24118 34.0151 16.984L35.1904 21.6855C35.4255 22.6111 34.7205 23.5073 33.7655 23.5073ZM18.4416 19.2613C18.6913 19.2613 18.9411 19.3201 19.1615 19.4523C21.7619 20.9215 25.2 20.9215 27.8004 19.4523C28.5203 19.0556 29.0051 19.3348 31.7525 20.0253C30.9739 16.9106 30.8122 16.7196 31.1795 16.0732C34.4264 10.3139 30.2833 2.93825 23.4809 2.93825C16.6784 2.93825 12.5354 10.3139 15.7823 16.0732C16.1642 16.749 15.9732 16.9841 15.2092 20.0253C18.3093 19.2467 18.1918 19.2613 18.4416 19.2613Z" fill="white"/>
<path d="M23.485 13.2229C22.6769 13.2229 22.0157 12.5617 22.0157 11.7537V7.34604C22.0157 6.53795 22.6769 5.87683 23.485 5.87683C24.293 5.87683 24.9542 6.53795 24.9542 7.34604V11.7537C24.9542 12.5617 24.293 13.2229 23.485 13.2229Z" fill="white"/>
<path d="M23.5056 17.6304C22.6976 17.6304 22.0364 16.9693 22.0364 16.1612C22.0364 15.7352 22.3597 14.692 23.5056 14.692C24.3137 14.692 24.9748 15.3531 24.9748 16.1612C24.9748 16.9693 24.3137 17.6304 23.5056 17.6304Z" fill="white"/>
</svg>
