<svg width="160" height="42" viewBox="0 0 160 42" fill="none" xmlns="http://www.w3.org/2000/svg">
<path d="M17.3377 0.213304C13.3261 0.987817 9.57274 2.89431 6.6137 5.71433C6.03778 6.25054 5.56116 6.76688 5.56116 6.86617C5.56116 6.96547 5.81933 7.08463 6.13708 7.1442C6.59384 7.2435 10.1089 8.45492 11.936 9.16985C12.1743 9.26915 12.5516 8.87196 13.4056 7.64069C14.9943 5.37673 17.0994 3.31136 18.569 2.59642C19.5818 2.09994 19.9989 2.0205 21.3493 2.0205C22.7395 2.0205 23.0572 2.09994 23.931 2.59642C25.3013 3.41065 27.5057 5.67461 28.7966 7.64069C29.5313 8.73295 29.9881 9.24929 30.1867 9.18971C30.4846 9.09042 35.9459 7.18392 36.5417 6.96547C36.7601 6.88603 36.4821 6.52857 35.5487 5.65476C32.8876 3.1922 29.5115 1.34528 26.1155 0.511193C24.0303 -0.0250082 19.3832 -0.164023 17.3377 0.213304Z" fill="#5D5D75"/>
<path d="M53.8201 2.31839C51.298 2.77515 49.6894 4.16531 48.9347 6.54842C48.4978 7.93858 48.3389 12.1686 48.6368 13.9758C48.9546 15.7631 49.7887 17.5306 50.7022 18.3449C51.9931 19.4768 53.3832 19.8542 56.2032 19.874C58.6459 19.874 60.9695 19.5364 60.9695 19.1789C60.9695 19.0797 60.8702 18.6229 60.7312 18.1264C60.5127 17.2725 60.4928 17.2725 59.8971 17.4512C59.5595 17.5505 58.4275 17.6696 57.3948 17.7491C54.0187 17.9477 52.3307 17.2725 51.5164 15.366C51.0001 14.1148 50.8611 8.9514 51.3377 7.38251C51.7746 5.87321 52.1321 5.35686 53.1052 4.86038C54.1776 4.30432 57.3154 4.14545 59.202 4.54263L60.5127 4.82066L60.7312 3.96671C60.8702 3.49009 60.9695 3.03333 60.9695 2.93403C60.9695 2.41769 55.8061 1.98078 53.8201 2.31839Z" fill="#5D5D75"/>
<path d="M19.956 3.7881C18.9631 4.16543 16.9772 6.19108 15.448 8.45504L14.2961 10.1431L16.4608 11.2751C17.6524 11.9106 19.1418 12.7447 19.7376 13.122C20.3532 13.5192 20.949 13.8369 21.0483 13.8369C21.1476 13.8369 21.8228 13.4794 22.5378 13.0425C23.2527 12.6056 24.7223 11.7914 25.8145 11.2552C26.9068 10.6991 27.8005 10.1828 27.8005 10.1034C27.8005 10.0239 27.165 9.1104 26.3905 8.07771C23.3321 3.96683 21.9618 3.07316 19.956 3.7881Z" fill="#5D5D75"/>
<path d="M66.5654 7.08451C63.9639 7.64057 62.7524 9.66622 62.7524 13.4395C62.7524 16.5971 63.5667 18.4043 65.3739 19.2781C66.8633 19.9931 68.4918 20.1122 70.8153 19.6952L72.7218 19.3576L72.5828 18.6228C72.5034 18.2256 72.3842 17.8483 72.3048 17.749C72.2253 17.6695 71.6891 17.6894 71.1132 17.8085C69.4649 18.1263 67.3797 18.0469 66.5853 17.6695C65.7115 17.2723 65.1554 16.1205 65.1356 14.7701V13.8367H69.306H73.4765V12.4862C73.4566 9.76552 72.7218 8.13706 71.1529 7.44198C70.1401 6.98522 67.8563 6.80648 66.5654 7.08451ZM70.0011 8.95129C70.7955 9.2889 71.0735 9.74566 71.2721 11.0762L71.431 12.0493H68.2932H65.1356V11.5529C65.1356 11.2947 65.2746 10.6989 65.4732 10.2421C65.7115 9.60665 65.9895 9.32862 66.6051 9.05058C67.5783 8.61368 69.0677 8.57396 70.0011 8.95129Z" fill="#5D5D75"/>
<path d="M92.2046 7.08461C89.3846 7.68039 88.2327 9.78548 88.4115 14.0155C88.4909 15.9419 88.5703 16.3391 89.0867 17.3519C90.2385 19.596 92.6614 20.3705 96.375 19.7151L98.3411 19.3577L98.2021 18.6229C98.1227 18.2257 98.0035 17.8484 97.9241 17.7491C97.8446 17.6696 97.3084 17.6895 96.7325 17.8086C95.0842 18.1264 92.999 18.047 92.2046 17.6696C91.3308 17.2724 90.7747 16.1206 90.7549 14.7702V13.8368H94.9253H99.0958V12.4863C99.0759 9.76562 98.3411 8.13716 96.7722 7.44208C95.7594 7.00518 93.4756 6.80658 92.2046 7.08461ZM95.6403 8.97125C96.4148 9.289 96.9112 10.2025 96.9112 11.3544V12.0494H93.8331H90.7549V11.553C90.7549 11.2948 90.8939 10.699 91.0925 10.2422C91.3308 9.60675 91.6088 9.32872 92.2244 9.05069C93.1976 8.61378 94.687 8.57406 95.6403 8.97125Z" fill="#5D5D75"/>
<path d="M118.462 7.0052C117.012 7.22365 115.781 7.52154 115.781 7.64069C115.781 7.72013 115.88 8.11732 116 8.53436C116.178 9.20958 116.258 9.28902 116.635 9.16986C116.873 9.09042 117.966 8.99113 119.078 8.93155C122.235 8.75282 123.03 9.18972 123.268 11.2154L123.387 12.2083L122.315 12.0097C120.587 11.692 117.588 11.8906 116.774 12.3672C115.344 13.2013 114.729 15.0681 115.185 17.1136C115.483 18.4839 115.861 18.9605 116.933 19.457C117.747 19.8343 118.204 19.8939 120.249 19.8542C121.918 19.8343 123.03 19.7152 123.923 19.457L125.214 19.0995L125.274 14.4127C125.314 9.84508 125.314 9.72592 124.857 8.87197C124.182 7.58112 123.089 7.08463 120.825 6.98534C119.852 6.94562 118.8 6.96548 118.462 7.0052ZM122.295 13.5588L123.328 13.6978V15.7433V17.7888L122.196 18.0073C121.58 18.1463 120.468 18.2058 119.713 18.1661C117.827 18.0668 117.469 17.6895 117.469 15.8426C117.469 14.373 117.787 13.7375 118.641 13.5786C119.336 13.4396 121.183 13.4396 122.295 13.5588Z" fill="#5D5D75"/>
<path d="M75.2667 8.1766V9.05041L77.5108 9.10998L79.7351 9.16956L79.7946 14.3727L79.8344 19.5957H80.9266H82.0189L82.0586 14.3727L82.1182 9.16956L84.3623 9.10998L86.5865 9.05041V8.1766V7.28293H80.9266H75.2667V8.1766Z" fill="#5D5D75"/>
<path d="M101.875 13.4393V19.5957H106.006C110.613 19.5957 111.11 19.4765 111.944 18.2254C112.301 17.6892 112.401 17.2722 112.401 16.2196C112.401 14.472 111.904 13.6776 110.514 13.201C109.799 12.9627 109.66 12.8634 110.018 12.8634C110.891 12.8237 111.765 12.1485 112.023 11.2746C112.321 10.3015 112.123 8.87167 111.586 8.19646C110.991 7.42194 110.057 7.28293 105.807 7.28293H101.875V13.4393ZM109.501 9.38801C109.978 9.84478 109.918 11.3541 109.422 11.8506C109.064 12.208 108.766 12.2478 106.542 12.2478H104.06V10.659V9.07027H106.622C108.687 9.07027 109.263 9.12984 109.501 9.38801ZM109.66 14.3727C110.256 14.9685 110.296 16.7757 109.74 17.3913C109.382 17.7686 109.144 17.8084 106.701 17.8084H104.06V15.8026V13.7968L106.641 13.8762C108.985 13.9358 109.243 13.9755 109.66 14.3727Z" fill="#5D5D75"/>
<path d="M130.474 7.71983C129.263 8.35533 128.826 9.03055 128.726 10.4207C128.587 12.4463 129.282 13.4393 131.229 13.9557L132.162 14.1741L131.467 14.472C130.514 14.8692 129.819 15.743 128.766 17.8481L127.892 19.5957H129.123H130.375L130.851 18.5034C132.142 15.5047 132.976 14.8295 135.399 14.8295H137.027V17.2126V19.5957H138.12H139.212V13.4393V7.28293H135.28C131.606 7.28293 131.288 7.30279 130.474 7.71983ZM137.027 11.0562V13.0421H134.744C131.546 13.0421 131.07 12.7641 131.07 10.937C131.07 10.2618 131.189 9.92422 131.566 9.56675C132.023 9.09013 132.162 9.07027 134.545 9.07027H137.027V11.0562Z" fill="#5D5D75"/>
<path d="M3.63425 9.20928C1.11212 13.0223 0 16.6962 0 21.1646C0 24.4215 0.774513 27.5196 2.3434 30.6176C3.63425 33.1795 3.65411 33.1993 3.952 31.4914C5.04427 25.3549 7.4671 18.1658 10.2474 12.8435C11.3794 10.6789 11.4985 10.3413 11.2205 10.1427C10.8035 9.82492 5.95779 7.91843 5.24286 7.75955C4.70666 7.66026 4.60736 7.75955 3.63425 9.20928Z" fill="#5D5D75"/>
<path d="M33.8601 8.89167C32.2317 9.54703 30.8018 10.1627 30.7224 10.2421C30.6429 10.3215 30.9011 10.9769 31.2983 11.6521C33.2445 14.9885 35.7666 20.986 37.0178 25.2557C37.693 27.5991 38.5271 31.2731 38.5271 31.9483C38.5271 32.2661 38.6065 32.5044 38.7058 32.5044C39.0236 32.5044 40.8705 28.5325 41.4464 26.6459C41.9429 24.9777 41.9826 24.6202 41.9826 21.0853C41.9826 16.9148 41.784 15.8424 40.4931 12.7444C39.6789 10.7584 37.6533 7.68025 37.1965 7.68025C36.9979 7.68025 35.5085 8.21645 33.8601 8.89167Z" fill="#5D5D75"/>
<path d="M12.5707 13.201C10.4656 17.1729 8.51942 22.4356 7.26828 27.5394C6.55334 30.4786 5.69939 35.1853 5.79869 35.5229C5.83841 35.6222 6.21574 34.7087 6.61292 33.4972C8.14209 28.9892 10.0287 25.2755 12.4317 22.0384C13.7424 20.2709 17.1185 16.8353 18.5285 15.8423C19.0449 15.465 19.4619 15.1075 19.4619 15.0281C19.4619 14.8493 16.5426 12.923 14.8943 11.9896L13.6034 11.2747L12.5707 13.201Z" fill="#5D5D75"/>
<path d="M26.3561 12.5458C24.0723 13.9161 22.6425 14.8693 22.6623 15.0282C22.6623 15.0878 23.2382 15.5644 23.9532 16.1205C24.6681 16.6567 26.0384 17.9277 26.9916 18.9206C30.8841 22.9124 33.3863 27.1623 35.4716 33.2591C35.9283 34.6095 36.3652 35.6223 36.4248 35.5032C36.5043 35.4039 36.4645 34.4705 36.3454 33.4577C35.69 27.9765 33.3466 20.708 30.1691 14.3729C28.4017 10.8578 28.8386 11.0564 26.3561 12.5458Z" fill="#5D5D75"/>
<path d="M19.0083 18.0071C14.5201 22.2173 11.005 27.8176 8.97933 33.9939C7.7282 37.8267 7.66862 37.4097 9.53539 38.6409C12.9313 40.885 16.0492 41.8383 20.3587 41.9773C23.7745 42.0965 25.9193 41.7589 28.6996 40.6666C30.2288 40.0907 32.7311 38.7005 33.7439 37.8863L34.2404 37.509L33.7836 35.8606C32.7311 31.9285 30.6458 27.4602 28.1237 23.7663C26.7733 21.7605 21.6297 16.2198 21.1332 16.2198C21.0141 16.2198 20.0608 17.034 19.0083 18.0071ZM24.8271 25.5537V26.5466H21.0538H17.2805V25.5537V24.5607H21.0538H24.8271V25.5537ZM24.8271 28.5326V29.5255H21.0538H17.2805V28.5326V27.5396H21.0538H24.8271V28.5326ZM24.8271 31.71V32.703H21.0538H17.2805V31.71V30.7171H21.0538H24.8271V31.71Z" fill="#5D5D75"/>
<path d="M48.4564 31.0149V39.4551H49.648H50.8395V31.0149V22.5747H49.648H48.4564V31.0149Z" fill="#5D5D75"/>
<path d="M57.4334 23.6272C56.1624 25.3152 55.1099 26.5068 53.0842 28.5722L51.1777 30.5184L51.7537 30.9354C53.1637 32.0078 56.8376 36.3372 58.486 38.899C58.8037 39.4154 58.903 39.4551 60.313 39.4551H61.8025L61.4649 38.899C60.3329 37.1514 57.4533 33.5569 55.9638 32.0078L54.2162 30.2205L55.09 29.4261C56.1426 28.4729 58.2079 26.1891 59.9357 24.1038L61.1868 22.5747H59.7172H58.2278L57.4334 23.6272Z" fill="#5D5D75"/>
<path d="M66.9053 26.9437C63.9662 27.4799 62.9335 29.1083 62.9335 33.2987C62.9335 36.8138 63.6087 38.3628 65.4755 39.2763C66.3096 39.6934 66.7266 39.7529 68.6132 39.7529C70.5197 39.7529 70.9169 39.6934 71.7709 39.2763C73.6575 38.3429 74.3724 36.3768 74.2334 32.5639C74.154 30.5779 74.0944 30.2205 73.5582 29.1878C73.0617 28.2147 72.8234 27.9565 71.89 27.4997C70.6786 26.8841 68.5139 26.6458 66.9053 26.9437ZM70.6786 29.0289C71.6517 29.5254 71.9695 30.5183 71.9695 33.1001C71.9893 37.0521 71.3538 37.9656 68.4941 37.9656C65.8131 37.9457 65.257 37.1712 65.2372 33.3979C65.2372 29.4658 65.7535 28.731 68.5735 28.731C69.5466 28.731 70.341 28.8303 70.6786 29.0289Z" fill="#5D5D75"/>
<path d="M111.508 26.8844C111.071 26.9241 110.237 27.0433 109.642 27.1624L108.589 27.3809L108.708 28.1951C108.788 28.6519 108.887 29.0491 108.927 29.0888C108.966 29.1285 109.622 29.0491 110.376 28.9299C111.131 28.7909 112.462 28.7115 113.316 28.771C114.726 28.8703 114.904 28.9299 115.381 29.4661C115.858 30.0023 116.374 31.7698 116.116 32.028C116.076 32.0677 115.52 32.0081 114.865 31.889C113.375 31.6109 110.496 31.7499 109.721 32.167C108.093 33.0011 107.457 34.987 108.053 37.39C108.47 39.0582 110.039 39.8525 112.859 39.8525C114.189 39.8327 116.731 39.4355 117.625 39.078L118.161 38.8596V34.4508C118.141 28.8703 117.923 28.1554 116.076 27.3213C115.262 26.9638 112.899 26.7255 111.508 26.8844ZM115.997 33.6167C116.096 33.6763 116.175 34.5898 116.175 35.6622V37.6283L115.301 37.8467C114.15 38.1248 111.767 38.1248 111.151 37.8467C110.496 37.5489 110.218 36.8736 110.218 35.6026C110.218 34.3714 110.714 33.577 111.568 33.4181C112.203 33.3188 115.758 33.4578 115.997 33.6167Z" fill="#5D5D75"/>
<path d="M77.4523 33.2987V39.4551H78.4452H79.4382V34.4902C79.4382 30.0418 79.5574 28.8105 79.895 29.863C79.9545 30.0616 80.7688 32.0873 81.7022 34.391L83.3902 38.5614H84.3037H85.1974L86.5677 35.1853C87.3223 33.3185 88.1962 31.273 88.494 30.6177L89.07 29.4261L89.1295 34.4307L89.1693 39.4551H90.2615H91.3538V33.2987V27.1423H89.6856H88.0373L87.0443 29.3665C86.4883 30.5978 85.7137 32.4845 85.2967 33.5569C84.8797 34.6094 84.4626 35.4236 84.3832 35.3442C84.3037 35.2449 84.0654 34.7286 83.847 34.1725C83.6285 33.6363 82.854 31.8092 82.1192 30.1609L80.7886 27.1423H79.1205H77.4523V33.2987Z" fill="#5D5D75"/>
<path d="M94.7273 33.2987V39.4551H95.8196H96.9118V34.2917V29.1282H99.8907H102.87V34.2917V39.4551H103.962H105.054V33.2987V27.1423H99.8907H94.7273V33.2987Z" fill="#5D5D75"/>
<path d="M121.538 33.2987V39.4551H122.63H123.702L123.762 36.6152L123.821 33.7952H126.701H129.581L129.64 36.6152L129.7 39.4551H130.772H131.864V33.2987V27.1423H130.772H129.68V29.5254V31.9085H126.701H123.722V29.5254V27.1423H122.63H121.538V33.2987Z" fill="#5D5D75"/>
<path d="M135.242 33.2987V39.4551H136.394H137.526L139.234 37.072C140.187 35.7811 141.478 33.8548 142.114 32.8022C142.769 31.7695 143.345 30.9156 143.444 30.9156C143.524 30.9156 143.583 32.8419 143.583 35.1853V39.4551H144.576H145.569V33.2987V27.1423H144.536H143.484L142.014 29.585C140.346 32.3454 137.804 36.079 137.586 36.079C137.486 36.079 137.427 34.0732 137.427 31.6106V27.1423H136.334H135.242V33.2987Z" fill="#5D5D75"/>
<path d="M151.21 27.3608C149.383 27.8771 148.469 30.1212 149.264 32.1071C149.661 33.1001 150.455 33.6959 151.687 33.8746L152.62 34.0136L151.865 34.3512C151.468 34.53 150.912 34.9073 150.634 35.2052C150.098 35.7811 148.688 38.2635 148.45 38.9983C148.33 39.4352 148.37 39.4551 149.482 39.4551H150.654L151.309 38.1046C152.739 35.1456 153.355 34.6888 155.778 34.6888H157.287V37.072V39.4551H158.379H159.472V33.2987V27.1423L155.659 27.1622C153.553 27.1622 151.548 27.2615 151.21 27.3608ZM157.287 30.9156V32.9015H155.003C153.752 32.9015 152.521 32.8022 152.263 32.6831C151.071 32.1469 151.011 29.6049 152.163 29.1282C152.421 29.0289 153.673 28.9495 154.963 28.9495L157.287 28.9296V30.9156Z" fill="#5D5D75"/>
</svg>
