<svg width="193" height="48" viewBox="0 0 193 48" fill="none" xmlns="http://www.w3.org/2000/svg">
<path fill-rule="evenodd" clip-rule="evenodd" d="M24.156 46.146C36.4708 46.146 46.4514 36.231 46.4514 24C46.4514 11.768 36.4708 1.854 24.156 1.854C11.8453 1.854 1.86767 11.768 1.86767 24C1.86767 36.23 11.8453 46.146 24.156 46.146ZM24.156 0C37.5041 0 48.3181 10.746 48.3181 24C48.3181 37.254 37.5021 48 24.156 48C10.817 48 0 37.254 0 24C0 10.746 10.816 0 24.156 0ZM24.156 41C23.3619 41 22.8834 40.473 22.8543 39.752C22.6804 40.077 22.4562 40.297 22.1185 40.364C21.7828 40.4264 21.436 40.3866 21.1233 40.25C20.8146 40.1271 20.5633 39.8939 20.4187 39.596C20.2679 39.292 20.3182 38.979 20.4257 38.614C20.0518 39.144 19.4205 39.282 18.8646 39.026C18.1027 38.674 17.8253 38.035 18.1379 37.306C19.0788 35.098 20.0146 32.93 20.9595 30.725C21.0449 30.525 21.1173 30.318 21.2118 30.119C21.2962 29.942 21.3495 29.812 21.4289 29.705C21.489 29.6247 21.5645 29.5571 21.6511 29.506C20.1895 29.665 19.4869 30.234 19.0999 30.486C18.9973 30.554 19.0034 30.564 18.6083 30.442C18.4331 30.3914 18.245 30.4116 18.0846 30.498C17.9055 30.5923 17.7341 30.7002 17.572 30.821C17.0482 31.225 16.5135 31.615 16.0179 32.051C15.7867 32.255 15.455 32.602 15.5002 32.916C15.5364 33.207 16.2551 33.881 16.4703 34.082C16.9799 34.558 16.2089 35.454 15.1816 35.369C15.455 35.085 15.5193 34.844 15.4841 34.63C15.3826 34.629 15.1866 34.648 15.0016 34.484C14.7805 34.287 14.879 33.705 14.674 33.507C14.3121 33.159 13.129 33.127 12.4223 33.097C12.1248 33.085 11.8142 33.006 11.8363 32.549C11.3869 32.579 11.2935 32.909 11.2935 33.207C10.9065 32.991 10.5757 31.955 12.0031 31.72C11.7619 31.503 11.3618 31.424 11.1155 31.7C10.8833 31.32 11.4704 30.573 12.5268 30.994C12.5238 30.991 13.0023 30.373 14.4307 31.954C14.6106 31.82 14.7896 31.688 14.9534 31.538C15.5063 31.041 16.8995 29.695 16.8995 29.695C16.8995 28.938 17.0141 27.472 18.0263 26.593C18.4575 26.218 18.8707 26.019 19.7834 25.856C19.7834 25.856 19.3421 25.173 19.2728 24.904C18.4766 25.69 16.8774 25.925 16.8774 24.599C15.5736 25.886 14.3623 25.192 14.3623 24.384C14.3172 24.7935 14.2237 25.1963 14.0839 25.584C13.9201 26.018 13.323 27.681 11.782 27.681C11.7468 28.259 11.7438 30.16 9.90226 30.586C9.82284 30.604 9.72132 30.631 9.67106 30.691C8.92721 31.605 5.8352 32.565 5.45725 32.306C5.69649 32.136 6.07545 31.911 6.13576 30.838C6.17396 30.13 6.25236 26.456 6.25236 21.281C6.25236 19.449 6.4524 13.515 12.3942 12.688C13.2958 12.563 14.1824 12.628 14.9504 13.191C15.9958 13.963 16.5105 15.261 15.8953 16.732C15.8752 16.785 15.8601 16.837 15.8319 16.884C15.6229 17.234 15.7083 17.536 15.9807 17.804C16.4763 18.291 17.0543 18.62 17.7499 18.7C18.1881 18.75 18.552 18.559 18.8425 18.261C19.509 17.583 19.9613 16.786 20.1252 15.85C20.4348 14.072 19.9543 13.18 19.9271 13.124C19.4436 12.166 18.4173 11.464 17.2272 11.364C16.6824 10.358 15.1183 10.756 15.1183 10.756C14.7262 10.84 14.5885 10.95 14.491 11.141C14.491 11.141 13.8045 10.109 14.4508 9.695C15.0992 9.28 16.5456 9.109 16.5456 9.109C16.5456 8.437 17.6715 7.914 19.705 8.273C22.1647 8.707 22.6935 7.757 22.6935 7.757C22.797 8.919 21.8963 9.519 21.6078 9.681C22.5417 10.681 23.8454 12.679 24.156 15.514C24.4676 12.679 25.7714 10.681 26.7042 9.681C26.4157 9.519 25.5161 8.919 25.6186 7.757C25.6186 7.757 26.1473 8.707 28.6071 8.273C30.6416 7.914 31.7674 8.437 31.7674 9.109C31.7674 9.109 33.2139 9.279 33.8613 9.695C34.5086 10.109 33.8211 11.141 33.8211 11.141C33.7236 10.95 33.5858 10.841 33.1938 10.756C33.1938 10.756 31.6297 10.358 31.0849 11.364C29.8947 11.464 28.8694 12.166 28.3859 13.124C28.3588 13.18 27.9064 14.064 28.1869 15.85C28.3347 16.788 28.8031 17.583 29.4705 18.261C29.761 18.559 30.1239 18.749 30.5632 18.7C31.2578 18.62 31.8368 18.29 32.3324 17.804C32.6038 17.536 32.6892 17.234 32.4811 16.884C32.452 16.837 32.4369 16.785 32.4178 16.732C31.8016 15.262 32.3173 13.962 33.3627 13.192C34.1297 12.629 35.0173 12.562 35.9179 12.688C41.8607 13.515 42.0597 19.449 42.0597 21.281C42.0597 26.456 42.1391 30.13 42.1763 30.838C42.2366 31.911 42.6156 32.136 42.8558 32.306C42.4769 32.566 39.3849 31.605 38.641 30.691C38.5908 30.631 38.4902 30.604 38.4108 30.586C36.5693 30.16 36.5663 28.259 36.5311 27.681C34.9901 27.681 34.392 26.018 34.2282 25.584C34.0883 25.1963 33.9949 24.7935 33.9497 24.384C33.9497 25.192 32.7395 25.886 31.4357 24.599C31.4357 25.925 29.8354 25.69 29.0403 24.904C28.9699 25.173 28.5277 25.856 28.5277 25.856C29.4424 26.019 29.8545 26.218 30.2868 26.593C31.298 27.473 31.4126 28.938 31.4126 29.695C31.4126 29.695 32.8068 31.041 33.3597 31.538C33.5225 31.688 33.7014 31.82 33.8824 31.954C35.3098 30.373 35.7882 30.991 35.7852 30.994C36.8417 30.573 37.4287 31.321 37.1975 31.699C36.9513 31.424 36.5502 31.503 36.3089 31.719C37.7363 31.955 37.4056 32.991 37.0196 33.207C37.0196 32.909 36.9251 32.579 36.4768 32.549C36.4989 33.006 36.1873 33.085 35.8898 33.097C35.1831 33.127 34 33.159 33.6381 33.507C33.4331 33.705 33.5326 34.287 33.3104 34.484C33.1265 34.648 32.9305 34.629 32.8279 34.63C32.7937 34.844 32.8581 35.085 33.1315 35.37C32.1032 35.454 31.3322 34.558 31.8428 34.082C32.0559 33.882 32.7756 33.207 32.8118 32.916C32.8581 32.602 32.5254 32.255 32.2942 32.051C31.7986 31.615 31.2648 31.225 30.7401 30.821C30.5779 30.7002 30.4065 30.5923 30.2275 30.498C30.0674 30.4118 29.8796 30.3917 29.7048 30.442C29.3097 30.564 29.3157 30.554 29.2122 30.487C28.8252 30.234 28.1236 29.665 26.661 29.507C26.7605 29.567 26.8279 29.631 26.8831 29.705C26.9636 29.812 27.0168 29.942 27.1003 30.119C27.1948 30.319 27.2681 30.525 27.3536 30.725C28.2985 32.93 29.2333 35.098 30.1742 37.305C30.4878 38.035 30.2094 38.675 29.4484 39.025C28.8915 39.282 28.2603 39.145 27.8873 38.615C27.9949 38.979 28.0452 39.292 27.8934 39.596C27.7493 39.8938 27.4982 40.1272 27.1897 40.25C26.8771 40.3866 26.5303 40.4264 26.1946 40.364C25.8558 40.297 25.6317 40.077 25.4578 39.752C25.4286 40.473 24.9501 41.001 24.156 41.001V41ZM62.7317 30.252C63.4065 30.28 64.0818 30.296 64.7572 30.3C67.5738 30.3 69.2122 28.994 69.2122 26.555C69.2122 23.925 67.2622 23.072 62.7317 23.072V30.252ZM64.9994 14.613C66.3303 14.613 69.0464 14.495 70.5974 14.4C70.5575 14.6828 70.534 14.9676 70.5271 15.253C70.5271 15.419 70.5773 15.799 70.5974 16.059C69.2122 15.869 66.9244 15.729 66.2127 15.729C65.7141 15.729 63.7801 15.774 62.7317 15.869V21.818H63.946C66.4288 21.818 71.6539 22.291 71.6539 26.578C71.6539 30.06 68.7187 31.648 64.8577 31.626C64.4255 31.626 62.8071 31.556 61.7748 31.556C61.3254 31.556 60.7766 31.578 60.3936 31.626C60.5394 29.019 60.5846 25.416 60.5846 22.431C60.5846 19.755 60.5645 15.704 60.3936 14.401C61.9215 14.472 64.4446 14.613 64.9994 14.613ZM80.7761 25.513L79.1989 25.748C77.4821 26.01 75.5722 26.601 75.5722 28.405C75.5722 29.777 76.3381 30.513 77.8851 30.513C78.8421 30.513 79.795 30.18 80.7761 29.163V25.513ZM74.3579 21.035C75.2897 19.899 77.0036 19.403 78.439 19.403C80.942 19.403 82.681 20.632 82.681 23.593V29.469C82.681 30.678 82.9423 30.961 83.4419 30.961C83.6128 30.961 83.8741 30.913 84.0159 30.865L84.1576 31.435C83.6017 31.7144 82.9909 31.8687 82.3683 31.887C81.5823 31.887 81.0837 31.531 80.8917 30.843L80.751 30.325C79.4613 31.343 78.055 31.887 76.887 31.887C74.7157 31.887 73.3054 30.748 73.3054 28.758C73.3054 26.626 74.9067 25.63 77.0991 25.229L79.5276 24.779C80.3439 24.636 80.7761 24.399 80.7761 23.808C80.7761 21.224 79.6774 20.562 77.865 20.562C76.4577 20.562 75.4053 20.964 74.6454 22.506H74.3579V21.035ZM87.4275 19.708C87.6889 19.708 88.1885 19.661 88.5453 19.638C88.3543 21.436 88.3302 24.421 88.3302 24.541C89.3324 24.589 90.7829 24.636 91.5529 24.636C92.339 24.636 93.8417 24.589 94.5564 24.541C94.5564 24.398 94.5313 21.415 94.3453 19.638C94.7444 19.661 95.2721 19.708 95.5546 19.708C95.821 19.708 96.3206 19.661 96.6784 19.638C96.4874 21.415 96.4613 24.398 96.4613 25.63C96.4613 26.626 96.4864 29.824 96.6784 31.626C96.3141 31.5791 95.9471 31.5557 95.5797 31.556C95.1766 31.556 94.6982 31.579 94.3443 31.626C94.5313 29.824 94.5564 26.626 94.5564 25.87C93.509 25.795 92.0776 25.702 91.5288 25.702C90.8794 25.702 89.2872 25.748 88.3302 25.82C88.3302 26.626 88.3553 29.824 88.5453 31.626C88.1813 31.5792 87.8147 31.5558 87.4476 31.556C87.0446 31.556 86.5661 31.579 86.2082 31.626C86.3952 29.824 86.4203 26.626 86.4203 25.63C86.4203 24.421 86.3952 21.415 86.2082 19.638C86.6113 19.661 87.14 19.708 87.4275 19.708ZM101.136 19.708C101.395 19.708 101.898 19.661 102.251 19.638C102.064 21.415 102.044 24.421 102.044 24.851H102.426C103.213 24.851 107.243 20.299 107.626 19.638C107.958 19.661 108.504 19.708 108.791 19.708C109.032 19.708 109.605 19.661 109.959 19.638L104.261 24.708C104.98 25.56 108.765 29.801 110.483 31.626C110.009 31.5863 109.533 31.5629 109.057 31.556C108.624 31.556 107.979 31.579 107.479 31.626C106.599 30.252 103.903 27.101 102.426 25.488H102.044C102.044 26.365 102.064 29.824 102.251 31.626C101.889 31.5789 101.523 31.5555 101.158 31.556C100.759 31.556 100.28 31.579 99.9182 31.626C100.114 29.824 100.139 26.626 100.139 25.63C100.139 24.421 100.114 21.415 99.9182 19.638C100.326 19.661 100.85 19.708 101.136 19.708ZM121.949 22.551C125.29 22.551 127.249 21.225 127.249 18.712C127.249 16.367 125.385 15.729 123.072 15.729C122.669 15.729 121.284 15.751 120.947 15.799V22.454C121.239 22.506 121.712 22.551 121.949 22.551ZM121.021 14.473C121.854 14.473 122.931 14.4 123.546 14.4C127.959 14.4 129.678 15.729 129.678 18.712C129.678 22.576 126.408 23.807 122.527 23.807C122 23.7924 121.473 23.7607 120.947 23.712V27.81C120.947 28.994 120.997 30.44 121.143 31.626C120.301 31.5337 119.452 31.5337 118.61 31.626C118.755 29.018 118.805 25.417 118.805 22.432C118.805 19.756 118.78 15.704 118.609 14.4C119.399 14.423 120.473 14.473 121.021 14.473ZM132.295 25.82C132.295 28.497 133.418 30.96 135.944 30.96C138.376 30.96 139.832 28.638 139.832 25.464C139.832 22.906 138.83 20.324 136.135 20.324C133.559 20.324 132.295 23.001 132.295 25.82ZM142.1 25.56C142.1 29.185 139.732 31.886 135.993 31.886C132.32 31.886 130.028 29.21 130.028 25.892C130.028 21.96 132.557 19.402 136.205 19.402C139.832 19.402 142.1 22.007 142.1 25.56ZM153.788 22.219H153.501C152.664 20.869 151.5 20.324 150.185 20.324C147.394 20.324 146.059 23.002 146.059 25.607C146.059 28.616 147.728 30.961 150.685 30.961C151.666 30.961 152.548 30.821 153.929 29.326L154.145 29.587L153.858 30.748C152.709 31.508 151.429 31.887 149.948 31.887C146.225 31.887 143.792 29.304 143.792 25.655C143.792 21.84 146.416 19.403 150.256 19.403C151.5 19.403 152.856 19.638 154.382 20.444L153.788 22.219ZM165.825 22.219H165.542C164.711 20.869 163.542 20.324 162.232 20.324C159.436 20.324 158.1 23.002 158.1 25.607C158.1 28.616 159.778 30.961 162.73 30.961C163.703 30.961 164.59 30.821 165.971 29.326L166.182 29.587L165.901 30.748C164.756 31.508 163.467 31.887 161.99 31.887C158.271 31.887 155.839 29.304 155.839 25.655C155.839 21.84 158.462 19.403 162.302 19.403C163.542 19.403 164.902 19.638 166.428 20.444L165.825 22.219ZM169.361 31.556C169.215 31.556 168.787 31.601 168.596 31.626C168.787 29.824 168.812 26.626 168.812 25.63C168.812 24.42 168.787 21.415 168.596 19.638C169.003 19.661 169.522 19.708 169.81 19.708C170.071 19.708 170.571 19.661 170.934 19.638C170.743 21.415 170.722 24.398 170.722 25.63C170.722 26.626 170.742 28.022 170.767 28.686C172.077 27.101 176.753 21.202 177.876 19.638C178.133 19.683 178.3 19.708 178.586 19.708C178.727 19.708 179.227 19.661 179.498 19.638C179.302 21.415 179.277 24.398 179.277 25.63C179.277 26.626 179.302 29.824 179.498 31.625C179.134 31.5785 178.767 31.5552 178.399 31.555C177.991 31.555 177.518 31.578 177.156 31.625C177.347 29.825 177.372 26.625 177.372 25.63C177.373 24.5478 177.358 23.4657 177.326 22.384C175.699 24.02 171.407 29.611 170.051 31.625C169.824 31.5763 169.593 31.5528 169.361 31.555V31.556ZM182.868 31.556C182.613 31.5691 182.359 31.5924 182.106 31.626C182.293 29.824 182.318 26.626 182.318 25.63C182.318 24.42 182.293 21.415 182.107 19.638C182.509 19.661 183.029 19.708 183.316 19.708C183.578 19.708 184.082 19.661 184.44 19.638C184.249 21.415 184.227 24.398 184.227 25.63C184.227 26.626 184.248 28.022 184.273 28.686C185.584 27.101 190.254 21.202 191.378 19.638C191.639 19.683 191.806 19.708 192.093 19.708C192.234 19.708 192.738 19.661 193 19.638C192.812 21.415 192.787 24.398 192.787 25.63C192.787 26.626 192.812 29.824 193 31.625C192.636 31.5782 192.269 31.5548 191.901 31.555C191.498 31.555 191.02 31.578 190.666 31.625C190.857 29.825 190.878 26.625 190.878 25.63C190.878 24.399 190.858 22.884 190.833 22.384C189.21 24.02 184.913 29.611 183.553 31.625C183.328 31.5761 183.098 31.5526 182.868 31.555V31.556Z" fill="#5D5D75"/>
</svg>
