<svg width="120" height="66" viewBox="0 0 120 66" fill="none" xmlns="http://www.w3.org/2000/svg">
<path d="M29.5871 1.02954C25.4572 7.71699 23.719 14.2716 24.029 22.0994C24.1397 25.0778 24.4829 27.1482 25.3687 30.2373C26.1105 32.7838 26.5977 34.0571 27.727 36.2936C28.6127 38.043 30.0964 40.5342 30.2514 40.5342C30.4618 40.5342 32.2776 37.4673 33.0747 35.7511C35.1784 31.278 36.3299 26.5946 36.5735 21.4905C36.7728 17.3606 35.7763 11.5479 34.1376 7.35162C33.3626 5.35867 31.6686 2.12566 30.4839 0.365231L30.2292 -0.000144958L29.5871 1.02954ZM31.2811 5.02651C33.1522 8.75775 34.1709 11.9686 34.7466 15.9545C35.1895 18.9771 35.2116 22.9298 34.802 25.8417C34.5141 27.9454 34.4587 27.9233 34.3812 25.6424C34.2484 21.2358 33.5508 17.7482 32.0229 13.7623C31.3586 12.024 30.351 9.86494 30.2182 9.86494C29.9857 9.86494 28.5795 13.2197 27.7934 15.6223C26.653 19.1321 26.2766 21.4351 26.0441 26.2846C26.0108 27.0707 25.9666 27.6907 25.9444 27.6686C25.8448 27.569 25.5458 24.6681 25.4462 22.7084C25.2137 18.5675 25.7783 14.2051 27.0184 10.4739C27.8599 7.9495 29.6092 3.8861 30.1296 3.24393C30.2625 3.07785 30.4064 3.28822 31.2811 5.02651ZM30.7607 25.4542C31.2147 26.5282 31.4693 27.425 31.7793 28.964C32.1115 30.658 32.1115 33.2489 31.7682 34.8543C31.5025 36.1276 31.0375 37.5558 30.5725 38.5744L30.2514 39.2609L29.9303 38.5966C28.4467 35.4411 28.0259 31.2338 28.8895 27.9565C29.3435 26.2403 30.0964 24.4024 30.3068 24.5352C30.3621 24.5685 30.5725 24.9781 30.7607 25.4542Z" fill="#5D5D75"/>
<path d="M19.8555 19.9072C13.312 20.6933 7.64321 24.0259 4.00054 29.2408C1.43186 32.9167 0.147513 36.8029 0.0146497 41.2538C-0.107141 45.1733 0.523958 48.2181 2.15153 51.595C5.21846 57.9724 11.1087 62.523 18.0287 63.8516C19.778 64.1949 22.856 64.3167 24.5611 64.1284C29.4549 63.5748 34.1826 61.3605 37.5485 58.061L38.401 57.2196V49.6464V42.0842H30.3185H22.236V45.4722V48.8602L22.6567 48.5281C23.7196 47.6977 24.5279 47.3434 25.8565 47.1552C28.8017 46.7344 31.6139 48.517 32.5993 51.44C33.1197 52.9901 32.9315 55.0716 32.1675 56.367C31.0603 58.2603 28.7352 59.9986 26.2108 60.8401C21.6049 62.3791 16.8993 61.294 13.3785 57.8949C9.85759 54.5069 8.71719 49.0374 10.5441 44.3761C11.7287 41.3424 14.2089 38.7959 17.2094 37.5005C18.3498 37.0022 19.5345 36.7033 20.9738 36.5372L22.1253 36.3933V28.1115V19.8297L21.162 19.8407C20.6195 19.8518 20.0438 19.885 19.8555 19.9072Z" fill="#5D5D75"/>
<path d="M41.0595 29.5731V39.3164H42.9971H44.9347V30.7357V22.1549H46.7062H48.4777V20.9924V19.8298H44.7686H41.0595V29.5731Z" fill="#5D5D75"/>
<path d="M49.8735 26.0522C49.5192 29.4845 49.0874 33.6587 48.9103 35.3305C48.7442 37.0024 48.5781 38.5857 48.5449 38.8403L48.4785 39.3164H50.3607C51.4014 39.3164 52.2429 39.2832 52.254 39.2278C52.254 39.1835 52.3426 38.0321 52.4422 36.6591L52.6304 34.168L53.6048 34.1347L54.568 34.1015V34.4669C54.568 34.6662 54.6455 35.7512 54.7341 36.8806C54.8227 38.0099 54.9002 39.0175 54.9002 39.1171C54.9002 39.2943 55.0663 39.3164 56.7824 39.3164C57.8232 39.3164 58.6646 39.2832 58.6646 39.2278C58.6646 39.1835 58.2218 34.8655 57.6682 29.6285C57.1256 24.3914 56.6717 20.0402 56.6717 19.9627C56.6717 19.863 55.9852 19.8298 53.5937 19.8298H50.5268L49.8735 26.0522ZM54.0698 27.1151L54.4019 32.0089H53.5826H52.7633L52.8297 31.0346C52.874 30.5032 53.0069 28.4991 53.1287 26.5837C53.4055 22.4317 53.4387 22.1328 53.6048 22.1881C53.6933 22.2103 53.8373 23.7161 54.0698 27.1151Z" fill="#5D5D75"/>
<path d="M61.606 19.9955C61.0524 20.1948 60.5652 20.6488 60.2773 21.2688C60.078 21.7117 60.0448 22.0106 60.0116 23.8929L59.9673 26.0297H61.916H63.8646V24.2693C63.8646 22.376 63.92 22.1546 64.4514 22.1546C65.0715 22.1656 65.16 22.4757 65.1822 24.6458C65.2043 26.8269 65.1047 27.613 64.7615 27.9452C64.5511 28.1556 64.3739 28.1888 63.2557 28.2331L61.9824 28.2663V29.307V30.3478H63.0896C64.2964 30.3478 64.7393 30.4807 64.994 30.9346C65.149 31.1893 65.2708 35.762 65.149 36.2713C65.005 36.8581 64.4072 37.0685 64.0529 36.6809C63.8868 36.5038 63.8646 36.1827 63.8646 34.5219V32.5622H61.916H59.9673L60.0116 34.9648C60.0559 37.6885 60.1334 38.0539 60.9084 38.7292C61.5285 39.2718 61.9381 39.3382 64.7393 39.2939C67.2194 39.2607 67.2416 39.2607 67.7509 38.9618C68.0941 38.7514 68.3488 38.4967 68.5813 38.076L68.9024 37.4892L68.9356 34.2783C68.9688 31.5325 68.9466 31.0121 68.7916 30.6025C68.4927 29.8274 67.9502 29.4842 66.7212 29.296C66.4887 29.2628 66.3005 29.1852 66.3005 29.1299C66.3005 29.0635 66.4887 29.0192 66.7212 29.0192C67.2637 29.0192 68.2048 28.5652 68.4816 28.1777C68.6034 28.0006 68.7584 27.6905 68.8249 27.4802C68.9909 26.993 69.002 22.2653 68.8359 21.6563C68.6477 20.9588 68.2159 20.4163 67.5959 20.1063C67.0423 19.8295 66.9869 19.8295 64.54 19.8295C62.7021 19.8405 61.927 19.8848 61.606 19.9955Z" fill="#5D5D75"/>
<path d="M71.1758 29.5731V39.3164L73.0913 39.2943L74.9957 39.261L75.0178 30.7357L75.0399 22.2103L75.6489 22.1771L76.2689 22.1438V30.7357V39.3164H78.2065H80.1441V29.5731V19.8298H75.66H71.1758V29.5731Z" fill="#5D5D75"/>
<path d="M82.4695 29.5731V39.3164H84.4071H86.3447V36.0059V32.6954L88.0387 32.6511C89.7105 32.6179 89.7437 32.6068 90.2863 32.2857C90.9395 31.8761 91.2717 31.3225 91.4377 30.3481C91.626 29.3074 91.5374 22.0221 91.3381 21.4906C91.0834 20.8374 90.6627 20.3723 90.0648 20.0955C89.5112 19.8409 89.4559 19.8298 85.9904 19.8298H82.4695V29.5731ZM87.4076 22.3874C87.6069 22.6089 87.6179 22.8635 87.6511 26.1851C87.6733 28.1338 87.6511 29.8499 87.6179 29.9828C87.5294 30.3703 87.2415 30.5696 86.7765 30.5696H86.3447V26.3623V22.1549H86.7654C87.0643 22.1549 87.2636 22.2324 87.4076 22.3874Z" fill="#5D5D75"/>
<path d="M95.143 19.9735C94.5562 20.206 94.2461 20.4828 93.914 21.0807L93.5929 21.6565V29.5729V37.4893L93.8365 37.9433C94.1576 38.5412 94.7554 39.0615 95.3201 39.2055C95.608 39.283 96.682 39.3162 98.2874 39.294C100.568 39.2608 100.823 39.2387 101.177 39.0394C101.742 38.6962 102.251 37.9765 102.395 37.29C102.473 36.8804 102.506 34.3892 102.484 29.2297C102.45 21.0032 102.473 21.3354 101.753 20.5603C101.122 19.885 100.834 19.8296 98.0217 19.8407C96.3498 19.8407 95.3644 19.896 95.143 19.9735ZM98.4535 22.3319C98.6085 22.4869 98.6306 23.284 98.6306 29.5175C98.6306 37.1572 98.6528 36.8804 98.0217 36.8804C97.3906 36.8804 97.4127 37.1572 97.4127 29.5175C97.4127 21.8779 97.3906 22.1547 98.0217 22.1547C98.1656 22.1547 98.3649 22.2322 98.4535 22.3319Z" fill="#5D5D75"/>
<path d="M104.611 29.5731V39.3164H106.549H108.486V33.1715C108.486 29.1524 108.52 27.0266 108.597 27.0266C108.664 27.0266 108.708 27.0819 108.708 27.1484C108.708 27.2923 110.568 38.6853 110.645 39.0618C110.701 39.3164 110.734 39.3164 112.251 39.3164H113.79L113.856 38.951C113.889 38.7628 114.31 36.1498 114.797 33.1715C115.285 30.1821 115.705 27.5802 115.738 27.3809C115.772 27.1926 115.849 27.0266 115.905 27.0266C115.971 27.0266 116.015 29.3406 116.015 33.1715V39.3164H117.953H119.89V29.5731V19.8298H117.355H114.808L114.698 20.4056C114.631 20.7266 114.399 21.9667 114.188 23.1514C112.982 29.7945 112.339 33.1936 112.284 33.3376C112.251 33.4261 112.151 33.1826 112.074 32.784C111.897 31.9314 109.992 21.6456 109.815 20.5716L109.682 19.8298H107.147H104.611V29.5731Z" fill="#5D5D75"/>
<path d="M41.0595 48.1736V54.2632H80.4756H119.892V48.1736V42.0841H80.4756H41.0595V48.1736ZM54.4565 45.1621C55.3423 45.6049 55.5969 47.0332 54.8994 47.6975L54.5783 47.9965L54.8994 48.1847C55.3423 48.4615 55.4862 48.7937 55.4973 49.5576C55.5194 50.7755 54.8441 51.3845 53.5044 51.3845C52.6629 51.3845 52.065 51.0634 51.7882 50.4655C51.6775 50.2109 51.5778 49.8676 51.5778 49.6905C51.5778 49.3915 51.5889 49.3915 52.2975 49.3915C52.9508 49.3915 53.0172 49.4137 53.0172 49.624C53.0172 49.9673 53.2276 50.2773 53.4601 50.2773C53.7922 50.2773 54.058 49.7901 53.9804 49.3251C53.8919 48.8269 53.7258 48.6165 53.3936 48.6165C53.1501 48.6165 53.1279 48.5722 53.1279 48.074C53.1279 47.5757 53.1501 47.5315 53.4269 47.4539C53.7922 47.3654 53.9029 47.2214 53.9029 46.8118C53.9029 46.391 53.7147 46.07 53.4822 46.07C53.1943 46.07 53.0172 46.2914 53.0172 46.6457C53.0172 46.9557 53.0172 46.9557 52.2864 46.9557H51.5446L51.6111 46.4907C51.6775 45.9592 51.9432 45.5606 52.4636 45.2063C52.9286 44.8963 53.8808 44.8742 54.4565 45.1621ZM59.4389 45.1953C60.2029 45.6271 60.2693 45.8596 60.2693 48.1183C60.2693 50.3105 60.2029 50.5873 59.5164 51.0966C59.0292 51.4509 57.767 51.4841 57.1138 51.1409C56.3388 50.7423 56.2834 50.5541 56.2834 48.1183C56.2834 46.1253 56.2945 45.9925 56.527 45.6714C56.8924 45.1731 57.3795 44.9628 58.2653 44.9628C58.83 44.9628 59.1289 45.0181 59.4389 45.1953ZM97.5263 45.1621C97.7367 45.2617 98.0246 45.5164 98.1574 45.7267C98.401 46.081 98.4121 46.2028 98.4121 48.1072C98.4121 50.3105 98.3346 50.6427 97.7146 51.0966C97.4488 51.2959 97.2385 51.3291 96.4191 51.3291C95.5998 51.3291 95.3895 51.2959 95.1237 51.0966C94.5037 50.6427 94.4262 50.3105 94.4262 48.1072C94.4262 46.2028 94.4373 46.081 94.6809 45.7267C95.0352 45.1953 95.5555 44.9628 96.4191 44.9628C96.8842 44.9628 97.2717 45.0292 97.5263 45.1621ZM46.9276 45.6824V46.2914H45.9312H44.9347V48.7826V51.2738H44.1596H43.3846V48.1736V45.0735H45.1561H46.9276V45.6824ZM49.9503 45.3171C50.0278 45.5939 51.0685 50.3437 51.1903 50.9084L51.2678 51.2738H50.4928H49.7178L49.6403 50.6648L49.5738 50.0559H49.0313C48.4445 50.0559 48.4556 50.0559 48.3116 50.853L48.2452 51.2738H47.4702C46.7837 51.2738 46.6951 51.2516 46.7505 51.0745C46.8058 50.8973 47.6805 46.9557 47.9462 45.6492L48.068 45.0735H48.9759C49.8395 45.0735 49.8949 45.0846 49.9503 45.3171ZM62.6498 46.236V47.3986H63.0926H63.5355V46.236V45.0735H64.3106H65.0856V48.1736V51.2738H64.3106H63.5355V49.9451V48.6165H63.0926H62.6498V49.9451V51.2738H61.8747H61.0997V48.1736V45.0735H61.8747H62.6498V46.236ZM69.4036 45.6824V46.2914H68.4072H67.4107V46.845V47.3986H68.2964H69.1822V48.0075V48.6054L68.3297 48.6386L67.4661 48.6719L67.4328 49.3583L67.3996 50.0559H68.4072H69.4036V50.6648V51.2738H67.6321H65.8606V48.1736V45.0735H67.6321H69.4036V45.6824ZM73.8324 45.3392C73.8324 45.5606 73.8988 45.6049 74.3749 45.6603C75.161 45.7489 75.5486 45.9925 75.9029 46.5903C76.1686 47.0554 76.2018 47.2214 76.2129 48.1183C76.2129 48.9819 76.1797 49.1812 75.9361 49.6019C75.5486 50.2773 75.1832 50.5209 74.4414 50.5873C73.8546 50.6316 73.8324 50.6537 73.8324 50.9527C73.8324 51.2738 73.8324 51.2738 73.1127 51.2738H72.3931V50.9416C72.3931 50.6316 72.3709 50.6094 71.9502 50.6094C70.6105 50.6094 69.8354 49.4801 69.9905 47.764C70.0901 46.8007 70.4223 46.2028 71.0644 45.8707C71.3302 45.7378 71.7398 45.6271 71.9723 45.6271C72.3488 45.6271 72.3931 45.5939 72.3931 45.3503C72.3931 45.0846 72.4152 45.0735 73.1127 45.0735C73.7992 45.0735 73.8324 45.0846 73.8324 45.3392ZM80.1434 45.6824V46.2914H79.5898H79.0362V48.7826V51.2738H78.3165H77.5969V48.7826V46.2914H77.0433H76.4897V45.6824V45.0735H78.3165H80.1434V45.6824ZM84.24 45.6824V46.2914H83.2435H82.2471V46.845V47.3986H83.1328H84.0186V48.0075V48.6165H83.1328H82.2471V49.3362V50.0559H83.2435H84.24V50.6648V51.2738H82.4685H80.697V48.1736V45.0735H82.4685H84.24V45.6824ZM88.8902 48.1736L88.8681 51.2738H88.082H87.2848V48.8047V46.3468L86.8198 46.3135L86.3437 46.2803V48.7715V51.2738H85.5687H84.7936V48.1736V45.0735H86.8419H88.9013L88.8902 48.1736ZM92.8651 45.2728C93.4076 45.5606 93.6512 46.081 93.6512 46.9557C93.6512 48.2511 93.0865 48.8379 91.8575 48.8379H91.2153V50.0559V51.2738H90.4403H89.6653V48.1736V45.0735H91.0825C92.234 45.0735 92.555 45.1067 92.8651 45.2728ZM103.727 47.5647C103.727 49.7015 103.749 50.0559 103.893 50.0559C104.026 50.0559 104.059 50.2662 104.059 51.2738V52.4917H103.284H102.509V51.8827V51.2738H101.512H100.516V51.8827V52.4917H99.7407H98.9657V51.2738C98.9657 50.4877 99.01 50.0559 99.0875 50.0559C99.1428 50.0559 99.3089 49.8233 99.4418 49.5244C99.6411 49.0704 99.6854 48.7494 99.7186 47.0332L99.7629 45.0735H101.745H103.727V47.5647ZM106.207 46.4796C106.362 47.2657 106.506 48.0408 106.506 48.229C106.506 48.4061 106.583 48.1847 106.672 47.7307C106.76 47.2768 106.915 46.5018 107.026 46.0146L107.214 45.1288L108.034 45.0956C108.775 45.0624 108.842 45.0846 108.786 45.2617C108.764 45.3724 108.432 46.5461 108.056 47.8747C107.325 50.4766 107.181 50.853 106.794 51.0966C106.461 51.307 105.731 51.4066 105.332 51.2959C105.022 51.2073 105 51.1741 105 50.6537C105 50.1444 105.011 50.1112 105.332 50.0559C105.52 50.0116 105.653 49.9451 105.653 49.8787C105.631 49.7791 104.978 47.4207 104.513 45.8153L104.291 45.0735H105.1H105.908L106.207 46.4796ZM110.813 46.2028L110.824 47.3432L111.289 46.2028L111.754 45.0735H112.606H113.47L112.795 46.4353L112.108 47.7972L112.562 48.9597C112.806 49.5908 113.105 50.3769 113.237 50.687L113.47 51.2738H112.651H111.831L111.521 50.2773C111.355 49.7237 111.189 49.2808 111.145 49.2808C110.968 49.2808 110.813 49.8898 110.813 50.5541V51.2738H110.093H109.373V48.1736V45.0735H110.093H110.813V46.2028ZM117.345 45.6824V46.2914H116.847C116.57 46.2914 116.349 46.3246 116.349 46.3689C116.349 46.4243 116.338 47.5425 116.338 48.8601V51.2738H115.618H114.909V48.7826V46.2914H114.3H113.691V45.6824V45.0735H115.518H117.345V45.6824Z" fill="#5D5D75"/>
<path d="M57.941 46.2471C57.7971 46.391 57.7749 46.69 57.7971 48.1957C57.8303 49.8787 57.8414 49.9783 58.0739 50.1333C58.2842 50.2773 58.3396 50.2662 58.5389 50.0669C58.7493 49.8565 58.7714 49.7015 58.7714 48.1404C58.7714 46.6346 58.7493 46.4132 58.5721 46.2582C58.3175 46.0256 58.1735 46.0256 57.941 46.2471Z" fill="#5D5D75"/>
<path d="M96.1751 46.1918C95.9979 46.2915 95.9758 46.5129 95.9758 48.1737C95.9758 49.8456 95.9979 50.0559 96.1751 50.1445C96.2747 50.2109 96.474 50.2109 96.6179 50.1556C96.8615 50.067 96.8615 50.0338 96.8615 48.1848C96.8615 46.4354 96.8505 46.2915 96.6512 46.1807C96.3965 46.0479 96.4076 46.0479 96.1751 46.1918Z" fill="#5D5D75"/>
<path d="M48.8203 47.4539C48.7428 47.9964 48.6542 48.5389 48.632 48.6386C48.5878 48.8047 48.6431 48.8379 48.9531 48.8379H49.3296L49.1856 47.9189C49.1081 47.4207 49.0306 46.8892 49.0085 46.7342C48.9863 46.5792 48.8978 46.9003 48.8203 47.4539Z" fill="#5D5D75"/>
<path d="M71.5621 47.1769C71.3628 47.5644 71.3407 48.6716 71.54 49.0591C71.6396 49.2473 71.7836 49.347 72.0382 49.3691L72.3925 49.4023V48.1291V46.8447H72.0604C71.8057 46.8447 71.695 46.9222 71.5621 47.1769Z" fill="#5D5D75"/>
<path d="M73.829 48.1183C73.829 49.3695 73.829 49.3916 74.0837 49.3916C74.3937 49.3916 74.5376 49.292 74.7037 48.9819C74.8809 48.6498 74.8587 47.6865 74.6705 47.2326C74.5266 46.9115 74.4491 46.8451 74.1723 46.8451H73.829V48.1183Z" fill="#5D5D75"/>
<path d="M91.215 46.9559C91.215 47.6202 91.2372 47.731 91.4143 47.731C91.8129 47.731 92.1008 47.4099 92.1008 46.9559C92.1008 46.502 91.8129 46.1809 91.4143 46.1809C91.2372 46.1809 91.215 46.2916 91.215 46.9559Z" fill="#5D5D75"/>
<path d="M101.257 47.642C101.201 48.882 101.135 49.2917 100.902 49.8564C100.836 50.0335 100.902 50.0557 101.5 50.0557H102.176V48.1734V46.2912H101.744H101.323L101.257 47.642Z" fill="#5D5D75"/>
<path d="M54.7996 56.8872C54.6556 56.9204 54.3235 57.1529 54.0578 57.4186C53.3713 58.1162 53.1942 58.7915 53.1942 60.6848C53.1942 62.2792 53.3049 62.8882 53.7367 63.5635C54.3899 64.6043 56.1946 64.7261 57.1247 63.796C57.7226 63.1982 57.8333 62.6999 57.8333 60.5741C57.8333 58.9023 57.8111 58.703 57.5786 58.1937C57.4458 57.8947 57.2465 57.5515 57.1358 57.4297C56.6929 56.9425 55.7296 56.71 54.7996 56.8872ZM56.4604 57.8726C56.9475 58.3487 57.1136 59.0573 57.1136 60.7291C57.1025 62.8882 56.7704 63.6189 55.7186 63.7407C55.176 63.8071 54.5892 63.5193 54.3124 63.0432C53.8142 62.1795 53.8142 59.0794 54.3124 58.2158C54.7664 57.4408 55.8293 57.2747 56.4604 57.8726Z" fill="#5D5D75"/>
<path d="M41.1807 56.9981C41.2029 57.0534 41.6347 57.8395 42.144 58.7585C42.6422 59.6775 43.0519 60.4746 43.0519 60.5189C43.0519 60.5632 42.6311 61.3936 42.1108 62.3679C41.5904 63.3423 41.1696 64.1616 41.1696 64.1837C41.1696 64.2059 41.3468 64.228 41.5572 64.228C41.9336 64.228 41.9447 64.217 42.7197 62.7333C43.1626 61.914 43.5501 61.2608 43.5833 61.2829C43.6276 61.305 43.9819 61.9804 44.3805 62.7776L45.0891 64.228H45.5209C45.7534 64.228 45.9306 64.1837 45.9084 64.1395C45.8974 64.0841 45.4545 63.2537 44.9452 62.2904L44.0151 60.5521L44.3584 59.8657C44.5466 59.5003 44.9784 58.681 45.3216 58.0499L45.9416 56.9206H45.5541C45.1113 56.9206 45.1888 56.8209 44.303 58.4706C43.9266 59.1682 43.5833 59.7328 43.539 59.7218C43.4948 59.7107 43.1294 59.0907 42.7197 58.3378C41.989 56.9981 41.9779 56.9759 41.5682 56.9427C41.3357 56.9206 41.1586 56.9427 41.1807 56.9981Z" fill="#5D5D75"/>
<path d="M66.3888 59.8215C66.3556 62.4566 66.3335 62.7777 66.1342 63.1763C65.9681 63.5085 65.8352 63.6303 65.6138 63.6524C65.3481 63.6856 65.3038 63.741 65.3038 64.0178C65.3038 64.3057 65.337 64.3389 65.6913 64.3389C66.256 64.3389 66.721 63.8738 66.9313 63.121C67.0421 62.7113 67.1196 61.7259 67.1528 60.043L67.2192 57.5739L68.4482 57.6071L69.6772 57.6404L69.7104 60.9287L69.7325 64.2281H70.0647H70.3969V60.5744V56.9207H68.415H66.4331L66.3888 59.8215Z" fill="#5D5D75"/>
<path d="M79.257 58.9356C79.257 61.15 79.1685 61.9583 78.8031 62.9215C78.6038 63.453 78.5263 63.5637 78.3048 63.5637C78.0391 63.5637 78.0391 63.5748 78.0391 64.7816V65.9995H78.3713H78.7034V65.1138V64.228H80.8625H83.0215V65.1138V65.9995H83.3536H83.6858V64.7816V63.5637H83.409H83.1322V60.2421V56.9205H81.1946H79.257V58.9356ZM82.3572 60.5743V63.5637H80.8625C80.0431 63.5637 79.3678 63.5415 79.3678 63.5083C79.3678 63.4751 79.4453 63.2647 79.5338 63.0433C79.8328 62.3347 80.0321 60.8179 80.0321 59.2456C80.0321 58.4152 80.0653 57.6956 80.1096 57.6624C80.1428 57.6181 80.6742 57.5848 81.2721 57.5848H82.3572V60.5743Z" fill="#5D5D75"/>
<path d="M91.3251 60.5745V64.2393L91.8898 64.206L92.4545 64.1728L93.6502 61.128C94.3146 59.4562 94.9014 57.9061 94.9567 57.6958C95.0342 57.419 95.0674 58.3268 95.0785 60.7627L95.0896 64.2282H95.4771H95.8646V60.5745V56.9207H95.2889H94.7021L93.5174 59.9434C92.8752 61.5931 92.2884 63.1431 92.2109 63.3646C92.1445 63.5971 92.078 63.7853 92.067 63.7853C92.0559 63.7853 92.0448 62.2574 92.0448 60.3862V56.9761L91.6905 56.9429L91.3251 56.9096V60.5745Z" fill="#5D5D75"/>
<path d="M103.945 60.5743V64.228H104.333H104.72V62.5119V60.7957H106.16H107.599V62.5119V64.228H107.987H108.374V60.5743V56.9206H107.987H107.61L107.577 58.4928L107.544 60.0761L106.138 60.1093L104.72 60.1425V58.526V56.9206H104.333H103.945V60.5743Z" fill="#5D5D75"/>
<path d="M116.46 60.5743V64.228H116.848H117.235V60.9064V57.5849H118.564H119.893V57.2527V56.9206H118.177H116.46V60.5743Z" fill="#5D5D75"/>
</svg>
