<svg width="62" height="29" viewBox="0 0 62 29" fill="none" xmlns="http://www.w3.org/2000/svg">
<path fill-rule="evenodd" clip-rule="evenodd" d="M0 5.76121V9.45322H4.21634V28.8231H7.90765V5.76121H0ZM13.6685 28.8231H9.82924V3.84138H4.21634V0.000391006H13.6685V28.8231ZM32.8909 19.0336C32.6149 19.0336 31.1632 19.0238 30.8944 18.9995C30.4411 18.9616 29.7825 18.8937 29.3594 18.796C28.8818 18.6678 28.4334 18.5001 28.2306 18.3888C26.8134 17.6216 25.8483 16.1221 25.8483 14.3948C25.8483 11.8833 27.8828 9.84852 30.3954 9.84852C32.8557 9.84852 34.8553 11.8063 34.935 14.248H38.6007C38.5234 9.78069 34.8823 6.18152 30.3954 6.18152C25.8586 6.18152 22.1806 9.86049 22.1806 14.3948C22.1806 17.5946 24.0133 20.3591 26.684 21.7128C27.0941 21.9536 27.8683 22.2066 28.0887 22.2639C28.8418 22.4631 29.8549 22.5977 30.6761 22.6592C30.9819 22.6838 32.4684 22.695 32.7829 22.6968V22.7004H62V19.0336H32.8909ZM30.6761 24.9987C29.5351 24.9231 28.2155 24.7256 27.1778 24.4223C26.9831 24.366 26.1773 24.0716 25.9717 23.977C22.3545 22.299 19.8338 18.6393 19.8338 14.3948C19.8338 8.57257 24.5709 3.83401 30.3954 3.83401C36.1678 3.83401 40.8716 8.49277 40.9513 14.248H44.7663C44.6873 6.39059 38.2718 0.0210838 30.3954 0.0210838C22.4698 0.0210838 16.0212 6.47003 16.0212 14.3948C16.0212 19.8608 19.0927 24.6138 23.5933 27.045C24.4058 27.4744 25.5721 27.9182 25.9675 28.0366C27.2509 28.4215 28.8228 28.6738 30.2257 28.7817C30.7015 28.8168 32.362 28.8361 32.8476 28.8379H62V25.0345H32.8909C32.5422 25.0345 31.0174 25.0232 30.6761 24.9987Z" fill="#D91920"/>
<path fill-rule="evenodd" clip-rule="evenodd" d="M52.3303 4.87744C51.1875 4.87744 50.2036 3.98068 50.2036 2.75493C50.2036 1.5917 51.1875 0.671016 52.3303 0.671016C53.4735 0.671016 54.4533 1.5917 54.4533 2.75493C54.4533 3.98068 53.4735 4.87744 52.3303 4.87744ZM52.3303 0.26789C50.9468 0.26789 49.8022 1.37066 49.8022 2.75493C49.8022 4.13875 50.9468 5.28516 52.3303 5.28516C53.7564 5.28516 54.8592 4.13875 54.8592 2.75493C54.8592 1.37066 53.7564 0.26789 52.3303 0.26789Z" fill="#D91920"/>
<path fill-rule="evenodd" clip-rule="evenodd" d="M52.4512 2.61609H51.9093V1.8335H52.3724C52.694 1.8335 52.9137 1.93327 52.9137 2.23483C52.9137 2.39361 52.8346 2.61609 52.4512 2.61609ZM53.2946 3.43836C53.2946 3.15722 53.2553 2.89723 52.9337 2.7971C53.3353 2.65576 53.3736 2.39361 53.3736 2.23483C53.3736 1.5924 52.7924 1.51125 52.5516 1.51125H51.4482V4H51.9093V2.97631H52.2705C52.7924 2.97631 52.8346 3.21732 52.8346 3.43836C52.8346 3.86047 52.8346 3.94161 52.9337 4H53.3951C53.2946 3.9005 53.3353 3.8207 53.2946 3.43836Z" fill="#D91920"/>
</svg>
