<svg width="115" height="29" viewBox="0 0 115 29" fill="none" xmlns="http://www.w3.org/2000/svg">
<path d="M49.7692 8.34466C49.2445 7.64511 48.545 7.09546 47.6456 6.72071C46.7461 6.32096 45.6219 6.12109 44.2727 6.12109C43.923 6.12109 43.5232 6.12109 43.0735 6.14608C43.0735 6.14608 42.9486 6.14608 42.7237 6.17106C42.399 6.17106 42.0991 6.19604 41.7993 6.22103C41.3746 6.24601 40.9999 6.271 40.6751 6.29598C40.4502 6.32096 40.2503 6.34595 40.1254 6.34595C39.1011 6.44588 38.0018 6.54582 37.3022 6.72071V9.49392C37.3022 9.49392 38.5514 9.29404 40.0005 9.16912V21.736C40.2004 21.761 40.4502 21.786 40.825 21.811C41.1747 21.8359 41.5495 21.8609 41.9243 21.8859C42.299 21.9109 42.6738 21.9359 43.0485 21.9359C43.4233 21.9609 43.7231 21.9609 43.948 21.9609C45.422 21.9609 46.6462 21.736 47.5706 21.2613C48.52 20.8116 49.2445 20.187 49.7942 19.4375C50.3188 18.688 50.6936 17.8135 50.8935 16.8642C51.0684 15.8898 51.1683 14.8904 51.1683 13.8911C51.1683 12.7668 51.0684 11.7425 50.8685 10.8181C50.6686 9.84369 50.2939 9.04421 49.7692 8.34466ZM47.8954 15.8148C47.8205 16.4644 47.6706 17.039 47.4207 17.5387C47.1709 18.0634 46.7961 18.4631 46.2964 18.7879C45.7968 19.1127 45.1222 19.2626 44.2727 19.2626C44.1978 19.2626 44.0979 19.2626 43.9979 19.2626C43.873 19.2626 43.7481 19.2376 43.6481 19.2376C43.5232 19.2376 43.3983 19.2126 43.2734 19.2126C43.1485 19.2126 43.0735 19.1877 42.9986 19.1877V8.86932C43.1235 8.84434 43.3234 8.84434 43.5982 8.81935C43.873 8.79437 44.1228 8.79437 44.4226 8.79437C45.2471 8.79437 45.9217 8.94427 46.3964 9.26906C46.8711 9.59385 47.2458 9.99359 47.4957 10.4933C47.7455 10.9929 47.8954 11.5426 47.9454 12.1422C48.0203 12.7418 48.0453 13.3164 48.0453 13.8661C48.0203 14.5157 47.9704 15.1653 47.8954 15.8148Z" fill="#1D1D1B"/>
<path d="M62.436 11.3923C61.9363 11.0426 61.3867 10.7927 60.8121 10.6428C60.2124 10.4929 59.6378 10.418 59.0882 10.418C58.2637 10.418 57.4892 10.5429 56.7647 10.7927C56.0401 11.0426 55.4155 11.3923 54.8909 11.892C54.3662 12.3667 53.9415 12.9913 53.6167 13.7158C53.3169 14.4404 53.167 15.2898 53.167 16.2642C53.167 17.1636 53.2919 17.9881 53.5667 18.6876C53.8416 19.3872 54.2413 20.0118 54.741 20.5115C55.2656 21.0111 55.8902 21.4109 56.6148 21.6607C57.3643 21.9355 58.1887 22.0605 59.1381 22.0605C59.6878 22.0605 60.1875 22.0105 60.6871 21.9355C61.1618 21.8356 61.6115 21.7357 62.0113 21.5858C62.411 21.4359 62.7608 21.286 63.0606 21.1111C63.3604 20.9362 63.6102 20.7613 63.7851 20.5864L62.8358 18.7126C62.486 19.0124 62.0363 19.2623 61.4616 19.4621C60.887 19.662 60.1875 19.7619 59.288 19.7619C58.8383 19.7619 58.4386 19.712 58.0388 19.612C57.6391 19.5121 57.3143 19.3622 57.0145 19.1623C56.7147 18.9625 56.4649 18.6876 56.29 18.3628C56.1151 18.038 56.0152 17.6383 55.9902 17.1886H63.9101C64.06 16.4641 64.1349 15.7645 64.1349 15.1399C64.1349 14.2155 63.985 13.466 63.6602 12.8664C63.3354 12.2168 62.9357 11.7421 62.436 11.3923ZM56.0651 15.065C56.0901 14.6902 56.19 14.3654 56.3649 14.0656C56.5398 13.7658 56.7647 13.516 57.0395 13.3161C57.3143 13.1162 57.6141 12.9663 57.9389 12.8664C58.2637 12.7665 58.6385 12.7165 59.0132 12.7165C59.8377 12.7165 60.4373 12.9413 60.837 13.3661C61.2368 13.7908 61.4367 14.3654 61.4367 15.09L56.0651 15.065Z" fill="#1D1D1B"/>
<path d="M75.053 15.8387C74.5283 15.5888 73.9537 15.364 73.3291 15.2141C72.7045 15.0642 72.1298 14.9143 71.6052 14.7643C71.0805 14.6144 70.6308 14.4645 70.281 14.3146C69.9313 14.1647 69.7314 13.9399 69.7314 13.69C69.7314 13.3653 69.9313 13.1154 70.306 12.9405C70.6808 12.7906 71.1805 12.6907 71.805 12.6907C72.1298 12.6907 72.4796 12.7157 72.8294 12.7906C73.1792 12.8656 73.504 12.9655 73.8287 13.0654C74.1535 13.1904 74.4533 13.3153 74.7282 13.4402C75.003 13.5901 75.2778 13.715 75.4777 13.8399L76.6769 11.8912C76.477 11.7413 76.2272 11.5914 75.9524 11.3915C75.6775 11.2166 75.3278 11.0418 74.928 10.8918C74.5283 10.7419 74.0536 10.617 73.5039 10.5171C72.9543 10.4172 72.3297 10.3672 71.6052 10.3672C70.9306 10.3672 70.306 10.4421 69.7314 10.592C69.1568 10.7419 68.6571 10.9668 68.2323 11.2416C67.8076 11.5164 67.4828 11.8662 67.233 12.2909C66.9832 12.6907 66.8582 13.1654 66.8582 13.715C66.8582 14.3646 67.0331 14.9143 67.4079 15.339C67.7577 15.7637 68.2074 16.0885 68.732 16.3633C69.2567 16.6381 69.8313 16.838 70.4559 16.9879C71.0805 17.1378 71.6551 17.2877 72.1798 17.4376C72.7045 17.5875 73.1542 17.7374 73.5039 17.9123C73.8537 18.0872 74.0536 18.3121 74.0536 18.6119C74.0536 18.9866 73.8787 19.2614 73.5539 19.4363C73.2291 19.5862 72.8044 19.6862 72.3547 19.6862C71.905 19.6862 71.4803 19.6362 71.0305 19.5113C70.5808 19.4113 70.1561 19.2614 69.7564 19.1115C69.3566 18.9616 69.0069 18.7618 68.6821 18.5619C68.3573 18.362 68.1074 18.1871 67.9325 18.0123L66.6084 20.0859C67.158 20.5856 67.9076 21.0103 68.807 21.3851C69.7314 21.7598 70.8057 21.9347 72.0799 21.9347C73.6788 21.9347 74.8781 21.6099 75.7025 20.9853C76.527 20.3607 76.9267 19.4863 76.9267 18.362C76.9267 17.7124 76.7519 17.1878 76.3771 16.788C76.0023 16.4383 75.5776 16.1135 75.053 15.8387Z" fill="#1D1D1B"/>
<path d="M89.393 11.3674C89.0682 11.0426 88.6435 10.7927 88.1688 10.6428C87.6941 10.4929 87.1944 10.418 86.6447 10.418C85.7703 10.418 85.0208 10.5929 84.3712 10.9426C83.7466 11.2924 83.2469 11.6921 82.9221 12.1668H82.8222L82.4974 10.7178H78.6499V13.1412H80.2239V21.7107H83.0721V14.5903C83.222 14.1156 83.5467 13.7408 83.9715 13.416C84.4212 13.0912 84.9209 12.9413 85.4455 12.9413C86.0701 12.9413 86.5698 13.1412 86.9695 13.541C87.3693 13.9407 87.5691 14.5903 87.5691 15.4647V21.7107H90.4173V14.8651C90.4173 14.0156 90.3174 13.2911 90.1175 12.7165C89.9926 12.1419 89.7178 11.6921 89.393 11.3674Z" fill="#1D1D1B"/>
<path d="M102.96 11.9173C102.461 11.4176 101.861 11.0179 101.136 10.7431C100.412 10.4683 99.5874 10.3184 98.663 10.3184C97.7885 10.3184 96.989 10.4433 96.2895 10.6931C95.5899 10.943 94.9653 11.3177 94.4657 11.8174C93.941 12.3171 93.5663 12.9167 93.2914 13.6412C93.0166 14.3657 92.8667 15.1902 92.8667 16.0896C92.8667 16.9641 92.9916 17.7386 93.2415 18.4631C93.4913 19.1876 93.8661 19.7872 94.3657 20.2869C94.8654 20.7866 95.465 21.1863 96.1896 21.4612C96.9141 21.736 97.7386 21.8859 98.663 21.8859C99.5374 21.8859 100.337 21.761 101.036 21.5111C101.736 21.2613 102.361 20.8865 102.86 20.3869C103.385 19.8872 103.76 19.2876 104.034 18.563C104.309 17.8385 104.459 17.014 104.459 16.1146C104.459 15.2402 104.334 14.4657 104.084 13.7411C103.835 13.0166 103.46 12.417 102.96 11.9173ZM100.737 18.688C100.212 19.2376 99.5124 19.5124 98.663 19.5124C98.2132 19.5124 97.8135 19.4375 97.4637 19.2626C97.114 19.0877 96.8142 18.8628 96.5643 18.5381C96.3145 18.2382 96.1146 17.8635 95.9897 17.4637C95.8648 17.064 95.7898 16.6143 95.7898 16.1146C95.7898 15.515 95.8648 14.9903 96.0147 14.5656C96.1646 14.1409 96.3644 13.7911 96.6143 13.5163C96.8641 13.2415 97.1639 13.0416 97.5137 12.9167C97.8635 12.7918 98.2382 12.7418 98.663 12.7418C99.5874 12.7418 100.287 13.0416 100.787 13.6662C101.286 14.2908 101.536 15.1153 101.536 16.1146C101.536 17.2889 101.286 18.1383 100.737 18.688Z" fill="#1D1D1B"/>
<path d="M113.951 18.9372C113.651 19.1121 113.376 19.237 113.076 19.3369C112.777 19.4368 112.402 19.4868 111.952 19.4868C111.328 19.4868 110.903 19.262 110.603 18.8372C110.328 18.3875 110.178 17.613 110.178 16.4887V6.32031H105.506V8.74375H107.33V17.9628C107.33 19.262 107.68 20.2363 108.355 20.9609C109.054 21.6604 110.078 22.0102 111.453 22.0102C111.852 22.0102 112.227 21.9852 112.552 21.9352C112.877 21.8853 113.176 21.8103 113.451 21.7104C113.726 21.6104 114.001 21.5105 114.251 21.3606C114.501 21.2107 114.75 21.0608 115 20.9109L113.951 18.9372Z" fill="#1D1D1B"/>
<path d="M5.04674 14.5145L2.9481 16.6131C2.74823 16.813 2.44842 16.813 2.24855 16.6131L0.149903 14.5145C-0.0499677 14.3146 -0.0499677 14.0148 0.149903 13.815L2.24855 11.7163C2.44842 11.5164 2.74823 11.5164 2.9481 11.7163L5.04674 13.815C5.22163 14.0148 5.22163 14.3146 5.04674 14.5145Z" fill="#1ED760"/>
<path d="M22.5618 13.8161L11.6938 2.9481C11.494 2.74823 11.494 2.44842 11.6938 2.24855L13.7925 0.149903C13.9924 -0.0499677 14.2922 -0.0499677 14.492 0.149903L28.1832 13.8161C28.3831 14.0159 28.3831 14.3158 28.1832 14.5156L14.492 28.2068C14.2922 28.4067 13.9924 28.4067 13.7925 28.2068L11.6938 26.1081C11.494 25.9083 11.494 25.6085 11.6938 25.4086L22.5618 14.5406C22.7617 14.3158 22.7617 14.0159 22.5618 13.8161Z" fill="#1ED760"/>
<path d="M10.9927 13.8167L5.896 8.74497C5.69613 8.5451 5.69613 8.24529 5.896 8.04542L7.99464 5.94678C8.19451 5.74691 8.49432 5.74691 8.69419 5.94678L16.5891 13.8417C16.789 14.0416 16.789 14.3414 16.5891 14.5412L8.69419 22.4361C8.49432 22.636 8.19451 22.636 7.99464 22.4361L5.896 20.3375C5.69613 20.1376 5.69613 19.8378 5.896 19.6379L10.9677 14.5662C11.1926 14.3164 11.1926 14.0166 10.9927 13.8167Z" fill="#1ED760"/>
</svg>
