<svg width="115" height="19" viewBox="0 0 115 19" fill="none" xmlns="http://www.w3.org/2000/svg">
<path d="M28.7461 18.4831C28.5183 18.4555 28.0281 18.3312 27.6621 18.207C25.4114 17.482 23.6715 15.6179 23.0087 13.2291C22.7878 12.4351 22.7049 10.8885 22.8361 9.99791C23.2504 7.1603 25.3285 4.81978 28.0833 4.07413C28.6771 3.91533 28.8704 3.89462 29.9543 3.90152C30.9692 3.90152 31.2523 3.92224 31.7149 4.04651C32.861 4.3572 34.442 5.31688 34.7734 5.91754C35.0151 6.3456 35.0496 6.85651 34.8632 7.27767C34.663 7.71953 34.4835 7.91285 34.0623 8.10617C33.4409 8.40305 32.861 8.29258 32.1775 7.76096C31.5768 7.29838 31.128 7.10506 30.4721 7.01531C28.2352 6.72533 26.3296 8.27187 26.0189 10.6331C25.8463 11.9311 26.2399 13.2084 27.1029 14.1473C27.9107 15.0172 28.7323 15.3832 29.8784 15.3832C30.7 15.3832 31.418 15.1553 32.1499 14.6651C32.8196 14.2233 33.0888 14.1197 33.5169 14.1542C34.4973 14.2371 35.1325 15.1968 34.8563 16.1979C34.6216 17.0885 32.8403 18.1448 31.0659 18.4555C30.4445 18.566 29.4158 18.5798 28.7461 18.4831Z" fill="#E54724"/>
<path d="M41.3128 18.4879C38.4062 18.0322 36.1899 16.0369 35.4857 13.2338C35.0507 11.5008 35.2164 9.40888 35.9138 7.91068C37.1496 5.23876 39.7801 3.71984 42.9353 3.87173C45.1308 3.9822 46.9674 4.86593 48.2239 6.44009C49.515 8.04876 50.0673 10.2305 49.7428 12.4122C49.2733 15.5122 47.2159 17.7353 44.2195 18.3912C43.6395 18.5224 41.8997 18.5776 41.3128 18.4879ZM43.7086 15.2705C44.3714 15.0703 44.979 14.7044 45.4484 14.2073C47.4852 12.0394 46.6981 8.17303 44.0193 7.23407C42.4382 6.67483 40.7674 7.03385 39.6558 8.15923C37.6881 10.1407 38.2336 13.793 40.6707 14.9944C41.5614 15.4362 42.7627 15.5467 43.7086 15.2705Z" fill="#E54724"/>
<path d="M96.167 18.5169C94.3857 18.1855 93.1844 17.5917 92.0866 16.4939C91.1891 15.5895 90.5263 14.4227 90.181 13.1385C90.0153 12.5102 89.9946 12.3376 89.9946 11.2053C89.9946 10.08 90.0153 9.90045 90.181 9.27217C90.5746 7.78777 91.4997 6.33789 92.6458 5.41964C93.3639 4.83969 94.51 4.25974 95.373 4.04571C96.2498 3.82477 98.0725 3.82477 98.8941 4.05261C99.8883 4.32187 101.103 4.98467 101.725 5.60605C102.029 5.91674 102.174 6.28266 102.174 6.75905C102.167 7.80848 100.958 8.58175 99.9988 8.13988C99.8469 8.07084 99.481 7.843 99.1772 7.62207C98.4868 7.13187 98.0794 7.0076 97.1335 7.00069C96.5536 7.00069 96.312 7.02831 95.946 7.15259C94.6826 7.58755 93.6469 8.73364 93.3017 10.1007C93.1706 10.6323 93.1706 11.7784 93.3017 12.31C93.6677 13.7461 94.8759 15.0095 96.167 15.3064C96.3396 15.3478 96.74 15.3824 97.0645 15.3824C97.9759 15.3824 98.5489 15.189 99.5017 14.5677C100.116 14.1672 100.503 14.0706 101 14.2018C102.277 14.5401 102.512 16.2523 101.393 17.0877C100.089 18.0612 98.8941 18.4823 97.2716 18.5238C96.7607 18.5376 96.2636 18.5376 96.167 18.5169Z" fill="#E54724"/>
<path d="M52.4287 18.3561C52.1111 18.2802 51.828 18.1076 51.5864 17.8521C51.1376 17.3826 51.1514 17.6243 51.1514 11.2034C51.1514 4.78253 51.1376 5.02417 51.5864 4.55469C51.9385 4.18877 52.2975 4.02997 52.7739 4.02997C53.2848 4.03687 53.6369 4.20258 54.0166 4.62373C54.1685 4.78943 55.5218 6.5638 57.02 8.56601L59.7471 12.2045L59.7816 8.7041C59.8093 6.21859 59.8369 5.14154 59.899 5.01727C60.1199 4.52017 60.6516 4.11973 61.2108 4.02307C61.8874 3.9126 62.7366 4.4166 62.9645 5.0656C63.0473 5.28653 63.0611 6.3912 63.0611 11.2034C63.0611 16.0156 63.0473 17.1203 62.9645 17.3412C62.9161 17.4931 62.7366 17.7417 62.5709 17.9074C61.9081 18.5702 60.8311 18.5495 60.2235 17.8521C60.113 17.7279 58.7805 15.9673 57.2616 13.9513L54.4999 10.2782L54.4654 13.7096L54.4309 17.141L54.2652 17.4724C54.065 17.8797 53.706 18.1835 53.2641 18.3147C52.8982 18.4252 52.7532 18.4321 52.4287 18.3561Z" fill="#E54724"/>
<path d="M66.4155 18.3378C66.1187 18.2549 65.7666 18.0202 65.5801 17.7785C65.2211 17.3298 65.2349 17.5507 65.2349 11.1919C65.2349 5.60646 65.2418 5.25435 65.3661 4.99199C65.6423 4.38443 66.1946 4.02541 66.8574 4.03231C67.3752 4.03922 67.7411 4.21873 68.1071 4.63988C68.259 4.80558 69.5915 6.56614 71.069 8.54074C72.5534 10.5153 73.7823 12.1309 73.8168 12.1309C73.8444 12.1378 73.8652 10.6258 73.8652 8.77548C73.8652 6.61447 73.8928 5.30958 73.9411 5.14388C74.0309 4.82629 74.4175 4.37062 74.7558 4.19801C75.5705 3.79067 76.5854 4.12207 76.9651 4.92295C77.1101 5.23364 77.1101 5.26126 77.1101 11.2057C77.1101 17.1502 77.1101 17.1779 76.9651 17.4885C76.6821 18.0892 75.9295 18.4897 75.2943 18.3861C74.5763 18.2687 74.6108 18.3032 71.4832 14.14C69.8883 12.0135 68.5627 10.2737 68.5351 10.2737C68.5006 10.2737 68.4799 11.8202 68.4799 13.712V17.1502L68.3004 17.5093C68.0933 17.9304 67.7895 18.1859 67.3338 18.324C66.9679 18.4344 66.7539 18.4344 66.4155 18.3378Z" fill="#E54724"/>
<path d="M80.1989 18.311C79.9779 18.2419 79.757 18.1038 79.5637 17.9036C79.0183 17.3651 79.039 17.6413 79.0597 11.0271L79.0804 5.19993L79.2323 4.90996C79.4325 4.53713 79.826 4.21954 80.2472 4.09527C80.7443 3.94337 88.1111 3.94337 88.6013 4.08836C89.4712 4.35072 89.92 5.19303 89.6714 6.09748C89.5678 6.4634 89.0431 6.98812 88.6772 7.09168C88.4977 7.14001 87.3792 7.16762 85.3839 7.16762H82.3599V8.37585V9.58408H84.5209C86.9235 9.58408 86.9926 9.59789 87.4483 10.0743C88.2906 10.9649 87.8349 12.4286 86.6336 12.6841C86.4333 12.7255 85.4599 12.76 84.3276 12.76H82.3599V14.0028V15.2455H85.3839C87.3792 15.2455 88.4977 15.2731 88.6772 15.3215C89.0431 15.425 89.5678 15.9497 89.6714 16.3157C89.8509 16.9646 89.6438 17.6827 89.1743 18.0417C88.6772 18.4145 88.6082 18.4214 84.4035 18.4145C81.1862 18.4145 80.475 18.3938 80.1989 18.311Z" fill="#E54724"/>
<path d="M108.553 18.3223C108.125 18.1843 107.793 17.9012 107.593 17.5007L107.42 17.1486V12.1569V7.16519H105.853C104.065 7.16519 103.927 7.13067 103.471 6.62666C102.788 5.8672 103.009 4.66588 103.92 4.17568L104.21 4.02379L108.863 4.00308C114.11 3.98237 114.007 3.97546 114.518 4.47256C114.856 4.79706 115.056 5.3632 114.987 5.79816C114.891 6.39192 114.428 6.95116 113.91 7.09615C113.779 7.13757 112.992 7.16519 112.17 7.16519H110.665V12.1569C110.665 16.8448 110.651 17.1555 110.534 17.4179C110.196 18.1566 109.298 18.5709 108.553 18.3223Z" fill="#E54724"/>
<path d="M6.2944 18.4587C3.57415 17.9409 1.27506 15.9318 0.384424 13.3082C0.0185023 12.2312 -0.0160186 11.8238 0.00469396 8.97931L0.0254065 6.95639C0.0254065 5.41926 1.44988 4.00391 3.00332 4.00391H5.48882C5.97211 4.00391 6.52445 4.41816 6.52445 4.86693L6.54985 8.04725C6.58437 11.0506 6.59128 11.2853 6.71555 11.4855C6.88816 11.7755 7.20575 11.9481 7.55786 11.9481C7.7857 11.9481 7.93759 11.8929 8.22757 11.6927C8.82133 11.2853 9.38056 11.2853 9.87767 11.7065C10.1469 11.9343 10.2781 12.245 10.2781 12.6523C10.2781 13.0597 10.1538 13.2944 9.75339 13.6465C7.86855 15.3035 4.82381 14.3162 4.16791 11.8515C4.08506 11.5615 4.06435 10.9263 4.06435 8.96551V6.38585H3.52113C3.10688 6.38585 2.51091 6.73106 2.51091 7.24887L2.4902 9.15192C2.46949 11.5408 2.51091 11.9619 2.86302 12.8249C3.36012 14.047 4.36813 15.1033 5.54184 15.6211C6.21155 15.918 6.74317 16.0216 7.55096 16.0216C8.65563 16.0285 9.33914 15.8214 10.4507 15.1378C10.8304 14.9031 10.8995 14.8893 11.293 14.91C11.7694 14.9376 12.0042 15.0688 12.2596 15.4485C12.446 15.7247 12.5151 16.0561 12.4529 16.3875C12.3356 17.0158 10.8788 17.9409 9.41509 18.3207C8.55206 18.5416 7.07457 18.6037 6.2944 18.4587Z" fill="#E54724"/>
<path d="M12.8605 14.1957C12.7155 14.1059 12.4946 13.9057 12.3841 13.74C11.9767 13.16 12.1424 12.3246 12.75 11.8966C13.0055 11.7171 13.1021 11.6895 13.5164 11.6895C13.9306 11.6895 14.0273 11.7171 14.2827 11.8966C14.6694 12.1727 14.8627 12.5525 14.8627 13.0358C14.8558 13.4914 14.7039 13.7883 14.3242 14.099C14.0963 14.2785 13.9928 14.313 13.5992 14.3338C13.2195 14.3476 13.0883 14.3268 12.8605 14.1957Z" fill="#E54724"/>
<path d="M9.20872 10.3686C8.53211 9.99573 8.23523 9.24318 8.5114 8.59418C8.62877 8.32492 9.00159 7.959 9.26395 7.86234C9.87842 7.6276 10.6103 7.88305 10.9417 8.4492C11.1005 8.71846 11.1212 8.81512 11.0936 9.20175C11.0659 9.69195 10.9624 9.88526 10.5274 10.2305C10.3203 10.4031 10.2029 10.4445 9.8439 10.4583C9.54702 10.4721 9.3537 10.4445 9.20872 10.3686Z" fill="#E54724"/>
<path d="M13.286 10.3535C12.4022 9.93235 12.2296 8.79317 12.9477 8.11656C13.21 7.87491 13.4586 7.78516 13.8935 7.78516C15.2053 7.79206 15.7024 9.49739 14.6116 10.2499C14.2595 10.4985 13.6864 10.5399 13.286 10.3535Z" fill="#E54724"/>
<path d="M18.3707 10.3311C17.3764 9.8409 17.3764 8.41864 18.3707 7.91464C18.7987 7.6937 19.4339 7.74893 19.786 8.03891C20.1864 8.3565 20.3245 8.64648 20.3245 9.14358C20.3245 9.5026 20.2969 9.61306 20.1174 9.86161C19.7101 10.4347 18.9851 10.6349 18.3707 10.3311Z" fill="#E54724"/>
<path d="M9.35456 6.54147C8.81604 6.37577 8.4156 5.81653 8.40869 5.22277C8.40869 4.37356 9.2579 3.70386 10.0657 3.91098C10.763 4.09739 11.1358 4.61521 11.0875 5.34014C11.0668 5.69916 11.0254 5.82344 10.8528 6.03747C10.4799 6.50695 9.89999 6.70027 9.35456 6.54147Z" fill="#E54724"/>
<path d="M13.4279 6.54189C13.1103 6.44523 12.7789 6.15525 12.6201 5.81695C12.123 4.78132 13.0965 3.62142 14.215 3.9183C14.8225 4.084 15.3127 4.84346 15.1954 5.45103C15.0435 6.27262 14.2219 6.77663 13.4279 6.54189Z" fill="#E54724"/>
<path d="M13.4243 2.64179C12.6027 2.35182 12.2437 1.33 12.7131 0.611967C13.5555 -0.6584 15.537 0.218429 15.1641 1.69592C15.0606 2.12398 14.6256 2.55894 14.1975 2.66251C13.7971 2.76607 13.7626 2.76607 13.4243 2.64179Z" fill="#E54724"/>
</svg>
