<svg width="49" height="49" viewBox="0 0 49 49" fill="none" xmlns="http://www.w3.org/2000/svg">
<path d="M26.7273 17.8182C27.318 17.8182 27.8845 17.5835 28.3022 17.1658C28.7199 16.7481 28.9546 16.1816 28.9546 15.5909C28.9546 15.0002 28.7199 14.4337 28.3022 14.016C27.8845 13.5983 27.318 13.3636 26.7273 13.3636H20.0455C18.2739 13.3656 16.5755 14.0702 15.3229 15.3229C14.0702 16.5755 13.3656 18.2739 13.3636 20.0455V26.7273C13.3636 27.318 13.5983 27.8845 14.016 28.3022C14.4337 28.7199 15.0002 28.9546 15.5909 28.9546C16.1816 28.9546 16.7481 28.7199 17.1658 28.3022C17.5835 27.8845 17.8182 27.318 17.8182 26.7273V20.0455C17.819 19.455 18.0539 18.8889 18.4714 18.4714C18.8889 18.0539 19.455 17.819 20.0455 17.8182H26.7273Z" fill="#C4C4C4"/>
<path d="M26.7273 17.8182C27.318 17.8182 27.8845 17.5835 28.3022 17.1658C28.7199 16.7481 28.9546 16.1816 28.9546 15.5909C28.9546 15.0002 28.7199 14.4337 28.3022 14.016C27.8845 13.5983 27.318 13.3636 26.7273 13.3636H20.0455C18.2739 13.3656 16.5755 14.0702 15.3229 15.3229C14.0702 16.5755 13.3656 18.2739 13.3636 20.0455V26.7273C13.3636 27.318 13.5983 27.8845 14.016 28.3022C14.4337 28.7199 15.0002 28.9546 15.5909 28.9546C16.1816 28.9546 16.7481 28.7199 17.1658 28.3022C17.5835 27.8845 17.8182 27.318 17.8182 26.7273V20.0455C17.819 19.455 18.0539 18.8889 18.4714 18.4714C18.8889 18.0539 19.455 17.819 20.0455 17.8182H26.7273Z" fill="url(#paint0_linear_159_110)"/>
<path d="M33.4091 20.0454C32.8184 20.0454 32.2519 20.2801 31.8342 20.6978C31.4165 21.1155 31.1818 21.682 31.1818 22.2727V28.9545C31.1811 29.545 30.9462 30.111 30.5286 30.5286C30.1111 30.9461 29.545 31.181 28.9546 31.1818H22.2727C21.682 31.1818 21.1155 31.4164 20.6978 31.8341C20.2801 32.2518 20.0455 32.8183 20.0455 33.409C20.0455 33.9998 20.2801 34.5663 20.6978 34.984C21.1155 35.4017 21.682 35.6363 22.2727 35.6363H28.9546C30.7261 35.6344 32.4245 34.9298 33.6772 33.6771C34.9298 32.4244 35.6344 30.726 35.6364 28.9545V22.2727C35.6364 21.682 35.4017 21.1155 34.984 20.6978C34.5663 20.2801 33.9998 20.0454 33.4091 20.0454Z" fill="#C4C4C4"/>
<path d="M33.4091 20.0454C32.8184 20.0454 32.2519 20.2801 31.8342 20.6978C31.4165 21.1155 31.1818 21.682 31.1818 22.2727V28.9545C31.1811 29.545 30.9462 30.111 30.5286 30.5286C30.1111 30.9461 29.545 31.181 28.9546 31.1818H22.2727C21.682 31.1818 21.1155 31.4164 20.6978 31.8341C20.2801 32.2518 20.0455 32.8183 20.0455 33.409C20.0455 33.9998 20.2801 34.5663 20.6978 34.984C21.1155 35.4017 21.682 35.6363 22.2727 35.6363H28.9546C30.7261 35.6344 32.4245 34.9298 33.6772 33.6771C34.9298 32.4244 35.6344 30.726 35.6364 28.9545V22.2727C35.6364 21.682 35.4017 21.1155 34.984 20.6978C34.5663 20.2801 33.9998 20.0454 33.4091 20.0454Z" fill="url(#paint1_linear_159_110)"/>
<path d="M42.3182 13.3636H35.6364V6.68182C35.6344 4.91029 34.9298 3.21187 33.6772 1.95921C32.4245 0.706545 30.7261 0.00194548 28.9545 0H6.68182C4.91029 0.00194548 3.21187 0.706545 1.95921 1.95921C0.706545 3.21187 0.00194548 4.91029 0 6.68182V28.9545C0.00194548 30.7261 0.706545 32.4245 1.95921 33.6772C3.21187 34.9298 4.91029 35.6344 6.68182 35.6364H13.3636V42.3182C13.3656 44.0897 14.0702 45.7881 15.3228 47.0408C16.5755 48.2935 18.2739 48.9981 20.0455 49H42.3182C44.0897 48.9981 45.7881 48.2935 47.0408 47.0408C48.2935 45.7881 48.9981 44.0897 49 42.3182V20.0455C48.9981 18.2739 48.2935 16.5755 47.0408 15.3228C45.7881 14.0702 44.0897 13.3656 42.3182 13.3636ZM44.5455 42.3182C44.5447 42.9087 44.3098 43.4747 43.8923 43.8923C43.4747 44.3098 42.9087 44.5447 42.3182 44.5455H20.0455C19.455 44.5447 18.8889 44.3098 18.4714 43.8923C18.0539 43.4747 17.8189 42.9087 17.8182 42.3182V33.4091C17.8182 32.8184 17.5835 32.2519 17.1658 31.8342C16.7481 31.4165 16.1816 31.1818 15.5909 31.1818H6.68182C6.09134 31.1811 5.52527 30.9461 5.10774 30.5286C4.69022 30.1111 4.45531 29.545 4.45455 28.9545V6.68182C4.45531 6.09134 4.69022 5.52527 5.10774 5.10774C5.52527 4.69022 6.09134 4.45531 6.68182 4.45455H28.9545C29.545 4.45531 30.1111 4.69022 30.5286 5.10774C30.9461 5.52527 31.1811 6.09134 31.1818 6.68182V15.5909C31.1818 16.1816 31.4165 16.7481 31.8342 17.1658C32.2519 17.5835 32.8184 17.8182 33.4091 17.8182H42.3182C42.9087 17.8189 43.4747 18.0539 43.8923 18.4714C44.3098 18.8889 44.5447 19.455 44.5455 20.0455V42.3182Z" fill="#C4C4C4"/>
<path d="M42.3182 13.3636H35.6364V6.68182C35.6344 4.91029 34.9298 3.21187 33.6772 1.95921C32.4245 0.706545 30.7261 0.00194548 28.9545 0H6.68182C4.91029 0.00194548 3.21187 0.706545 1.95921 1.95921C0.706545 3.21187 0.00194548 4.91029 0 6.68182V28.9545C0.00194548 30.7261 0.706545 32.4245 1.95921 33.6772C3.21187 34.9298 4.91029 35.6344 6.68182 35.6364H13.3636V42.3182C13.3656 44.0897 14.0702 45.7881 15.3228 47.0408C16.5755 48.2935 18.2739 48.9981 20.0455 49H42.3182C44.0897 48.9981 45.7881 48.2935 47.0408 47.0408C48.2935 45.7881 48.9981 44.0897 49 42.3182V20.0455C48.9981 18.2739 48.2935 16.5755 47.0408 15.3228C45.7881 14.0702 44.0897 13.3656 42.3182 13.3636ZM44.5455 42.3182C44.5447 42.9087 44.3098 43.4747 43.8923 43.8923C43.4747 44.3098 42.9087 44.5447 42.3182 44.5455H20.0455C19.455 44.5447 18.8889 44.3098 18.4714 43.8923C18.0539 43.4747 17.8189 42.9087 17.8182 42.3182V33.4091C17.8182 32.8184 17.5835 32.2519 17.1658 31.8342C16.7481 31.4165 16.1816 31.1818 15.5909 31.1818H6.68182C6.09134 31.1811 5.52527 30.9461 5.10774 30.5286C4.69022 30.1111 4.45531 29.545 4.45455 28.9545V6.68182C4.45531 6.09134 4.69022 5.52527 5.10774 5.10774C5.52527 4.69022 6.09134 4.45531 6.68182 4.45455H28.9545C29.545 4.45531 30.1111 4.69022 30.5286 5.10774C30.9461 5.52527 31.1811 6.09134 31.1818 6.68182V15.5909C31.1818 16.1816 31.4165 16.7481 31.8342 17.1658C32.2519 17.5835 32.8184 17.8182 33.4091 17.8182H42.3182C42.9087 17.8189 43.4747 18.0539 43.8923 18.4714C44.3098 18.8889 44.5447 19.455 44.5455 20.0455V42.3182Z" fill="url(#paint2_linear_159_110)"/>
<defs>
<linearGradient id="paint0_linear_159_110" x1="13.3636" y1="21.1591" x2="28.9546" y2="21.1591" gradientUnits="userSpaceOnUse">
<stop stop-color="#F57F25"/>
<stop offset="1" stop-color="#D64C3F"/>
</linearGradient>
<linearGradient id="paint1_linear_159_110" x1="20.0455" y1="27.8409" x2="35.6364" y2="27.8409" gradientUnits="userSpaceOnUse">
<stop stop-color="#F57F25"/>
<stop offset="1" stop-color="#D64C3F"/>
</linearGradient>
<linearGradient id="paint2_linear_159_110" x1="0" y1="24.5" x2="49" y2="24.5" gradientUnits="userSpaceOnUse">
<stop stop-color="#F57F25"/>
<stop offset="1" stop-color="#D64C3F"/>
</linearGradient>
</defs>
</svg>
