<svg width="46" height="49" viewBox="0 0 46 49" fill="none" xmlns="http://www.w3.org/2000/svg">
<path d="M38.0273 4.55476C33.8457 1.27831 28.5478 -0.32814 23.201 0.0558495C17.8546 0.437433 12.8554 2.78345 9.20683 6.62069C5.55816 10.4554 3.53251 15.4986 3.53251 20.7345V22.4681L0.959387 25.5584H0.961799C0.0575027 26.682 -0.229504 28.1659 0.187702 29.5345C0.60731 30.903 1.68287 31.9889 3.0695 32.4435L5.97537 33.3974L5.97779 37.0649C5.98261 38.252 6.47697 39.385 7.34756 40.2118C8.21815 41.0386 9.39254 41.4884 10.6079 41.4625H16.3956V44.6023C16.4076 47.0261 18.4164 48.9858 20.8955 49H36.3293C38.8108 48.9859 40.8172 47.0261 40.8317 44.6023V42.367C40.9281 37.9081 42.0254 33.5271 44.0462 29.5274C46.0333 25.3229 46.5204 20.5909 45.4352 16.0823C44.3477 11.5763 41.7504 7.55292 38.0536 4.65371L38.0273 4.55476ZM40.6004 27.8196C38.3239 32.3492 37.1109 37.3193 37.0506 42.367V44.6023C37.0506 44.7695 36.9831 44.9297 36.8625 45.0475C36.7419 45.1652 36.578 45.2312 36.4067 45.2312H20.8958C20.5413 45.2312 20.2543 44.9509 20.2543 44.6023V39.5781C20.2398 38.5441 19.3837 37.7078 18.3251 37.6937H10.6082C10.2513 37.6937 9.96428 37.4134 9.96428 37.0648V32.0406C9.96428 31.2327 9.43615 30.5143 8.65241 30.2575L4.40812 28.8749C4.21761 28.8066 4.06568 28.6582 3.99574 28.4721C3.94751 28.2719 3.99333 28.0575 4.12597 27.895L7.13556 24.2016C7.44905 23.7918 7.58893 23.2783 7.5214 22.7695C7.48282 22.0911 7.48282 21.4128 7.5214 20.7344C7.50934 16.9091 8.82605 13.1897 11.2545 10.1892C13.6853 7.18592 17.0831 5.07778 20.8956 4.20156C22.1979 3.92362 23.5266 3.77994 24.8578 3.77523C29.4662 3.76816 33.889 5.55124 37.1517 8.7335C40.4146 11.9157 42.2473 16.2336 42.2473 20.7344C42.2135 23.1911 41.6251 25.6101 40.523 27.8196L40.6004 27.8196ZM24.7542 6.28838C22.1956 6.28838 19.743 7.28001 17.9343 9.04661C16.1257 10.8132 15.108 13.211 15.108 15.7103C15.0936 18.6782 16.526 21.4789 18.9665 23.2478V27.0166C18.9665 30.1376 21.5589 32.6697 24.7542 32.6697C27.9518 32.6697 30.5418 30.1376 30.5418 27.0166V23.196C32.9847 21.4271 34.4171 18.6288 34.4003 15.6585C34.3882 13.1688 33.3657 10.7851 31.5571 9.03039C29.7508 7.27319 27.3059 6.28838 24.7542 6.28838ZM26.6834 27.0164C26.6834 28.0552 25.8201 28.9008 24.7542 28.9008C23.6907 28.9008 22.825 28.0552 22.825 27.0164V24.9295C24.0983 25.198 25.4126 25.198 26.6834 24.9295V27.0164ZM26.0419 21.2126V18.6993L28.2292 16.5393H28.2268C28.726 16.0518 28.726 15.265 28.2268 14.7798C27.73 14.2946 26.9246 14.2946 26.4278 14.7798L24.7566 16.3886L23.0854 14.7798H23.083C22.5863 14.2946 21.7808 14.2946 21.2816 14.7798C20.7848 15.265 20.7848 16.0518 21.2816 16.5393L23.4689 18.6993V21.2126C20.5968 20.5719 18.6748 17.9267 19.0027 15.0674C19.3331 12.2079 21.8097 10.0479 24.7542 10.0479C27.7011 10.0479 30.1778 12.2079 30.5057 15.0674C30.8361 17.927 28.9141 20.5721 26.0419 21.2126Z" fill="#C4C4C4"/>
<path d="M38.0273 4.55476C33.8457 1.27831 28.5478 -0.32814 23.201 0.0558495C17.8546 0.437433 12.8554 2.78345 9.20683 6.62069C5.55816 10.4554 3.53251 15.4986 3.53251 20.7345V22.4681L0.959387 25.5584H0.961799C0.0575027 26.682 -0.229504 28.1659 0.187702 29.5345C0.60731 30.903 1.68287 31.9889 3.0695 32.4435L5.97537 33.3974L5.97779 37.0649C5.98261 38.252 6.47697 39.385 7.34756 40.2118C8.21815 41.0386 9.39254 41.4884 10.6079 41.4625H16.3956V44.6023C16.4076 47.0261 18.4164 48.9858 20.8955 49H36.3293C38.8108 48.9859 40.8172 47.0261 40.8317 44.6023V42.367C40.9281 37.9081 42.0254 33.5271 44.0462 29.5274C46.0333 25.3229 46.5204 20.5909 45.4352 16.0823C44.3477 11.5763 41.7504 7.55292 38.0536 4.65371L38.0273 4.55476ZM40.6004 27.8196C38.3239 32.3492 37.1109 37.3193 37.0506 42.367V44.6023C37.0506 44.7695 36.9831 44.9297 36.8625 45.0475C36.7419 45.1652 36.578 45.2312 36.4067 45.2312H20.8958C20.5413 45.2312 20.2543 44.9509 20.2543 44.6023V39.5781C20.2398 38.5441 19.3837 37.7078 18.3251 37.6937H10.6082C10.2513 37.6937 9.96428 37.4134 9.96428 37.0648V32.0406C9.96428 31.2327 9.43615 30.5143 8.65241 30.2575L4.40812 28.8749C4.21761 28.8066 4.06568 28.6582 3.99574 28.4721C3.94751 28.2719 3.99333 28.0575 4.12597 27.895L7.13556 24.2016C7.44905 23.7918 7.58893 23.2783 7.5214 22.7695C7.48282 22.0911 7.48282 21.4128 7.5214 20.7344C7.50934 16.9091 8.82605 13.1897 11.2545 10.1892C13.6853 7.18592 17.0831 5.07778 20.8956 4.20156C22.1979 3.92362 23.5266 3.77994 24.8578 3.77523C29.4662 3.76816 33.889 5.55124 37.1517 8.7335C40.4146 11.9157 42.2473 16.2336 42.2473 20.7344C42.2135 23.1911 41.6251 25.6101 40.523 27.8196L40.6004 27.8196ZM24.7542 6.28838C22.1956 6.28838 19.743 7.28001 17.9343 9.04661C16.1257 10.8132 15.108 13.211 15.108 15.7103C15.0936 18.6782 16.526 21.4789 18.9665 23.2478V27.0166C18.9665 30.1376 21.5589 32.6697 24.7542 32.6697C27.9518 32.6697 30.5418 30.1376 30.5418 27.0166V23.196C32.9847 21.4271 34.4171 18.6288 34.4003 15.6585C34.3882 13.1688 33.3657 10.7851 31.5571 9.03039C29.7508 7.27319 27.3059 6.28838 24.7542 6.28838ZM26.6834 27.0164C26.6834 28.0552 25.8201 28.9008 24.7542 28.9008C23.6907 28.9008 22.825 28.0552 22.825 27.0164V24.9295C24.0983 25.198 25.4126 25.198 26.6834 24.9295V27.0164ZM26.0419 21.2126V18.6993L28.2292 16.5393H28.2268C28.726 16.0518 28.726 15.265 28.2268 14.7798C27.73 14.2946 26.9246 14.2946 26.4278 14.7798L24.7566 16.3886L23.0854 14.7798H23.083C22.5863 14.2946 21.7808 14.2946 21.2816 14.7798C20.7848 15.265 20.7848 16.0518 21.2816 16.5393L23.4689 18.6993V21.2126C20.5968 20.5719 18.6748 17.9267 19.0027 15.0674C19.3331 12.2079 21.8097 10.0479 24.7542 10.0479C27.7011 10.0479 30.1778 12.2079 30.5057 15.0674C30.8361 17.927 28.9141 20.5721 26.0419 21.2126Z" fill="url(#paint0_linear_159_105)"/>
<defs>
<linearGradient id="paint0_linear_159_105" x1="0" y1="24.5" x2="46" y2="24.5" gradientUnits="userSpaceOnUse">
<stop stop-color="#F57F25"/>
<stop offset="1" stop-color="#D64C3F"/>
</linearGradient>
</defs>
</svg>
