<svg width="47" height="47" viewBox="0 0 47 47" fill="none" xmlns="http://www.w3.org/2000/svg">
<path d="M35.25 33.2919L31.3331 38.1875H15.6669V38.1569L47 23.5458C44.2575 17.6644 35.6765 15.8607 27.8357 19.5173L16.5293 24.789L25.5733 11.8722L28.8633 10.5879L32.3125 2.24719L29.1053 0L22.4443 6.0959L22.3638 9.62501L15.6663 19.1913V7.83314C15.6669 3.50738 12.1595 0 7.83314 0C3.50561 0 0 3.50738 0 7.83314V39.1663C0 43.4926 3.50738 47 7.83314 47C11.1196 47 13.9232 44.9731 15.0858 42.1044H31.3326L35.25 47H37.2081L47 46.0206V44.0625H37.2081V41.6144L47 41.125V39.1669L37.2081 38.6769V36.2294H47V34.2706L37.2081 33.2919H35.25ZM15.6669 29.5125L29.4901 23.0676C33.34 21.271 37.4649 21.1083 40.3207 22.3403L15.6669 33.8347V29.5125ZM11.75 39.1669C11.75 41.3259 9.99337 43.0831 7.83314 43.0831C5.6729 43.0831 3.91628 41.3259 3.91628 39.1669V7.83314C3.91628 5.6729 5.6729 3.91628 7.83314 3.91628C9.99337 3.91628 11.75 5.67349 11.75 7.83314V39.1669Z" fill="#C4C4C4"/>
<path d="M35.25 33.2919L31.3331 38.1875H15.6669V38.1569L47 23.5458C44.2575 17.6644 35.6765 15.8607 27.8357 19.5173L16.5293 24.789L25.5733 11.8722L28.8633 10.5879L32.3125 2.24719L29.1053 0L22.4443 6.0959L22.3638 9.62501L15.6663 19.1913V7.83314C15.6669 3.50738 12.1595 0 7.83314 0C3.50561 0 0 3.50738 0 7.83314V39.1663C0 43.4926 3.50738 47 7.83314 47C11.1196 47 13.9232 44.9731 15.0858 42.1044H31.3326L35.25 47H37.2081L47 46.0206V44.0625H37.2081V41.6144L47 41.125V39.1669L37.2081 38.6769V36.2294H47V34.2706L37.2081 33.2919H35.25ZM15.6669 29.5125L29.4901 23.0676C33.34 21.271 37.4649 21.1083 40.3207 22.3403L15.6669 33.8347V29.5125ZM11.75 39.1669C11.75 41.3259 9.99337 43.0831 7.83314 43.0831C5.6729 43.0831 3.91628 41.3259 3.91628 39.1669V7.83314C3.91628 5.6729 5.6729 3.91628 7.83314 3.91628C9.99337 3.91628 11.75 5.67349 11.75 7.83314V39.1669Z" fill="url(#paint0_linear_159_106)"/>
<defs>
<linearGradient id="paint0_linear_159_106" x1="0" y1="23.5" x2="47" y2="23.5" gradientUnits="userSpaceOnUse">
<stop stop-color="#F57F25"/>
<stop offset="1" stop-color="#D64C3F"/>
</linearGradient>
</defs>
</svg>
