<svg width="46" height="46" viewBox="0 0 46 46" fill="none" xmlns="http://www.w3.org/2000/svg">
<path d="M31.5263 21.3736C30.6282 20.4754 29.1718 20.4754 28.2737 21.3736L23 26.6472L20.0263 23.6736C19.1282 22.7754 17.6719 22.7754 16.7736 23.6736C15.8754 24.5717 15.8754 26.0281 16.7736 26.9262L21.3737 31.5262C22.2718 32.4244 23.7282 32.4244 24.6263 31.5262L31.5263 24.6262C32.4245 23.7281 32.4245 22.2717 31.5263 21.3736Z" fill="#C4C4C4"/>
<path d="M31.5263 21.3736C30.6282 20.4754 29.1718 20.4754 28.2737 21.3736L23 26.6472L20.0263 23.6736C19.1282 22.7754 17.6719 22.7754 16.7736 23.6736C15.8754 24.5717 15.8754 26.0281 16.7736 26.9262L21.3737 31.5262C22.2718 32.4244 23.7282 32.4244 24.6263 31.5262L31.5263 24.6262C32.4245 23.7281 32.4245 22.2717 31.5263 21.3736Z" fill="url(#paint0_linear_159_107)"/>
<path fill-rule="evenodd" clip-rule="evenodd" d="M25.3 2.3C25.3 1.02976 24.2703 0 23 0C21.7297 0 20.7 1.02976 20.7 2.3H13.8C13.8 1.02976 12.7702 0 11.5 0C10.2298 0 9.2 1.02976 9.2 2.3C4.11898 2.3 0 6.41898 0 11.5V36.8C0 41.8809 4.11898 46 9.2 46H36.8C41.8809 46 46 41.8809 46 36.8V11.5C46 6.41898 41.8809 2.3 36.8 2.3C36.8 1.02976 35.7703 0 34.5 0C33.2297 0 32.2 1.02976 32.2 2.3H25.3ZM4.6 36.8V16.1H41.4V36.8C41.4 39.3406 39.3406 41.4 36.8 41.4H9.2C6.65949 41.4 4.6 39.3406 4.6 36.8ZM36.8 6.9C39.3406 6.9 41.4 8.95949 41.4 11.5H4.6C4.6 8.95949 6.65949 6.9 9.2 6.9C9.2 8.17024 10.2298 9.2 11.5 9.2C12.7702 9.2 13.8 8.17024 13.8 6.9H20.7C20.7 8.17024 21.7297 9.2 23 9.2C24.2703 9.2 25.3 8.17024 25.3 6.9H32.2C32.2 8.17024 33.2297 9.2 34.5 9.2C35.7703 9.2 36.8 8.17024 36.8 6.9Z" fill="#C4C4C4"/>
<path fill-rule="evenodd" clip-rule="evenodd" d="M25.3 2.3C25.3 1.02976 24.2703 0 23 0C21.7297 0 20.7 1.02976 20.7 2.3H13.8C13.8 1.02976 12.7702 0 11.5 0C10.2298 0 9.2 1.02976 9.2 2.3C4.11898 2.3 0 6.41898 0 11.5V36.8C0 41.8809 4.11898 46 9.2 46H36.8C41.8809 46 46 41.8809 46 36.8V11.5C46 6.41898 41.8809 2.3 36.8 2.3C36.8 1.02976 35.7703 0 34.5 0C33.2297 0 32.2 1.02976 32.2 2.3H25.3ZM4.6 36.8V16.1H41.4V36.8C41.4 39.3406 39.3406 41.4 36.8 41.4H9.2C6.65949 41.4 4.6 39.3406 4.6 36.8ZM36.8 6.9C39.3406 6.9 41.4 8.95949 41.4 11.5H4.6C4.6 8.95949 6.65949 6.9 9.2 6.9C9.2 8.17024 10.2298 9.2 11.5 9.2C12.7702 9.2 13.8 8.17024 13.8 6.9H20.7C20.7 8.17024 21.7297 9.2 23 9.2C24.2703 9.2 25.3 8.17024 25.3 6.9H32.2C32.2 8.17024 33.2297 9.2 34.5 9.2C35.7703 9.2 36.8 8.17024 36.8 6.9Z" fill="url(#paint1_linear_159_107)"/>
<defs>
<linearGradient id="paint0_linear_159_107" x1="16.1" y1="26.4499" x2="32.1999" y2="26.4499" gradientUnits="userSpaceOnUse">
<stop stop-color="#F57F25"/>
<stop offset="1" stop-color="#D64C3F"/>
</linearGradient>
<linearGradient id="paint1_linear_159_107" x1="0" y1="23" x2="46" y2="23" gradientUnits="userSpaceOnUse">
<stop stop-color="#F57F25"/>
<stop offset="1" stop-color="#D64C3F"/>
</linearGradient>
</defs>
</svg>
