<svg width="49" height="49" viewBox="0 0 49 49" fill="none" xmlns="http://www.w3.org/2000/svg">
<path d="M47.3658 29.3997H45.7325V3.26663H47.3658C48.2682 3.26663 48.9991 2.53574 48.9991 1.63332C48.9991 0.730889 48.2682 0 47.3658 0H1.6333C0.730884 0 0 0.730889 0 1.63332C0 2.53574 0.730884 3.26663 1.6333 3.26663H3.26661V29.3997H1.6333C0.730884 29.3997 0 30.1306 0 31.033C0 31.9354 0.730884 32.6663 1.6333 32.6663H22.8663V38.3607L12.1173 46.0375C11.3844 46.5622 11.2149 47.581 11.7375 48.316C12.2622 49.049 13.281 49.2205 14.016 48.6958L22.8667 42.3726V47.3665C22.8667 48.2689 23.5976 48.9998 24.5 48.9998C25.4024 48.9998 26.1333 48.2689 26.1333 47.3665V42.3726L34.984 48.6958C35.7189 49.2205 36.7378 49.049 37.2625 48.316C37.7872 47.5811 37.6157 46.5622 36.8827 46.0375L26.1337 38.3607V32.6663H47.3667C48.2691 32.6663 49 31.9354 49 31.033C49 30.1306 48.2691 29.3997 47.3667 29.3997H47.3658ZM6.53322 29.3997V3.26663H42.4659V29.3997H6.53322ZM33.5316 14.9491L20.4652 6.78257C19.9609 6.46611 19.3259 6.44978 18.8074 6.73766C18.2888 7.02553 17.9662 7.57271 17.9662 8.16682V24.5C17.9662 25.0941 18.2888 25.6413 18.8074 25.9291C19.3259 26.217 19.9609 26.1986 20.4652 25.8842L33.5316 17.7176C34.0093 17.4196 34.2993 16.8969 34.2993 16.3334C34.2993 15.7699 34.0094 15.2472 33.5316 14.9491ZM21.233 21.5519V11.1149L29.585 16.3334L21.233 21.5519Z" fill="white"/>
</svg>
