<svg width="56" height="56" viewBox="0 0 56 56" fill="none" xmlns="http://www.w3.org/2000/svg">
<path d="M17.5022 3.49995H26.2528V11.4752L22.8951 9.07683C22.2861 8.64225 21.4687 8.64225 20.8603 9.07683L17.5022 11.4752V3.49995ZM5.25055 0C2.37153 0 0 2.37209 0 5.25051V38.5006C0 41.379 2.37153 43.75 5.25055 43.75H24.4998C25.466 43.75 26.2493 42.9667 26.2498 42.0006C26.2498 41.0339 25.4666 40.25 24.4998 40.25H5.25055C4.26327 40.25 3.49998 39.4878 3.49998 38.5006V5.25051C3.49998 4.26323 4.26327 3.49995 5.25055 3.49995H14.0033V14.8754C14.0033 16.299 15.6121 17.1267 16.7701 16.2996L21.8778 12.6514L26.9853 16.2996C28.1433 17.1277 29.7532 16.2996 29.7532 14.8754V3.49995H38.5025C39.4857 3.49995 40.2496 4.26323 40.2496 5.25051V24.5002C40.2496 25.467 41.0335 26.2502 42.0002 26.2496C42.9663 26.2496 43.749 25.4664 43.7496 24.5002V5.25051C43.7497 2.37209 41.38 0 38.5027 0C27.4182 0 16.3344 0 5.25055 0Z" fill="white"/>
<path d="M31.5 31.5003H41.2747L51.7746 42.0007L41.9999 51.7754L31.5 41.2755V31.5003ZM27.1244 25.376C26.6601 25.376 26.2159 25.5606 25.8877 25.8887C25.2041 26.5716 25.2041 27.6797 25.8877 28.3632L27.9994 30.4756V42.0007C27.9999 42.4645 28.184 42.9093 28.5121 43.2374L40.7621 55.4878C41.4457 56.1709 42.5536 56.1709 43.2367 55.4878L55.4872 43.2374C56.1703 42.5537 56.1703 41.4464 55.4872 40.7628L43.2367 28.513C42.9086 28.1848 42.4636 28.0002 42 28.0002H30.4748L28.3625 25.8886C28.0335 25.56 27.5887 25.3754 27.1244 25.376Z" fill="white"/>
<path d="M36.7494 35C35.7833 35.0005 35 35.7838 35 36.75C34.9995 37.2143 35.184 37.6591 35.5122 37.9872C35.8403 38.3159 36.2852 38.5 36.7494 38.5005C37.2137 38.5005 37.6591 38.3159 37.9872 37.9878C38.3154 37.6597 38.5 37.2142 38.5 36.75C38.5 36.2858 38.3154 35.8409 37.9866 35.5127C37.6585 35.1846 37.2137 35 36.7494 35Z" fill="white"/>
</svg>
