<svg width="569" height="666" viewBox="0 0 569 666" fill="none" xmlns="http://www.w3.org/2000/svg">
<rect x="170" y="206" width="230" height="49" rx="24.5" fill="#6D778D"/>
<rect x="170" y="108" width="230" height="49" rx="24.5" fill="#6D778D"/>
<rect x="170" y="598" width="230" height="49" rx="24.5" fill="#6D778D"/>
<path d="M234.047 231.706H231.692V230.22H234.047C234.411 230.22 234.708 230.161 234.936 230.042C235.165 229.92 235.332 229.75 235.438 229.535C235.543 229.319 235.596 229.076 235.596 228.805C235.596 228.53 235.543 228.274 235.438 228.037C235.332 227.8 235.165 227.609 234.936 227.465C234.708 227.321 234.411 227.25 234.047 227.25H232.353V235H230.448V225.758H234.047C234.771 225.758 235.391 225.889 235.907 226.151C236.428 226.41 236.826 226.767 237.101 227.224C237.376 227.681 237.513 228.204 237.513 228.792C237.513 229.389 237.376 229.905 237.101 230.341C236.826 230.777 236.428 231.113 235.907 231.35C235.391 231.587 234.771 231.706 234.047 231.706ZM245.029 233.515V235H240.109V233.515H245.029ZM240.731 225.758V235H238.827V225.758H240.731ZM244.388 229.522V230.969H240.109V229.522H244.388ZM245.022 225.758V227.25H240.109V225.758H245.022ZM252.208 225.758V227.25H248.044V235H246.146V225.758H252.208ZM258.854 225.758V227.25H254.258V225.758H258.854ZM260.212 225.758V235H258.308V225.758H260.212ZM254.017 225.758H255.915L255.68 230.398C255.646 231.092 255.581 231.695 255.483 232.207C255.39 232.719 255.263 233.155 255.103 233.515C254.942 233.87 254.743 234.158 254.506 234.378C254.273 234.594 253.998 234.752 253.681 234.854C253.363 234.951 253.001 235 252.595 235H252.125V233.515L252.367 233.496C252.574 233.474 252.756 233.419 252.913 233.331C253.069 233.242 253.202 233.108 253.312 232.931C253.427 232.753 253.52 232.527 253.592 232.251C253.668 231.972 253.727 231.632 253.77 231.229C253.816 230.827 253.848 230.358 253.865 229.82L254.017 225.758ZM265.741 227.338L263.228 235H261.203L264.637 225.758H265.925L265.741 227.338ZM267.83 235L265.31 227.338L265.106 225.758H266.408L269.861 235H267.83ZM267.715 231.56V233.051H262.834V231.56H267.715ZM271.587 225.758H273.2L275.574 232.543L277.948 225.758H279.56L276.221 235H274.926L271.587 225.758ZM270.718 225.758H272.324L272.616 232.372V235H270.718V225.758ZM278.824 225.758H280.436V235H278.532V232.372L278.824 225.758ZM288.307 233.515V235H283.388V233.515H288.307ZM284.01 225.758V235H282.105V225.758H284.01ZM287.666 229.522V230.969H283.388V229.522H287.666ZM288.301 225.758V227.25H283.388V225.758H288.301ZM295.582 229.522V231.007H290.757V229.522H295.582ZM291.322 225.758V235H289.418V225.758H291.322ZM296.94 225.758V235H295.042V225.758H296.94ZM302.539 225.758V235H300.641V225.758H302.539ZM305.382 225.758V227.25H297.841V225.758H305.382ZM309.54 227.338L307.026 235H305.001L308.436 225.758H309.724L309.54 227.338ZM311.628 235L309.108 227.338L308.905 225.758H310.207L313.66 235H311.628ZM311.514 231.56V233.051H306.633V231.56H311.514ZM323.213 233.521L323.092 237.228H321.315V235H320.56V233.521H323.213ZM314.421 235V225.758H316.319V233.515H320.039V225.758H321.95V235H314.421ZM326.215 232.004L329.929 225.758H331.833V235H329.929V228.754L326.215 235H324.311V225.758H326.215V232.004ZM338.396 231.642H335.883L335.242 231.375C334.518 231.147 333.964 230.804 333.579 230.347C333.198 229.89 333.007 229.308 333.007 228.602C333.007 227.979 333.145 227.459 333.42 227.04C333.699 226.617 334.093 226.297 334.601 226.082C335.113 225.866 335.72 225.758 336.422 225.758H339.647V235H337.736V227.25H336.422C335.902 227.25 335.519 227.379 335.273 227.637C335.028 227.895 334.905 228.261 334.905 228.735C334.905 229.082 334.962 229.368 335.077 229.592C335.191 229.812 335.358 229.977 335.578 230.087C335.798 230.193 336.075 230.246 336.41 230.246H338.39L338.396 231.642ZM336.562 230.874L334.512 235H332.449L334.505 230.874H336.562Z" fill="white"/>
<path d="M241.798 132.163V132.601C241.798 133.304 241.703 133.934 241.512 134.493C241.322 135.051 241.053 135.527 240.706 135.921C240.359 136.31 239.944 136.609 239.462 136.816C238.984 137.023 238.453 137.127 237.869 137.127C237.289 137.127 236.758 137.023 236.275 136.816C235.797 136.609 235.382 136.31 235.031 135.921C234.68 135.527 234.407 135.051 234.212 134.493C234.022 133.934 233.927 133.304 233.927 132.601V132.163C233.927 131.456 234.022 130.826 234.212 130.271C234.403 129.713 234.672 129.237 235.019 128.843C235.37 128.45 235.785 128.149 236.263 127.942C236.745 127.735 237.276 127.631 237.856 127.631C238.44 127.631 238.971 127.735 239.449 127.942C239.932 128.149 240.346 128.45 240.693 128.843C241.045 129.237 241.315 129.713 241.506 130.271C241.701 130.826 241.798 131.456 241.798 132.163ZM239.875 132.601V132.15C239.875 131.66 239.83 131.228 239.741 130.855C239.652 130.483 239.521 130.17 239.348 129.916C239.174 129.662 238.963 129.472 238.713 129.345C238.463 129.214 238.178 129.148 237.856 129.148C237.534 129.148 237.249 129.214 236.999 129.345C236.754 129.472 236.544 129.662 236.371 129.916C236.201 130.17 236.072 130.483 235.983 130.855C235.895 131.228 235.85 131.66 235.85 132.15V132.601C235.85 133.088 235.895 133.519 235.983 133.896C236.072 134.268 236.203 134.584 236.377 134.842C236.55 135.096 236.762 135.288 237.012 135.419C237.261 135.551 237.547 135.616 237.869 135.616C238.19 135.616 238.476 135.551 238.726 135.419C238.975 135.288 239.185 135.096 239.354 134.842C239.523 134.584 239.652 134.268 239.741 133.896C239.83 133.519 239.875 133.088 239.875 132.601ZM249.212 127.758V129.25H245.054V137H243.156V127.758H249.212ZM244.4 131.128H246.559C247.286 131.128 247.913 131.249 248.438 131.49C248.962 131.731 249.366 132.07 249.65 132.506C249.933 132.942 250.075 133.45 250.075 134.029C250.075 134.469 249.995 134.871 249.834 135.235C249.673 135.595 249.438 135.908 249.129 136.175C248.825 136.437 248.457 136.64 248.025 136.784C247.593 136.928 247.104 137 246.559 137H243.156V127.758H245.067V135.515H246.559C246.923 135.515 247.223 135.447 247.46 135.312C247.697 135.176 247.875 134.996 247.993 134.772C248.116 134.543 248.177 134.292 248.177 134.017C248.177 133.754 248.116 133.517 247.993 133.306C247.875 133.09 247.697 132.921 247.46 132.798C247.223 132.675 246.923 132.614 246.559 132.614H244.4V131.128ZM256.677 133.934H258.575C258.537 134.556 258.365 135.108 258.061 135.591C257.76 136.073 257.339 136.45 256.797 136.721C256.26 136.992 255.612 137.127 254.855 137.127C254.263 137.127 253.731 137.025 253.262 136.822C252.792 136.615 252.39 136.319 252.056 135.934C251.726 135.549 251.474 135.083 251.3 134.537C251.127 133.991 251.04 133.38 251.04 132.703V132.062C251.04 131.384 251.129 130.773 251.307 130.227C251.489 129.677 251.747 129.209 252.081 128.824C252.42 128.439 252.824 128.143 253.293 127.936C253.763 127.728 254.288 127.625 254.868 127.625C255.638 127.625 256.287 127.764 256.816 128.043C257.35 128.323 257.762 128.708 258.054 129.199C258.35 129.69 258.528 130.248 258.587 130.875H256.683C256.662 130.502 256.588 130.187 256.461 129.929C256.334 129.666 256.141 129.47 255.883 129.338C255.629 129.203 255.291 129.135 254.868 129.135C254.55 129.135 254.273 129.194 254.036 129.313C253.799 129.431 253.6 129.611 253.439 129.853C253.279 130.094 253.158 130.398 253.078 130.767C253.001 131.131 252.963 131.558 252.963 132.049V132.703C252.963 133.181 252.999 133.602 253.071 133.966C253.143 134.326 253.253 134.63 253.401 134.88C253.554 135.125 253.748 135.312 253.985 135.438C254.227 135.561 254.516 135.623 254.855 135.623C255.253 135.623 255.581 135.559 255.839 135.432C256.097 135.305 256.294 135.117 256.429 134.867C256.569 134.618 256.651 134.306 256.677 133.934ZM265.989 127.758V129.25H261.393V127.758H265.989ZM267.347 127.758V137H265.443V127.758H267.347ZM261.152 127.758H263.05L262.815 132.398C262.781 133.092 262.715 133.695 262.618 134.207C262.525 134.719 262.398 135.155 262.237 135.515C262.076 135.87 261.878 136.158 261.641 136.378C261.408 136.594 261.133 136.752 260.815 136.854C260.498 136.951 260.136 137 259.73 137H259.26V135.515L259.501 135.496C259.709 135.474 259.891 135.419 260.047 135.331C260.204 135.242 260.337 135.108 260.447 134.931C260.562 134.753 260.655 134.527 260.727 134.251C260.803 133.972 260.862 133.632 260.904 133.229C260.951 132.827 260.983 132.358 261 131.82L261.152 127.758ZM275.206 135.515V137H270.286V135.515H275.206ZM270.908 127.758V137H269.004V127.758H270.908ZM274.564 131.522V132.969H270.286V131.522H274.564ZM275.199 127.758V129.25H270.286V127.758H275.199ZM283.648 135.515V137H276.989V135.515H283.648ZM277.554 135.515V139.266H275.764L275.663 135.515H277.554ZM285.019 135.515L284.854 139.272H283.108V135.515H285.019ZM282.601 127.758V129.25H278.151V127.758H282.601ZM283.959 127.758V137H282.061V127.758H283.959ZM277.916 127.758H279.82L279.573 131.522C279.535 132.144 279.467 132.694 279.37 133.172C279.277 133.646 279.162 134.063 279.027 134.423C278.896 134.783 278.75 135.098 278.589 135.369C278.428 135.635 278.259 135.868 278.081 136.067C277.903 136.262 277.723 136.435 277.542 136.587C277.36 136.736 277.182 136.873 277.008 137H275.917V135.515H276.342C276.465 135.413 276.594 135.273 276.729 135.096C276.869 134.918 277 134.679 277.123 134.378C277.25 134.074 277.36 133.689 277.453 133.223C277.55 132.758 277.622 132.191 277.668 131.522L277.916 127.758ZM293.442 132.163V132.601C293.442 133.304 293.347 133.934 293.157 134.493C292.966 135.051 292.698 135.527 292.351 135.921C292.004 136.31 291.589 136.609 291.106 136.816C290.628 137.023 290.097 137.127 289.513 137.127C288.933 137.127 288.402 137.023 287.92 136.816C287.442 136.609 287.027 136.31 286.676 135.921C286.325 135.527 286.052 135.051 285.857 134.493C285.667 133.934 285.571 133.304 285.571 132.601V132.163C285.571 131.456 285.667 130.826 285.857 130.271C286.047 129.713 286.316 129.237 286.663 128.843C287.014 128.45 287.429 128.149 287.907 127.942C288.39 127.735 288.921 127.631 289.5 127.631C290.084 127.631 290.616 127.735 291.094 127.942C291.576 128.149 291.991 128.45 292.338 128.843C292.689 129.237 292.96 129.713 293.15 130.271C293.345 130.826 293.442 131.456 293.442 132.163ZM291.519 132.601V132.15C291.519 131.66 291.475 131.228 291.386 130.855C291.297 130.483 291.166 130.17 290.992 129.916C290.819 129.662 290.607 129.472 290.357 129.345C290.108 129.214 289.822 129.148 289.5 129.148C289.179 129.148 288.893 129.214 288.644 129.345C288.398 129.472 288.189 129.662 288.015 129.916C287.846 130.17 287.717 130.483 287.628 130.855C287.539 131.228 287.495 131.66 287.495 132.15V132.601C287.495 133.088 287.539 133.519 287.628 133.896C287.717 134.268 287.848 134.584 288.021 134.842C288.195 135.096 288.407 135.288 288.656 135.419C288.906 135.551 289.192 135.616 289.513 135.616C289.835 135.616 290.12 135.551 290.37 135.419C290.62 135.288 290.829 135.096 290.999 134.842C291.168 134.584 291.297 134.268 291.386 133.896C291.475 133.519 291.519 133.088 291.519 132.601ZM298.432 132.944H296.058L296.045 131.636H298.038C298.389 131.636 298.677 131.592 298.901 131.503C299.126 131.41 299.293 131.277 299.403 131.103C299.517 130.925 299.574 130.709 299.574 130.456C299.574 130.168 299.519 129.935 299.409 129.757C299.303 129.58 299.136 129.451 298.908 129.37C298.683 129.29 298.394 129.25 298.038 129.25H296.718V137H294.813V127.758H298.038C298.576 127.758 299.056 127.809 299.479 127.91C299.906 128.012 300.268 128.166 300.564 128.374C300.861 128.581 301.087 128.843 301.244 129.161C301.4 129.474 301.479 129.846 301.479 130.278C301.479 130.659 301.392 131.01 301.218 131.332C301.049 131.653 300.78 131.916 300.412 132.119C300.048 132.322 299.572 132.434 298.984 132.455L298.432 132.944ZM298.349 137H295.537L296.28 135.515H298.349C298.683 135.515 298.956 135.462 299.168 135.356C299.38 135.246 299.536 135.098 299.638 134.912C299.739 134.725 299.79 134.512 299.79 134.271C299.79 134 299.743 133.765 299.65 133.566C299.562 133.367 299.418 133.215 299.219 133.109C299.02 132.999 298.757 132.944 298.432 132.944H296.597L296.61 131.636H298.895L299.333 132.15C299.896 132.142 300.349 132.241 300.691 132.449C301.038 132.652 301.29 132.916 301.447 133.242C301.608 133.568 301.688 133.917 301.688 134.29C301.688 134.882 301.559 135.381 301.301 135.788C301.043 136.19 300.664 136.492 300.165 136.695C299.669 136.898 299.064 137 298.349 137ZM306.874 129.338L304.36 137H302.335L305.77 127.758H307.058L306.874 129.338ZM308.962 137L306.442 129.338L306.239 127.758H307.541L310.994 137H308.962ZM308.848 133.56V135.051H303.967V133.56H308.848ZM318.014 131.522V133.007H313.19V131.522H318.014ZM313.755 127.758V137H311.851V127.758H313.755ZM319.373 127.758V137H317.475V127.758H319.373ZM322.864 134.004L326.577 127.758H328.481V137H326.577V130.754L322.864 137H320.959V127.758H322.864V134.004ZM336.333 135.515V137H331.414V135.515H336.333ZM332.036 127.758V137H330.132V127.758H332.036ZM335.692 131.522V132.969H331.414V131.522H335.692ZM336.327 127.758V129.25H331.414V127.758H336.327Z" fill="white"/>
<path d="M207.927 617.758V627H206.022V619.25H202.309V627H200.405V617.758H207.927ZM217.182 622.163V622.601C217.182 623.304 217.086 623.934 216.896 624.493C216.706 625.051 216.437 625.527 216.09 625.921C215.743 626.31 215.328 626.609 214.846 626.816C214.368 627.023 213.836 627.127 213.252 627.127C212.673 627.127 212.142 627.023 211.659 626.816C211.181 626.609 210.766 626.31 210.415 625.921C210.064 625.527 209.791 625.051 209.596 624.493C209.406 623.934 209.311 623.304 209.311 622.601V622.163C209.311 621.456 209.406 620.826 209.596 620.271C209.787 619.713 210.055 619.237 210.402 618.843C210.754 618.45 211.168 618.149 211.646 617.942C212.129 617.735 212.66 617.631 213.24 617.631C213.824 617.631 214.355 617.735 214.833 617.942C215.315 618.149 215.73 618.45 216.077 618.843C216.428 619.237 216.699 619.713 216.89 620.271C217.084 620.826 217.182 621.456 217.182 622.163ZM215.258 622.601V622.15C215.258 621.66 215.214 621.228 215.125 620.855C215.036 620.483 214.905 620.17 214.731 619.916C214.558 619.662 214.346 619.472 214.097 619.345C213.847 619.214 213.561 619.148 213.24 619.148C212.918 619.148 212.632 619.214 212.383 619.345C212.137 619.472 211.928 619.662 211.754 619.916C211.585 620.17 211.456 620.483 211.367 620.855C211.278 621.228 211.234 621.66 211.234 622.15V622.601C211.234 623.088 211.278 623.519 211.367 623.896C211.456 624.268 211.587 624.584 211.761 624.842C211.934 625.096 212.146 625.288 212.396 625.419C212.645 625.551 212.931 625.616 213.252 625.616C213.574 625.616 213.86 625.551 214.109 625.419C214.359 625.288 214.569 625.096 214.738 624.842C214.907 624.584 215.036 624.268 215.125 623.896C215.214 623.519 215.258 623.088 215.258 622.601ZM223.91 623.934H225.808C225.77 624.556 225.599 625.108 225.294 625.591C224.993 626.073 224.572 626.45 224.031 626.721C223.493 626.992 222.846 627.127 222.088 627.127C221.496 627.127 220.965 627.025 220.495 626.822C220.025 626.615 219.623 626.319 219.289 625.934C218.959 625.549 218.707 625.083 218.534 624.537C218.36 623.991 218.273 623.38 218.273 622.703V622.062C218.273 621.384 218.362 620.773 218.54 620.227C218.722 619.677 218.98 619.209 219.314 618.824C219.653 618.439 220.057 618.143 220.527 617.936C220.997 617.728 221.521 617.625 222.101 617.625C222.871 617.625 223.521 617.764 224.05 618.043C224.583 618.323 224.996 618.708 225.288 619.199C225.584 619.69 225.762 620.248 225.821 620.875H223.917C223.895 620.502 223.821 620.187 223.694 619.929C223.567 619.666 223.375 619.47 223.117 619.338C222.863 619.203 222.524 619.135 222.101 619.135C221.784 619.135 221.507 619.194 221.27 619.313C221.033 619.431 220.834 619.611 220.673 619.853C220.512 620.094 220.391 620.398 220.311 620.767C220.235 621.131 220.197 621.558 220.197 622.049V622.703C220.197 623.181 220.233 623.602 220.305 623.966C220.377 624.326 220.487 624.63 220.635 624.88C220.787 625.125 220.982 625.312 221.219 625.438C221.46 625.561 221.75 625.623 222.088 625.623C222.486 625.623 222.814 625.559 223.072 625.432C223.33 625.305 223.527 625.117 223.663 624.867C223.802 624.618 223.885 624.306 223.91 623.934ZM231 617.758V627H229.103V617.758H231ZM233.844 617.758V619.25H226.303V617.758H233.844ZM242.458 617.758V627H240.554V619.25H236.84V627H234.936V617.758H242.458ZM247.72 623.706H245.365V622.22H247.72C248.084 622.22 248.38 622.161 248.609 622.042C248.837 621.92 249.005 621.75 249.11 621.535C249.216 621.319 249.269 621.076 249.269 620.805C249.269 620.53 249.216 620.274 249.11 620.037C249.005 619.8 248.837 619.609 248.609 619.465C248.38 619.321 248.084 619.25 247.72 619.25H246.025V627H244.121V617.758H247.72C248.444 617.758 249.064 617.889 249.58 618.151C250.101 618.41 250.498 618.767 250.773 619.224C251.049 619.681 251.186 620.204 251.186 620.792C251.186 621.389 251.049 621.905 250.773 622.341C250.498 622.777 250.101 623.113 249.58 623.35C249.064 623.587 248.444 623.706 247.72 623.706ZM260.092 622.163V622.601C260.092 623.304 259.997 623.934 259.806 624.493C259.616 625.051 259.347 625.527 259 625.921C258.653 626.31 258.238 626.609 257.756 626.816C257.278 627.023 256.747 627.127 256.163 627.127C255.583 627.127 255.052 627.023 254.569 626.816C254.091 626.609 253.676 626.31 253.325 625.921C252.974 625.527 252.701 625.051 252.506 624.493C252.316 623.934 252.221 623.304 252.221 622.601V622.163C252.221 621.456 252.316 620.826 252.506 620.271C252.697 619.713 252.965 619.237 253.312 618.843C253.664 618.45 254.078 618.149 254.557 617.942C255.039 617.735 255.57 617.631 256.15 617.631C256.734 617.631 257.265 617.735 257.743 617.942C258.226 618.149 258.64 618.45 258.987 618.843C259.339 619.237 259.609 619.713 259.8 620.271C259.994 620.826 260.092 621.456 260.092 622.163ZM258.168 622.601V622.15C258.168 621.66 258.124 621.228 258.035 620.855C257.946 620.483 257.815 620.17 257.642 619.916C257.468 619.662 257.257 619.472 257.007 619.345C256.757 619.214 256.472 619.148 256.15 619.148C255.828 619.148 255.543 619.214 255.293 619.345C255.048 619.472 254.838 619.662 254.665 619.916C254.495 620.17 254.366 620.483 254.277 620.855C254.188 621.228 254.144 621.66 254.144 622.15V622.601C254.144 623.088 254.188 623.519 254.277 623.896C254.366 624.268 254.497 624.584 254.671 624.842C254.844 625.096 255.056 625.288 255.306 625.419C255.555 625.551 255.841 625.616 256.163 625.616C256.484 625.616 256.77 625.551 257.02 625.419C257.269 625.288 257.479 625.096 257.648 624.842C257.817 624.584 257.946 624.268 258.035 623.896C258.124 623.519 258.168 623.088 258.168 622.601ZM267.665 625.515V627H262.745V625.515H267.665ZM263.367 617.758V627H261.463V617.758H263.367ZM267.023 621.522V622.969H262.745V621.522H267.023ZM267.658 617.758V619.25H262.745V617.758H267.658ZM270.686 617.758V627H268.782V617.758H270.686ZM276.132 617.758L272.59 623.185H270.261L270.02 621.49H271.575L273.822 617.758H276.132ZM274.171 627L271.581 622.868L272.901 621.509L276.431 627H274.171ZM281.312 617.758V627H279.414V617.758H281.312ZM284.156 617.758V619.25H276.615V617.758H284.156ZM291.405 621.522V623.007H286.581V621.522H291.405ZM287.146 617.758V627H285.241V617.758H287.146ZM292.763 617.758V627H290.865V617.758H292.763ZM295.677 621.128H297.835C298.559 621.128 299.183 621.249 299.708 621.49C300.236 621.731 300.641 622.07 300.92 622.506C301.203 622.942 301.345 623.45 301.345 624.029C301.345 624.469 301.265 624.871 301.104 625.235C300.943 625.595 300.71 625.908 300.406 626.175C300.101 626.437 299.733 626.64 299.301 626.784C298.87 626.928 298.381 627 297.835 627H294.433V617.758H296.343V625.515H297.835C298.195 625.515 298.493 625.447 298.73 625.312C298.971 625.176 299.151 624.996 299.27 624.772C299.388 624.543 299.447 624.292 299.447 624.017C299.447 623.754 299.388 623.517 299.27 623.306C299.151 623.09 298.971 622.921 298.73 622.798C298.493 622.675 298.195 622.614 297.835 622.614H295.677V621.128ZM304.062 617.758V627H302.164V617.758H304.062ZM307.553 624.004L311.267 617.758H313.171V627H311.267V620.754L307.553 627H305.649V617.758H307.553V624.004ZM310.333 615.333H311.635C311.635 615.697 311.544 616.021 311.362 616.304C311.184 616.583 310.93 616.804 310.6 616.964C310.27 617.121 309.881 617.199 309.432 617.199C308.751 617.199 308.211 617.026 307.813 616.679C307.42 616.332 307.223 615.883 307.223 615.333H308.518C308.518 615.553 308.586 615.75 308.721 615.923C308.861 616.097 309.098 616.184 309.432 616.184C309.762 616.184 309.995 616.097 310.13 615.923C310.266 615.75 310.333 615.553 310.333 615.333ZM321.816 619.338L319.303 627H317.278L320.712 617.758H322L321.816 619.338ZM323.905 627L321.385 619.338L321.182 617.758H322.483L325.936 627H323.905ZM323.791 623.56V625.051H318.909V623.56H323.791ZM332.957 621.522V623.007H328.132V621.522H332.957ZM328.697 617.758V627H326.793V617.758H328.697ZM334.315 617.758V627H332.417V617.758H334.315ZM339.844 619.338L337.33 627H335.305L338.739 617.758H340.028L339.844 619.338ZM341.932 627L339.412 619.338L339.209 617.758H340.51L343.963 627H341.932ZM341.818 623.56V625.051H336.937V623.56H341.818ZM351.098 617.758V619.25H346.502V617.758H351.098ZM352.457 617.758V627H350.552V617.758H352.457ZM346.261 617.758H348.159L347.924 622.398C347.89 623.092 347.825 623.695 347.728 624.207C347.634 624.719 347.507 625.155 347.347 625.515C347.186 625.87 346.987 626.158 346.75 626.378C346.517 626.594 346.242 626.752 345.925 626.854C345.607 626.951 345.246 627 344.839 627H344.37V625.515L344.611 625.496C344.818 625.474 345 625.419 345.157 625.331C345.313 625.242 345.447 625.108 345.557 624.931C345.671 624.753 345.764 624.527 345.836 624.251C345.912 623.972 345.971 623.632 346.014 623.229C346.06 622.827 346.092 622.358 346.109 621.82L346.261 617.758ZM355.948 624.004L359.661 617.758H361.565V627H359.661V620.754L355.948 627H354.043V617.758H355.948V624.004ZM366.669 622.569H365.234V621.56H366.377C366.711 621.56 366.982 621.509 367.189 621.408C367.397 621.302 367.549 621.154 367.646 620.963C367.744 620.773 367.792 620.549 367.792 620.291C367.792 620.079 367.737 619.884 367.627 619.707C367.522 619.529 367.357 619.387 367.132 619.281C366.908 619.171 366.622 619.116 366.275 619.116C366.013 619.116 365.774 619.163 365.558 619.256C365.342 619.349 365.171 619.48 365.044 619.649C364.917 619.814 364.854 620.015 364.854 620.252H362.956C362.956 619.846 363.042 619.482 363.216 619.161C363.394 618.835 363.635 618.56 363.939 618.335C364.248 618.107 364.604 617.933 365.006 617.815C365.408 617.696 365.831 617.637 366.275 617.637C366.796 617.637 367.266 617.694 367.685 617.809C368.104 617.919 368.463 618.084 368.764 618.304C369.064 618.524 369.295 618.797 369.456 619.123C369.616 619.448 369.697 619.827 369.697 620.259C369.697 620.576 369.625 620.875 369.481 621.154C369.337 621.433 369.132 621.679 368.865 621.89C368.599 622.102 368.279 622.269 367.907 622.392C367.534 622.51 367.122 622.569 366.669 622.569ZM365.234 622.017H366.669C367.173 622.017 367.619 622.07 368.008 622.176C368.402 622.282 368.734 622.436 369.005 622.639C369.28 622.842 369.487 623.094 369.627 623.395C369.771 623.691 369.843 624.031 369.843 624.417C369.843 624.848 369.754 625.231 369.576 625.565C369.403 625.9 369.155 626.183 368.833 626.416C368.516 626.649 368.139 626.824 367.704 626.943C367.272 627.061 366.796 627.121 366.275 627.121C365.861 627.121 365.448 627.07 365.038 626.968C364.627 626.862 364.255 626.702 363.92 626.486C363.586 626.27 363.319 625.993 363.121 625.654C362.922 625.316 362.822 624.91 362.822 624.436H364.733C364.733 624.66 364.799 624.865 364.93 625.051C365.061 625.233 365.243 625.379 365.476 625.489C365.708 625.595 365.975 625.648 366.275 625.648C366.627 625.648 366.925 625.593 367.17 625.483C367.42 625.373 367.608 625.223 367.735 625.032C367.867 624.838 367.932 624.624 367.932 624.391C367.932 624.141 367.898 623.93 367.831 623.756C367.763 623.583 367.663 623.441 367.532 623.331C367.401 623.217 367.238 623.134 367.043 623.083C366.853 623.033 366.631 623.007 366.377 623.007H365.234V622.017Z" fill="white"/>
<rect y="33" width="569" height="2" fill="#DADEE7"/>
<rect y="524" width="569" height="2" fill="#DADEE7"/>
<rect x="170" y="10" width="230" height="49" rx="24.5" fill="#6D778D"/>
<path d="M246.717 36.0039L250.431 29.7578H252.335V39H250.431V32.7539L246.717 39H244.813V29.7578H246.717V36.0039ZM260.149 33.522V35.0073H255.325V33.522H260.149ZM255.89 29.7578V39H253.985V29.7578H255.89ZM261.507 29.7578V39H259.609V29.7578H261.507ZM264.999 36.0039L268.712 29.7578H270.616V39H268.712V32.7539L264.999 39H263.094V29.7578H264.999V36.0039ZM280.963 37.521L280.842 41.228H279.065V39H278.31V37.521H280.963ZM272.171 39V29.7578H274.069V37.5146H277.789V29.7578H279.7V39H272.171ZM283.965 36.0039L287.679 29.7578H289.583V39H287.679V32.7539L283.965 39H282.061V29.7578H283.965V36.0039ZM295.105 31.3384L292.592 39H290.567L294.001 29.7578H295.29L295.105 31.3384ZM297.194 39L294.674 31.3384L294.471 29.7578H295.772L299.225 39H297.194ZM297.08 35.5596V37.0513H292.198V35.5596H297.08ZM308.778 37.521L308.658 41.228H306.88V39H306.125V37.521H308.778ZM299.987 39V29.7578H301.885V37.5146H305.604V29.7578H307.515V39H299.987ZM311.781 36.0039L315.494 29.7578H317.398V39H315.494V32.7539L311.781 39H309.876V29.7578H311.781V36.0039ZM323.962 35.6421H321.448L320.807 35.3755C320.083 35.147 319.529 34.8042 319.144 34.3472C318.763 33.8901 318.573 33.3083 318.573 32.6016C318.573 31.9795 318.71 31.459 318.985 31.04C319.265 30.6169 319.658 30.2974 320.166 30.0815C320.678 29.8657 321.285 29.7578 321.988 29.7578H325.212V39H323.302V31.2495H321.988C321.467 31.2495 321.084 31.3786 320.839 31.6367C320.593 31.8949 320.471 32.2609 320.471 32.7349C320.471 33.0819 320.528 33.3675 320.642 33.5918C320.756 33.8118 320.924 33.9769 321.144 34.0869C321.364 34.1927 321.641 34.2456 321.975 34.2456H323.956L323.962 35.6421ZM322.127 34.874L320.077 39H318.014L320.071 34.874H322.127Z" fill="white"/>
<rect x="170" y="500" width="230" height="49" rx="24.5" fill="#6D778D"/>
<path d="M205.953 516.944H203.579L203.566 515.636H205.559C205.91 515.636 206.198 515.592 206.422 515.503C206.647 515.41 206.814 515.277 206.924 515.103C207.038 514.925 207.095 514.709 207.095 514.456C207.095 514.168 207.04 513.935 206.93 513.757C206.824 513.58 206.657 513.451 206.429 513.37C206.204 513.29 205.915 513.25 205.559 513.25H204.239V521H202.334V511.758H205.559C206.097 511.758 206.577 511.809 207 511.91C207.427 512.012 207.789 512.166 208.085 512.374C208.382 512.581 208.608 512.843 208.765 513.161C208.921 513.474 209 513.846 209 514.278C209 514.659 208.913 515.01 208.739 515.332C208.57 515.653 208.301 515.916 207.933 516.119C207.569 516.322 207.093 516.434 206.505 516.455L205.953 516.944ZM205.87 521H203.058L203.801 519.515H205.87C206.204 519.515 206.477 519.462 206.689 519.356C206.901 519.246 207.057 519.098 207.159 518.912C207.26 518.725 207.311 518.512 207.311 518.271C207.311 518 207.264 517.765 207.171 517.566C207.083 517.367 206.939 517.215 206.74 517.109C206.541 516.999 206.278 516.944 205.953 516.944H204.118L204.131 515.636H206.416L206.854 516.15C207.417 516.142 207.87 516.241 208.212 516.449C208.559 516.652 208.811 516.916 208.968 517.242C209.129 517.568 209.209 517.917 209.209 518.29C209.209 518.882 209.08 519.381 208.822 519.788C208.564 520.19 208.185 520.492 207.686 520.695C207.19 520.898 206.585 521 205.87 521ZM214.255 516.944H211.881L211.869 515.636H213.862C214.213 515.636 214.501 515.592 214.725 515.503C214.949 515.41 215.117 515.277 215.227 515.103C215.341 514.925 215.398 514.709 215.398 514.456C215.398 514.168 215.343 513.935 215.233 513.757C215.127 513.58 214.96 513.451 214.731 513.37C214.507 513.29 214.217 513.25 213.862 513.25H212.542V521H210.637V511.758H213.862C214.399 511.758 214.88 511.809 215.303 511.91C215.73 512.012 216.092 512.166 216.388 512.374C216.684 512.581 216.911 512.843 217.067 513.161C217.224 513.474 217.302 513.846 217.302 514.278C217.302 514.659 217.215 515.01 217.042 515.332C216.873 515.653 216.604 515.916 216.236 516.119C215.872 516.322 215.396 516.434 214.808 516.455L214.255 516.944ZM214.173 521H211.361L212.104 519.515H214.173C214.507 519.515 214.78 519.462 214.992 519.356C215.203 519.246 215.36 519.098 215.461 518.912C215.563 518.725 215.614 518.512 215.614 518.271C215.614 518 215.567 517.765 215.474 517.566C215.385 517.367 215.241 517.215 215.042 517.109C214.844 516.999 214.581 516.944 214.255 516.944H212.421L212.434 515.636H214.719L215.157 516.15C215.72 516.142 216.172 516.241 216.515 516.449C216.862 516.652 217.114 516.916 217.271 517.242C217.431 517.568 217.512 517.917 217.512 518.29C217.512 518.882 217.383 519.381 217.125 519.788C216.866 520.19 216.488 520.492 215.988 520.695C215.493 520.898 214.888 521 214.173 521ZM226.532 516.163V516.601C226.532 517.304 226.437 517.934 226.246 518.493C226.056 519.051 225.787 519.527 225.44 519.921C225.093 520.31 224.678 520.609 224.196 520.816C223.718 521.023 223.187 521.127 222.603 521.127C222.023 521.127 221.492 521.023 221.009 520.816C220.531 520.609 220.116 520.31 219.765 519.921C219.414 519.527 219.141 519.051 218.946 518.493C218.756 517.934 218.661 517.304 218.661 516.601V516.163C218.661 515.456 218.756 514.826 218.946 514.271C219.137 513.713 219.405 513.237 219.752 512.843C220.104 512.45 220.518 512.149 220.997 511.942C221.479 511.735 222.01 511.631 222.59 511.631C223.174 511.631 223.705 511.735 224.183 511.942C224.666 512.149 225.08 512.45 225.427 512.843C225.778 513.237 226.049 513.713 226.24 514.271C226.434 514.826 226.532 515.456 226.532 516.163ZM224.608 516.601V516.15C224.608 515.66 224.564 515.228 224.475 514.855C224.386 514.483 224.255 514.17 224.082 513.916C223.908 513.662 223.696 513.472 223.447 513.345C223.197 513.214 222.911 513.148 222.59 513.148C222.268 513.148 221.983 513.214 221.733 513.345C221.487 513.472 221.278 513.662 221.104 513.916C220.935 514.17 220.806 514.483 220.717 514.855C220.628 515.228 220.584 515.66 220.584 516.15V516.601C220.584 517.088 220.628 517.519 220.717 517.896C220.806 518.268 220.937 518.584 221.111 518.842C221.284 519.096 221.496 519.288 221.746 519.419C221.995 519.551 222.281 519.616 222.603 519.616C222.924 519.616 223.21 519.551 223.459 519.419C223.709 519.288 223.919 519.096 224.088 518.842C224.257 518.584 224.386 518.268 224.475 517.896C224.564 517.519 224.608 517.088 224.608 516.601ZM235.019 519.515V521H228.36V519.515H235.019ZM228.925 519.515V523.266H227.135L227.033 519.515H228.925ZM236.39 519.515L236.225 523.272H234.479V519.515H236.39ZM233.971 511.758V513.25H229.521V511.758H233.971ZM235.33 511.758V521H233.432V511.758H235.33ZM229.287 511.758H231.191L230.943 515.522C230.905 516.144 230.838 516.694 230.74 517.172C230.647 517.646 230.533 518.063 230.397 518.423C230.266 518.783 230.12 519.098 229.959 519.369C229.799 519.635 229.629 519.868 229.452 520.067C229.274 520.262 229.094 520.435 228.912 520.587C228.73 520.736 228.552 520.873 228.379 521H227.287V519.515H227.712C227.835 519.413 227.964 519.273 228.1 519.096C228.239 518.918 228.37 518.679 228.493 518.378C228.62 518.074 228.73 517.689 228.823 517.223C228.921 516.758 228.993 516.191 229.039 515.522L229.287 511.758ZM244.229 516.944H241.855L241.842 515.636H243.835C244.187 515.636 244.474 515.592 244.699 515.503C244.923 515.41 245.09 515.277 245.2 515.103C245.314 514.925 245.372 514.709 245.372 514.456C245.372 514.168 245.317 513.935 245.207 513.757C245.101 513.58 244.934 513.451 244.705 513.37C244.481 513.29 244.191 513.25 243.835 513.25H242.515V521H240.611V511.758H243.835C244.373 511.758 244.853 511.809 245.276 511.91C245.704 512.012 246.066 512.166 246.362 512.374C246.658 512.581 246.884 512.843 247.041 513.161C247.198 513.474 247.276 513.846 247.276 514.278C247.276 514.659 247.189 515.01 247.016 515.332C246.846 515.653 246.578 515.916 246.209 516.119C245.846 516.322 245.369 516.434 244.781 516.455L244.229 516.944ZM244.146 521H241.334L242.077 519.515H244.146C244.481 519.515 244.754 519.462 244.965 519.356C245.177 519.246 245.333 519.098 245.435 518.912C245.537 518.725 245.587 518.512 245.587 518.271C245.587 518 245.541 517.765 245.448 517.566C245.359 517.367 245.215 517.215 245.016 517.109C244.817 516.999 244.555 516.944 244.229 516.944H242.395L242.407 515.636H244.692L245.13 516.15C245.693 516.142 246.146 516.241 246.489 516.449C246.836 516.652 247.088 516.916 247.244 517.242C247.405 517.568 247.485 517.917 247.485 518.29C247.485 518.882 247.356 519.381 247.098 519.788C246.84 520.19 246.461 520.492 245.962 520.695C245.467 520.898 244.862 521 244.146 521ZM259.679 511.758V521H257.775V513.25H254.062V521H252.157V511.758H259.679ZM264.941 517.706H262.586V516.22H264.941C265.305 516.22 265.602 516.161 265.83 516.042C266.059 515.92 266.226 515.75 266.332 515.535C266.437 515.319 266.49 515.076 266.49 514.805C266.49 514.53 266.437 514.274 266.332 514.037C266.226 513.8 266.059 513.609 265.83 513.465C265.602 513.321 265.305 513.25 264.941 513.25H263.247V521H261.342V511.758H264.941C265.665 511.758 266.285 511.889 266.801 512.151C267.322 512.41 267.72 512.767 267.995 513.224C268.27 513.681 268.407 514.204 268.407 514.792C268.407 515.389 268.27 515.905 267.995 516.341C267.72 516.777 267.322 517.113 266.801 517.35C266.285 517.587 265.665 517.706 264.941 517.706ZM277.313 516.163V516.601C277.313 517.304 277.218 517.934 277.027 518.493C276.837 519.051 276.568 519.527 276.221 519.921C275.874 520.31 275.459 520.609 274.977 520.816C274.499 521.023 273.968 521.127 273.384 521.127C272.804 521.127 272.273 521.023 271.791 520.816C271.312 520.609 270.898 520.31 270.546 519.921C270.195 519.527 269.922 519.051 269.728 518.493C269.537 517.934 269.442 517.304 269.442 516.601V516.163C269.442 515.456 269.537 514.826 269.728 514.271C269.918 513.713 270.187 513.237 270.534 512.843C270.885 512.45 271.3 512.149 271.778 511.942C272.26 511.735 272.791 511.631 273.371 511.631C273.955 511.631 274.486 511.735 274.964 511.942C275.447 512.149 275.861 512.45 276.208 512.843C276.56 513.237 276.831 513.713 277.021 514.271C277.216 514.826 277.313 515.456 277.313 516.163ZM275.39 516.601V516.15C275.39 515.66 275.345 515.228 275.256 514.855C275.167 514.483 275.036 514.17 274.863 513.916C274.689 513.662 274.478 513.472 274.228 513.345C273.978 513.214 273.693 513.148 273.371 513.148C273.049 513.148 272.764 513.214 272.514 513.345C272.269 513.472 272.059 513.662 271.886 513.916C271.716 514.17 271.587 514.483 271.499 514.855C271.41 515.228 271.365 515.66 271.365 516.15V516.601C271.365 517.088 271.41 517.519 271.499 517.896C271.587 518.268 271.719 518.584 271.892 518.842C272.066 519.096 272.277 519.288 272.527 519.419C272.777 519.551 273.062 519.616 273.384 519.616C273.705 519.616 273.991 519.551 274.241 519.419C274.49 519.288 274.7 519.096 274.869 518.842C275.038 518.584 275.167 518.268 275.256 517.896C275.345 517.519 275.39 517.088 275.39 516.601ZM279.554 511.758H281.166L283.54 518.543L285.914 511.758H287.526L284.188 521H282.893L279.554 511.758ZM278.684 511.758H280.29L280.582 518.372V521H278.684V511.758ZM286.79 511.758H288.402V521H286.498V518.372L286.79 511.758ZM291.329 515.128H293.487C294.21 515.128 294.835 515.249 295.359 515.49C295.888 515.731 296.292 516.07 296.572 516.506C296.855 516.942 296.997 517.45 296.997 518.029C296.997 518.469 296.917 518.871 296.756 519.235C296.595 519.595 296.362 519.908 296.058 520.175C295.753 520.437 295.385 520.64 294.953 520.784C294.521 520.928 294.033 521 293.487 521H290.084V511.758H291.995V519.515H293.487C293.847 519.515 294.145 519.447 294.382 519.312C294.623 519.176 294.803 518.996 294.921 518.772C295.04 518.543 295.099 518.292 295.099 518.017C295.099 517.754 295.04 517.517 294.921 517.306C294.803 517.09 294.623 516.921 294.382 516.798C294.145 516.675 293.847 516.614 293.487 516.614H291.329V515.128ZM299.714 511.758V521H297.816V511.758H299.714ZM301.352 511.758H303.262V519.515H305.839V511.758H307.744V519.515H310.295V511.758H312.193V521H301.352V511.758ZM320.103 511.758V513.25H315.507V511.758H320.103ZM321.461 511.758V521H319.557V511.758H321.461ZM315.266 511.758H317.164L316.929 516.398C316.895 517.092 316.829 517.695 316.732 518.207C316.639 518.719 316.512 519.155 316.351 519.515C316.19 519.87 315.991 520.158 315.754 520.378C315.522 520.594 315.247 520.752 314.929 520.854C314.612 520.951 314.25 521 313.844 521H313.374V519.515L313.615 519.496C313.823 519.474 314.005 519.419 314.161 519.331C314.318 519.242 314.451 519.108 314.561 518.931C314.675 518.753 314.768 518.527 314.84 518.251C314.917 517.972 314.976 517.632 315.018 517.229C315.065 516.827 315.096 516.358 315.113 515.82L315.266 511.758ZM329.319 519.515V521H324.4V519.515H329.319ZM325.022 511.758V521H323.118V511.758H325.022ZM328.678 515.522V516.969H324.4V515.522H328.678ZM329.313 511.758V513.25H324.4V511.758H329.313ZM336.594 515.522V517.007H331.77V515.522H336.594ZM332.334 511.758V521H330.43V511.758H332.334ZM337.952 511.758V521H336.054V511.758H337.952ZM345.772 515.522V517.007H340.948V515.522H345.772ZM341.513 511.758V521H339.609V511.758H341.513ZM347.131 511.758V521H345.233V511.758H347.131ZM351.688 517.648L353.961 511.758H356.011L352.844 519.21C352.734 519.464 352.607 519.707 352.463 519.94C352.323 520.168 352.156 520.374 351.961 520.556C351.767 520.733 351.534 520.875 351.263 520.981C350.992 521.083 350.669 521.133 350.292 521.133C350.199 521.133 350.085 521.131 349.949 521.127C349.814 521.123 349.706 521.116 349.625 521.108L349.613 519.623C349.664 519.635 349.744 519.644 349.854 519.648C349.964 519.648 350.044 519.648 350.095 519.648C350.345 519.648 350.542 519.612 350.686 519.54C350.829 519.468 350.944 519.367 351.028 519.235C351.117 519.1 351.195 518.941 351.263 518.759L351.688 517.648ZM350.184 511.758L352.292 516.334L352.882 518.436L351.466 518.461L348.14 511.758H350.184ZM358.982 511.758V521H357.078V511.758H358.982ZM360.747 515.852V517.28H358.227V515.852H360.747ZM367.894 516.163V516.601C367.894 517.304 367.799 517.934 367.608 518.493C367.418 519.051 367.149 519.527 366.802 519.921C366.455 520.31 366.041 520.609 365.558 520.816C365.08 521.023 364.549 521.127 363.965 521.127C363.385 521.127 362.854 521.023 362.372 520.816C361.893 520.609 361.477 520.31 361.121 519.921C360.77 519.527 360.499 519.051 360.309 518.493C360.118 517.934 360.023 517.304 360.023 516.601V516.163C360.023 515.456 360.118 514.826 360.309 514.271C360.499 513.713 360.768 513.237 361.115 512.843C361.466 512.45 361.881 512.149 362.359 511.942C362.841 511.735 363.372 511.631 363.952 511.631C364.536 511.631 365.067 511.735 365.545 511.942C366.028 512.149 366.443 512.45 366.79 512.843C367.141 513.237 367.412 513.713 367.602 514.271C367.797 514.826 367.894 515.456 367.894 516.163ZM365.971 516.601V516.15C365.971 515.66 365.926 515.228 365.837 514.855C365.749 514.483 365.617 514.17 365.444 513.916C365.27 513.662 365.059 513.472 364.809 513.345C364.559 513.214 364.274 513.148 363.952 513.148C363.631 513.148 363.345 513.214 363.095 513.345C362.85 513.472 362.64 513.662 362.467 513.916C362.298 514.17 362.168 514.483 362.08 514.855C361.991 515.228 361.946 515.66 361.946 516.15V516.601C361.946 517.088 361.991 517.519 362.08 517.896C362.168 518.268 362.3 518.584 362.473 518.842C362.647 519.096 362.858 519.288 363.108 519.419C363.358 519.551 363.643 519.616 363.965 519.616C364.286 519.616 364.57 519.551 364.815 519.419C365.065 519.288 365.275 519.096 365.444 518.842C365.617 518.584 365.749 518.268 365.837 517.896C365.926 517.519 365.971 517.088 365.971 516.601ZM238.789 530.636V532.128H234.86V530.636H238.789ZM232.137 532.934H234.035C234.064 533.311 234.147 533.626 234.282 533.88C234.422 534.134 234.621 534.326 234.879 534.458C235.137 534.589 235.465 534.654 235.863 534.654C236.201 534.654 236.491 534.591 236.732 534.464C236.974 534.333 237.17 534.144 237.323 533.899C237.479 533.649 237.594 533.34 237.666 532.972C237.742 532.604 237.78 532.181 237.78 531.703V531.062C237.78 530.668 237.752 530.315 237.697 530.001C237.646 529.684 237.568 529.409 237.462 529.176C237.361 528.939 237.232 528.745 237.075 528.592C236.919 528.436 236.737 528.319 236.529 528.243C236.326 528.163 236.098 528.123 235.844 528.123C235.425 528.123 235.086 528.192 234.828 528.332C234.574 528.467 234.384 528.666 234.257 528.929C234.134 529.191 234.058 529.508 234.028 529.881H232.13C232.19 529.25 232.365 528.692 232.657 528.205C232.953 527.714 233.366 527.329 233.895 527.05C234.424 526.771 235.074 526.631 235.844 526.631C236.428 526.631 236.955 526.735 237.424 526.942C237.898 527.145 238.302 527.441 238.637 527.831C238.971 528.22 239.227 528.688 239.405 529.233C239.583 529.779 239.671 530.393 239.671 531.074V531.703C239.671 532.384 239.585 532.998 239.411 533.543C239.238 534.089 238.986 534.555 238.656 534.94C238.326 535.321 237.926 535.615 237.456 535.822C236.986 536.03 236.455 536.133 235.863 536.133C235.11 536.133 234.462 535.998 233.92 535.727C233.383 535.452 232.962 535.075 232.657 534.597C232.357 534.115 232.183 533.56 232.137 532.934ZM242.928 526.758V536H241.023V526.758H242.928ZM248.374 526.758L244.832 532.185H242.502L242.261 530.49H243.816L246.063 526.758H248.374ZM246.413 536L243.823 531.868L245.143 530.509L248.672 536H246.413ZM254.576 532.934H256.474C256.436 533.556 256.264 534.108 255.959 534.591C255.659 535.073 255.238 535.45 254.696 535.721C254.159 535.992 253.511 536.127 252.754 536.127C252.161 536.127 251.63 536.025 251.161 535.822C250.691 535.615 250.289 535.319 249.955 534.934C249.625 534.549 249.373 534.083 249.199 533.537C249.026 532.991 248.939 532.38 248.939 531.703V531.062C248.939 530.384 249.028 529.773 249.206 529.227C249.388 528.677 249.646 528.209 249.98 527.824C250.319 527.439 250.723 527.143 251.192 526.936C251.662 526.728 252.187 526.625 252.767 526.625C253.537 526.625 254.186 526.764 254.715 527.043C255.249 527.323 255.661 527.708 255.953 528.199C256.249 528.69 256.427 529.248 256.486 529.875H254.582C254.561 529.502 254.487 529.187 254.36 528.929C254.233 528.666 254.04 528.47 253.782 528.338C253.528 528.203 253.19 528.135 252.767 528.135C252.449 528.135 252.172 528.194 251.935 528.313C251.698 528.431 251.499 528.611 251.338 528.853C251.178 529.094 251.057 529.398 250.977 529.767C250.9 530.131 250.862 530.558 250.862 531.049V531.703C250.862 532.181 250.898 532.602 250.97 532.966C251.042 533.326 251.152 533.63 251.3 533.88C251.453 534.125 251.647 534.312 251.884 534.438C252.125 534.561 252.415 534.623 252.754 534.623C253.152 534.623 253.48 534.559 253.738 534.432C253.996 534.305 254.193 534.117 254.328 533.867C254.468 533.618 254.55 533.306 254.576 532.934ZM265.252 526.758V536H263.348V528.25H259.635V536H257.73V526.758H265.252ZM273.079 526.758V528.25H268.483V526.758H273.079ZM274.438 526.758V536H272.533V526.758H274.438ZM268.242 526.758H270.14L269.905 531.398C269.871 532.092 269.806 532.695 269.708 533.207C269.615 533.719 269.488 534.155 269.328 534.515C269.167 534.87 268.968 535.158 268.731 535.378C268.498 535.594 268.223 535.752 267.906 535.854C267.588 535.951 267.227 536 266.82 536H266.351V534.515L266.592 534.496C266.799 534.474 266.981 534.419 267.138 534.331C267.294 534.242 267.428 534.108 267.538 533.931C267.652 533.753 267.745 533.527 267.817 533.251C267.893 532.972 267.952 532.632 267.995 532.229C268.041 531.827 268.073 531.358 268.09 530.82L268.242 526.758ZM278.995 532.648L281.268 526.758H283.318L280.15 534.21C280.04 534.464 279.913 534.707 279.77 534.94C279.63 535.168 279.463 535.374 279.268 535.556C279.073 535.733 278.841 535.875 278.57 535.981C278.299 536.083 277.975 536.133 277.599 536.133C277.506 536.133 277.391 536.131 277.256 536.127C277.12 536.123 277.013 536.116 276.932 536.108L276.919 534.623C276.97 534.635 277.051 534.644 277.161 534.648C277.271 534.648 277.351 534.648 277.402 534.648C277.652 534.648 277.848 534.612 277.992 534.54C278.136 534.468 278.25 534.367 278.335 534.235C278.424 534.1 278.502 533.941 278.57 533.759L278.995 532.648ZM277.491 526.758L279.598 531.334L280.188 533.436L278.773 533.461L275.447 526.758H277.491ZM287.482 528.338L284.968 536H282.943L286.377 526.758H287.666L287.482 528.338ZM289.57 536L287.05 528.338L286.847 526.758H288.148L291.602 536H289.57ZM289.456 532.56V534.051H284.575V532.56H289.456ZM295.804 526.758V536H293.906V526.758H295.804ZM298.647 526.758V528.25H291.106V526.758H298.647ZM302.805 528.338L300.292 536H298.267L301.701 526.758H302.989L302.805 528.338ZM304.894 536L302.374 528.338L302.17 526.758H303.472L306.925 536H304.894ZM304.779 532.56V534.051H299.898V532.56H304.779ZM316.478 534.521L316.357 538.228H314.58V536H313.825V534.521H316.478ZM307.687 536V526.758H309.584V534.515H313.304V526.758H315.215V536H307.687ZM319.48 533.004L323.194 526.758H325.098V536H323.194V529.754L319.48 536H317.576V526.758H319.48V533.004ZM328.729 526.758V536H326.825V526.758H328.729ZM330.494 530.852V532.28H327.974V530.852H330.494ZM337.641 531.163V531.601C337.641 532.304 337.546 532.934 337.355 533.493C337.165 534.051 336.896 534.527 336.549 534.921C336.202 535.31 335.788 535.609 335.305 535.816C334.827 536.023 334.296 536.127 333.712 536.127C333.132 536.127 332.601 536.023 332.119 535.816C331.64 535.609 331.224 535.31 330.868 534.921C330.517 534.527 330.246 534.051 330.056 533.493C329.865 532.934 329.77 532.304 329.77 531.601V531.163C329.77 530.456 329.865 529.826 330.056 529.271C330.246 528.713 330.515 528.237 330.862 527.843C331.213 527.45 331.628 527.149 332.106 526.942C332.588 526.735 333.119 526.631 333.699 526.631C334.283 526.631 334.814 526.735 335.292 526.942C335.775 527.149 336.19 527.45 336.537 527.843C336.888 528.237 337.159 528.713 337.349 529.271C337.544 529.826 337.641 530.456 337.641 531.163ZM335.718 531.601V531.15C335.718 530.66 335.673 530.228 335.584 529.855C335.496 529.483 335.364 529.17 335.191 528.916C335.017 528.662 334.806 528.472 334.556 528.345C334.306 528.214 334.021 528.148 333.699 528.148C333.378 528.148 333.092 528.214 332.842 528.345C332.597 528.472 332.387 528.662 332.214 528.916C332.045 529.17 331.916 529.483 331.827 529.855C331.738 530.228 331.693 530.66 331.693 531.15V531.601C331.693 532.088 331.738 532.519 331.827 532.896C331.916 533.268 332.047 533.584 332.22 533.842C332.394 534.096 332.605 534.288 332.855 534.419C333.105 534.551 333.39 534.616 333.712 534.616C334.034 534.616 334.317 534.551 334.562 534.419C334.812 534.288 335.022 534.096 335.191 533.842C335.364 533.584 335.496 533.268 335.584 532.896C335.673 532.519 335.718 532.088 335.718 531.601Z" fill="white"/>
<path d="M7.16406 16.835H8.47656C8.4082 17.4639 8.22819 18.0267 7.93652 18.5234C7.64486 19.0202 7.23242 19.4144 6.69922 19.7061C6.16602 19.9932 5.50065 20.1367 4.70312 20.1367C4.11979 20.1367 3.58887 20.0273 3.11035 19.8086C2.63639 19.5898 2.22852 19.2799 1.88672 18.8789C1.54492 18.4733 1.2806 17.988 1.09375 17.4229C0.911458 16.8532 0.820312 16.2197 0.820312 15.5225V14.5312C0.820312 13.834 0.911458 13.2028 1.09375 12.6377C1.2806 12.068 1.5472 11.5804 1.89355 11.1748C2.24447 10.7692 2.66602 10.457 3.1582 10.2383C3.65039 10.0195 4.2041 9.91016 4.81934 9.91016C5.57129 9.91016 6.20703 10.0514 6.72656 10.334C7.24609 10.6165 7.64941 11.0085 7.93652 11.5098C8.22819 12.0065 8.4082 12.583 8.47656 13.2393H7.16406C7.10026 12.7744 6.98177 12.3757 6.80859 12.043C6.63542 11.7057 6.38932 11.446 6.07031 11.2637C5.7513 11.0814 5.33431 10.9902 4.81934 10.9902C4.37728 10.9902 3.98763 11.0745 3.65039 11.2432C3.31771 11.4118 3.03743 11.651 2.80957 11.9609C2.58626 12.2708 2.41764 12.6423 2.30371 13.0752C2.18978 13.5081 2.13281 13.9889 2.13281 14.5176V15.5225C2.13281 16.0101 2.18294 16.4681 2.2832 16.8965C2.38802 17.3249 2.54525 17.7008 2.75488 18.0244C2.96452 18.348 3.23112 18.6032 3.55469 18.79C3.87826 18.9723 4.26107 19.0635 4.70312 19.0635C5.26367 19.0635 5.71029 18.9746 6.04297 18.7969C6.37565 18.6191 6.6263 18.3639 6.79492 18.0312C6.9681 17.6986 7.09115 17.2998 7.16406 16.835ZM13.0977 12.6035V20H11.8262V12.6035H13.0977ZM15.5791 12.6035V13.6289H9.39258V12.6035H15.5791ZM21.0752 18.7354V14.9277C21.0752 14.6361 21.016 14.3831 20.8975 14.1689C20.7835 13.9502 20.6104 13.7816 20.3779 13.6631C20.1455 13.5446 19.8584 13.4854 19.5166 13.4854C19.1976 13.4854 18.9173 13.54 18.6758 13.6494C18.4388 13.7588 18.252 13.9023 18.1152 14.0801C17.9831 14.2578 17.917 14.4492 17.917 14.6543H16.6523C16.6523 14.39 16.7207 14.1279 16.8574 13.8682C16.9941 13.6084 17.1901 13.3737 17.4453 13.1641C17.7051 12.9499 18.015 12.7812 18.375 12.6582C18.7396 12.5306 19.1452 12.4668 19.5918 12.4668C20.1296 12.4668 20.6035 12.5579 21.0137 12.7402C21.4284 12.9225 21.752 13.1982 21.9844 13.5674C22.2214 13.932 22.3398 14.39 22.3398 14.9414V18.3867C22.3398 18.6328 22.3604 18.8949 22.4014 19.1729C22.4469 19.4508 22.513 19.6901 22.5996 19.8906V20H21.2803C21.2165 19.8542 21.1663 19.6605 21.1299 19.4189C21.0934 19.1729 21.0752 18.945 21.0752 18.7354ZM21.2939 15.5156L21.3076 16.4043H20.0293C19.6693 16.4043 19.348 16.4339 19.0654 16.4932C18.7829 16.5479 18.5459 16.6322 18.3545 16.7461C18.1631 16.86 18.0173 17.0036 17.917 17.1768C17.8167 17.3454 17.7666 17.5436 17.7666 17.7715C17.7666 18.0039 17.819 18.2158 17.9238 18.4072C18.0286 18.5986 18.1859 18.7513 18.3955 18.8652C18.6097 18.9746 18.8717 19.0293 19.1816 19.0293C19.569 19.0293 19.9108 18.9473 20.207 18.7832C20.5033 18.6191 20.738 18.4186 20.9111 18.1816C21.0889 17.9447 21.1846 17.7145 21.1982 17.4912L21.7383 18.0996C21.7064 18.291 21.6198 18.5029 21.4785 18.7354C21.3372 18.9678 21.1481 19.1911 20.9111 19.4053C20.6787 19.6149 20.4007 19.7904 20.0771 19.9316C19.7581 20.0684 19.3981 20.1367 18.9971 20.1367C18.4958 20.1367 18.056 20.0387 17.6777 19.8428C17.304 19.6468 17.0124 19.3848 16.8027 19.0566C16.5977 18.724 16.4951 18.3525 16.4951 17.9424C16.4951 17.5459 16.5726 17.1973 16.7275 16.8965C16.8825 16.5911 17.1058 16.3382 17.3975 16.1377C17.6891 15.9326 18.04 15.7777 18.4502 15.6729C18.8604 15.568 19.3184 15.5156 19.8242 15.5156H21.2939ZM25.5938 14.0254V22.8438H24.3223V12.6035H25.4844L25.5938 14.0254ZM30.5771 16.2402V16.3838C30.5771 16.9215 30.5133 17.4206 30.3857 17.8809C30.2581 18.3366 30.0713 18.7331 29.8252 19.0703C29.5837 19.4076 29.2852 19.6696 28.9297 19.8564C28.5742 20.0433 28.1663 20.1367 27.7061 20.1367C27.2367 20.1367 26.8219 20.0592 26.4619 19.9043C26.1019 19.7493 25.7965 19.5238 25.5459 19.2275C25.2952 18.9313 25.0947 18.5758 24.9443 18.1611C24.7985 17.7464 24.6982 17.2793 24.6436 16.7598V15.9941C24.6982 15.4473 24.8008 14.9574 24.9512 14.5244C25.1016 14.0915 25.2998 13.7223 25.5459 13.417C25.7965 13.1071 26.0996 12.8724 26.4551 12.7129C26.8105 12.5488 27.2207 12.4668 27.6855 12.4668C28.1504 12.4668 28.5628 12.5579 28.9229 12.7402C29.2829 12.918 29.5859 13.1732 29.832 13.5059C30.0781 13.8385 30.2627 14.2373 30.3857 14.7021C30.5133 15.1624 30.5771 15.6751 30.5771 16.2402ZM29.3057 16.3838V16.2402C29.3057 15.8711 29.2669 15.5247 29.1895 15.2012C29.112 14.873 28.9912 14.5859 28.8271 14.3398C28.6676 14.0892 28.4626 13.8932 28.2119 13.752C27.9613 13.6061 27.6628 13.5332 27.3164 13.5332C26.9974 13.5332 26.7194 13.5879 26.4824 13.6973C26.25 13.8066 26.0518 13.9548 25.8877 14.1416C25.7236 14.3239 25.5892 14.5335 25.4844 14.7705C25.3841 15.0029 25.3089 15.2445 25.2588 15.4951V17.2656C25.3499 17.5846 25.4775 17.8854 25.6416 18.168C25.8057 18.446 26.0244 18.6715 26.2979 18.8447C26.5713 19.0133 26.9154 19.0977 27.3301 19.0977C27.6719 19.0977 27.9658 19.027 28.2119 18.8857C28.4626 18.7399 28.6676 18.5417 28.8271 18.291C28.9912 18.0404 29.112 17.7533 29.1895 17.4297C29.2669 17.1016 29.3057 16.7529 29.3057 16.3838ZM34.6582 12.6035V20H33.3867V12.6035H34.6582ZM37.1396 12.6035V13.6289H30.9531V12.6035H37.1396Z" fill="black" fill-opacity="0.5"/>
<path d="M4.60742 502.038H6.25488C6.8291 502.038 7.36003 502.136 7.84766 502.332C8.33984 502.523 8.76823 502.797 9.13281 503.152C9.50195 503.508 9.78906 503.932 9.99414 504.424C10.1992 504.911 10.3018 505.451 10.3018 506.044C10.3018 506.636 10.1992 507.179 9.99414 507.671C9.78906 508.163 9.50195 508.589 9.13281 508.949C8.76823 509.305 8.33984 509.58 7.84766 509.776C7.36003 509.968 6.8291 510.063 6.25488 510.063H4.60742C4.0332 510.063 3.50228 509.968 3.01465 509.776C2.52702 509.58 2.09863 509.305 1.72949 508.949C1.36491 508.594 1.08008 508.172 0.875 507.685C0.674479 507.192 0.574219 506.65 0.574219 506.058C0.574219 505.465 0.674479 504.925 0.875 504.438C1.08008 503.945 1.36491 503.521 1.72949 503.166C2.09863 502.806 2.52702 502.528 3.01465 502.332C3.50228 502.136 4.0332 502.038 4.60742 502.038ZM4.60742 503.077C4.01042 503.077 3.50456 503.202 3.08984 503.453C2.67513 503.699 2.36068 504.046 2.14648 504.492C1.93229 504.939 1.8252 505.461 1.8252 506.058C1.8252 506.509 1.88444 506.917 2.00293 507.281C2.12598 507.646 2.30599 507.958 2.54297 508.218C2.77995 508.478 3.07161 508.678 3.41797 508.819C3.76432 508.961 4.16081 509.031 4.60742 509.031H6.26855C6.861 509.031 7.3623 508.908 7.77246 508.662C8.18717 508.411 8.50163 508.063 8.71582 507.616C8.93457 507.165 9.04395 506.641 9.04395 506.044C9.04395 505.597 8.98242 505.192 8.85938 504.827C8.73633 504.463 8.55632 504.15 8.31934 503.891C8.08691 503.631 7.79753 503.43 7.45117 503.289C7.10938 503.148 6.71517 503.077 6.26855 503.077H4.60742ZM6.07031 500.637V511.41H4.80566V500.637H6.07031ZM13.1455 508.997L16.5566 503.604H17.8281V511H16.5566V505.606L13.1455 511H11.8877V503.604H13.1455V508.997ZM24.876 506.81V507.835H20.9658V506.81H24.876ZM21.2324 503.604V511H19.9678V503.604H21.2324ZM25.9014 503.604V511H24.6299V503.604H25.9014ZM29.3057 508.997L32.7168 503.604H33.9883V511H32.7168V505.606L29.3057 511H28.0479V503.604H29.3057V508.997ZM36.1279 503.604H37.3926V509.961H40.0996V503.604H41.3711V509.961H44.0713V503.604H45.3359V511H36.1279V503.604Z" fill="black" fill-opacity="0.5"/>
<path d="M288 108L293.774 98L282.226 98L288 108ZM287 59L287 99L289 99L289 59L287 59Z" fill="#6BBF56"/>
<path d="M288 206L293.774 196L282.226 196L288 206ZM287 157L287 197L289 197L289 157L287 157Z" fill="#6BBF56"/>
<path d="M288 304L293.774 294L282.226 294L288 304ZM287 255L287 295L289 295L289 255L287 255Z" fill="#6BBF56"/>
<path d="M288 598L293.774 588L282.226 588L288 598ZM287 549L287 589L289 589L289 549L287 549Z" fill="#6BBF56"/>
<path d="M354 402L351.011 390.846L342.846 399.011L354 402ZM304.293 353.707L346.929 396.343L348.343 394.929L305.707 352.293L304.293 353.707Z" fill="#6BBF56"/>
<path d="M305 500L307.989 488.846L316.154 497.011L305 500ZM354.707 451.707L312.071 494.343L310.657 492.929L353.293 450.293L354.707 451.707Z" fill="#6BBF56"/>
<path d="M216 402L218.989 390.846L227.154 399.011L216 402ZM265.707 353.707L223.071 396.343L221.657 394.929L264.293 352.293L265.707 353.707Z" fill="#6BBF56"/>
<path d="M265 500L262.011 488.846L253.846 497.011L265 500ZM215.293 451.707L257.929 494.343L259.343 492.929L216.707 450.293L215.293 451.707Z" fill="#6BBF56"/>
<rect x="35" y="402" width="230" height="49" rx="24.5" fill="#6D778D"/>
<rect x="305" y="402" width="230" height="49" rx="24.5" fill="#6D778D"/>
<path d="M124.844 426.163V426.601C124.844 427.304 124.749 427.934 124.559 428.493C124.368 429.051 124.099 429.527 123.752 429.921C123.405 430.31 122.991 430.609 122.508 430.816C122.03 431.023 121.499 431.127 120.915 431.127C120.335 431.127 119.804 431.023 119.322 430.816C118.844 430.609 118.429 430.31 118.078 429.921C117.726 429.527 117.453 429.051 117.259 428.493C117.068 427.934 116.973 427.304 116.973 426.601V426.163C116.973 425.456 117.068 424.826 117.259 424.271C117.449 423.713 117.718 423.237 118.065 422.843C118.416 422.45 118.831 422.149 119.309 421.942C119.792 421.735 120.323 421.631 120.902 421.631C121.486 421.631 122.017 421.735 122.496 421.942C122.978 422.149 123.393 422.45 123.74 422.843C124.091 423.237 124.362 423.713 124.552 424.271C124.747 424.826 124.844 425.456 124.844 426.163ZM122.921 426.601V426.15C122.921 425.66 122.876 425.228 122.788 424.855C122.699 424.483 122.568 424.17 122.394 423.916C122.221 423.662 122.009 423.472 121.759 423.345C121.51 423.214 121.224 423.148 120.902 423.148C120.581 423.148 120.295 423.214 120.045 423.345C119.8 423.472 119.59 423.662 119.417 423.916C119.248 424.17 119.119 424.483 119.03 424.855C118.941 425.228 118.896 425.66 118.896 426.15V426.601C118.896 427.088 118.941 427.519 119.03 427.896C119.119 428.268 119.25 428.584 119.423 428.842C119.597 429.096 119.808 429.288 120.058 429.419C120.308 429.551 120.593 429.616 120.915 429.616C121.237 429.616 121.522 429.551 121.772 429.419C122.022 429.288 122.231 429.096 122.4 428.842C122.57 428.584 122.699 428.268 122.788 427.896C122.876 427.519 122.921 427.088 122.921 426.601ZM132.258 421.758V423.25H128.101V431H126.203V421.758H132.258ZM127.447 425.128H129.605C130.333 425.128 130.959 425.249 131.484 425.49C132.009 425.731 132.413 426.07 132.696 426.506C132.98 426.942 133.122 427.45 133.122 428.029C133.122 428.469 133.041 428.871 132.88 429.235C132.72 429.595 132.485 429.908 132.176 430.175C131.871 430.437 131.503 430.64 131.071 430.784C130.64 430.928 130.151 431 129.605 431H126.203V421.758H128.113V429.515H129.605C129.969 429.515 130.269 429.447 130.506 429.312C130.743 429.176 130.921 428.996 131.04 428.772C131.162 428.543 131.224 428.292 131.224 428.017C131.224 427.754 131.162 427.517 131.04 427.306C130.921 427.09 130.743 426.921 130.506 426.798C130.269 426.675 129.969 426.614 129.605 426.614H127.447V425.128ZM137.152 427.648L139.425 421.758H141.475L138.308 429.21C138.198 429.464 138.071 429.707 137.927 429.94C137.787 430.168 137.62 430.374 137.425 430.556C137.231 430.733 136.998 430.875 136.727 430.981C136.456 431.083 136.132 431.133 135.756 431.133C135.663 431.133 135.549 431.131 135.413 431.127C135.278 431.123 135.17 431.116 135.089 431.108L135.077 429.623C135.127 429.635 135.208 429.644 135.318 429.648C135.428 429.648 135.508 429.648 135.559 429.648C135.809 429.648 136.006 429.612 136.149 429.54C136.293 429.468 136.408 429.367 136.492 429.235C136.581 429.1 136.659 428.941 136.727 428.759L137.152 427.648ZM135.648 421.758L137.755 426.334L138.346 428.436L136.93 428.461L133.604 421.758H135.648ZM142.522 421.758H144.433V424.595C144.433 425.001 144.494 425.319 144.617 425.547C144.744 425.776 144.935 425.937 145.188 426.03C145.447 426.119 145.766 426.163 146.147 426.163C146.291 426.163 146.46 426.157 146.655 426.144C146.854 426.131 147.057 426.112 147.264 426.087C147.472 426.057 147.67 426.026 147.861 425.992C148.051 425.954 148.21 425.911 148.337 425.865V427.35C148.21 427.392 148.051 427.433 147.861 427.471C147.67 427.509 147.472 427.543 147.264 427.572C147.057 427.598 146.854 427.617 146.655 427.629C146.46 427.642 146.291 427.648 146.147 427.648C145.411 427.648 144.772 427.543 144.23 427.331C143.688 427.119 143.267 426.789 142.967 426.341C142.671 425.888 142.522 425.306 142.522 424.595V421.758ZM147.937 421.758H149.841V431H147.937V421.758ZM157.693 429.515V431H152.774V429.515H157.693ZM153.396 421.758V431H151.492V421.758H153.396ZM157.052 425.522V426.969H152.774V425.522H157.052ZM157.687 421.758V423.25H152.774V421.758H157.687ZM164.968 425.522V427.007H160.144V425.522H164.968ZM160.708 421.758V431H158.804V421.758H160.708ZM166.326 421.758V431H164.428V421.758H166.326ZM169.817 428.004L173.531 421.758H175.435V431H173.531V424.754L169.817 431H167.913V421.758H169.817V428.004ZM183.287 429.515V431H178.368V429.515H183.287ZM178.99 421.758V431H177.085V421.758H178.99ZM182.646 425.522V426.969H178.368V425.522H182.646ZM183.281 421.758V423.25H178.368V421.758H183.281Z" fill="white"/>
<path d="M344.323 426.163V426.601C344.323 427.304 344.228 427.934 344.038 428.493C343.847 429.051 343.578 429.527 343.231 429.921C342.884 430.31 342.47 430.609 341.987 430.816C341.509 431.023 340.978 431.127 340.394 431.127C339.814 431.127 339.283 431.023 338.801 430.816C338.323 430.609 337.908 430.31 337.557 429.921C337.205 429.527 336.932 429.051 336.738 428.493C336.547 427.934 336.452 427.304 336.452 426.601V426.163C336.452 425.456 336.547 424.826 336.738 424.271C336.928 423.713 337.197 423.237 337.544 422.843C337.895 422.45 338.31 422.149 338.788 421.942C339.271 421.735 339.802 421.631 340.381 421.631C340.965 421.631 341.496 421.735 341.975 421.942C342.457 422.149 342.872 422.45 343.219 422.843C343.57 423.237 343.841 423.713 344.031 424.271C344.226 424.826 344.323 425.456 344.323 426.163ZM342.4 426.601V426.15C342.4 425.66 342.355 425.228 342.267 424.855C342.178 424.483 342.047 424.17 341.873 423.916C341.7 423.662 341.488 423.472 341.238 423.345C340.989 423.214 340.703 423.148 340.381 423.148C340.06 423.148 339.774 423.214 339.524 423.345C339.279 423.472 339.069 423.662 338.896 423.916C338.727 424.17 338.598 424.483 338.509 424.855C338.42 425.228 338.375 425.66 338.375 426.15V426.601C338.375 427.088 338.42 427.519 338.509 427.896C338.598 428.268 338.729 428.584 338.902 428.842C339.076 429.096 339.287 429.288 339.537 429.419C339.787 429.551 340.072 429.616 340.394 429.616C340.716 429.616 341.001 429.551 341.251 429.419C341.501 429.288 341.71 429.096 341.879 428.842C342.049 428.584 342.178 428.268 342.267 427.896C342.355 427.519 342.4 427.088 342.4 426.601ZM353.223 421.758V431H351.318V423.25H347.605V431H345.701V421.758H353.223ZM356.143 425.128H358.301C359.024 425.128 359.649 425.249 360.173 425.49C360.702 425.731 361.106 426.07 361.386 426.506C361.669 426.942 361.811 427.45 361.811 428.029C361.811 428.469 361.731 428.871 361.57 429.235C361.409 429.595 361.176 429.908 360.872 430.175C360.567 430.437 360.199 430.64 359.767 430.784C359.335 430.928 358.847 431 358.301 431H354.898V421.758H356.809V429.515H358.301C358.66 429.515 358.959 429.447 359.196 429.312C359.437 429.176 359.617 428.996 359.735 428.772C359.854 428.543 359.913 428.292 359.913 428.017C359.913 427.754 359.854 427.517 359.735 427.306C359.617 427.09 359.437 426.921 359.196 426.798C358.959 426.675 358.66 426.614 358.301 426.614H356.143V425.128ZM364.528 421.758V431H362.63V421.758H364.528ZM370.126 421.758V431H368.229V421.758H370.126ZM372.97 421.758V423.25H365.429V421.758H372.97ZM380.219 425.522V427.007H375.395V425.522H380.219ZM375.96 421.758V431H374.056V421.758H375.96ZM381.578 421.758V431H379.68V421.758H381.578ZM387.106 423.338L384.593 431H382.568L386.002 421.758H387.291L387.106 423.338ZM389.195 431L386.675 423.338L386.472 421.758H387.773L391.226 431H389.195ZM389.081 427.56V429.051H384.199V427.56H389.081ZM396.996 427.642H394.482L393.841 427.375C393.118 427.147 392.563 426.804 392.178 426.347C391.797 425.89 391.607 425.308 391.607 424.602C391.607 423.979 391.744 423.459 392.02 423.04C392.299 422.617 392.692 422.297 393.2 422.082C393.712 421.866 394.319 421.758 395.022 421.758H398.247V431H396.336V423.25H395.022C394.501 423.25 394.118 423.379 393.873 423.637C393.628 423.895 393.505 424.261 393.505 424.735C393.505 425.082 393.562 425.368 393.676 425.592C393.791 425.812 393.958 425.977 394.178 426.087C394.398 426.193 394.675 426.246 395.009 426.246H396.99L396.996 427.642ZM395.162 426.874L393.111 431H391.048L393.105 426.874H395.162ZM409.241 425.636V427.128H405.312V425.636H409.241ZM402.588 427.934H404.486C404.516 428.311 404.598 428.626 404.734 428.88C404.874 429.134 405.072 429.326 405.331 429.458C405.589 429.589 405.917 429.654 406.314 429.654C406.653 429.654 406.943 429.591 407.184 429.464C407.425 429.333 407.622 429.144 407.774 428.899C407.931 428.649 408.045 428.34 408.117 427.972C408.193 427.604 408.231 427.181 408.231 426.703V426.062C408.231 425.668 408.204 425.315 408.149 425.001C408.098 424.684 408.02 424.409 407.914 424.176C407.812 423.939 407.683 423.745 407.527 423.592C407.37 423.436 407.188 423.319 406.981 423.243C406.778 423.163 406.549 423.123 406.295 423.123C405.876 423.123 405.538 423.192 405.28 423.332C405.026 423.467 404.835 423.666 404.708 423.929C404.586 424.191 404.51 424.508 404.48 424.881H402.582C402.641 424.25 402.817 423.692 403.109 423.205C403.405 422.714 403.818 422.329 404.347 422.05C404.876 421.771 405.525 421.631 406.295 421.631C406.879 421.631 407.406 421.735 407.876 421.942C408.35 422.145 408.754 422.441 409.088 422.831C409.423 423.22 409.679 423.688 409.856 424.233C410.034 424.779 410.123 425.393 410.123 426.074V426.703C410.123 427.384 410.036 427.998 409.863 428.543C409.689 429.089 409.438 429.555 409.107 429.94C408.777 430.321 408.377 430.615 407.908 430.822C407.438 431.03 406.907 431.133 406.314 431.133C405.561 431.133 404.914 430.998 404.372 430.727C403.835 430.452 403.414 430.075 403.109 429.597C402.808 429.115 402.635 428.56 402.588 427.934ZM413.379 421.758V431H411.475V421.758H413.379ZM418.826 421.758L415.284 427.185H412.954L412.713 425.49H414.268L416.515 421.758H418.826ZM416.864 431L414.274 426.868L415.595 425.509L419.124 431H416.864ZM425.027 427.934H426.925C426.887 428.556 426.716 429.108 426.411 429.591C426.111 430.073 425.69 430.45 425.148 430.721C424.611 430.992 423.963 431.127 423.206 431.127C422.613 431.127 422.082 431.025 421.612 430.822C421.143 430.615 420.741 430.319 420.406 429.934C420.076 429.549 419.824 429.083 419.651 428.537C419.477 427.991 419.391 427.38 419.391 426.703V426.062C419.391 425.384 419.479 424.773 419.657 424.227C419.839 423.677 420.097 423.209 420.432 422.824C420.77 422.439 421.174 422.143 421.644 421.936C422.114 421.728 422.639 421.625 423.218 421.625C423.988 421.625 424.638 421.764 425.167 422.043C425.7 422.323 426.113 422.708 426.405 423.199C426.701 423.69 426.879 424.248 426.938 424.875H425.034C425.013 424.502 424.938 424.187 424.812 423.929C424.685 423.666 424.492 423.47 424.234 423.338C423.98 423.203 423.641 423.135 423.218 423.135C422.901 423.135 422.624 423.194 422.387 423.313C422.15 423.431 421.951 423.611 421.79 423.853C421.629 424.094 421.509 424.398 421.428 424.767C421.352 425.131 421.314 425.558 421.314 426.049V426.703C421.314 427.181 421.35 427.602 421.422 427.966C421.494 428.326 421.604 428.63 421.752 428.88C421.904 429.125 422.099 429.312 422.336 429.438C422.577 429.561 422.867 429.623 423.206 429.623C423.603 429.623 423.931 429.559 424.189 429.432C424.448 429.305 424.644 429.117 424.78 428.867C424.919 428.618 425.002 428.306 425.027 427.934ZM435.704 421.758V431H433.8V423.25H430.086V431H428.182V421.758H435.704ZM443.531 421.758V423.25H438.935V421.758H443.531ZM444.889 421.758V431H442.985V421.758H444.889ZM438.694 421.758H440.592L440.357 426.398C440.323 427.092 440.257 427.695 440.16 428.207C440.067 428.719 439.94 429.155 439.779 429.515C439.618 429.87 439.42 430.158 439.183 430.378C438.95 430.594 438.675 430.752 438.357 430.854C438.04 430.951 437.678 431 437.272 431H436.802V429.515L437.043 429.496C437.251 429.474 437.433 429.419 437.589 429.331C437.746 429.242 437.879 429.108 437.989 428.931C438.104 428.753 438.197 428.527 438.269 428.251C438.345 427.972 438.404 427.632 438.446 427.229C438.493 426.827 438.525 426.358 438.542 425.82L438.694 421.758ZM449.447 427.648L451.719 421.758H453.77L450.602 429.21C450.492 429.464 450.365 429.707 450.221 429.94C450.082 430.168 449.914 430.374 449.72 430.556C449.525 430.733 449.292 430.875 449.021 430.981C448.751 431.083 448.427 431.133 448.05 431.133C447.957 431.133 447.843 431.131 447.708 431.127C447.572 431.123 447.464 431.116 447.384 431.108L447.371 429.623C447.422 429.635 447.502 429.644 447.612 429.648C447.722 429.648 447.803 429.648 447.854 429.648C448.103 429.648 448.3 429.612 448.444 429.54C448.588 429.468 448.702 429.367 448.787 429.235C448.875 429.1 448.954 428.941 449.021 428.759L449.447 427.648ZM447.942 421.758L450.05 426.334L450.64 428.436L449.225 428.461L445.898 421.758H447.942ZM457.934 423.338L455.42 431H453.395L456.829 421.758H458.118L457.934 423.338ZM460.022 431L457.502 423.338L457.299 421.758H458.6L462.053 431H460.022ZM459.908 427.56V429.051H455.026V427.56H459.908ZM466.255 421.758V431H464.357V421.758H466.255ZM469.099 421.758V423.25H461.558V421.758H469.099ZM473.257 423.338L470.743 431H468.718L472.152 421.758H473.441L473.257 423.338ZM475.345 431L472.825 423.338L472.622 421.758H473.923L477.376 431H475.345ZM475.231 427.56V429.051H470.35V427.56H475.231ZM486.93 429.521L486.809 433.228H485.032V431H484.276V429.521H486.93ZM478.138 431V421.758H480.036V429.515H483.756V421.758H485.667V431H478.138ZM489.932 428.004L493.646 421.758H495.55V431H493.646V424.754L489.932 431H488.028V421.758H489.932V428.004ZM502.113 427.642H499.6L498.958 427.375C498.235 427.147 497.681 426.804 497.295 426.347C496.915 425.89 496.724 425.308 496.724 424.602C496.724 423.979 496.862 423.459 497.137 423.04C497.416 422.617 497.81 422.297 498.317 422.082C498.829 421.866 499.437 421.758 500.139 421.758H503.364V431H501.453V423.25H500.139C499.619 423.25 499.236 423.379 498.99 423.637C498.745 423.895 498.622 424.261 498.622 424.735C498.622 425.082 498.679 425.368 498.793 425.592C498.908 425.812 499.075 425.977 499.295 426.087C499.515 426.193 499.792 426.246 500.126 426.246H502.107L502.113 427.642ZM500.279 426.874L498.229 431H496.166L498.222 426.874H500.279Z" fill="white"/>
<rect x="170" y="304" width="230" height="49" rx="24.5" fill="#6D778D"/>
<path d="M232.695 325.338L230.182 333H228.157L231.591 323.758H232.879L232.695 325.338ZM234.784 333L232.264 325.338L232.061 323.758H233.362L236.815 333H234.784ZM234.669 329.56V331.051H229.788V329.56H234.669ZM241.29 328.944H238.916L238.903 327.636H240.896C241.248 327.636 241.535 327.592 241.76 327.503C241.984 327.41 242.151 327.277 242.261 327.103C242.375 326.925 242.433 326.709 242.433 326.456C242.433 326.168 242.378 325.935 242.268 325.757C242.162 325.58 241.995 325.451 241.766 325.37C241.542 325.29 241.252 325.25 240.896 325.25H239.576V333H237.672V323.758H240.896C241.434 323.758 241.914 323.809 242.337 323.91C242.765 324.012 243.127 324.166 243.423 324.374C243.719 324.581 243.945 324.843 244.102 325.161C244.259 325.474 244.337 325.846 244.337 326.278C244.337 326.659 244.25 327.01 244.077 327.332C243.907 327.653 243.639 327.916 243.271 328.119C242.907 328.322 242.431 328.434 241.842 328.455L241.29 328.944ZM241.208 333H238.396L239.138 331.515H241.208C241.542 331.515 241.815 331.462 242.026 331.356C242.238 331.246 242.395 331.098 242.496 330.912C242.598 330.725 242.648 330.512 242.648 330.271C242.648 330 242.602 329.765 242.509 329.566C242.42 329.367 242.276 329.215 242.077 329.109C241.878 328.999 241.616 328.944 241.29 328.944H239.456L239.468 327.636H241.753L242.191 328.15C242.754 328.142 243.207 328.241 243.55 328.449C243.897 328.652 244.149 328.916 244.305 329.242C244.466 329.568 244.546 329.917 244.546 330.29C244.546 330.882 244.417 331.381 244.159 331.788C243.901 332.19 243.522 332.492 243.023 332.695C242.528 332.898 241.923 333 241.208 333ZM249.929 323.758V333H248.031V323.758H249.929ZM252.773 323.758V325.25H245.232V323.758H252.773ZM261.272 328.163V328.601C261.272 329.304 261.177 329.934 260.987 330.493C260.796 331.051 260.528 331.527 260.181 331.921C259.834 332.31 259.419 332.609 258.937 332.816C258.458 333.023 257.927 333.127 257.343 333.127C256.764 333.127 256.232 333.023 255.75 332.816C255.272 332.609 254.857 332.31 254.506 331.921C254.155 331.527 253.882 331.051 253.687 330.493C253.497 329.934 253.401 329.304 253.401 328.601V328.163C253.401 327.456 253.497 326.826 253.687 326.271C253.877 325.713 254.146 325.237 254.493 324.843C254.844 324.45 255.259 324.149 255.737 323.942C256.22 323.735 256.751 323.631 257.331 323.631C257.915 323.631 258.446 323.735 258.924 323.942C259.406 324.149 259.821 324.45 260.168 324.843C260.519 325.237 260.79 325.713 260.98 326.271C261.175 326.826 261.272 327.456 261.272 328.163ZM259.349 328.601V328.15C259.349 327.66 259.305 327.228 259.216 326.855C259.127 326.483 258.996 326.17 258.822 325.916C258.649 325.662 258.437 325.472 258.188 325.345C257.938 325.214 257.652 325.148 257.331 325.148C257.009 325.148 256.723 325.214 256.474 325.345C256.228 325.472 256.019 325.662 255.845 325.916C255.676 326.17 255.547 326.483 255.458 326.855C255.369 327.228 255.325 327.66 255.325 328.15V328.601C255.325 329.088 255.369 329.519 255.458 329.896C255.547 330.268 255.678 330.584 255.852 330.842C256.025 331.096 256.237 331.288 256.486 331.419C256.736 331.551 257.022 331.616 257.343 331.616C257.665 331.616 257.951 331.551 258.2 331.419C258.45 331.288 258.659 331.096 258.829 330.842C258.998 330.584 259.127 330.268 259.216 329.896C259.305 329.519 259.349 329.088 259.349 328.601ZM263.513 323.758H265.125L267.5 330.543L269.874 323.758H271.486L268.147 333H266.852L263.513 323.758ZM262.644 323.758H264.25L264.542 330.372V333H262.644V323.758ZM270.75 323.758H272.362V333H270.458V330.372L270.75 323.758ZM277.903 325.338L275.39 333H273.365L276.799 323.758H278.087L277.903 325.338ZM279.992 333L277.472 325.338L277.269 323.758H278.57L282.023 333H279.992ZM279.877 329.56V331.051H274.996V329.56H279.877ZM286.225 323.758V333H284.327V323.758H286.225ZM289.069 323.758V325.25H281.528V323.758H289.069ZM291.989 330.004L295.702 323.758H297.606V333H295.702V326.754L291.989 333H290.084V323.758H291.989V330.004ZM302.71 328.569H301.275V327.56H302.418C302.752 327.56 303.023 327.509 303.23 327.408C303.438 327.302 303.59 327.154 303.688 326.963C303.785 326.773 303.833 326.549 303.833 326.291C303.833 326.079 303.778 325.884 303.668 325.707C303.563 325.529 303.398 325.387 303.173 325.281C302.949 325.171 302.663 325.116 302.316 325.116C302.054 325.116 301.815 325.163 301.599 325.256C301.383 325.349 301.212 325.48 301.085 325.649C300.958 325.814 300.895 326.015 300.895 326.252H298.997C298.997 325.846 299.083 325.482 299.257 325.161C299.435 324.835 299.676 324.56 299.98 324.335C300.289 324.107 300.645 323.933 301.047 323.815C301.449 323.696 301.872 323.637 302.316 323.637C302.837 323.637 303.307 323.694 303.726 323.809C304.145 323.919 304.504 324.084 304.805 324.304C305.105 324.524 305.336 324.797 305.497 325.123C305.657 325.448 305.738 325.827 305.738 326.259C305.738 326.576 305.666 326.875 305.522 327.154C305.378 327.433 305.173 327.679 304.906 327.89C304.64 328.102 304.32 328.269 303.948 328.392C303.575 328.51 303.163 328.569 302.71 328.569ZM301.275 328.017H302.71C303.214 328.017 303.66 328.07 304.049 328.176C304.443 328.282 304.775 328.436 305.046 328.639C305.321 328.842 305.528 329.094 305.668 329.395C305.812 329.691 305.884 330.031 305.884 330.417C305.884 330.848 305.795 331.231 305.617 331.565C305.444 331.9 305.196 332.183 304.875 332.416C304.557 332.649 304.181 332.824 303.745 332.943C303.313 333.061 302.837 333.121 302.316 333.121C301.902 333.121 301.489 333.07 301.079 332.968C300.668 332.862 300.296 332.702 299.961 332.486C299.627 332.27 299.361 331.993 299.162 331.654C298.963 331.316 298.863 330.91 298.863 330.436H300.774C300.774 330.66 300.84 330.865 300.971 331.051C301.102 331.233 301.284 331.379 301.517 331.489C301.749 331.595 302.016 331.648 302.316 331.648C302.668 331.648 302.966 331.593 303.211 331.483C303.461 331.373 303.649 331.223 303.776 331.032C303.908 330.838 303.973 330.624 303.973 330.391C303.973 330.141 303.939 329.93 303.872 329.756C303.804 329.583 303.704 329.441 303.573 329.331C303.442 329.217 303.279 329.134 303.084 329.083C302.894 329.033 302.672 329.007 302.418 329.007H301.275V328.017ZM311.051 325.338L308.537 333H306.512L309.946 323.758H311.235L311.051 325.338ZM313.139 333L310.619 325.338L310.416 323.758H311.717L315.17 333H313.139ZM313.025 329.56V331.051H308.144V329.56H313.025ZM324.724 331.521L324.603 335.228H322.826V333H322.07V331.521H324.724ZM315.932 333V323.758H317.83V331.515H321.55V323.758H323.46V333H315.932ZM327.726 330.004L331.439 323.758H333.344V333H331.439V326.754L327.726 333H325.822V323.758H327.726V330.004ZM339.907 329.642H337.394L336.752 329.375C336.029 329.147 335.474 328.804 335.089 328.347C334.708 327.89 334.518 327.308 334.518 326.602C334.518 325.979 334.656 325.459 334.931 325.04C335.21 324.617 335.604 324.297 336.111 324.082C336.623 323.866 337.231 323.758 337.933 323.758H341.158V333H339.247V325.25H337.933C337.413 325.25 337.03 325.379 336.784 325.637C336.539 325.895 336.416 326.261 336.416 326.735C336.416 327.082 336.473 327.368 336.587 327.592C336.702 327.812 336.869 327.977 337.089 328.087C337.309 328.193 337.586 328.246 337.92 328.246H339.901L339.907 329.642ZM338.073 328.874L336.022 333H333.959L336.016 328.874H338.073Z" fill="white"/>
</svg>
