<svg width="53" height="39" viewBox="0 0 53 39" fill="none" xmlns="http://www.w3.org/2000/svg">
<path d="M51.9374 9.07287C51.3063 5.04048 47.2039 1.16727 43.2593 0.795866C37.6316 0.265289 32.004 0 26.3237 0C20.6435 0 15.0158 0.265289 9.38818 0.795866C5.49616 1.16727 1.34117 5.04049 0.710031 9.12593C-0.236677 15.7051 -0.236677 22.3904 0.710031 28.9695C1.34117 33.0019 5.44357 36.8751 9.38818 37.2996C15.0158 37.8302 20.6435 38.0955 26.3237 38.0955C32.004 38.0955 37.6316 37.8302 43.2593 37.2996C47.1513 36.9282 51.3063 33.055 51.9374 28.9695C52.8315 22.3373 52.8315 15.652 51.9374 9.07287ZM48.2558 28.3859C47.8876 30.7204 45.2053 33.3203 42.8911 33.5325C37.4213 34.0631 31.7936 34.2753 26.2711 34.2753C20.7487 34.2753 15.1736 34.01 9.70375 33.5325C7.44217 33.3203 4.75984 30.7204 4.39167 28.3859C3.49756 22.1781 3.49756 15.8112 4.39167 9.60345C4.75984 7.26891 7.44217 4.66908 9.75635 4.45685C15.2262 3.92627 20.8539 3.71404 26.3763 3.71404C31.8988 3.71404 37.4738 3.97933 42.9437 4.45685C45.2579 4.66908 47.9402 7.26891 48.3084 9.60345C49.1499 15.8112 49.1499 22.1781 48.2558 28.3859Z" fill="white"/>
<path d="M33.2036 16.3119L24.8651 11.342C23.1872 10.3287 21.7635 11.0525 21.7635 12.9825V23.3084C21.7635 25.1902 23.1364 25.9622 24.8651 24.9489L33.2036 19.979C34.8815 18.9657 34.8815 17.3252 33.2036 16.3119Z" fill="white"/>
</svg>
