<svg width="786" height="481" viewBox="0 0 786 481" fill="none" xmlns="http://www.w3.org/2000/svg">
<path d="M331.843 11.3184C334.968 11.3184 337.502 8.7847 337.502 5.65921C337.502 2.53372 334.968 0 331.843 0C328.717 0 326.184 2.53372 326.184 5.65921C326.184 8.7847 328.717 11.3184 331.843 11.3184Z" fill="#60C74B"/>
<path d="M311.448 31.711C314.574 31.711 317.107 29.1773 317.107 26.0518C317.107 22.9263 314.574 20.3926 311.448 20.3926C308.323 20.3926 305.789 22.9263 305.789 26.0518C305.789 29.1773 308.323 31.711 311.448 31.711Z" fill="#60C74B"/>
<path d="M331.843 31.711C334.968 31.711 337.502 29.1773 337.502 26.0518C337.502 22.9263 334.968 20.3926 331.843 20.3926C328.717 20.3926 326.184 22.9263 326.184 26.0518C326.184 29.1773 328.717 31.711 331.843 31.711Z" fill="#60C74B"/>
<path d="M352.222 31.711C355.347 31.711 357.881 29.1773 357.881 26.0518C357.881 22.9263 355.347 20.3926 352.222 20.3926C349.096 20.3926 346.562 22.9263 346.562 26.0518C346.562 29.1773 349.096 31.711 352.222 31.711Z" fill="#60C74B"/>
<path d="M331.843 52.0938C334.968 52.0938 337.502 49.5601 337.502 46.4346C337.502 43.3091 334.968 40.7754 331.843 40.7754C328.717 40.7754 326.184 43.3091 326.184 46.4346C326.184 49.5601 328.717 52.0938 331.843 52.0938Z" fill="#60C74B"/>
<path d="M352.222 52.0938C355.347 52.0938 357.881 49.5601 357.881 46.4346C357.881 43.3091 355.347 40.7754 352.222 40.7754C349.096 40.7754 346.562 43.3091 346.562 46.4346C346.562 49.5601 349.096 52.0938 352.222 52.0938Z" fill="#60C74B"/>
<path d="M372.616 72.4864C375.742 72.4864 378.275 69.9527 378.275 66.8272C378.275 63.7017 375.742 61.168 372.616 61.168C369.491 61.168 366.957 63.7017 366.957 66.8272C366.957 69.9527 369.491 72.4864 372.616 72.4864Z" fill="#60C74B"/>
<path d="M372.616 92.8692C375.742 92.8692 378.275 90.3355 378.275 87.21C378.275 84.0845 375.742 81.5508 372.616 81.5508C369.491 81.5508 366.957 84.0845 366.957 87.21C366.957 90.3355 369.491 92.8692 372.616 92.8692Z" fill="#60C74B"/>
<path d="M189.138 113.252C192.263 113.252 194.797 110.718 194.797 107.593C194.797 104.467 192.263 101.934 189.138 101.934C186.012 101.934 183.479 104.467 183.479 107.593C183.479 110.718 186.012 113.252 189.138 113.252Z" fill="#60C74B"/>
<path d="M372.616 113.252C375.742 113.252 378.275 110.718 378.275 107.593C378.275 104.467 375.742 101.934 372.616 101.934C369.491 101.934 366.957 104.467 366.957 107.593C366.957 110.718 369.491 113.252 372.616 113.252Z" fill="#60C74B"/>
<path d="M393 113.252C396.126 113.252 398.659 110.718 398.659 107.593C398.659 104.467 396.126 101.934 393 101.934C389.875 101.934 387.341 104.467 387.341 107.593C387.341 110.718 389.875 113.252 393 113.252Z" fill="#60C74B"/>
<path d="M413.385 113.252C416.51 113.252 419.044 110.718 419.044 107.593C419.044 104.467 416.51 101.934 413.385 101.934C410.259 101.934 407.726 104.467 407.726 107.593C407.726 110.718 410.259 113.252 413.385 113.252Z" fill="#60C74B"/>
<path d="M148.369 133.645C151.495 133.645 154.028 131.111 154.028 127.985C154.028 124.86 151.495 122.326 148.369 122.326C145.244 122.326 142.71 124.86 142.71 127.985C142.71 131.111 145.244 133.645 148.369 133.645Z" fill="#60C74B"/>
<path d="M168.753 133.645C171.878 133.645 174.412 131.111 174.412 127.985C174.412 124.86 171.878 122.326 168.753 122.326C165.627 122.326 163.094 124.86 163.094 127.985C163.094 131.111 165.627 133.645 168.753 133.645Z" fill="#60C74B"/>
<path d="M311.448 133.645C314.574 133.645 317.107 131.111 317.107 127.985C317.107 124.86 314.574 122.326 311.448 122.326C308.323 122.326 305.789 124.86 305.789 127.985C305.789 131.111 308.323 133.645 311.448 133.645Z" fill="#60C74B"/>
<path d="M331.843 133.645C334.968 133.645 337.502 131.111 337.502 127.985C337.502 124.86 334.968 122.326 331.843 122.326C328.717 122.326 326.184 124.86 326.184 127.985C326.184 131.111 328.717 133.645 331.843 133.645Z" fill="#60C74B"/>
<path d="M352.222 133.645C355.347 133.645 357.881 131.111 357.881 127.985C357.881 124.86 355.347 122.326 352.222 122.326C349.096 122.326 346.562 124.86 346.562 127.985C346.562 131.111 349.096 133.645 352.222 133.645Z" fill="#60C74B"/>
<path d="M372.616 133.645C375.742 133.645 378.275 131.111 378.275 127.985C378.275 124.86 375.742 122.326 372.616 122.326C369.491 122.326 366.957 124.86 366.957 127.985C366.957 131.111 369.491 133.645 372.616 133.645Z" fill="#60C74B"/>
<path d="M393 133.645C396.126 133.645 398.659 131.111 398.659 127.985C398.659 124.86 396.126 122.326 393 122.326C389.875 122.326 387.341 124.86 387.341 127.985C387.341 131.111 389.875 133.645 393 133.645Z" fill="#60C74B"/>
<path d="M413.385 133.645C416.51 133.645 419.044 131.111 419.044 127.985C419.044 124.86 416.51 122.326 413.385 122.326C410.259 122.326 407.726 124.86 407.726 127.985C407.726 131.111 410.259 133.645 413.385 133.645Z" fill="#60C74B"/>
<path d="M535.705 133.645C538.831 133.645 541.364 131.111 541.364 127.985C541.364 124.86 538.831 122.326 535.705 122.326C532.58 122.326 530.046 124.86 530.046 127.985C530.046 131.111 532.58 133.645 535.705 133.645Z" fill="#60C74B"/>
<path d="M556.085 133.645C559.21 133.645 561.744 131.111 561.744 127.985C561.744 124.86 559.21 122.326 556.085 122.326C552.96 122.326 550.426 124.86 550.426 127.985C550.426 131.111 552.96 133.645 556.085 133.645Z" fill="#60C74B"/>
<path d="M148.369 154.029C151.495 154.029 154.028 151.496 154.028 148.37C154.028 145.245 151.495 142.711 148.369 142.711C145.244 142.711 142.71 145.245 142.71 148.37C142.71 151.496 145.244 154.029 148.369 154.029Z" fill="#60C74B"/>
<path d="M291.064 154.029C294.19 154.029 296.724 151.496 296.724 148.37C296.724 145.245 294.19 142.711 291.064 142.711C287.939 142.711 285.405 145.245 285.405 148.37C285.405 151.496 287.939 154.029 291.064 154.029Z" fill="#60C74B"/>
<path d="M311.448 154.029C314.574 154.029 317.107 151.496 317.107 148.37C317.107 145.245 314.574 142.711 311.448 142.711C308.323 142.711 305.789 145.245 305.789 148.37C305.789 151.496 308.323 154.029 311.448 154.029Z" fill="#60C74B"/>
<path d="M331.843 154.029C334.968 154.029 337.502 151.496 337.502 148.37C337.502 145.245 334.968 142.711 331.843 142.711C328.717 142.711 326.184 145.245 326.184 148.37C326.184 151.496 328.717 154.029 331.843 154.029Z" fill="#60C74B"/>
<path d="M352.222 154.029C355.347 154.029 357.881 151.496 357.881 148.37C357.881 145.245 355.347 142.711 352.222 142.711C349.096 142.711 346.562 145.245 346.562 148.37C346.562 151.496 349.096 154.029 352.222 154.029Z" fill="#60C74B"/>
<path d="M372.616 154.029C375.742 154.029 378.275 151.496 378.275 148.37C378.275 145.245 375.742 142.711 372.616 142.711C369.491 142.711 366.957 145.245 366.957 148.37C366.957 151.496 369.491 154.029 372.616 154.029Z" fill="#60C74B"/>
<path d="M393 154.029C396.126 154.029 398.659 151.496 398.659 148.37C398.659 145.245 396.126 142.711 393 142.711C389.875 142.711 387.341 145.245 387.341 148.37C387.341 151.496 389.875 154.029 393 154.029Z" fill="#60C74B"/>
<path d="M413.385 154.029C416.51 154.029 419.044 151.496 419.044 148.37C419.044 145.245 416.51 142.711 413.385 142.711C410.259 142.711 407.726 145.245 407.726 148.37C407.726 151.496 410.259 154.029 413.385 154.029Z" fill="#60C74B"/>
<path d="M209.532 174.412C212.658 174.412 215.191 171.878 215.191 168.753C215.191 165.627 212.658 163.094 209.532 163.094C206.407 163.094 203.873 165.627 203.873 168.753C203.873 171.878 206.407 174.412 209.532 174.412Z" fill="#60C74B"/>
<path d="M270.68 174.412C273.805 174.412 276.339 171.878 276.339 168.753C276.339 165.627 273.805 163.094 270.68 163.094C267.554 163.094 265.021 165.627 265.021 168.753C265.021 171.878 267.554 174.412 270.68 174.412Z" fill="#60C74B"/>
<path d="M291.064 174.412C294.19 174.412 296.724 171.878 296.724 168.753C296.724 165.627 294.19 163.094 291.064 163.094C287.939 163.094 285.405 165.627 285.405 168.753C285.405 171.878 287.939 174.412 291.064 174.412Z" fill="#60C74B"/>
<path d="M311.448 174.412C314.574 174.412 317.107 171.878 317.107 168.753C317.107 165.627 314.574 163.094 311.448 163.094C308.323 163.094 305.789 165.627 305.789 168.753C305.789 171.878 308.323 174.412 311.448 174.412Z" fill="#60C74B"/>
<path d="M331.843 174.412C334.968 174.412 337.502 171.878 337.502 168.753C337.502 165.627 334.968 163.094 331.843 163.094C328.717 163.094 326.184 165.627 326.184 168.753C326.184 171.878 328.717 174.412 331.843 174.412Z" fill="#60C74B"/>
<path d="M352.222 174.412C355.347 174.412 357.881 171.878 357.881 168.753C357.881 165.627 355.347 163.094 352.222 163.094C349.096 163.094 346.562 165.627 346.562 168.753C346.562 171.878 349.096 174.412 352.222 174.412Z" fill="#60C74B"/>
<path d="M372.616 174.412C375.742 174.412 378.275 171.878 378.275 168.753C378.275 165.627 375.742 163.094 372.616 163.094C369.491 163.094 366.957 165.627 366.957 168.753C366.957 171.878 369.491 174.412 372.616 174.412Z" fill="#60C74B"/>
<path d="M413.385 174.412C416.51 174.412 419.044 171.878 419.044 168.753C419.044 165.627 416.51 163.094 413.385 163.094C410.259 163.094 407.726 165.627 407.726 168.753C407.726 171.878 410.259 174.412 413.385 174.412Z" fill="#60C74B"/>
<path d="M433.774 174.412C436.9 174.412 439.434 171.878 439.434 168.753C439.434 165.627 436.9 163.094 433.774 163.094C430.649 163.094 428.115 165.627 428.115 168.753C428.115 171.878 430.649 174.412 433.774 174.412Z" fill="#60C74B"/>
<path d="M474.543 174.412C477.669 174.412 480.202 171.878 480.202 168.753C480.202 165.627 477.669 163.094 474.543 163.094C471.418 163.094 468.884 165.627 468.884 168.753C468.884 171.878 471.418 174.412 474.543 174.412Z" fill="#60C74B"/>
<path d="M556.085 174.412C559.21 174.412 561.744 171.878 561.744 168.753C561.744 165.627 559.21 163.094 556.085 163.094C552.96 163.094 550.426 165.627 550.426 168.753C550.426 171.878 552.96 174.412 556.085 174.412Z" fill="#60C74B"/>
<path d="M127.98 194.803C131.105 194.803 133.639 192.269 133.639 189.144C133.639 186.018 131.105 183.484 127.98 183.484C124.854 183.484 122.32 186.018 122.32 189.144C122.32 192.269 124.854 194.803 127.98 194.803Z" fill="#60C74B"/>
<path d="M209.532 194.803C212.658 194.803 215.191 192.269 215.191 189.144C215.191 186.018 212.658 183.484 209.532 183.484C206.407 183.484 203.873 186.018 203.873 189.144C203.873 192.269 206.407 194.803 209.532 194.803Z" fill="#60C74B"/>
<path d="M250.296 194.803C253.421 194.803 255.955 192.269 255.955 189.144C255.955 186.018 253.421 183.484 250.296 183.484C247.17 183.484 244.637 186.018 244.637 189.144C244.637 192.269 247.17 194.803 250.296 194.803Z" fill="#60C74B"/>
<path d="M270.68 194.803C273.805 194.803 276.339 192.269 276.339 189.144C276.339 186.018 273.805 183.484 270.68 183.484C267.554 183.484 265.021 186.018 265.021 189.144C265.021 192.269 267.554 194.803 270.68 194.803Z" fill="#60C74B"/>
<path d="M291.064 194.803C294.19 194.803 296.724 192.269 296.724 189.144C296.724 186.018 294.19 183.484 291.064 183.484C287.939 183.484 285.405 186.018 285.405 189.144C285.405 192.269 287.939 194.803 291.064 194.803Z" fill="#60C74B"/>
<path d="M311.448 194.803C314.574 194.803 317.107 192.269 317.107 189.144C317.107 186.018 314.574 183.484 311.448 183.484C308.323 183.484 305.789 186.018 305.789 189.144C305.789 192.269 308.323 194.803 311.448 194.803Z" fill="#60C74B"/>
<path d="M331.843 194.803C334.968 194.803 337.502 192.269 337.502 189.144C337.502 186.018 334.968 183.484 331.843 183.484C328.717 183.484 326.184 186.018 326.184 189.144C326.184 192.269 328.717 194.803 331.843 194.803Z" fill="#60C74B"/>
<path d="M352.222 194.803C355.347 194.803 357.881 192.269 357.881 189.144C357.881 186.018 355.347 183.484 352.222 183.484C349.096 183.484 346.562 186.018 346.562 189.144C346.562 192.269 349.096 194.803 352.222 194.803Z" fill="#60C74B"/>
<path d="M372.616 194.803C375.742 194.803 378.275 192.269 378.275 189.144C378.275 186.018 375.742 183.484 372.616 183.484C369.491 183.484 366.957 186.018 366.957 189.144C366.957 192.269 369.491 194.803 372.616 194.803Z" fill="#60C74B"/>
<path d="M393 194.803C396.126 194.803 398.659 192.269 398.659 189.144C398.659 186.018 396.126 183.484 393 183.484C389.875 183.484 387.341 186.018 387.341 189.144C387.341 192.269 389.875 194.803 393 194.803Z" fill="#60C74B"/>
<path d="M413.385 194.803C416.51 194.803 419.044 192.269 419.044 189.144C419.044 186.018 416.51 183.484 413.385 183.484C410.259 183.484 407.726 186.018 407.726 189.144C407.726 192.269 410.259 194.803 413.385 194.803Z" fill="#60C74B"/>
<path d="M433.774 194.803C436.9 194.803 439.434 192.269 439.434 189.144C439.434 186.018 436.9 183.484 433.774 183.484C430.649 183.484 428.115 186.018 428.115 189.144C428.115 192.269 430.649 194.803 433.774 194.803Z" fill="#60C74B"/>
<path d="M454.158 194.803C457.284 194.803 459.817 192.269 459.817 189.144C459.817 186.018 457.284 183.484 454.158 183.484C451.033 183.484 448.499 186.018 448.499 189.144C448.499 192.269 451.033 194.803 454.158 194.803Z" fill="#60C74B"/>
<path d="M474.543 194.803C477.669 194.803 480.202 192.269 480.202 189.144C480.202 186.018 477.669 183.484 474.543 183.484C471.418 183.484 468.884 186.018 468.884 189.144C468.884 192.269 471.418 194.803 474.543 194.803Z" fill="#60C74B"/>
<path d="M494.937 194.803C498.062 194.803 500.596 192.269 500.596 189.144C500.596 186.018 498.062 183.484 494.937 183.484C491.811 183.484 489.277 186.018 489.277 189.144C489.277 192.269 491.811 194.803 494.937 194.803Z" fill="#60C74B"/>
<path d="M556.085 194.803C559.21 194.803 561.744 192.269 561.744 189.144C561.744 186.018 559.21 183.484 556.085 183.484C552.96 183.484 550.426 186.018 550.426 189.144C550.426 192.269 552.96 194.803 556.085 194.803Z" fill="#60C74B"/>
<path d="M576.469 194.803C579.594 194.803 582.128 192.269 582.128 189.144C582.128 186.018 579.594 183.484 576.469 183.484C573.343 183.484 570.81 186.018 570.81 189.144C570.81 192.269 573.343 194.803 576.469 194.803Z" fill="#60C74B"/>
<path d="M127.98 215.191C131.105 215.191 133.639 212.658 133.639 209.532C133.639 206.407 131.105 203.873 127.98 203.873C124.854 203.873 122.32 206.407 122.32 209.532C122.32 212.658 124.854 215.191 127.98 215.191Z" fill="#60C74B"/>
<path d="M209.532 215.191C212.658 215.191 215.191 212.658 215.191 209.532C215.191 206.407 212.658 203.873 209.532 203.873C206.407 203.873 203.873 206.407 203.873 209.532C203.873 212.658 206.407 215.191 209.532 215.191Z" fill="#60C74B"/>
<path d="M229.911 215.191C233.037 215.191 235.57 212.658 235.57 209.532C235.57 206.407 233.037 203.873 229.911 203.873C226.786 203.873 224.252 206.407 224.252 209.532C224.252 212.658 226.786 215.191 229.911 215.191Z" fill="#60C74B"/>
<path d="M250.296 215.191C253.421 215.191 255.955 212.658 255.955 209.532C255.955 206.407 253.421 203.873 250.296 203.873C247.17 203.873 244.637 206.407 244.637 209.532C244.637 212.658 247.17 215.191 250.296 215.191Z" fill="#60C74B"/>
<path d="M291.064 215.191C294.19 215.191 296.724 212.658 296.724 209.532C296.724 206.407 294.19 203.873 291.064 203.873C287.939 203.873 285.405 206.407 285.405 209.532C285.405 212.658 287.939 215.191 291.064 215.191Z" fill="#60C74B"/>
<path d="M311.448 215.191C314.574 215.191 317.107 212.658 317.107 209.532C317.107 206.407 314.574 203.873 311.448 203.873C308.323 203.873 305.789 206.407 305.789 209.532C305.789 212.658 308.323 215.191 311.448 215.191Z" fill="#60C74B"/>
<path d="M331.843 215.191C334.968 215.191 337.502 212.658 337.502 209.532C337.502 206.407 334.968 203.873 331.843 203.873C328.717 203.873 326.184 206.407 326.184 209.532C326.184 212.658 328.717 215.191 331.843 215.191Z" fill="#60C74B"/>
<path d="M352.222 215.191C355.347 215.191 357.881 212.658 357.881 209.532C357.881 206.407 355.347 203.873 352.222 203.873C349.096 203.873 346.562 206.407 346.562 209.532C346.562 212.658 349.096 215.191 352.222 215.191Z" fill="#60C74B"/>
<path d="M372.616 215.191C375.742 215.191 378.275 212.658 378.275 209.532C378.275 206.407 375.742 203.873 372.616 203.873C369.491 203.873 366.957 206.407 366.957 209.532C366.957 212.658 369.491 215.191 372.616 215.191Z" fill="#60C74B"/>
<path d="M393 215.191C396.126 215.191 398.659 212.658 398.659 209.532C398.659 206.407 396.126 203.873 393 203.873C389.875 203.873 387.341 206.407 387.341 209.532C387.341 212.658 389.875 215.191 393 215.191Z" fill="#60C74B"/>
<path d="M413.385 215.191C416.51 215.191 419.044 212.658 419.044 209.532C419.044 206.407 416.51 203.873 413.385 203.873C410.259 203.873 407.726 206.407 407.726 209.532C407.726 212.658 410.259 215.191 413.385 215.191Z" fill="#60C74B"/>
<path d="M433.774 215.191C436.9 215.191 439.434 212.658 439.434 209.532C439.434 206.407 436.9 203.873 433.774 203.873C430.649 203.873 428.115 206.407 428.115 209.532C428.115 212.658 430.649 215.191 433.774 215.191Z" fill="#60C74B"/>
<path d="M454.158 215.191C457.284 215.191 459.817 212.658 459.817 209.532C459.817 206.407 457.284 203.873 454.158 203.873C451.033 203.873 448.499 206.407 448.499 209.532C448.499 212.658 451.033 215.191 454.158 215.191Z" fill="#60C74B"/>
<path d="M474.543 215.191C477.669 215.191 480.202 212.658 480.202 209.532C480.202 206.407 477.669 203.873 474.543 203.873C471.418 203.873 468.884 206.407 468.884 209.532C468.884 212.658 471.418 215.191 474.543 215.191Z" fill="#60C74B"/>
<path d="M494.937 215.191C498.062 215.191 500.596 212.658 500.596 209.532C500.596 206.407 498.062 203.873 494.937 203.873C491.811 203.873 489.277 206.407 489.277 209.532C489.277 212.658 491.811 215.191 494.937 215.191Z" fill="#60C74B"/>
<path d="M515.321 215.191C518.447 215.191 520.98 212.658 520.98 209.532C520.98 206.407 518.447 203.873 515.321 203.873C512.196 203.873 509.662 206.407 509.662 209.532C509.662 212.658 512.196 215.191 515.321 215.191Z" fill="#60C74B"/>
<path d="M535.705 215.191C538.831 215.191 541.364 212.658 541.364 209.532C541.364 206.407 538.831 203.873 535.705 203.873C532.58 203.873 530.046 206.407 530.046 209.532C530.046 212.658 532.58 215.191 535.705 215.191Z" fill="#60C74B"/>
<path d="M556.085 215.191C559.21 215.191 561.744 212.658 561.744 209.532C561.744 206.407 559.21 203.873 556.085 203.873C552.96 203.873 550.426 206.407 550.426 209.532C550.426 212.658 552.96 215.191 556.085 215.191Z" fill="#60C74B"/>
<path d="M576.469 215.191C579.594 215.191 582.128 212.658 582.128 209.532C582.128 206.407 579.594 203.873 576.469 203.873C573.343 203.873 570.81 206.407 570.81 209.532C570.81 212.658 573.343 215.191 576.469 215.191Z" fill="#60C74B"/>
<path d="M596.863 215.191C599.989 215.191 602.522 212.658 602.522 209.532C602.522 206.407 599.989 203.873 596.863 203.873C593.738 203.873 591.204 206.407 591.204 209.532C591.204 212.658 593.738 215.191 596.863 215.191Z" fill="#60C74B"/>
<path d="M637.627 215.191C640.752 215.191 643.286 212.658 643.286 209.532C643.286 206.407 640.752 203.873 637.627 203.873C634.502 203.873 631.968 206.407 631.968 209.532C631.968 212.658 634.502 215.191 637.627 215.191Z" fill="#60C74B"/>
<path d="M739.563 215.191C742.689 215.191 745.223 212.658 745.223 209.532C745.223 206.407 742.689 203.873 739.563 203.873C736.438 203.873 733.904 206.407 733.904 209.532C733.904 212.658 736.438 215.191 739.563 215.191Z" fill="#60C74B"/>
<path d="M26.044 235.574C29.1695 235.574 31.7032 233.041 31.7032 229.915C31.7032 226.79 29.1695 224.256 26.044 224.256C22.9185 224.256 20.3848 226.79 20.3848 229.915C20.3848 233.041 22.9185 235.574 26.044 235.574Z" fill="#60C74B"/>
<path d="M168.753 235.574C171.878 235.574 174.412 233.041 174.412 229.915C174.412 226.79 171.878 224.256 168.753 224.256C165.627 224.256 163.094 226.79 163.094 229.915C163.094 233.041 165.627 235.574 168.753 235.574Z" fill="#60C74B"/>
<path d="M209.532 235.574C212.658 235.574 215.191 233.041 215.191 229.915C215.191 226.79 212.658 224.256 209.532 224.256C206.407 224.256 203.873 226.79 203.873 229.915C203.873 233.041 206.407 235.574 209.532 235.574Z" fill="#60C74B"/>
<path d="M229.911 235.574C233.037 235.574 235.57 233.041 235.57 229.915C235.57 226.79 233.037 224.256 229.911 224.256C226.786 224.256 224.252 226.79 224.252 229.915C224.252 233.041 226.786 235.574 229.911 235.574Z" fill="#60C74B"/>
<path d="M250.296 235.574C253.421 235.574 255.955 233.041 255.955 229.915C255.955 226.79 253.421 224.256 250.296 224.256C247.17 224.256 244.637 226.79 244.637 229.915C244.637 233.041 247.17 235.574 250.296 235.574Z" fill="#60C74B"/>
<path d="M270.68 235.574C273.805 235.574 276.339 233.041 276.339 229.915C276.339 226.79 273.805 224.256 270.68 224.256C267.554 224.256 265.021 226.79 265.021 229.915C265.021 233.041 267.554 235.574 270.68 235.574Z" fill="#60C74B"/>
<path d="M291.064 235.574C294.19 235.574 296.724 233.041 296.724 229.915C296.724 226.79 294.19 224.256 291.064 224.256C287.939 224.256 285.405 226.79 285.405 229.915C285.405 233.041 287.939 235.574 291.064 235.574Z" fill="#60C74B"/>
<path d="M311.448 235.574C314.574 235.574 317.107 233.041 317.107 229.915C317.107 226.79 314.574 224.256 311.448 224.256C308.323 224.256 305.789 226.79 305.789 229.915C305.789 233.041 308.323 235.574 311.448 235.574Z" fill="#60C74B"/>
<path d="M331.843 235.574C334.968 235.574 337.502 233.041 337.502 229.915C337.502 226.79 334.968 224.256 331.843 224.256C328.717 224.256 326.184 226.79 326.184 229.915C326.184 233.041 328.717 235.574 331.843 235.574Z" fill="#60C74B"/>
<path d="M352.222 235.574C355.347 235.574 357.881 233.041 357.881 229.915C357.881 226.79 355.347 224.256 352.222 224.256C349.096 224.256 346.562 226.79 346.562 229.915C346.562 233.041 349.096 235.574 352.222 235.574Z" fill="#60C74B"/>
<path d="M372.616 235.574C375.742 235.574 378.275 233.041 378.275 229.915C378.275 226.79 375.742 224.256 372.616 224.256C369.491 224.256 366.957 226.79 366.957 229.915C366.957 233.041 369.491 235.574 372.616 235.574Z" fill="#60C74B"/>
<path d="M393 235.574C396.126 235.574 398.659 233.041 398.659 229.915C398.659 226.79 396.126 224.256 393 224.256C389.875 224.256 387.341 226.79 387.341 229.915C387.341 233.041 389.875 235.574 393 235.574Z" fill="#60C74B"/>
<path d="M413.385 235.574C416.51 235.574 419.044 233.041 419.044 229.915C419.044 226.79 416.51 224.256 413.385 224.256C410.259 224.256 407.726 226.79 407.726 229.915C407.726 233.041 410.259 235.574 413.385 235.574Z" fill="#60C74B"/>
<path d="M433.774 235.574C436.9 235.574 439.434 233.041 439.434 229.915C439.434 226.79 436.9 224.256 433.774 224.256C430.649 224.256 428.115 226.79 428.115 229.915C428.115 233.041 430.649 235.574 433.774 235.574Z" fill="#60C74B"/>
<path d="M454.158 235.574C457.284 235.574 459.817 233.041 459.817 229.915C459.817 226.79 457.284 224.256 454.158 224.256C451.033 224.256 448.499 226.79 448.499 229.915C448.499 233.041 451.033 235.574 454.158 235.574Z" fill="#60C74B"/>
<path d="M474.543 235.574C477.669 235.574 480.202 233.041 480.202 229.915C480.202 226.79 477.669 224.256 474.543 224.256C471.418 224.256 468.884 226.79 468.884 229.915C468.884 233.041 471.418 235.574 474.543 235.574Z" fill="#60C74B"/>
<path d="M494.937 235.574C498.062 235.574 500.596 233.041 500.596 229.915C500.596 226.79 498.062 224.256 494.937 224.256C491.811 224.256 489.277 226.79 489.277 229.915C489.277 233.041 491.811 235.574 494.937 235.574Z" fill="#60C74B"/>
<path d="M515.321 235.574C518.447 235.574 520.98 233.041 520.98 229.915C520.98 226.79 518.447 224.256 515.321 224.256C512.196 224.256 509.662 226.79 509.662 229.915C509.662 233.041 512.196 235.574 515.321 235.574Z" fill="#60C74B"/>
<path d="M535.705 235.574C538.831 235.574 541.364 233.041 541.364 229.915C541.364 226.79 538.831 224.256 535.705 224.256C532.58 224.256 530.046 226.79 530.046 229.915C530.046 233.041 532.58 235.574 535.705 235.574Z" fill="#60C74B"/>
<path d="M556.085 235.574C559.21 235.574 561.744 233.041 561.744 229.915C561.744 226.79 559.21 224.256 556.085 224.256C552.96 224.256 550.426 226.79 550.426 229.915C550.426 233.041 552.96 235.574 556.085 235.574Z" fill="#60C74B"/>
<path d="M576.469 235.574C579.594 235.574 582.128 233.041 582.128 229.915C582.128 226.79 579.594 224.256 576.469 224.256C573.343 224.256 570.81 226.79 570.81 229.915C570.81 233.041 573.343 235.574 576.469 235.574Z" fill="#60C74B"/>
<path d="M596.863 235.574C599.989 235.574 602.522 233.041 602.522 229.915C602.522 226.79 599.989 224.256 596.863 224.256C593.738 224.256 591.204 226.79 591.204 229.915C591.204 233.041 593.738 235.574 596.863 235.574Z" fill="#60C74B"/>
<path d="M617.247 235.574C620.373 235.574 622.906 233.041 622.906 229.915C622.906 226.79 620.373 224.256 617.247 224.256C614.122 224.256 611.588 226.79 611.588 229.915C611.588 233.041 614.122 235.574 617.247 235.574Z" fill="#60C74B"/>
<path d="M637.627 235.574C640.752 235.574 643.286 233.041 643.286 229.915C643.286 226.79 640.752 224.256 637.627 224.256C634.502 224.256 631.968 226.79 631.968 229.915C631.968 233.041 634.502 235.574 637.627 235.574Z" fill="#60C74B"/>
<path d="M658.022 235.574C661.147 235.574 663.681 233.041 663.681 229.915C663.681 226.79 661.147 224.256 658.022 224.256C654.896 224.256 652.362 226.79 652.362 229.915C652.362 233.041 654.896 235.574 658.022 235.574Z" fill="#60C74B"/>
<path d="M678.405 235.574C681.531 235.574 684.065 233.041 684.065 229.915C684.065 226.79 681.531 224.256 678.405 224.256C675.28 224.256 672.746 226.79 672.746 229.915C672.746 233.041 675.28 235.574 678.405 235.574Z" fill="#60C74B"/>
<path d="M698.79 235.574C701.916 235.574 704.449 233.041 704.449 229.915C704.449 226.79 701.916 224.256 698.79 224.256C695.665 224.256 693.131 226.79 693.131 229.915C693.131 233.041 695.665 235.574 698.79 235.574Z" fill="#60C74B"/>
<path d="M719.184 235.574C722.309 235.574 724.843 233.041 724.843 229.915C724.843 226.79 722.309 224.256 719.184 224.256C716.058 224.256 713.524 226.79 713.524 229.915C713.524 233.041 716.058 235.574 719.184 235.574Z" fill="#60C74B"/>
<path d="M26.044 255.959C29.1695 255.959 31.7032 253.425 31.7032 250.3C31.7032 247.174 29.1695 244.641 26.044 244.641C22.9185 244.641 20.3848 247.174 20.3848 250.3C20.3848 253.425 22.9185 255.959 26.044 255.959Z" fill="#60C74B"/>
<path d="M46.4326 255.959C49.5581 255.959 52.0918 253.425 52.0918 250.3C52.0918 247.174 49.5581 244.641 46.4326 244.641C43.3072 244.641 40.7734 247.174 40.7734 250.3C40.7734 253.425 43.3072 255.959 46.4326 255.959Z" fill="#60C74B"/>
<path d="M87.2012 255.959C90.3267 255.959 92.8604 253.425 92.8604 250.3C92.8604 247.174 90.3267 244.641 87.2012 244.641C84.0757 244.641 81.542 247.174 81.542 250.3C81.542 253.425 84.0757 255.959 87.2012 255.959Z" fill="#60C74B"/>
<path d="M107.596 255.959C110.721 255.959 113.255 253.425 113.255 250.3C113.255 247.174 110.721 244.641 107.596 244.641C104.47 244.641 101.937 247.174 101.937 250.3C101.937 253.425 104.47 255.959 107.596 255.959Z" fill="#60C74B"/>
<path d="M127.98 255.959C131.105 255.959 133.639 253.425 133.639 250.3C133.639 247.174 131.105 244.641 127.98 244.641C124.854 244.641 122.32 247.174 122.32 250.3C122.32 253.425 124.854 255.959 127.98 255.959Z" fill="#60C74B"/>
<path d="M148.369 255.959C151.495 255.959 154.028 253.425 154.028 250.3C154.028 247.174 151.495 244.641 148.369 244.641C145.244 244.641 142.71 247.174 142.71 250.3C142.71 253.425 145.244 255.959 148.369 255.959Z" fill="#60C74B"/>
<path d="M168.753 255.959C171.878 255.959 174.412 253.425 174.412 250.3C174.412 247.174 171.878 244.641 168.753 244.641C165.627 244.641 163.094 247.174 163.094 250.3C163.094 253.425 165.627 255.959 168.753 255.959Z" fill="#60C74B"/>
<path d="M189.138 255.959C192.263 255.959 194.797 253.425 194.797 250.3C194.797 247.174 192.263 244.641 189.138 244.641C186.012 244.641 183.479 247.174 183.479 250.3C183.479 253.425 186.012 255.959 189.138 255.959Z" fill="#60C74B"/>
<path d="M209.532 255.959C212.658 255.959 215.191 253.425 215.191 250.3C215.191 247.174 212.658 244.641 209.532 244.641C206.407 244.641 203.873 247.174 203.873 250.3C203.873 253.425 206.407 255.959 209.532 255.959Z" fill="#60C74B"/>
<path d="M229.911 255.959C233.037 255.959 235.57 253.425 235.57 250.3C235.57 247.174 233.037 244.641 229.911 244.641C226.786 244.641 224.252 247.174 224.252 250.3C224.252 253.425 226.786 255.959 229.911 255.959Z" fill="#60C74B"/>
<path d="M250.296 255.959C253.421 255.959 255.955 253.425 255.955 250.3C255.955 247.174 253.421 244.641 250.296 244.641C247.17 244.641 244.637 247.174 244.637 250.3C244.637 253.425 247.17 255.959 250.296 255.959Z" fill="#60C74B"/>
<path d="M270.68 255.959C273.805 255.959 276.339 253.425 276.339 250.3C276.339 247.174 273.805 244.641 270.68 244.641C267.554 244.641 265.021 247.174 265.021 250.3C265.021 253.425 267.554 255.959 270.68 255.959Z" fill="#60C74B"/>
<path d="M291.064 255.959C294.19 255.959 296.724 253.425 296.724 250.3C296.724 247.174 294.19 244.641 291.064 244.641C287.939 244.641 285.405 247.174 285.405 250.3C285.405 253.425 287.939 255.959 291.064 255.959Z" fill="#60C74B"/>
<path d="M311.448 255.959C314.574 255.959 317.107 253.425 317.107 250.3C317.107 247.174 314.574 244.641 311.448 244.641C308.323 244.641 305.789 247.174 305.789 250.3C305.789 253.425 308.323 255.959 311.448 255.959Z" fill="#60C74B"/>
<path d="M331.843 255.959C334.968 255.959 337.502 253.425 337.502 250.3C337.502 247.174 334.968 244.641 331.843 244.641C328.717 244.641 326.184 247.174 326.184 250.3C326.184 253.425 328.717 255.959 331.843 255.959Z" fill="#60C74B"/>
<path d="M352.222 255.959C355.347 255.959 357.881 253.425 357.881 250.3C357.881 247.174 355.347 244.641 352.222 244.641C349.096 244.641 346.562 247.174 346.562 250.3C346.562 253.425 349.096 255.959 352.222 255.959Z" fill="#60C74B"/>
<path d="M372.616 255.959C375.742 255.959 378.275 253.425 378.275 250.3C378.275 247.174 375.742 244.641 372.616 244.641C369.491 244.641 366.957 247.174 366.957 250.3C366.957 253.425 369.491 255.959 372.616 255.959Z" fill="#60C74B"/>
<path d="M393 255.959C396.126 255.959 398.659 253.425 398.659 250.3C398.659 247.174 396.126 244.641 393 244.641C389.875 244.641 387.341 247.174 387.341 250.3C387.341 253.425 389.875 255.959 393 255.959Z" fill="#60C74B"/>
<path d="M413.385 255.959C416.51 255.959 419.044 253.425 419.044 250.3C419.044 247.174 416.51 244.641 413.385 244.641C410.259 244.641 407.726 247.174 407.726 250.3C407.726 253.425 410.259 255.959 413.385 255.959Z" fill="#60C74B"/>
<path d="M433.774 255.959C436.9 255.959 439.434 253.425 439.434 250.3C439.434 247.174 436.9 244.641 433.774 244.641C430.649 244.641 428.115 247.174 428.115 250.3C428.115 253.425 430.649 255.959 433.774 255.959Z" fill="#60C74B"/>
<path d="M454.158 255.959C457.284 255.959 459.817 253.425 459.817 250.3C459.817 247.174 457.284 244.641 454.158 244.641C451.033 244.641 448.499 247.174 448.499 250.3C448.499 253.425 451.033 255.959 454.158 255.959Z" fill="#60C74B"/>
<path d="M474.543 255.959C477.669 255.959 480.202 253.425 480.202 250.3C480.202 247.174 477.669 244.641 474.543 244.641C471.418 244.641 468.884 247.174 468.884 250.3C468.884 253.425 471.418 255.959 474.543 255.959Z" fill="#60C74B"/>
<path d="M494.937 255.959C498.062 255.959 500.596 253.425 500.596 250.3C500.596 247.174 498.062 244.641 494.937 244.641C491.811 244.641 489.277 247.174 489.277 250.3C489.277 253.425 491.811 255.959 494.937 255.959Z" fill="#60C74B"/>
<path d="M515.321 255.959C518.447 255.959 520.98 253.425 520.98 250.3C520.98 247.174 518.447 244.641 515.321 244.641C512.196 244.641 509.662 247.174 509.662 250.3C509.662 253.425 512.196 255.959 515.321 255.959Z" fill="#60C74B"/>
<path d="M535.705 255.959C538.831 255.959 541.364 253.425 541.364 250.3C541.364 247.174 538.831 244.641 535.705 244.641C532.58 244.641 530.046 247.174 530.046 250.3C530.046 253.425 532.58 255.959 535.705 255.959Z" fill="#60C74B"/>
<path d="M556.085 255.959C559.21 255.959 561.744 253.425 561.744 250.3C561.744 247.174 559.21 244.641 556.085 244.641C552.96 244.641 550.426 247.174 550.426 250.3C550.426 253.425 552.96 255.959 556.085 255.959Z" fill="#60C74B"/>
<path d="M576.469 255.959C579.594 255.959 582.128 253.425 582.128 250.3C582.128 247.174 579.594 244.641 576.469 244.641C573.343 244.641 570.81 247.174 570.81 250.3C570.81 253.425 573.343 255.959 576.469 255.959Z" fill="#60C74B"/>
<path d="M596.863 255.959C599.989 255.959 602.522 253.425 602.522 250.3C602.522 247.174 599.989 244.641 596.863 244.641C593.738 244.641 591.204 247.174 591.204 250.3C591.204 253.425 593.738 255.959 596.863 255.959Z" fill="#60C74B"/>
<path d="M617.247 255.959C620.373 255.959 622.906 253.425 622.906 250.3C622.906 247.174 620.373 244.641 617.247 244.641C614.122 244.641 611.588 247.174 611.588 250.3C611.588 253.425 614.122 255.959 617.247 255.959Z" fill="#60C74B"/>
<path d="M637.627 255.959C640.752 255.959 643.286 253.425 643.286 250.3C643.286 247.174 640.752 244.641 637.627 244.641C634.502 244.641 631.968 247.174 631.968 250.3C631.968 253.425 634.502 255.959 637.627 255.959Z" fill="#60C74B"/>
<path d="M658.022 255.959C661.147 255.959 663.681 253.425 663.681 250.3C663.681 247.174 661.147 244.641 658.022 244.641C654.896 244.641 652.362 247.174 652.362 250.3C652.362 253.425 654.896 255.959 658.022 255.959Z" fill="#60C74B"/>
<path d="M678.405 255.959C681.531 255.959 684.065 253.425 684.065 250.3C684.065 247.174 681.531 244.641 678.405 244.641C675.28 244.641 672.746 247.174 672.746 250.3C672.746 253.425 675.28 255.959 678.405 255.959Z" fill="#60C74B"/>
<path d="M698.79 255.959C701.916 255.959 704.449 253.425 704.449 250.3C704.449 247.174 701.916 244.641 698.79 244.641C695.665 244.641 693.131 247.174 693.131 250.3C693.131 253.425 695.665 255.959 698.79 255.959Z" fill="#60C74B"/>
<path d="M719.184 255.959C722.309 255.959 724.843 253.425 724.843 250.3C724.843 247.174 722.309 244.641 719.184 244.641C716.058 244.641 713.524 247.174 713.524 250.3C713.524 253.425 716.058 255.959 719.184 255.959Z" fill="#60C74B"/>
<path d="M739.563 255.959C742.689 255.959 745.223 253.425 745.223 250.3C745.223 247.174 742.689 244.641 739.563 244.641C736.438 244.641 733.904 247.174 733.904 250.3C733.904 253.425 736.438 255.959 739.563 255.959Z" fill="#60C74B"/>
<path d="M759.957 255.959C763.083 255.959 765.616 253.425 765.616 250.3C765.616 247.174 763.083 244.641 759.957 244.641C756.832 244.641 754.298 247.174 754.298 250.3C754.298 253.425 756.832 255.959 759.957 255.959Z" fill="#60C74B"/>
<path d="M26.044 276.342C29.1695 276.342 31.7032 273.808 31.7032 270.683C31.7032 267.557 29.1695 265.023 26.044 265.023C22.9185 265.023 20.3848 267.557 20.3848 270.683C20.3848 273.808 22.9185 276.342 26.044 276.342Z" fill="#60C74B"/>
<path d="M46.4326 276.342C49.5581 276.342 52.0918 273.808 52.0918 270.683C52.0918 267.557 49.5581 265.023 46.4326 265.023C43.3072 265.023 40.7734 267.557 40.7734 270.683C40.7734 273.808 43.3072 276.342 46.4326 276.342Z" fill="#60C74B"/>
<path d="M87.2012 276.342C90.3267 276.342 92.8604 273.808 92.8604 270.683C92.8604 267.557 90.3267 265.023 87.2012 265.023C84.0757 265.023 81.542 267.557 81.542 270.683C81.542 273.808 84.0757 276.342 87.2012 276.342Z" fill="#60C74B"/>
<path d="M107.596 276.342C110.721 276.342 113.255 273.808 113.255 270.683C113.255 267.557 110.721 265.023 107.596 265.023C104.47 265.023 101.937 267.557 101.937 270.683C101.937 273.808 104.47 276.342 107.596 276.342Z" fill="#60C74B"/>
<path d="M127.98 276.342C131.105 276.342 133.639 273.808 133.639 270.683C133.639 267.557 131.105 265.023 127.98 265.023C124.854 265.023 122.32 267.557 122.32 270.683C122.32 273.808 124.854 276.342 127.98 276.342Z" fill="#60C74B"/>
<path d="M148.369 276.342C151.495 276.342 154.028 273.808 154.028 270.683C154.028 267.557 151.495 265.023 148.369 265.023C145.244 265.023 142.71 267.557 142.71 270.683C142.71 273.808 145.244 276.342 148.369 276.342Z" fill="#60C74B"/>
<path d="M168.753 276.342C171.878 276.342 174.412 273.808 174.412 270.683C174.412 267.557 171.878 265.023 168.753 265.023C165.627 265.023 163.094 267.557 163.094 270.683C163.094 273.808 165.627 276.342 168.753 276.342Z" fill="#60C74B"/>
<path d="M189.138 276.342C192.263 276.342 194.797 273.808 194.797 270.683C194.797 267.557 192.263 265.023 189.138 265.023C186.012 265.023 183.479 267.557 183.479 270.683C183.479 273.808 186.012 276.342 189.138 276.342Z" fill="#60C74B"/>
<path d="M229.911 276.342C233.037 276.342 235.57 273.808 235.57 270.683C235.57 267.557 233.037 265.023 229.911 265.023C226.786 265.023 224.252 267.557 224.252 270.683C224.252 273.808 226.786 276.342 229.911 276.342Z" fill="#60C74B"/>
<path d="M250.296 276.342C253.421 276.342 255.955 273.808 255.955 270.683C255.955 267.557 253.421 265.023 250.296 265.023C247.17 265.023 244.637 267.557 244.637 270.683C244.637 273.808 247.17 276.342 250.296 276.342Z" fill="#60C74B"/>
<path d="M270.68 276.342C273.805 276.342 276.339 273.808 276.339 270.683C276.339 267.557 273.805 265.023 270.68 265.023C267.554 265.023 265.021 267.557 265.021 270.683C265.021 273.808 267.554 276.342 270.68 276.342Z" fill="#60C74B"/>
<path d="M291.064 276.342C294.19 276.342 296.724 273.808 296.724 270.683C296.724 267.557 294.19 265.023 291.064 265.023C287.939 265.023 285.405 267.557 285.405 270.683C285.405 273.808 287.939 276.342 291.064 276.342Z" fill="#60C74B"/>
<path d="M311.448 276.342C314.574 276.342 317.107 273.808 317.107 270.683C317.107 267.557 314.574 265.023 311.448 265.023C308.323 265.023 305.789 267.557 305.789 270.683C305.789 273.808 308.323 276.342 311.448 276.342Z" fill="#60C74B"/>
<path d="M331.843 276.342C334.968 276.342 337.502 273.808 337.502 270.683C337.502 267.557 334.968 265.023 331.843 265.023C328.717 265.023 326.184 267.557 326.184 270.683C326.184 273.808 328.717 276.342 331.843 276.342Z" fill="#60C74B"/>
<path d="M352.222 276.342C355.347 276.342 357.881 273.808 357.881 270.683C357.881 267.557 355.347 265.023 352.222 265.023C349.096 265.023 346.562 267.557 346.562 270.683C346.562 273.808 349.096 276.342 352.222 276.342Z" fill="#60C74B"/>
<path d="M372.616 276.342C375.742 276.342 378.275 273.808 378.275 270.683C378.275 267.557 375.742 265.023 372.616 265.023C369.491 265.023 366.957 267.557 366.957 270.683C366.957 273.808 369.491 276.342 372.616 276.342Z" fill="#60C74B"/>
<path d="M393 276.342C396.126 276.342 398.659 273.808 398.659 270.683C398.659 267.557 396.126 265.023 393 265.023C389.875 265.023 387.341 267.557 387.341 270.683C387.341 273.808 389.875 276.342 393 276.342Z" fill="#60C74B"/>
<path d="M413.385 276.342C416.51 276.342 419.044 273.808 419.044 270.683C419.044 267.557 416.51 265.023 413.385 265.023C410.259 265.023 407.726 267.557 407.726 270.683C407.726 273.808 410.259 276.342 413.385 276.342Z" fill="#60C74B"/>
<path d="M433.774 276.342C436.9 276.342 439.434 273.808 439.434 270.683C439.434 267.557 436.9 265.023 433.774 265.023C430.649 265.023 428.115 267.557 428.115 270.683C428.115 273.808 430.649 276.342 433.774 276.342Z" fill="#60C74B"/>
<path d="M454.158 276.342C457.284 276.342 459.817 273.808 459.817 270.683C459.817 267.557 457.284 265.023 454.158 265.023C451.033 265.023 448.499 267.557 448.499 270.683C448.499 273.808 451.033 276.342 454.158 276.342Z" fill="#60C74B"/>
<path d="M474.543 276.342C477.669 276.342 480.202 273.808 480.202 270.683C480.202 267.557 477.669 265.023 474.543 265.023C471.418 265.023 468.884 267.557 468.884 270.683C468.884 273.808 471.418 276.342 474.543 276.342Z" fill="#60C74B"/>
<path d="M494.937 276.342C498.062 276.342 500.596 273.808 500.596 270.683C500.596 267.557 498.062 265.023 494.937 265.023C491.811 265.023 489.277 267.557 489.277 270.683C489.277 273.808 491.811 276.342 494.937 276.342Z" fill="#60C74B"/>
<path d="M515.321 276.342C518.447 276.342 520.98 273.808 520.98 270.683C520.98 267.557 518.447 265.023 515.321 265.023C512.196 265.023 509.662 267.557 509.662 270.683C509.662 273.808 512.196 276.342 515.321 276.342Z" fill="#60C74B"/>
<path d="M535.705 276.342C538.831 276.342 541.364 273.808 541.364 270.683C541.364 267.557 538.831 265.023 535.705 265.023C532.58 265.023 530.046 267.557 530.046 270.683C530.046 273.808 532.58 276.342 535.705 276.342Z" fill="#60C74B"/>
<path d="M556.085 276.342C559.21 276.342 561.744 273.808 561.744 270.683C561.744 267.557 559.21 265.023 556.085 265.023C552.96 265.023 550.426 267.557 550.426 270.683C550.426 273.808 552.96 276.342 556.085 276.342Z" fill="#60C74B"/>
<path d="M576.469 276.342C579.594 276.342 582.128 273.808 582.128 270.683C582.128 267.557 579.594 265.023 576.469 265.023C573.343 265.023 570.81 267.557 570.81 270.683C570.81 273.808 573.343 276.342 576.469 276.342Z" fill="#60C74B"/>
<path d="M596.863 276.342C599.989 276.342 602.522 273.808 602.522 270.683C602.522 267.557 599.989 265.023 596.863 265.023C593.738 265.023 591.204 267.557 591.204 270.683C591.204 273.808 593.738 276.342 596.863 276.342Z" fill="#60C74B"/>
<path d="M617.247 276.342C620.373 276.342 622.906 273.808 622.906 270.683C622.906 267.557 620.373 265.023 617.247 265.023C614.122 265.023 611.588 267.557 611.588 270.683C611.588 273.808 614.122 276.342 617.247 276.342Z" fill="#60C74B"/>
<path d="M637.627 276.342C640.752 276.342 643.286 273.808 643.286 270.683C643.286 267.557 640.752 265.023 637.627 265.023C634.502 265.023 631.968 267.557 631.968 270.683C631.968 273.808 634.502 276.342 637.627 276.342Z" fill="#60C74B"/>
<path d="M658.022 276.342C661.147 276.342 663.681 273.808 663.681 270.683C663.681 267.557 661.147 265.023 658.022 265.023C654.896 265.023 652.362 267.557 652.362 270.683C652.362 273.808 654.896 276.342 658.022 276.342Z" fill="#60C74B"/>
<path d="M678.405 276.342C681.531 276.342 684.065 273.808 684.065 270.683C684.065 267.557 681.531 265.023 678.405 265.023C675.28 265.023 672.746 267.557 672.746 270.683C672.746 273.808 675.28 276.342 678.405 276.342Z" fill="#60C74B"/>
<path d="M698.79 276.342C701.916 276.342 704.449 273.808 704.449 270.683C704.449 267.557 701.916 265.023 698.79 265.023C695.665 265.023 693.131 267.557 693.131 270.683C693.131 273.808 695.665 276.342 698.79 276.342Z" fill="#60C74B"/>
<path d="M719.184 276.342C722.309 276.342 724.843 273.808 724.843 270.683C724.843 267.557 722.309 265.023 719.184 265.023C716.058 265.023 713.524 267.557 713.524 270.683C713.524 273.808 716.058 276.342 719.184 276.342Z" fill="#60C74B"/>
<path d="M739.563 276.342C742.689 276.342 745.223 273.808 745.223 270.683C745.223 267.557 742.689 265.023 739.563 265.023C736.438 265.023 733.904 267.557 733.904 270.683C733.904 273.808 736.438 276.342 739.563 276.342Z" fill="#60C74B"/>
<path d="M759.957 276.342C763.083 276.342 765.616 273.808 765.616 270.683C765.616 267.557 763.083 265.023 759.957 265.023C756.832 265.023 754.298 267.557 754.298 270.683C754.298 273.808 756.832 276.342 759.957 276.342Z" fill="#60C74B"/>
<path d="M780.342 276.342C783.467 276.342 786.001 273.808 786.001 270.683C786.001 267.557 783.467 265.023 780.342 265.023C777.216 265.023 774.683 267.557 774.683 270.683C774.683 273.808 777.216 276.342 780.342 276.342Z" fill="#60C74B"/>
<path d="M26.044 296.734C29.1695 296.734 31.7032 294.201 31.7032 291.075C31.7032 287.95 29.1695 285.416 26.044 285.416C22.9185 285.416 20.3848 287.95 20.3848 291.075C20.3848 294.201 22.9185 296.734 26.044 296.734Z" fill="#60C74B"/>
<path d="M46.4326 296.734C49.5581 296.734 52.0918 294.201 52.0918 291.075C52.0918 287.95 49.5581 285.416 46.4326 285.416C43.3072 285.416 40.7734 287.95 40.7734 291.075C40.7734 294.201 43.3072 296.734 46.4326 296.734Z" fill="#60C74B"/>
<path d="M66.8174 296.734C69.9429 296.734 72.4766 294.201 72.4766 291.075C72.4766 287.95 69.9429 285.416 66.8174 285.416C63.6919 285.416 61.1582 287.95 61.1582 291.075C61.1582 294.201 63.6919 296.734 66.8174 296.734Z" fill="#60C74B"/>
<path d="M87.2012 296.734C90.3267 296.734 92.8604 294.201 92.8604 291.075C92.8604 287.95 90.3267 285.416 87.2012 285.416C84.0757 285.416 81.542 287.95 81.542 291.075C81.542 294.201 84.0757 296.734 87.2012 296.734Z" fill="#60C74B"/>
<path d="M107.596 296.734C110.721 296.734 113.255 294.201 113.255 291.075C113.255 287.95 110.721 285.416 107.596 285.416C104.47 285.416 101.937 287.95 101.937 291.075C101.937 294.201 104.47 296.734 107.596 296.734Z" fill="#60C74B"/>
<path d="M127.98 296.734C131.105 296.734 133.639 294.201 133.639 291.075C133.639 287.95 131.105 285.416 127.98 285.416C124.854 285.416 122.32 287.95 122.32 291.075C122.32 294.201 124.854 296.734 127.98 296.734Z" fill="#60C74B"/>
<path d="M148.369 296.734C151.495 296.734 154.028 294.201 154.028 291.075C154.028 287.95 151.495 285.416 148.369 285.416C145.244 285.416 142.71 287.95 142.71 291.075C142.71 294.201 145.244 296.734 148.369 296.734Z" fill="#60C74B"/>
<path d="M168.753 296.734C171.878 296.734 174.412 294.201 174.412 291.075C174.412 287.95 171.878 285.416 168.753 285.416C165.627 285.416 163.094 287.95 163.094 291.075C163.094 294.201 165.627 296.734 168.753 296.734Z" fill="#60C74B"/>
<path d="M189.138 296.734C192.263 296.734 194.797 294.201 194.797 291.075C194.797 287.95 192.263 285.416 189.138 285.416C186.012 285.416 183.479 287.95 183.479 291.075C183.479 294.201 186.012 296.734 189.138 296.734Z" fill="#60C74B"/>
<path d="M209.532 296.734C212.658 296.734 215.191 294.201 215.191 291.075C215.191 287.95 212.658 285.416 209.532 285.416C206.407 285.416 203.873 287.95 203.873 291.075C203.873 294.201 206.407 296.734 209.532 296.734Z" fill="#60C74B"/>
<path d="M229.911 296.734C233.037 296.734 235.57 294.201 235.57 291.075C235.57 287.95 233.037 285.416 229.911 285.416C226.786 285.416 224.252 287.95 224.252 291.075C224.252 294.201 226.786 296.734 229.911 296.734Z" fill="#60C74B"/>
<path d="M250.296 296.734C253.421 296.734 255.955 294.201 255.955 291.075C255.955 287.95 253.421 285.416 250.296 285.416C247.17 285.416 244.637 287.95 244.637 291.075C244.637 294.201 247.17 296.734 250.296 296.734Z" fill="#60C74B"/>
<path d="M270.68 296.734C273.805 296.734 276.339 294.201 276.339 291.075C276.339 287.95 273.805 285.416 270.68 285.416C267.554 285.416 265.021 287.95 265.021 291.075C265.021 294.201 267.554 296.734 270.68 296.734Z" fill="#60C74B"/>
<path d="M291.064 296.734C294.19 296.734 296.724 294.201 296.724 291.075C296.724 287.95 294.19 285.416 291.064 285.416C287.939 285.416 285.405 287.95 285.405 291.075C285.405 294.201 287.939 296.734 291.064 296.734Z" fill="#60C74B"/>
<path d="M311.448 296.734C314.574 296.734 317.107 294.201 317.107 291.075C317.107 287.95 314.574 285.416 311.448 285.416C308.323 285.416 305.789 287.95 305.789 291.075C305.789 294.201 308.323 296.734 311.448 296.734Z" fill="#60C74B"/>
<path d="M331.843 296.734C334.968 296.734 337.502 294.201 337.502 291.075C337.502 287.95 334.968 285.416 331.843 285.416C328.717 285.416 326.184 287.95 326.184 291.075C326.184 294.201 328.717 296.734 331.843 296.734Z" fill="#60C74B"/>
<path d="M352.222 296.734C355.347 296.734 357.881 294.201 357.881 291.075C357.881 287.95 355.347 285.416 352.222 285.416C349.096 285.416 346.562 287.95 346.562 291.075C346.562 294.201 349.096 296.734 352.222 296.734Z" fill="#60C74B"/>
<path d="M372.616 296.734C375.742 296.734 378.275 294.201 378.275 291.075C378.275 287.95 375.742 285.416 372.616 285.416C369.491 285.416 366.957 287.95 366.957 291.075C366.957 294.201 369.491 296.734 372.616 296.734Z" fill="#60C74B"/>
<path d="M393 296.734C396.126 296.734 398.659 294.201 398.659 291.075C398.659 287.95 396.126 285.416 393 285.416C389.875 285.416 387.341 287.95 387.341 291.075C387.341 294.201 389.875 296.734 393 296.734Z" fill="#60C74B"/>
<path d="M413.385 296.734C416.51 296.734 419.044 294.201 419.044 291.075C419.044 287.95 416.51 285.416 413.385 285.416C410.259 285.416 407.726 287.95 407.726 291.075C407.726 294.201 410.259 296.734 413.385 296.734Z" fill="#60C74B"/>
<path d="M433.774 296.734C436.9 296.734 439.434 294.201 439.434 291.075C439.434 287.95 436.9 285.416 433.774 285.416C430.649 285.416 428.115 287.95 428.115 291.075C428.115 294.201 430.649 296.734 433.774 296.734Z" fill="#60C74B"/>
<path d="M454.158 296.734C457.284 296.734 459.817 294.201 459.817 291.075C459.817 287.95 457.284 285.416 454.158 285.416C451.033 285.416 448.499 287.95 448.499 291.075C448.499 294.201 451.033 296.734 454.158 296.734Z" fill="#60C74B"/>
<path d="M474.543 296.734C477.669 296.734 480.202 294.201 480.202 291.075C480.202 287.95 477.669 285.416 474.543 285.416C471.418 285.416 468.884 287.95 468.884 291.075C468.884 294.201 471.418 296.734 474.543 296.734Z" fill="#60C74B"/>
<path d="M494.937 296.734C498.062 296.734 500.596 294.201 500.596 291.075C500.596 287.95 498.062 285.416 494.937 285.416C491.811 285.416 489.277 287.95 489.277 291.075C489.277 294.201 491.811 296.734 494.937 296.734Z" fill="#60C74B"/>
<path d="M515.321 296.734C518.447 296.734 520.98 294.201 520.98 291.075C520.98 287.95 518.447 285.416 515.321 285.416C512.196 285.416 509.662 287.95 509.662 291.075C509.662 294.201 512.196 296.734 515.321 296.734Z" fill="#60C74B"/>
<path d="M535.705 296.734C538.831 296.734 541.364 294.201 541.364 291.075C541.364 287.95 538.831 285.416 535.705 285.416C532.58 285.416 530.046 287.95 530.046 291.075C530.046 294.201 532.58 296.734 535.705 296.734Z" fill="#60C74B"/>
<path d="M556.085 296.734C559.21 296.734 561.744 294.201 561.744 291.075C561.744 287.95 559.21 285.416 556.085 285.416C552.96 285.416 550.426 287.95 550.426 291.075C550.426 294.201 552.96 296.734 556.085 296.734Z" fill="#60C74B"/>
<path d="M576.469 296.734C579.594 296.734 582.128 294.201 582.128 291.075C582.128 287.95 579.594 285.416 576.469 285.416C573.343 285.416 570.81 287.95 570.81 291.075C570.81 294.201 573.343 296.734 576.469 296.734Z" fill="#60C74B"/>
<path d="M596.863 296.734C599.989 296.734 602.522 294.201 602.522 291.075C602.522 287.95 599.989 285.416 596.863 285.416C593.738 285.416 591.204 287.95 591.204 291.075C591.204 294.201 593.738 296.734 596.863 296.734Z" fill="#60C74B"/>
<path d="M617.247 296.734C620.373 296.734 622.906 294.201 622.906 291.075C622.906 287.95 620.373 285.416 617.247 285.416C614.122 285.416 611.588 287.95 611.588 291.075C611.588 294.201 614.122 296.734 617.247 296.734Z" fill="#60C74B"/>
<path d="M637.627 296.734C640.752 296.734 643.286 294.201 643.286 291.075C643.286 287.95 640.752 285.416 637.627 285.416C634.502 285.416 631.968 287.95 631.968 291.075C631.968 294.201 634.502 296.734 637.627 296.734Z" fill="#60C74B"/>
<path d="M658.022 296.734C661.147 296.734 663.681 294.201 663.681 291.075C663.681 287.95 661.147 285.416 658.022 285.416C654.896 285.416 652.362 287.95 652.362 291.075C652.362 294.201 654.896 296.734 658.022 296.734Z" fill="#60C74B"/>
<path d="M678.405 296.734C681.531 296.734 684.065 294.201 684.065 291.075C684.065 287.95 681.531 285.416 678.405 285.416C675.28 285.416 672.746 287.95 672.746 291.075C672.746 294.201 675.28 296.734 678.405 296.734Z" fill="#60C74B"/>
<path d="M698.79 296.734C701.916 296.734 704.449 294.201 704.449 291.075C704.449 287.95 701.916 285.416 698.79 285.416C695.665 285.416 693.131 287.95 693.131 291.075C693.131 294.201 695.665 296.734 698.79 296.734Z" fill="#60C74B"/>
<path d="M719.184 296.734C722.309 296.734 724.843 294.201 724.843 291.075C724.843 287.95 722.309 285.416 719.184 285.416C716.058 285.416 713.524 287.95 713.524 291.075C713.524 294.201 716.058 296.734 719.184 296.734Z" fill="#60C74B"/>
<path d="M739.563 296.734C742.689 296.734 745.223 294.201 745.223 291.075C745.223 287.95 742.689 285.416 739.563 285.416C736.438 285.416 733.904 287.95 733.904 291.075C733.904 294.201 736.438 296.734 739.563 296.734Z" fill="#60C74B"/>
<path d="M780.342 296.734C783.467 296.734 786.001 294.201 786.001 291.075C786.001 287.95 783.467 285.416 780.342 285.416C777.216 285.416 774.683 287.95 774.683 291.075C774.683 294.201 777.216 296.734 780.342 296.734Z" fill="#60C74B"/>
<path d="M26.044 317.117C29.1695 317.117 31.7032 314.584 31.7032 311.458C31.7032 308.333 29.1695 305.799 26.044 305.799C22.9185 305.799 20.3848 308.333 20.3848 311.458C20.3848 314.584 22.9185 317.117 26.044 317.117Z" fill="#60C74B"/>
<path d="M46.4326 317.117C49.5581 317.117 52.0918 314.584 52.0918 311.458C52.0918 308.333 49.5581 305.799 46.4326 305.799C43.3072 305.799 40.7734 308.333 40.7734 311.458C40.7734 314.584 43.3072 317.117 46.4326 317.117Z" fill="#60C74B"/>
<path d="M66.8174 317.117C69.9429 317.117 72.4766 314.584 72.4766 311.458C72.4766 308.333 69.9429 305.799 66.8174 305.799C63.6919 305.799 61.1582 308.333 61.1582 311.458C61.1582 314.584 63.6919 317.117 66.8174 317.117Z" fill="#60C74B"/>
<path d="M87.2012 317.117C90.3267 317.117 92.8604 314.584 92.8604 311.458C92.8604 308.333 90.3267 305.799 87.2012 305.799C84.0757 305.799 81.542 308.333 81.542 311.458C81.542 314.584 84.0757 317.117 87.2012 317.117Z" fill="#60C74B"/>
<path d="M107.596 317.117C110.721 317.117 113.255 314.584 113.255 311.458C113.255 308.333 110.721 305.799 107.596 305.799C104.47 305.799 101.937 308.333 101.937 311.458C101.937 314.584 104.47 317.117 107.596 317.117Z" fill="#60C74B"/>
<path d="M127.98 317.117C131.105 317.117 133.639 314.584 133.639 311.458C133.639 308.333 131.105 305.799 127.98 305.799C124.854 305.799 122.32 308.333 122.32 311.458C122.32 314.584 124.854 317.117 127.98 317.117Z" fill="#60C74B"/>
<path d="M148.369 317.117C151.495 317.117 154.028 314.584 154.028 311.458C154.028 308.333 151.495 305.799 148.369 305.799C145.244 305.799 142.71 308.333 142.71 311.458C142.71 314.584 145.244 317.117 148.369 317.117Z" fill="#60C74B"/>
<path d="M168.753 317.117C171.878 317.117 174.412 314.584 174.412 311.458C174.412 308.333 171.878 305.799 168.753 305.799C165.627 305.799 163.094 308.333 163.094 311.458C163.094 314.584 165.627 317.117 168.753 317.117Z" fill="#60C74B"/>
<path d="M189.138 317.117C192.263 317.117 194.797 314.584 194.797 311.458C194.797 308.333 192.263 305.799 189.138 305.799C186.012 305.799 183.479 308.333 183.479 311.458C183.479 314.584 186.012 317.117 189.138 317.117Z" fill="#60C74B"/>
<path d="M209.532 317.117C212.658 317.117 215.191 314.584 215.191 311.458C215.191 308.333 212.658 305.799 209.532 305.799C206.407 305.799 203.873 308.333 203.873 311.458C203.873 314.584 206.407 317.117 209.532 317.117Z" fill="#60C74B"/>
<path d="M229.911 317.117C233.037 317.117 235.57 314.584 235.57 311.458C235.57 308.333 233.037 305.799 229.911 305.799C226.786 305.799 224.252 308.333 224.252 311.458C224.252 314.584 226.786 317.117 229.911 317.117Z" fill="#60C74B"/>
<path d="M250.296 317.117C253.421 317.117 255.955 314.584 255.955 311.458C255.955 308.333 253.421 305.799 250.296 305.799C247.17 305.799 244.637 308.333 244.637 311.458C244.637 314.584 247.17 317.117 250.296 317.117Z" fill="#60C74B"/>
<path d="M270.68 317.117C273.805 317.117 276.339 314.584 276.339 311.458C276.339 308.333 273.805 305.799 270.68 305.799C267.554 305.799 265.021 308.333 265.021 311.458C265.021 314.584 267.554 317.117 270.68 317.117Z" fill="#60C74B"/>
<path d="M291.064 317.117C294.19 317.117 296.724 314.584 296.724 311.458C296.724 308.333 294.19 305.799 291.064 305.799C287.939 305.799 285.405 308.333 285.405 311.458C285.405 314.584 287.939 317.117 291.064 317.117Z" fill="#60C74B"/>
<path d="M311.448 317.117C314.574 317.117 317.107 314.584 317.107 311.458C317.107 308.333 314.574 305.799 311.448 305.799C308.323 305.799 305.789 308.333 305.789 311.458C305.789 314.584 308.323 317.117 311.448 317.117Z" fill="#60C74B"/>
<path d="M331.843 317.117C334.968 317.117 337.502 314.584 337.502 311.458C337.502 308.333 334.968 305.799 331.843 305.799C328.717 305.799 326.184 308.333 326.184 311.458C326.184 314.584 328.717 317.117 331.843 317.117Z" fill="#60C74B"/>
<path d="M352.222 317.117C355.347 317.117 357.881 314.584 357.881 311.458C357.881 308.333 355.347 305.799 352.222 305.799C349.096 305.799 346.562 308.333 346.562 311.458C346.562 314.584 349.096 317.117 352.222 317.117Z" fill="#60C74B"/>
<path d="M372.616 317.117C375.742 317.117 378.275 314.584 378.275 311.458C378.275 308.333 375.742 305.799 372.616 305.799C369.491 305.799 366.957 308.333 366.957 311.458C366.957 314.584 369.491 317.117 372.616 317.117Z" fill="#60C74B"/>
<path d="M393 317.117C396.126 317.117 398.659 314.584 398.659 311.458C398.659 308.333 396.126 305.799 393 305.799C389.875 305.799 387.341 308.333 387.341 311.458C387.341 314.584 389.875 317.117 393 317.117Z" fill="#60C74B"/>
<path d="M413.385 317.117C416.51 317.117 419.044 314.584 419.044 311.458C419.044 308.333 416.51 305.799 413.385 305.799C410.259 305.799 407.726 308.333 407.726 311.458C407.726 314.584 410.259 317.117 413.385 317.117Z" fill="#60C74B"/>
<path d="M433.774 317.117C436.9 317.117 439.434 314.584 439.434 311.458C439.434 308.333 436.9 305.799 433.774 305.799C430.649 305.799 428.115 308.333 428.115 311.458C428.115 314.584 430.649 317.117 433.774 317.117Z" fill="#60C74B"/>
<path d="M454.158 317.117C457.284 317.117 459.817 314.584 459.817 311.458C459.817 308.333 457.284 305.799 454.158 305.799C451.033 305.799 448.499 308.333 448.499 311.458C448.499 314.584 451.033 317.117 454.158 317.117Z" fill="#60C74B"/>
<path d="M474.543 317.117C477.669 317.117 480.202 314.584 480.202 311.458C480.202 308.333 477.669 305.799 474.543 305.799C471.418 305.799 468.884 308.333 468.884 311.458C468.884 314.584 471.418 317.117 474.543 317.117Z" fill="#60C74B"/>
<path d="M494.937 317.117C498.062 317.117 500.596 314.584 500.596 311.458C500.596 308.333 498.062 305.799 494.937 305.799C491.811 305.799 489.277 308.333 489.277 311.458C489.277 314.584 491.811 317.117 494.937 317.117Z" fill="#60C74B"/>
<path d="M515.321 317.117C518.447 317.117 520.98 314.584 520.98 311.458C520.98 308.333 518.447 305.799 515.321 305.799C512.196 305.799 509.662 308.333 509.662 311.458C509.662 314.584 512.196 317.117 515.321 317.117Z" fill="#60C74B"/>
<path d="M535.705 317.117C538.831 317.117 541.364 314.584 541.364 311.458C541.364 308.333 538.831 305.799 535.705 305.799C532.58 305.799 530.046 308.333 530.046 311.458C530.046 314.584 532.58 317.117 535.705 317.117Z" fill="#60C74B"/>
<path d="M556.085 317.117C559.21 317.117 561.744 314.584 561.744 311.458C561.744 308.333 559.21 305.799 556.085 305.799C552.96 305.799 550.426 308.333 550.426 311.458C550.426 314.584 552.96 317.117 556.085 317.117Z" fill="#60C74B"/>
<path d="M576.469 317.117C579.594 317.117 582.128 314.584 582.128 311.458C582.128 308.333 579.594 305.799 576.469 305.799C573.343 305.799 570.81 308.333 570.81 311.458C570.81 314.584 573.343 317.117 576.469 317.117Z" fill="#60C74B"/>
<path d="M596.863 317.117C599.989 317.117 602.522 314.584 602.522 311.458C602.522 308.333 599.989 305.799 596.863 305.799C593.738 305.799 591.204 308.333 591.204 311.458C591.204 314.584 593.738 317.117 596.863 317.117Z" fill="#60C74B"/>
<path d="M617.247 317.117C620.373 317.117 622.906 314.584 622.906 311.458C622.906 308.333 620.373 305.799 617.247 305.799C614.122 305.799 611.588 308.333 611.588 311.458C611.588 314.584 614.122 317.117 617.247 317.117Z" fill="#60C74B"/>
<path d="M637.627 317.117C640.752 317.117 643.286 314.584 643.286 311.458C643.286 308.333 640.752 305.799 637.627 305.799C634.502 305.799 631.968 308.333 631.968 311.458C631.968 314.584 634.502 317.117 637.627 317.117Z" fill="#60C74B"/>
<path d="M658.022 317.117C661.147 317.117 663.681 314.584 663.681 311.458C663.681 308.333 661.147 305.799 658.022 305.799C654.896 305.799 652.362 308.333 652.362 311.458C652.362 314.584 654.896 317.117 658.022 317.117Z" fill="#60C74B"/>
<path d="M678.405 317.117C681.531 317.117 684.065 314.584 684.065 311.458C684.065 308.333 681.531 305.799 678.405 305.799C675.28 305.799 672.746 308.333 672.746 311.458C672.746 314.584 675.28 317.117 678.405 317.117Z" fill="#60C74B"/>
<path d="M698.79 317.117C701.916 317.117 704.449 314.584 704.449 311.458C704.449 308.333 701.916 305.799 698.79 305.799C695.665 305.799 693.131 308.333 693.131 311.458C693.131 314.584 695.665 317.117 698.79 317.117Z" fill="#60C74B"/>
<path d="M719.184 317.117C722.309 317.117 724.843 314.584 724.843 311.458C724.843 308.333 722.309 305.799 719.184 305.799C716.058 305.799 713.524 308.333 713.524 311.458C713.524 314.584 716.058 317.117 719.184 317.117Z" fill="#60C74B"/>
<path d="M739.563 317.117C742.689 317.117 745.223 314.584 745.223 311.458C745.223 308.333 742.689 305.799 739.563 305.799C736.438 305.799 733.904 308.333 733.904 311.458C733.904 314.584 736.438 317.117 739.563 317.117Z" fill="#60C74B"/>
<path d="M5.6592 337.5C8.78469 337.5 11.3184 334.966 11.3184 331.841C11.3184 328.715 8.78469 326.182 5.6592 326.182C2.53371 326.182 0 328.715 0 331.841C0 334.966 2.53371 337.5 5.6592 337.5Z" fill="#60C74B"/>
<path d="M26.044 337.5C29.1695 337.5 31.7032 334.966 31.7032 331.841C31.7032 328.715 29.1695 326.182 26.044 326.182C22.9185 326.182 20.3848 328.715 20.3848 331.841C20.3848 334.966 22.9185 337.5 26.044 337.5Z" fill="#60C74B"/>
<path d="M46.4326 337.5C49.5581 337.5 52.0918 334.966 52.0918 331.841C52.0918 328.715 49.5581 326.182 46.4326 326.182C43.3072 326.182 40.7734 328.715 40.7734 331.841C40.7734 334.966 43.3072 337.5 46.4326 337.5Z" fill="#60C74B"/>
<path d="M66.8174 337.5C69.9429 337.5 72.4766 334.966 72.4766 331.841C72.4766 328.715 69.9429 326.182 66.8174 326.182C63.6919 326.182 61.1582 328.715 61.1582 331.841C61.1582 334.966 63.6919 337.5 66.8174 337.5Z" fill="#60C74B"/>
<path d="M87.2012 337.5C90.3267 337.5 92.8604 334.966 92.8604 331.841C92.8604 328.715 90.3267 326.182 87.2012 326.182C84.0757 326.182 81.542 328.715 81.542 331.841C81.542 334.966 84.0757 337.5 87.2012 337.5Z" fill="#60C74B"/>
<path d="M107.596 337.5C110.721 337.5 113.255 334.966 113.255 331.841C113.255 328.715 110.721 326.182 107.596 326.182C104.47 326.182 101.937 328.715 101.937 331.841C101.937 334.966 104.47 337.5 107.596 337.5Z" fill="#60C74B"/>
<path d="M127.98 337.5C131.105 337.5 133.639 334.966 133.639 331.841C133.639 328.715 131.105 326.182 127.98 326.182C124.854 326.182 122.32 328.715 122.32 331.841C122.32 334.966 124.854 337.5 127.98 337.5Z" fill="#60C74B"/>
<path d="M148.369 337.5C151.495 337.5 154.028 334.966 154.028 331.841C154.028 328.715 151.495 326.182 148.369 326.182C145.244 326.182 142.71 328.715 142.71 331.841C142.71 334.966 145.244 337.5 148.369 337.5Z" fill="#60C74B"/>
<path d="M168.753 337.5C171.878 337.5 174.412 334.966 174.412 331.841C174.412 328.715 171.878 326.182 168.753 326.182C165.627 326.182 163.094 328.715 163.094 331.841C163.094 334.966 165.627 337.5 168.753 337.5Z" fill="#60C74B"/>
<path d="M189.138 337.5C192.263 337.5 194.797 334.966 194.797 331.841C194.797 328.715 192.263 326.182 189.138 326.182C186.012 326.182 183.479 328.715 183.479 331.841C183.479 334.966 186.012 337.5 189.138 337.5Z" fill="#60C74B"/>
<path d="M209.532 337.5C212.658 337.5 215.191 334.966 215.191 331.841C215.191 328.715 212.658 326.182 209.532 326.182C206.407 326.182 203.873 328.715 203.873 331.841C203.873 334.966 206.407 337.5 209.532 337.5Z" fill="#60C74B"/>
<path d="M229.911 337.5C233.037 337.5 235.57 334.966 235.57 331.841C235.57 328.715 233.037 326.182 229.911 326.182C226.786 326.182 224.252 328.715 224.252 331.841C224.252 334.966 226.786 337.5 229.911 337.5Z" fill="#60C74B"/>
<path d="M250.296 337.5C253.421 337.5 255.955 334.966 255.955 331.841C255.955 328.715 253.421 326.182 250.296 326.182C247.17 326.182 244.637 328.715 244.637 331.841C244.637 334.966 247.17 337.5 250.296 337.5Z" fill="#60C74B"/>
<path d="M270.68 337.5C273.805 337.5 276.339 334.966 276.339 331.841C276.339 328.715 273.805 326.182 270.68 326.182C267.554 326.182 265.021 328.715 265.021 331.841C265.021 334.966 267.554 337.5 270.68 337.5Z" fill="#60C74B"/>
<path d="M291.064 337.5C294.19 337.5 296.724 334.966 296.724 331.841C296.724 328.715 294.19 326.182 291.064 326.182C287.939 326.182 285.405 328.715 285.405 331.841C285.405 334.966 287.939 337.5 291.064 337.5Z" fill="#60C74B"/>
<path d="M311.448 337.5C314.574 337.5 317.107 334.966 317.107 331.841C317.107 328.715 314.574 326.182 311.448 326.182C308.323 326.182 305.789 328.715 305.789 331.841C305.789 334.966 308.323 337.5 311.448 337.5Z" fill="#60C74B"/>
<path d="M331.843 337.5C334.968 337.5 337.502 334.966 337.502 331.841C337.502 328.715 334.968 326.182 331.843 326.182C328.717 326.182 326.184 328.715 326.184 331.841C326.184 334.966 328.717 337.5 331.843 337.5Z" fill="#60C74B"/>
<path d="M352.222 337.5C355.347 337.5 357.881 334.966 357.881 331.841C357.881 328.715 355.347 326.182 352.222 326.182C349.096 326.182 346.562 328.715 346.562 331.841C346.562 334.966 349.096 337.5 352.222 337.5Z" fill="#60C74B"/>
<path d="M372.616 337.5C375.742 337.5 378.275 334.966 378.275 331.841C378.275 328.715 375.742 326.182 372.616 326.182C369.491 326.182 366.957 328.715 366.957 331.841C366.957 334.966 369.491 337.5 372.616 337.5Z" fill="#60C74B"/>
<path d="M393 337.5C396.126 337.5 398.659 334.966 398.659 331.841C398.659 328.715 396.126 326.182 393 326.182C389.875 326.182 387.341 328.715 387.341 331.841C387.341 334.966 389.875 337.5 393 337.5Z" fill="#60C74B"/>
<path d="M413.385 337.5C416.51 337.5 419.044 334.966 419.044 331.841C419.044 328.715 416.51 326.182 413.385 326.182C410.259 326.182 407.726 328.715 407.726 331.841C407.726 334.966 410.259 337.5 413.385 337.5Z" fill="#60C74B"/>
<path d="M433.774 337.5C436.9 337.5 439.434 334.966 439.434 331.841C439.434 328.715 436.9 326.182 433.774 326.182C430.649 326.182 428.115 328.715 428.115 331.841C428.115 334.966 430.649 337.5 433.774 337.5Z" fill="#60C74B"/>
<path d="M454.158 337.5C457.284 337.5 459.817 334.966 459.817 331.841C459.817 328.715 457.284 326.182 454.158 326.182C451.033 326.182 448.499 328.715 448.499 331.841C448.499 334.966 451.033 337.5 454.158 337.5Z" fill="#60C74B"/>
<path d="M474.543 337.5C477.669 337.5 480.202 334.966 480.202 331.841C480.202 328.715 477.669 326.182 474.543 326.182C471.418 326.182 468.884 328.715 468.884 331.841C468.884 334.966 471.418 337.5 474.543 337.5Z" fill="#60C74B"/>
<path d="M494.937 337.5C498.062 337.5 500.596 334.966 500.596 331.841C500.596 328.715 498.062 326.182 494.937 326.182C491.811 326.182 489.277 328.715 489.277 331.841C489.277 334.966 491.811 337.5 494.937 337.5Z" fill="#60C74B"/>
<path d="M515.321 337.5C518.447 337.5 520.98 334.966 520.98 331.841C520.98 328.715 518.447 326.182 515.321 326.182C512.196 326.182 509.662 328.715 509.662 331.841C509.662 334.966 512.196 337.5 515.321 337.5Z" fill="#60C74B"/>
<path d="M535.705 337.5C538.831 337.5 541.364 334.966 541.364 331.841C541.364 328.715 538.831 326.182 535.705 326.182C532.58 326.182 530.046 328.715 530.046 331.841C530.046 334.966 532.58 337.5 535.705 337.5Z" fill="#60C74B"/>
<path d="M556.085 337.5C559.21 337.5 561.744 334.966 561.744 331.841C561.744 328.715 559.21 326.182 556.085 326.182C552.96 326.182 550.426 328.715 550.426 331.841C550.426 334.966 552.96 337.5 556.085 337.5Z" fill="#60C74B"/>
<path d="M576.469 337.5C579.594 337.5 582.128 334.966 582.128 331.841C582.128 328.715 579.594 326.182 576.469 326.182C573.343 326.182 570.81 328.715 570.81 331.841C570.81 334.966 573.343 337.5 576.469 337.5Z" fill="#60C74B"/>
<path d="M596.863 337.5C599.989 337.5 602.522 334.966 602.522 331.841C602.522 328.715 599.989 326.182 596.863 326.182C593.738 326.182 591.204 328.715 591.204 331.841C591.204 334.966 593.738 337.5 596.863 337.5Z" fill="#60C74B"/>
<path d="M617.247 337.5C620.373 337.5 622.906 334.966 622.906 331.841C622.906 328.715 620.373 326.182 617.247 326.182C614.122 326.182 611.588 328.715 611.588 331.841C611.588 334.966 614.122 337.5 617.247 337.5Z" fill="#60C74B"/>
<path d="M678.405 337.5C681.531 337.5 684.065 334.966 684.065 331.841C684.065 328.715 681.531 326.182 678.405 326.182C675.28 326.182 672.746 328.715 672.746 331.841C672.746 334.966 675.28 337.5 678.405 337.5Z" fill="#60C74B"/>
<path d="M698.79 337.5C701.916 337.5 704.449 334.966 704.449 331.841C704.449 328.715 701.916 326.182 698.79 326.182C695.665 326.182 693.131 328.715 693.131 331.841C693.131 334.966 695.665 337.5 698.79 337.5Z" fill="#60C74B"/>
<path d="M5.6592 357.893C8.78469 357.893 11.3184 355.359 11.3184 352.233C11.3184 349.108 8.78469 346.574 5.6592 346.574C2.53371 346.574 0 349.108 0 352.233C0 355.359 2.53371 357.893 5.6592 357.893Z" fill="#60C74B"/>
<path d="M26.044 357.893C29.1695 357.893 31.7032 355.359 31.7032 352.233C31.7032 349.108 29.1695 346.574 26.044 346.574C22.9185 346.574 20.3848 349.108 20.3848 352.233C20.3848 355.359 22.9185 357.893 26.044 357.893Z" fill="#60C74B"/>
<path d="M46.4326 357.893C49.5581 357.893 52.0918 355.359 52.0918 352.233C52.0918 349.108 49.5581 346.574 46.4326 346.574C43.3072 346.574 40.7734 349.108 40.7734 352.233C40.7734 355.359 43.3072 357.893 46.4326 357.893Z" fill="#60C74B"/>
<path d="M66.8174 357.893C69.9429 357.893 72.4766 355.359 72.4766 352.233C72.4766 349.108 69.9429 346.574 66.8174 346.574C63.6919 346.574 61.1582 349.108 61.1582 352.233C61.1582 355.359 63.6919 357.893 66.8174 357.893Z" fill="#60C74B"/>
<path d="M87.2012 357.893C90.3267 357.893 92.8604 355.359 92.8604 352.233C92.8604 349.108 90.3267 346.574 87.2012 346.574C84.0757 346.574 81.542 349.108 81.542 352.233C81.542 355.359 84.0757 357.893 87.2012 357.893Z" fill="#60C74B"/>
<path d="M107.596 357.893C110.721 357.893 113.255 355.359 113.255 352.233C113.255 349.108 110.721 346.574 107.596 346.574C104.47 346.574 101.937 349.108 101.937 352.233C101.937 355.359 104.47 357.893 107.596 357.893Z" fill="#60C74B"/>
<path d="M127.98 357.893C131.105 357.893 133.639 355.359 133.639 352.233C133.639 349.108 131.105 346.574 127.98 346.574C124.854 346.574 122.32 349.108 122.32 352.233C122.32 355.359 124.854 357.893 127.98 357.893Z" fill="#60C74B"/>
<path d="M148.369 357.893C151.495 357.893 154.028 355.359 154.028 352.233C154.028 349.108 151.495 346.574 148.369 346.574C145.244 346.574 142.71 349.108 142.71 352.233C142.71 355.359 145.244 357.893 148.369 357.893Z" fill="#60C74B"/>
<path d="M168.753 357.893C171.878 357.893 174.412 355.359 174.412 352.233C174.412 349.108 171.878 346.574 168.753 346.574C165.627 346.574 163.094 349.108 163.094 352.233C163.094 355.359 165.627 357.893 168.753 357.893Z" fill="#60C74B"/>
<path d="M189.138 357.893C192.263 357.893 194.797 355.359 194.797 352.233C194.797 349.108 192.263 346.574 189.138 346.574C186.012 346.574 183.479 349.108 183.479 352.233C183.479 355.359 186.012 357.893 189.138 357.893Z" fill="#60C74B"/>
<path d="M209.532 357.893C212.658 357.893 215.191 355.359 215.191 352.233C215.191 349.108 212.658 346.574 209.532 346.574C206.407 346.574 203.873 349.108 203.873 352.233C203.873 355.359 206.407 357.893 209.532 357.893Z" fill="#60C74B"/>
<path d="M229.911 357.893C233.037 357.893 235.57 355.359 235.57 352.233C235.57 349.108 233.037 346.574 229.911 346.574C226.786 346.574 224.252 349.108 224.252 352.233C224.252 355.359 226.786 357.893 229.911 357.893Z" fill="#60C74B"/>
<path d="M250.296 357.893C253.421 357.893 255.955 355.359 255.955 352.233C255.955 349.108 253.421 346.574 250.296 346.574C247.17 346.574 244.637 349.108 244.637 352.233C244.637 355.359 247.17 357.893 250.296 357.893Z" fill="#60C74B"/>
<path d="M270.68 357.893C273.805 357.893 276.339 355.359 276.339 352.233C276.339 349.108 273.805 346.574 270.68 346.574C267.554 346.574 265.021 349.108 265.021 352.233C265.021 355.359 267.554 357.893 270.68 357.893Z" fill="#60C74B"/>
<path d="M291.064 357.893C294.19 357.893 296.724 355.359 296.724 352.233C296.724 349.108 294.19 346.574 291.064 346.574C287.939 346.574 285.405 349.108 285.405 352.233C285.405 355.359 287.939 357.893 291.064 357.893Z" fill="#60C74B"/>
<path d="M311.448 357.893C314.574 357.893 317.107 355.359 317.107 352.233C317.107 349.108 314.574 346.574 311.448 346.574C308.323 346.574 305.789 349.108 305.789 352.233C305.789 355.359 308.323 357.893 311.448 357.893Z" fill="#60C74B"/>
<path d="M331.843 357.893C334.968 357.893 337.502 355.359 337.502 352.233C337.502 349.108 334.968 346.574 331.843 346.574C328.717 346.574 326.184 349.108 326.184 352.233C326.184 355.359 328.717 357.893 331.843 357.893Z" fill="#60C74B"/>
<path d="M352.222 357.893C355.347 357.893 357.881 355.359 357.881 352.233C357.881 349.108 355.347 346.574 352.222 346.574C349.096 346.574 346.562 349.108 346.562 352.233C346.562 355.359 349.096 357.893 352.222 357.893Z" fill="#60C74B"/>
<path d="M372.616 357.893C375.742 357.893 378.275 355.359 378.275 352.233C378.275 349.108 375.742 346.574 372.616 346.574C369.491 346.574 366.957 349.108 366.957 352.233C366.957 355.359 369.491 357.893 372.616 357.893Z" fill="#60C74B"/>
<path d="M393 357.893C396.126 357.893 398.659 355.359 398.659 352.233C398.659 349.108 396.126 346.574 393 346.574C389.875 346.574 387.341 349.108 387.341 352.233C387.341 355.359 389.875 357.893 393 357.893Z" fill="#60C74B"/>
<path d="M413.385 357.893C416.51 357.893 419.044 355.359 419.044 352.233C419.044 349.108 416.51 346.574 413.385 346.574C410.259 346.574 407.726 349.108 407.726 352.233C407.726 355.359 410.259 357.893 413.385 357.893Z" fill="#60C74B"/>
<path d="M433.774 357.893C436.9 357.893 439.434 355.359 439.434 352.233C439.434 349.108 436.9 346.574 433.774 346.574C430.649 346.574 428.115 349.108 428.115 352.233C428.115 355.359 430.649 357.893 433.774 357.893Z" fill="#60C74B"/>
<path d="M454.158 357.893C457.284 357.893 459.817 355.359 459.817 352.233C459.817 349.108 457.284 346.574 454.158 346.574C451.033 346.574 448.499 349.108 448.499 352.233C448.499 355.359 451.033 357.893 454.158 357.893Z" fill="#60C74B"/>
<path d="M474.543 357.893C477.669 357.893 480.202 355.359 480.202 352.233C480.202 349.108 477.669 346.574 474.543 346.574C471.418 346.574 468.884 349.108 468.884 352.233C468.884 355.359 471.418 357.893 474.543 357.893Z" fill="#60C74B"/>
<path d="M494.937 357.893C498.062 357.893 500.596 355.359 500.596 352.233C500.596 349.108 498.062 346.574 494.937 346.574C491.811 346.574 489.277 349.108 489.277 352.233C489.277 355.359 491.811 357.893 494.937 357.893Z" fill="#60C74B"/>
<path d="M515.321 357.893C518.447 357.893 520.98 355.359 520.98 352.233C520.98 349.108 518.447 346.574 515.321 346.574C512.196 346.574 509.662 349.108 509.662 352.233C509.662 355.359 512.196 357.893 515.321 357.893Z" fill="#60C74B"/>
<path d="M535.705 357.893C538.831 357.893 541.364 355.359 541.364 352.233C541.364 349.108 538.831 346.574 535.705 346.574C532.58 346.574 530.046 349.108 530.046 352.233C530.046 355.359 532.58 357.893 535.705 357.893Z" fill="#60C74B"/>
<path d="M556.085 357.893C559.21 357.893 561.744 355.359 561.744 352.233C561.744 349.108 559.21 346.574 556.085 346.574C552.96 346.574 550.426 349.108 550.426 352.233C550.426 355.359 552.96 357.893 556.085 357.893Z" fill="#60C74B"/>
<path d="M658.022 357.893C661.147 357.893 663.681 355.359 663.681 352.233C663.681 349.108 661.147 346.574 658.022 346.574C654.896 346.574 652.362 349.108 652.362 352.233C652.362 355.359 654.896 357.893 658.022 357.893Z" fill="#60C74B"/>
<path d="M5.6592 378.277C8.78469 378.277 11.3184 375.744 11.3184 372.618C11.3184 369.493 8.78469 366.959 5.6592 366.959C2.53371 366.959 0 369.493 0 372.618C0 375.744 2.53371 378.277 5.6592 378.277Z" fill="#60C74B"/>
<path d="M26.044 378.277C29.1695 378.277 31.7032 375.744 31.7032 372.618C31.7032 369.493 29.1695 366.959 26.044 366.959C22.9185 366.959 20.3848 369.493 20.3848 372.618C20.3848 375.744 22.9185 378.277 26.044 378.277Z" fill="#60C74B"/>
<path d="M46.4326 378.277C49.5581 378.277 52.0918 375.744 52.0918 372.618C52.0918 369.493 49.5581 366.959 46.4326 366.959C43.3072 366.959 40.7734 369.493 40.7734 372.618C40.7734 375.744 43.3072 378.277 46.4326 378.277Z" fill="#60C74B"/>
<path d="M66.8174 378.277C69.9429 378.277 72.4766 375.744 72.4766 372.618C72.4766 369.493 69.9429 366.959 66.8174 366.959C63.6919 366.959 61.1582 369.493 61.1582 372.618C61.1582 375.744 63.6919 378.277 66.8174 378.277Z" fill="#60C74B"/>
<path d="M87.2012 378.277C90.3267 378.277 92.8604 375.744 92.8604 372.618C92.8604 369.493 90.3267 366.959 87.2012 366.959C84.0757 366.959 81.542 369.493 81.542 372.618C81.542 375.744 84.0757 378.277 87.2012 378.277Z" fill="#60C74B"/>
<path d="M107.596 378.277C110.721 378.277 113.255 375.744 113.255 372.618C113.255 369.493 110.721 366.959 107.596 366.959C104.47 366.959 101.937 369.493 101.937 372.618C101.937 375.744 104.47 378.277 107.596 378.277Z" fill="#60C74B"/>
<path d="M127.98 378.277C131.105 378.277 133.639 375.744 133.639 372.618C133.639 369.493 131.105 366.959 127.98 366.959C124.854 366.959 122.32 369.493 122.32 372.618C122.32 375.744 124.854 378.277 127.98 378.277Z" fill="#60C74B"/>
<path d="M148.369 378.277C151.495 378.277 154.028 375.744 154.028 372.618C154.028 369.493 151.495 366.959 148.369 366.959C145.244 366.959 142.71 369.493 142.71 372.618C142.71 375.744 145.244 378.277 148.369 378.277Z" fill="#60C74B"/>
<path d="M168.753 378.277C171.878 378.277 174.412 375.744 174.412 372.618C174.412 369.493 171.878 366.959 168.753 366.959C165.627 366.959 163.094 369.493 163.094 372.618C163.094 375.744 165.627 378.277 168.753 378.277Z" fill="#60C74B"/>
<path d="M189.138 378.277C192.263 378.277 194.797 375.744 194.797 372.618C194.797 369.493 192.263 366.959 189.138 366.959C186.012 366.959 183.479 369.493 183.479 372.618C183.479 375.744 186.012 378.277 189.138 378.277Z" fill="#60C74B"/>
<path d="M209.532 378.277C212.658 378.277 215.191 375.744 215.191 372.618C215.191 369.493 212.658 366.959 209.532 366.959C206.407 366.959 203.873 369.493 203.873 372.618C203.873 375.744 206.407 378.277 209.532 378.277Z" fill="#60C74B"/>
<path d="M229.911 378.277C233.037 378.277 235.57 375.744 235.57 372.618C235.57 369.493 233.037 366.959 229.911 366.959C226.786 366.959 224.252 369.493 224.252 372.618C224.252 375.744 226.786 378.277 229.911 378.277Z" fill="#60C74B"/>
<path d="M250.296 378.277C253.421 378.277 255.955 375.744 255.955 372.618C255.955 369.493 253.421 366.959 250.296 366.959C247.17 366.959 244.637 369.493 244.637 372.618C244.637 375.744 247.17 378.277 250.296 378.277Z" fill="#60C74B"/>
<path d="M270.68 378.277C273.805 378.277 276.339 375.744 276.339 372.618C276.339 369.493 273.805 366.959 270.68 366.959C267.554 366.959 265.021 369.493 265.021 372.618C265.021 375.744 267.554 378.277 270.68 378.277Z" fill="#60C74B"/>
<path d="M291.064 378.277C294.19 378.277 296.724 375.744 296.724 372.618C296.724 369.493 294.19 366.959 291.064 366.959C287.939 366.959 285.405 369.493 285.405 372.618C285.405 375.744 287.939 378.277 291.064 378.277Z" fill="#60C74B"/>
<path d="M311.448 378.277C314.574 378.277 317.107 375.744 317.107 372.618C317.107 369.493 314.574 366.959 311.448 366.959C308.323 366.959 305.789 369.493 305.789 372.618C305.789 375.744 308.323 378.277 311.448 378.277Z" fill="#60C74B"/>
<path d="M331.843 378.277C334.968 378.277 337.502 375.744 337.502 372.618C337.502 369.493 334.968 366.959 331.843 366.959C328.717 366.959 326.184 369.493 326.184 372.618C326.184 375.744 328.717 378.277 331.843 378.277Z" fill="#60C74B"/>
<path d="M352.222 378.277C355.347 378.277 357.881 375.744 357.881 372.618C357.881 369.493 355.347 366.959 352.222 366.959C349.096 366.959 346.562 369.493 346.562 372.618C346.562 375.744 349.096 378.277 352.222 378.277Z" fill="#60C74B"/>
<path d="M372.616 378.277C375.742 378.277 378.275 375.744 378.275 372.618C378.275 369.493 375.742 366.959 372.616 366.959C369.491 366.959 366.957 369.493 366.957 372.618C366.957 375.744 369.491 378.277 372.616 378.277Z" fill="#60C74B"/>
<path d="M393 378.277C396.126 378.277 398.659 375.744 398.659 372.618C398.659 369.493 396.126 366.959 393 366.959C389.875 366.959 387.341 369.493 387.341 372.618C387.341 375.744 389.875 378.277 393 378.277Z" fill="#60C74B"/>
<path d="M413.385 378.277C416.51 378.277 419.044 375.744 419.044 372.618C419.044 369.493 416.51 366.959 413.385 366.959C410.259 366.959 407.726 369.493 407.726 372.618C407.726 375.744 410.259 378.277 413.385 378.277Z" fill="#60C74B"/>
<path d="M433.774 378.277C436.9 378.277 439.434 375.744 439.434 372.618C439.434 369.493 436.9 366.959 433.774 366.959C430.649 366.959 428.115 369.493 428.115 372.618C428.115 375.744 430.649 378.277 433.774 378.277Z" fill="#60C74B"/>
<path d="M454.158 378.277C457.284 378.277 459.817 375.744 459.817 372.618C459.817 369.493 457.284 366.959 454.158 366.959C451.033 366.959 448.499 369.493 448.499 372.618C448.499 375.744 451.033 378.277 454.158 378.277Z" fill="#60C74B"/>
<path d="M474.543 378.277C477.669 378.277 480.202 375.744 480.202 372.618C480.202 369.493 477.669 366.959 474.543 366.959C471.418 366.959 468.884 369.493 468.884 372.618C468.884 375.744 471.418 378.277 474.543 378.277Z" fill="#60C74B"/>
<path d="M494.937 378.277C498.062 378.277 500.596 375.744 500.596 372.618C500.596 369.493 498.062 366.959 494.937 366.959C491.811 366.959 489.277 369.493 489.277 372.618C489.277 375.744 491.811 378.277 494.937 378.277Z" fill="#60C74B"/>
<path d="M515.321 378.277C518.447 378.277 520.98 375.744 520.98 372.618C520.98 369.493 518.447 366.959 515.321 366.959C512.196 366.959 509.662 369.493 509.662 372.618C509.662 375.744 512.196 378.277 515.321 378.277Z" fill="#60C74B"/>
<path d="M535.705 378.277C538.831 378.277 541.364 375.744 541.364 372.618C541.364 369.493 538.831 366.959 535.705 366.959C532.58 366.959 530.046 369.493 530.046 372.618C530.046 375.744 532.58 378.277 535.705 378.277Z" fill="#60C74B"/>
<path d="M637.627 378.277C640.752 378.277 643.286 375.744 643.286 372.618C643.286 369.493 640.752 366.959 637.627 366.959C634.502 366.959 631.968 369.493 631.968 372.618C631.968 375.744 634.502 378.277 637.627 378.277Z" fill="#60C74B"/>
<path d="M658.022 378.277C661.147 378.277 663.681 375.744 663.681 372.618C663.681 369.493 661.147 366.959 658.022 366.959C654.896 366.959 652.362 369.493 652.362 372.618C652.362 375.744 654.896 378.277 658.022 378.277Z" fill="#60C74B"/>
<path d="M26.044 398.66C29.1695 398.66 31.7032 396.127 31.7032 393.001C31.7032 389.876 29.1695 387.342 26.044 387.342C22.9185 387.342 20.3848 389.876 20.3848 393.001C20.3848 396.127 22.9185 398.66 26.044 398.66Z" fill="#60C74B"/>
<path d="M46.4326 398.66C49.5581 398.66 52.0918 396.127 52.0918 393.001C52.0918 389.876 49.5581 387.342 46.4326 387.342C43.3072 387.342 40.7734 389.876 40.7734 393.001C40.7734 396.127 43.3072 398.66 46.4326 398.66Z" fill="#60C74B"/>
<path d="M66.8174 398.66C69.9429 398.66 72.4766 396.127 72.4766 393.001C72.4766 389.876 69.9429 387.342 66.8174 387.342C63.6919 387.342 61.1582 389.876 61.1582 393.001C61.1582 396.127 63.6919 398.66 66.8174 398.66Z" fill="#60C74B"/>
<path d="M87.2012 398.66C90.3267 398.66 92.8604 396.127 92.8604 393.001C92.8604 389.876 90.3267 387.342 87.2012 387.342C84.0757 387.342 81.542 389.876 81.542 393.001C81.542 396.127 84.0757 398.66 87.2012 398.66Z" fill="#60C74B"/>
<path d="M107.596 398.66C110.721 398.66 113.255 396.127 113.255 393.001C113.255 389.876 110.721 387.342 107.596 387.342C104.47 387.342 101.937 389.876 101.937 393.001C101.937 396.127 104.47 398.66 107.596 398.66Z" fill="#60C74B"/>
<path d="M127.98 398.66C131.105 398.66 133.639 396.127 133.639 393.001C133.639 389.876 131.105 387.342 127.98 387.342C124.854 387.342 122.32 389.876 122.32 393.001C122.32 396.127 124.854 398.66 127.98 398.66Z" fill="#60C74B"/>
<path d="M148.369 398.66C151.495 398.66 154.028 396.127 154.028 393.001C154.028 389.876 151.495 387.342 148.369 387.342C145.244 387.342 142.71 389.876 142.71 393.001C142.71 396.127 145.244 398.66 148.369 398.66Z" fill="#60C74B"/>
<path d="M168.753 398.66C171.878 398.66 174.412 396.127 174.412 393.001C174.412 389.876 171.878 387.342 168.753 387.342C165.627 387.342 163.094 389.876 163.094 393.001C163.094 396.127 165.627 398.66 168.753 398.66Z" fill="#60C74B"/>
<path d="M229.911 398.66C233.037 398.66 235.57 396.127 235.57 393.001C235.57 389.876 233.037 387.342 229.911 387.342C226.786 387.342 224.252 389.876 224.252 393.001C224.252 396.127 226.786 398.66 229.911 398.66Z" fill="#60C74B"/>
<path d="M250.296 398.66C253.421 398.66 255.955 396.127 255.955 393.001C255.955 389.876 253.421 387.342 250.296 387.342C247.17 387.342 244.637 389.876 244.637 393.001C244.637 396.127 247.17 398.66 250.296 398.66Z" fill="#60C74B"/>
<path d="M270.68 398.66C273.805 398.66 276.339 396.127 276.339 393.001C276.339 389.876 273.805 387.342 270.68 387.342C267.554 387.342 265.021 389.876 265.021 393.001C265.021 396.127 267.554 398.66 270.68 398.66Z" fill="#60C74B"/>
<path d="M291.064 398.66C294.19 398.66 296.724 396.127 296.724 393.001C296.724 389.876 294.19 387.342 291.064 387.342C287.939 387.342 285.405 389.876 285.405 393.001C285.405 396.127 287.939 398.66 291.064 398.66Z" fill="#60C74B"/>
<path d="M311.448 398.66C314.574 398.66 317.107 396.127 317.107 393.001C317.107 389.876 314.574 387.342 311.448 387.342C308.323 387.342 305.789 389.876 305.789 393.001C305.789 396.127 308.323 398.66 311.448 398.66Z" fill="#60C74B"/>
<path d="M331.843 398.66C334.968 398.66 337.502 396.127 337.502 393.001C337.502 389.876 334.968 387.342 331.843 387.342C328.717 387.342 326.184 389.876 326.184 393.001C326.184 396.127 328.717 398.66 331.843 398.66Z" fill="#60C74B"/>
<path d="M352.222 398.66C355.347 398.66 357.881 396.127 357.881 393.001C357.881 389.876 355.347 387.342 352.222 387.342C349.096 387.342 346.562 389.876 346.562 393.001C346.562 396.127 349.096 398.66 352.222 398.66Z" fill="#60C74B"/>
<path d="M372.616 398.66C375.742 398.66 378.275 396.127 378.275 393.001C378.275 389.876 375.742 387.342 372.616 387.342C369.491 387.342 366.957 389.876 366.957 393.001C366.957 396.127 369.491 398.66 372.616 398.66Z" fill="#60C74B"/>
<path d="M393 398.66C396.126 398.66 398.659 396.127 398.659 393.001C398.659 389.876 396.126 387.342 393 387.342C389.875 387.342 387.341 389.876 387.341 393.001C387.341 396.127 389.875 398.66 393 398.66Z" fill="#60C74B"/>
<path d="M413.385 398.66C416.51 398.66 419.044 396.127 419.044 393.001C419.044 389.876 416.51 387.342 413.385 387.342C410.259 387.342 407.726 389.876 407.726 393.001C407.726 396.127 410.259 398.66 413.385 398.66Z" fill="#60C74B"/>
<path d="M433.774 398.66C436.9 398.66 439.434 396.127 439.434 393.001C439.434 389.876 436.9 387.342 433.774 387.342C430.649 387.342 428.115 389.876 428.115 393.001C428.115 396.127 430.649 398.66 433.774 398.66Z" fill="#60C74B"/>
<path d="M454.158 398.66C457.284 398.66 459.817 396.127 459.817 393.001C459.817 389.876 457.284 387.342 454.158 387.342C451.033 387.342 448.499 389.876 448.499 393.001C448.499 396.127 451.033 398.66 454.158 398.66Z" fill="#60C74B"/>
<path d="M474.543 398.66C477.669 398.66 480.202 396.127 480.202 393.001C480.202 389.876 477.669 387.342 474.543 387.342C471.418 387.342 468.884 389.876 468.884 393.001C468.884 396.127 471.418 398.66 474.543 398.66Z" fill="#60C74B"/>
<path d="M494.937 398.66C498.062 398.66 500.596 396.127 500.596 393.001C500.596 389.876 498.062 387.342 494.937 387.342C491.811 387.342 489.277 389.876 489.277 393.001C489.277 396.127 491.811 398.66 494.937 398.66Z" fill="#60C74B"/>
<path d="M515.321 398.66C518.447 398.66 520.98 396.127 520.98 393.001C520.98 389.876 518.447 387.342 515.321 387.342C512.196 387.342 509.662 389.876 509.662 393.001C509.662 396.127 512.196 398.66 515.321 398.66Z" fill="#60C74B"/>
<path d="M535.705 398.66C538.831 398.66 541.364 396.127 541.364 393.001C541.364 389.876 538.831 387.342 535.705 387.342C532.58 387.342 530.046 389.876 530.046 393.001C530.046 396.127 532.58 398.66 535.705 398.66Z" fill="#60C74B"/>
<path d="M637.627 398.66C640.752 398.66 643.286 396.127 643.286 393.001C643.286 389.876 640.752 387.342 637.627 387.342C634.502 387.342 631.968 389.876 631.968 393.001C631.968 396.127 634.502 398.66 637.627 398.66Z" fill="#60C74B"/>
<path d="M46.4326 419.051C49.5581 419.051 52.0918 416.517 52.0918 413.392C52.0918 410.266 49.5581 407.732 46.4326 407.732C43.3072 407.732 40.7734 410.266 40.7734 413.392C40.7734 416.517 43.3072 419.051 46.4326 419.051Z" fill="#60C74B"/>
<path d="M66.8174 419.051C69.9429 419.051 72.4766 416.517 72.4766 413.392C72.4766 410.266 69.9429 407.732 66.8174 407.732C63.6919 407.732 61.1582 410.266 61.1582 413.392C61.1582 416.517 63.6919 419.051 66.8174 419.051Z" fill="#60C74B"/>
<path d="M87.2012 419.051C90.3267 419.051 92.8604 416.517 92.8604 413.392C92.8604 410.266 90.3267 407.732 87.2012 407.732C84.0757 407.732 81.542 410.266 81.542 413.392C81.542 416.517 84.0757 419.051 87.2012 419.051Z" fill="#60C74B"/>
<path d="M107.596 419.051C110.721 419.051 113.255 416.517 113.255 413.392C113.255 410.266 110.721 407.732 107.596 407.732C104.47 407.732 101.937 410.266 101.937 413.392C101.937 416.517 104.47 419.051 107.596 419.051Z" fill="#60C74B"/>
<path d="M127.98 419.051C131.105 419.051 133.639 416.517 133.639 413.392C133.639 410.266 131.105 407.732 127.98 407.732C124.854 407.732 122.32 410.266 122.32 413.392C122.32 416.517 124.854 419.051 127.98 419.051Z" fill="#60C74B"/>
<path d="M148.369 419.051C151.495 419.051 154.028 416.517 154.028 413.392C154.028 410.266 151.495 407.732 148.369 407.732C145.244 407.732 142.71 410.266 142.71 413.392C142.71 416.517 145.244 419.051 148.369 419.051Z" fill="#60C74B"/>
<path d="M270.68 419.051C273.805 419.051 276.339 416.517 276.339 413.392C276.339 410.266 273.805 407.732 270.68 407.732C267.554 407.732 265.021 410.266 265.021 413.392C265.021 416.517 267.554 419.051 270.68 419.051Z" fill="#60C74B"/>
<path d="M291.064 419.051C294.19 419.051 296.724 416.517 296.724 413.392C296.724 410.266 294.19 407.732 291.064 407.732C287.939 407.732 285.405 410.266 285.405 413.392C285.405 416.517 287.939 419.051 291.064 419.051Z" fill="#60C74B"/>
<path d="M311.448 419.051C314.574 419.051 317.107 416.517 317.107 413.392C317.107 410.266 314.574 407.732 311.448 407.732C308.323 407.732 305.789 410.266 305.789 413.392C305.789 416.517 308.323 419.051 311.448 419.051Z" fill="#60C74B"/>
<path d="M331.843 419.051C334.968 419.051 337.502 416.517 337.502 413.392C337.502 410.266 334.968 407.732 331.843 407.732C328.717 407.732 326.184 410.266 326.184 413.392C326.184 416.517 328.717 419.051 331.843 419.051Z" fill="#60C74B"/>
<path d="M372.616 419.051C375.742 419.051 378.275 416.517 378.275 413.392C378.275 410.266 375.742 407.732 372.616 407.732C369.491 407.732 366.957 410.266 366.957 413.392C366.957 416.517 369.491 419.051 372.616 419.051Z" fill="#60C74B"/>
<path d="M393 419.051C396.126 419.051 398.659 416.517 398.659 413.392C398.659 410.266 396.126 407.732 393 407.732C389.875 407.732 387.341 410.266 387.341 413.392C387.341 416.517 389.875 419.051 393 419.051Z" fill="#60C74B"/>
<path d="M413.385 419.051C416.51 419.051 419.044 416.517 419.044 413.392C419.044 410.266 416.51 407.732 413.385 407.732C410.259 407.732 407.726 410.266 407.726 413.392C407.726 416.517 410.259 419.051 413.385 419.051Z" fill="#60C74B"/>
<path d="M433.774 419.051C436.9 419.051 439.434 416.517 439.434 413.392C439.434 410.266 436.9 407.732 433.774 407.732C430.649 407.732 428.115 410.266 428.115 413.392C428.115 416.517 430.649 419.051 433.774 419.051Z" fill="#60C74B"/>
<path d="M454.158 419.051C457.284 419.051 459.817 416.517 459.817 413.392C459.817 410.266 457.284 407.732 454.158 407.732C451.033 407.732 448.499 410.266 448.499 413.392C448.499 416.517 451.033 419.051 454.158 419.051Z" fill="#60C74B"/>
<path d="M494.937 419.051C498.062 419.051 500.596 416.517 500.596 413.392C500.596 410.266 498.062 407.732 494.937 407.732C491.811 407.732 489.277 410.266 489.277 413.392C489.277 416.517 491.811 419.051 494.937 419.051Z" fill="#60C74B"/>
<path d="M515.321 419.051C518.447 419.051 520.98 416.517 520.98 413.392C520.98 410.266 518.447 407.732 515.321 407.732C512.196 407.732 509.662 410.266 509.662 413.392C509.662 416.517 512.196 419.051 515.321 419.051Z" fill="#60C74B"/>
<path d="M535.705 419.051C538.831 419.051 541.364 416.517 541.364 413.392C541.364 410.266 538.831 407.732 535.705 407.732C532.58 407.732 530.046 410.266 530.046 413.392C530.046 416.517 532.58 419.051 535.705 419.051Z" fill="#60C74B"/>
<path d="M556.085 419.051C559.21 419.051 561.744 416.517 561.744 413.392C561.744 410.266 559.21 407.732 556.085 407.732C552.96 407.732 550.426 410.266 550.426 413.392C550.426 416.517 552.96 419.051 556.085 419.051Z" fill="#60C74B"/>
<path d="M637.627 419.051C640.752 419.051 643.286 416.517 643.286 413.392C643.286 410.266 640.752 407.732 637.627 407.732C634.502 407.732 631.968 410.266 631.968 413.392C631.968 416.517 634.502 419.051 637.627 419.051Z" fill="#60C74B"/>
<path d="M66.8174 439.436C69.9429 439.436 72.4766 436.902 72.4766 433.776C72.4766 430.651 69.9429 428.117 66.8174 428.117C63.6919 428.117 61.1582 430.651 61.1582 433.776C61.1582 436.902 63.6919 439.436 66.8174 439.436Z" fill="#60C74B"/>
<path d="M87.2012 439.436C90.3267 439.436 92.8604 436.902 92.8604 433.776C92.8604 430.651 90.3267 428.117 87.2012 428.117C84.0757 428.117 81.542 430.651 81.542 433.776C81.542 436.902 84.0757 439.436 87.2012 439.436Z" fill="#60C74B"/>
<path d="M515.321 439.436C518.447 439.436 520.98 436.902 520.98 433.776C520.98 430.651 518.447 428.117 515.321 428.117C512.196 428.117 509.662 430.651 509.662 433.776C509.662 436.902 512.196 439.436 515.321 439.436Z" fill="#60C74B"/>
<path d="M535.705 439.436C538.831 439.436 541.364 436.902 541.364 433.776C541.364 430.651 538.831 428.117 535.705 428.117C532.58 428.117 530.046 430.651 530.046 433.776C530.046 436.902 532.58 439.436 535.705 439.436Z" fill="#60C74B"/>
<path d="M66.8174 459.818C69.9429 459.818 72.4766 457.285 72.4766 454.159C72.4766 451.034 69.9429 448.5 66.8174 448.5C63.6919 448.5 61.1582 451.034 61.1582 454.159C61.1582 457.285 63.6919 459.818 66.8174 459.818Z" fill="#60C74B"/>
<path d="M87.2012 459.818C90.3267 459.818 92.8604 457.285 92.8604 454.159C92.8604 451.034 90.3267 448.5 87.2012 448.5C84.0757 448.5 81.542 451.034 81.542 454.159C81.542 457.285 84.0757 459.818 87.2012 459.818Z" fill="#60C74B"/>
<path d="M535.705 459.818C538.831 459.818 541.364 457.285 541.364 454.159C541.364 451.034 538.831 448.5 535.705 448.5C532.58 448.5 530.046 451.034 530.046 454.159C530.046 457.285 532.58 459.818 535.705 459.818Z" fill="#60C74B"/>
<path d="M66.8174 480.211C69.9429 480.211 72.4766 477.677 72.4766 474.552C72.4766 471.426 69.9429 468.893 66.8174 468.893C63.6919 468.893 61.1582 471.426 61.1582 474.552C61.1582 477.677 63.6919 480.211 66.8174 480.211Z" fill="#60C74B"/>
<path d="M87.2012 480.211C90.3267 480.211 92.8604 477.677 92.8604 474.552C92.8604 471.426 90.3267 468.893 87.2012 468.893C84.0757 468.893 81.542 471.426 81.542 474.552C81.542 477.677 84.0757 480.211 87.2012 480.211Z" fill="#60C74B"/>
<path d="M515.321 480.211C518.447 480.211 520.98 477.677 520.98 474.552C520.98 471.426 518.447 468.893 515.321 468.893C512.196 468.893 509.662 471.426 509.662 474.552C509.662 477.677 512.196 480.211 515.321 480.211Z" fill="#60C74B"/>
</svg>
