<svg width="41" height="50" viewBox="0 0 41 50" fill="none" xmlns="http://www.w3.org/2000/svg">
<path d="M11.3677 44.65L17.0757 48.3331C18.0825 48.9844 19.2363 49.3091 20.389 49.3091C21.5519 49.3091 22.7159 48.9783 23.7289 48.3156L29.3321 44.6562C36.3777 40.0536 40.5848 32.2796 40.5848 23.8635V11.0677C40.5848 8.48495 38.9492 6.17134 36.5164 5.31041L22.6707 0.406834C21.1379 -0.135611 19.4489 -0.135611 17.9151 0.406834L4.06834 5.31041C1.63453 6.17237 0 8.48598 0 11.0677V23.7833C0 32.2549 4.24915 40.0546 11.3677 44.65ZM4.10943 11.0677C4.10943 10.2232 4.64469 9.46505 5.43986 9.18355L19.2876 4.27997C19.6112 4.16594 19.9513 4.10738 20.2924 4.10738C20.6335 4.10738 20.9735 4.16594 21.2982 4.27997L35.1449 9.18458C35.9401 9.46505 36.4753 10.2232 36.4753 11.0677V23.8635C36.4753 30.8875 32.9648 37.3743 27.0842 41.2156L21.481 44.876C20.8204 45.3075 19.9667 45.3106 19.3041 44.8812L13.595 41.1971C7.65485 37.364 4.10841 30.8536 4.10841 23.7833L4.10943 11.0677Z" fill="url(#paint0_linear_2713_1903)"/>
<path d="M13.7551 29.137C14.1568 29.5387 14.6818 29.739 15.2078 29.739C15.7338 29.739 16.2598 29.5387 16.6605 29.137L20.2932 25.5042L23.9259 29.137C24.3276 29.5387 24.8526 29.739 25.3786 29.739C25.9046 29.739 26.4296 29.5387 26.8313 29.137C27.6337 28.3346 27.6337 27.034 26.8313 26.2316L23.1986 22.5989L26.8313 18.9661C27.6337 18.1638 27.6337 16.8631 26.8313 16.0608C26.0289 15.2584 24.7283 15.2584 23.9259 16.0608L20.2932 19.6935L16.6605 16.0608C15.8591 15.2584 14.5564 15.2584 13.7551 16.0608C12.9527 16.8631 12.9527 18.1638 13.7551 18.9661L17.3878 22.5989L13.7551 26.2316C12.9527 27.034 12.9527 28.3346 13.7551 29.137Z" fill="url(#paint1_linear_2713_1903)"/>
<defs>
<linearGradient id="paint0_linear_2713_1903" x1="0" y1="24.6545" x2="40.5848" y2="24.6545" gradientUnits="userSpaceOnUse">
<stop stop-color="#6BBF56"/>
<stop offset="1" stop-color="#23B100"/>
</linearGradient>
<linearGradient id="paint1_linear_2713_1903" x1="13.1533" y1="22.599" x2="27.4331" y2="22.599" gradientUnits="userSpaceOnUse">
<stop stop-color="#6BBF56"/>
<stop offset="1" stop-color="#23B100"/>
</linearGradient>
</defs>
</svg>
