<svg width="49" height="49" viewBox="0 0 49 49" fill="none" xmlns="http://www.w3.org/2000/svg">
<path d="M1.7219 48.2133H46.4914C46.9481 48.2133 47.3861 48.0319 47.709 47.709C48.0319 47.3861 48.2133 46.9481 48.2133 46.4914V1.7219C48.2133 1.26523 48.0319 0.827254 47.709 0.504334C47.3861 0.181414 46.9481 0 46.4914 0H1.7219C1.26523 0 0.827254 0.181414 0.504334 0.504334C0.181414 0.827254 0 1.26523 0 1.7219V46.4914C0 46.9481 0.181414 47.3861 0.504334 47.709C0.827254 48.0319 1.26523 48.2133 1.7219 48.2133ZM3.44381 44.7695V39.6038H44.7695V44.7695H3.44381ZM44.7695 3.44381V36.16H3.44381V3.44381H44.7695Z" fill="url(#paint0_linear_2713_1900)"/>
<path d="M38.2258 26.8603L34.2506 21.561L30.4892 25.3227C30.318 25.494 30.1125 25.6272 29.8862 25.7137C29.66 25.8002 29.418 25.838 29.1761 25.8246C28.9343 25.8112 28.6979 25.7469 28.4826 25.6359C28.2673 25.525 28.0778 25.3698 27.9265 25.1806L22.0815 17.8742L16.5298 22.039C16.1719 22.3074 15.7235 22.426 15.2797 22.3697C14.8359 22.3134 14.4315 22.0865 14.152 21.7371L7.26437 13.1276C6.97917 12.7708 6.84738 12.3154 6.898 11.8614C6.94862 11.4075 7.17749 10.9922 7.53427 10.7071C7.89105 10.4219 8.34651 10.2901 8.80045 10.3407C9.2544 10.3913 9.66965 10.6202 9.95484 10.977L15.8 18.2833L21.3511 14.1182C21.709 13.8498 22.1573 13.7313 22.601 13.7876C23.0448 13.844 23.4492 14.0708 23.7287 14.4201L29.4148 21.5274L33.2202 17.722C33.3945 17.5474 33.6044 17.4124 33.8355 17.3261C34.0667 17.2397 34.3136 17.2041 34.5598 17.2216C34.8059 17.2391 35.0453 17.3093 35.2619 17.4274C35.4785 17.5456 35.6672 17.7089 35.8151 17.9064L40.9808 24.794C41.2548 25.1594 41.3725 25.6186 41.3079 26.0707C41.2433 26.5228 41.0018 26.9307 40.6364 27.2047C40.2711 27.4787 39.8119 27.5964 39.3598 27.5318C38.9077 27.4672 38.4998 27.2257 38.2258 26.8603Z" fill="url(#paint1_linear_2713_1900)"/>
<defs>
<linearGradient id="paint0_linear_2713_1900" x1="0" y1="24.1067" x2="48.2133" y2="24.1067" gradientUnits="userSpaceOnUse">
<stop stop-color="#6BBF56"/>
<stop offset="1" stop-color="#23B100"/>
</linearGradient>
<linearGradient id="paint1_linear_2713_1900" x1="41.3252" y1="18.9396" x2="6.88739" y2="18.9396" gradientUnits="userSpaceOnUse">
<stop stop-color="#6BBF56"/>
<stop offset="1" stop-color="#23B100"/>
</linearGradient>
</defs>
</svg>
