<svg width="195" height="33" viewBox="0 0 195 33" fill="none" xmlns="http://www.w3.org/2000/svg">
<path fill-rule="evenodd" clip-rule="evenodd" d="M13.7848 29.8253C9.05063 29.4911 0 26.0992 0 15.2051C0 5.26329 8.43797 0 14.2025 0V3.09114C18.9924 3.06329 28.4886 6.68354 28.4886 17.7949C28.4886 29.6248 18.5747 32.8608 13.7848 33V29.8253ZM12.7823 6.43304H16.6254V10.109H12.7823V6.43304ZM12.7823 12.1142H16.6254V27.1522H12.7823V12.1142Z" fill="white"/>
<path d="M170.447 25.0005V4.00049H174.467L183.407 18.8205H181.277L190.067 4.00049H194.057L194.117 25.0005H189.557L189.527 10.9905H190.367L183.347 22.7805H181.157L173.987 10.9905H175.007V25.0005H170.447Z" fill="white"/>
<path d="M156.134 25.3605C153.154 25.3605 150.824 24.5305 149.144 22.8705C147.464 21.2105 146.624 18.8405 146.624 15.7605V4.00049H151.484V15.5805C151.484 17.5805 151.894 19.0205 152.714 19.9005C153.534 20.7805 154.684 21.2205 156.164 21.2205C157.644 21.2205 158.794 20.7805 159.614 19.9005C160.434 19.0205 160.844 17.5805 160.844 15.5805V4.00049H165.644V15.7605C165.644 18.8405 164.804 21.2105 163.124 22.8705C161.444 24.5305 159.114 25.3605 156.134 25.3605Z" fill="white"/>
<path d="M136.961 25.0005V4.00049H141.821V25.0005H136.961Z" fill="white"/>
<path d="M118.855 25.0005V4.00049H123.715V21.0405H134.245V25.0005H118.855Z" fill="white"/>
<path d="M109.011 25.0005V4.00049H113.871V25.0005H109.011Z" fill="white"/>
<path d="M94.8165 25.0005V7.96049H88.0965V4.00049H106.397V7.96049H99.6765V25.0005H94.8165Z" fill="white"/>
<path d="M80.6228 25.0005V4.00049H85.4828V25.0005H80.6228Z" fill="white"/>
<path d="M74.2112 14.4704C73.4112 14.4704 72.7212 14.2004 72.1412 13.6604C71.5812 13.1004 71.3012 12.3904 71.3012 11.5304C71.3012 10.6704 71.5812 9.98039 72.1412 9.46039C72.7212 8.92039 73.4112 8.65039 74.2112 8.65039C75.0312 8.65039 75.7212 8.92039 76.2812 9.46039C76.8412 9.98039 77.1212 10.6704 77.1212 11.5304C77.1212 12.3904 76.8412 13.1004 76.2812 13.6604C75.7212 14.2004 75.0312 14.4704 74.2112 14.4704ZM74.2112 25.2404C73.4112 25.2404 72.7212 24.9704 72.1412 24.4304C71.5812 23.8704 71.3012 23.1604 71.3012 22.3004C71.3012 21.4404 71.5812 20.7504 72.1412 20.2304C72.7212 19.6904 73.4112 19.4204 74.2112 19.4204C75.0312 19.4204 75.7212 19.6904 76.2812 20.2304C76.8412 20.7504 77.1212 21.4404 77.1212 22.3004C77.1212 23.1604 76.8412 23.8704 76.2812 24.4304C75.7212 24.9704 75.0312 25.2404 74.2112 25.2404Z" fill="white"/>
<path d="M61.288 25.3606C59.668 25.3606 58.158 25.1006 56.758 24.5806C55.378 24.0406 54.178 23.2806 53.158 22.3006C52.138 21.3206 51.338 20.1706 50.758 18.8506C50.198 17.5306 49.918 16.0806 49.918 14.5006C49.918 12.9206 50.198 11.4706 50.758 10.1506C51.338 8.83062 52.138 7.68062 53.158 6.70063C54.198 5.72062 55.408 4.97062 56.788 4.45062C58.168 3.91062 59.678 3.64062 61.318 3.64062C63.138 3.64062 64.778 3.96063 66.238 4.60063C67.718 5.22062 68.958 6.14062 69.958 7.36063L66.838 10.2406C66.118 9.42062 65.318 8.81062 64.438 8.41062C63.558 7.99063 62.598 7.78063 61.558 7.78063C60.578 7.78063 59.678 7.94063 58.858 8.26062C58.038 8.58062 57.328 9.04062 56.728 9.64062C56.128 10.2406 55.658 10.9506 55.318 11.7706C54.998 12.5906 54.838 13.5006 54.838 14.5006C54.838 15.5006 54.998 16.4106 55.318 17.2306C55.658 18.0506 56.128 18.7606 56.728 19.3606C57.328 19.9606 58.038 20.4206 58.858 20.7406C59.678 21.0606 60.578 21.2206 61.558 21.2206C62.598 21.2206 63.558 21.0206 64.438 20.6206C65.318 20.2006 66.118 19.5706 66.838 18.7306L69.958 21.6106C68.958 22.8306 67.718 23.7606 66.238 24.4006C64.778 25.0406 63.128 25.3606 61.288 25.3606Z" fill="white"/>
<path d="M41.41 25.0005V5.80049L43.51 7.90049H37.21V4.00049H46.27V25.0005H41.41Z" fill="white"/>
</svg>
