<svg width="230" height="42" viewBox="0 0 230 42" fill="none" xmlns="http://www.w3.org/2000/svg">
<path d="M0 19.1725C0 32.9093 11.4122 37.1863 17.3817 37.6077V41.6107C23.4214 41.4352 35.9222 37.3549 35.9222 22.4382C35.9222 8.42749 23.9481 3.8626 17.9084 3.89771V0C10.6397 0 0 6.63665 0 19.1725Z" fill="#6BBF56"/>
<path d="M16.1176 8.11182H20.9634V12.7469H16.1176V8.11182Z" fill="white"/>
<path d="M16.1176 15.2744H20.9634V34.2363H16.1176V15.2744Z" fill="white"/>
<mask id="mask0_2561_2047" style="mask-type:alpha" maskUnits="userSpaceOnUse" x="0" y="0" width="36" height="42">
<path opacity="0.25" d="M0 19.1725C0 32.9093 11.4122 37.1863 17.3817 37.6077V41.6107C23.4214 41.4352 35.9222 37.3549 35.9222 22.4382C35.9222 8.42749 23.9481 3.8626 17.9084 3.89771V0C10.6397 0 0 6.63665 0 19.1725Z" fill="#6BBF56"/>
</mask>
<g mask="url(#mask0_2561_2047)">
<path d="M28.127 -0.421865C28.127 15.6939 15.5814 28.7583 0.105635 28.7583C-15.3702 28.7583 -27.9158 15.6939 -27.9158 -0.421865C-27.9158 -16.5376 -15.3702 -29.6021 0.105635 -29.6021C15.5814 -29.6021 28.127 -16.5376 28.127 -0.421865Z" fill="white"/>
</g>
<path d="M224.518 31.7387L224.482 16.5911L217.052 29.0699H214.419L207.026 16.9157V31.7387H201.544V6.49268H206.376L215.826 22.1813L225.131 6.49268H229.927L230 31.7387H224.518Z" fill="white"/>
<path d="M184.337 32.1715C180.731 32.1715 177.918 31.1737 175.898 29.1781C173.902 27.1824 172.904 24.3332 172.904 20.6305V6.49268H178.747V20.4141C178.747 24.9343 180.623 27.1944 184.373 27.1944C186.201 27.1944 187.595 26.6535 188.557 25.5715C189.519 24.4655 190 22.7463 190 20.4141V6.49268H195.77V20.6305C195.77 24.3332 194.76 27.1824 192.741 29.1781C190.745 31.1737 187.944 32.1715 184.337 32.1715Z" fill="white"/>
<path d="M161.287 6.49268H167.129V31.7387H161.287V6.49268Z" fill="white"/>
<path d="M139.52 6.49268H145.363V26.978H158.022V31.7387H139.52V6.49268Z" fill="white"/>
<path d="M127.686 6.49268H133.529V31.7387H127.686V6.49268Z" fill="white"/>
<path d="M110.621 11.2534H102.542V6.49268H124.542V11.2534H116.464V31.7387H110.621V11.2534Z" fill="white"/>
<path d="M93.5576 6.49268H99.4003V31.7387H93.5576V6.49268Z" fill="white"/>
<path d="M85.8495 19.0798C84.8637 19.0798 84.0342 18.7432 83.361 18.0699C82.6877 17.3967 82.3511 16.5552 82.3511 15.5453C82.3511 14.5114 82.6877 13.6819 83.361 13.0568C84.0342 12.4076 84.8637 12.083 85.8495 12.083C86.8353 12.083 87.6648 12.4076 88.3381 13.0568C89.0113 13.6819 89.3479 14.5114 89.3479 15.5453C89.3479 16.5552 89.0113 17.3967 88.3381 18.0699C87.6648 18.7432 86.8353 19.0798 85.8495 19.0798ZM85.8495 32.0274C84.8637 32.0274 84.0342 31.6908 83.361 31.0175C82.6877 30.3443 82.3511 29.5028 82.3511 28.4929C82.3511 27.4591 82.6877 26.6295 83.361 26.0044C84.0342 25.3552 84.8637 25.0306 85.8495 25.0306C86.8353 25.0306 87.6648 25.3552 88.3381 26.0044C89.0113 26.6295 89.3479 27.4591 89.3479 28.4929C89.3479 29.5028 89.0113 30.3443 88.3381 31.0175C87.6648 31.6908 86.8353 32.0274 85.8495 32.0274Z" fill="white"/>
<path d="M70.3133 32.1717C67.7407 32.1717 65.4084 31.6187 63.3166 30.5127C61.2488 29.3826 59.6138 27.8318 58.4116 25.8602C57.2335 23.8645 56.6444 21.6164 56.6444 19.1159C56.6444 16.6153 57.2335 14.3792 58.4116 12.4076C59.6138 10.412 61.2488 8.86117 63.3166 7.75515C65.4084 6.62509 67.7527 6.06006 70.3494 6.06006C72.5374 6.06006 74.509 6.44476 76.2642 7.21416C78.0434 7.98357 79.5342 9.08959 80.7364 10.5322L76.9855 13.9945C75.2784 12.0229 73.1625 11.0371 70.6379 11.0371C69.0751 11.0371 67.6805 11.3858 66.4543 12.083C65.2281 12.7563 64.2663 13.706 63.569 14.9322C62.8958 16.1585 62.5592 17.553 62.5592 19.1159C62.5592 20.6787 62.8958 22.0733 63.569 23.2995C64.2663 24.5257 65.2281 25.4875 66.4543 26.1848C67.6805 26.858 69.0751 27.1946 70.6379 27.1946C73.1625 27.1946 75.2784 26.1968 76.9855 24.2012L80.7364 27.6635C79.5342 29.1301 78.0434 30.2482 76.2642 31.0176C74.485 31.787 72.5013 32.1717 70.3133 32.1717Z" fill="white"/>
<path d="M52.259 6.49268V31.7387H46.4164V11.1812H41.3672V6.49268H52.259Z" fill="white"/>
</svg>
