<svg width="230" height="38" viewBox="0 0 230 38" fill="none" xmlns="http://www.w3.org/2000/svg">
<path d="M21.0401 30.2351C19.3926 31.4166 17.4589 32.0635 15.4307 32.1144C9.74454 32.2567 5.08909 27.4603 5.08909 21.7724V14.7462C5.08909 13.8044 5.85243 13.0408 6.79431 13.0408H8.1641V22.0352C8.1641 22.1232 8.16858 22.2099 8.17724 22.2957C8.32582 26.0854 11.3977 29.0427 15.1717 29.0427C16.8826 29.0427 18.5192 28.4242 19.7998 27.2971C20.2753 26.8784 20.6271 26.3168 20.7183 25.6899C20.8313 24.9117 20.5933 24.1518 20.0694 23.5852C19.6078 23.0855 18.9798 22.7959 18.3006 22.7693C17.619 22.738 16.9727 22.9826 16.4735 23.4443C16.1048 23.7853 15.6204 23.9676 15.1156 23.953C14.0605 23.9227 13.2532 22.9876 13.2532 21.9321V10.635C13.2532 9.22976 12.1139 8.09065 10.7087 8.09065H6.34184C2.8394 8.09065 0 10.9299 0 14.4325V21.7052C0 30.1345 6.89617 37.2888 15.3251 37.206C18.4062 37.1758 21.3515 36.232 23.8671 34.4696C24.41 34.0892 24.8556 33.5622 25.0201 32.9199C25.2219 32.1331 25.0489 31.3241 24.5482 30.6936C23.7088 29.6367 22.1368 29.4487 21.0401 30.2351Z" fill="#E54724"/>
<path d="M55.9658 15.1516C57.1255 14.4253 58.4155 14.0573 59.7996 14.0573C60.9398 14.0573 61.8497 14.1892 62.5044 14.4495C63.1857 14.7203 63.9177 15.1877 64.6974 15.8526C65.3426 16.3777 66.0745 16.644 66.8723 16.644C67.6874 16.644 68.4427 16.3527 69.0571 15.802C69.7126 15.2146 70.0734 14.4001 70.0734 13.5086C70.0734 13.0076 69.9863 12.5466 69.8138 12.1381C69.6151 11.6679 69.2595 11.232 68.8124 10.8979C67.433 9.78504 66.0351 8.96871 64.6574 8.47177C63.2734 7.97353 61.639 7.72053 59.7996 7.72053C57.1738 7.72053 54.7367 8.38897 52.5551 9.70744C50.3865 11.0187 48.6546 12.8183 47.4077 15.0563C46.1626 17.2898 45.5315 19.7765 45.5315 22.4474C45.5315 25.1391 46.1623 27.6414 47.4057 29.8839C48.6535 32.1367 50.3885 33.9385 52.5612 35.2397C54.7401 36.545 57.1756 37.2068 59.7996 37.2068C63.1576 37.2068 66.2007 36.1272 68.8443 33.9977L68.9742 33.881C69.6286 33.2264 69.975 32.4093 69.975 31.5172C69.975 30.6282 69.6835 29.8433 69.1315 29.2471C68.5548 28.6256 67.7642 28.2833 66.9054 28.2833C66.214 28.2833 65.5291 28.5197 64.8469 29.0021C63.2231 30.22 61.5251 30.8375 59.7996 30.8375C58.415 30.8375 57.1252 30.4695 55.9652 29.7432C54.7807 29.0018 53.8245 27.9795 53.1235 26.7043C52.4206 25.4274 52.0644 23.9952 52.0644 22.4474C52.0644 20.9194 52.4215 19.4912 53.1261 18.2021C53.8265 16.9191 54.7818 15.8927 55.9658 15.1516Z" fill="#E54724"/>
<path d="M85.1238 30.87C83.5742 30.87 82.1695 30.5012 80.9479 29.7738C79.7257 29.0458 78.7588 28.038 78.0752 26.7777C77.3809 25.4988 77.0287 24.0419 77.0287 22.4474C77.0287 20.8531 77.3809 19.3963 78.0752 18.1168C78.758 16.8587 79.7182 15.8571 80.9286 15.1395C82.1413 14.4213 83.5526 14.0573 85.1238 14.0573C86.6953 14.0573 88.1066 14.4213 89.319 15.1395C90.5282 15.8561 91.4885 16.858 92.1721 18.1168C92.8665 19.3965 93.2189 20.8535 93.2189 22.4474C93.2189 24.0415 92.8665 25.4985 92.1721 26.7781C91.4879 28.0378 90.5216 29.0458 89.2997 29.7738C88.0781 30.5012 86.6734 30.87 85.1238 30.87ZM92.6526 9.6004V9.60009C90.4382 8.35303 87.9056 7.72053 85.1238 7.72053C82.3198 7.72053 79.7754 8.35303 77.5628 9.60009C75.3275 10.8595 73.568 12.6377 72.3338 14.8848C71.1136 17.1044 70.4952 19.6488 70.4952 22.4474C70.4952 25.2441 71.1134 27.7929 72.3318 30.023C73.5666 32.2825 75.3267 34.0673 77.5623 35.3271C79.7754 36.5743 82.3192 37.2068 85.1238 37.2068C87.9286 37.2068 90.4684 36.574 92.6724 35.3253C94.8936 34.0662 96.6511 32.2842 97.8957 30.0287C99.1276 27.7968 99.7524 25.246 99.7524 22.4474C99.7524 19.6481 99.1273 17.1017 97.894 14.8786C96.6479 12.634 94.8847 10.8582 92.6526 9.6004Z" fill="#E54724"/>
<path d="M122.897 8.04796C121.996 8.04796 121.185 8.37024 120.553 8.9809C119.907 9.60566 119.565 10.4352 119.565 11.3801V24.4117L108.196 9.28895L108.144 9.22619C107.853 8.89321 107.487 8.61514 107.056 8.39928C106.589 8.16612 106.102 8.04796 105.609 8.04796C104.697 8.04796 103.885 8.37715 103.261 9.00044C102.638 9.62386 102.31 10.4466 102.31 11.3801V33.5474C102.31 34.4827 102.639 35.3058 103.261 35.927C103.884 36.5498 104.696 36.8793 105.609 36.8793C106.552 36.8793 107.382 36.538 108.01 35.8905C108.619 35.2586 108.941 34.4484 108.941 33.5474V20.5484L120.25 35.5918C120.569 36.0568 121.011 36.4026 121.567 36.6203C122.007 36.7921 122.455 36.8793 122.897 36.8793C123.811 36.8793 124.622 36.5501 125.245 35.9274C125.867 35.3046 126.197 34.4816 126.197 33.5474V11.3801C126.197 10.4468 125.867 9.62386 125.243 8.99866C124.62 8.37657 123.809 8.04796 122.897 8.04796Z" fill="#E54724"/>
<path d="M151.038 8.04796C150.136 8.04796 149.325 8.37024 148.694 8.9809C148.047 9.606 147.705 10.4356 147.705 11.3801V24.4117L136.341 9.29436L136.284 9.22619C135.994 8.89364 135.628 8.61592 135.196 8.39928C134.728 8.16612 134.241 8.04796 133.749 8.04796C132.837 8.04796 132.025 8.37715 131.401 9.0001C130.779 9.62305 130.45 10.4459 130.45 11.3801V33.5474C130.45 34.4827 130.779 35.3058 131.401 35.9265C132.023 36.5498 132.835 36.8793 133.749 36.8793C134.693 36.8793 135.523 36.5378 136.15 35.8905C136.759 35.2586 137.081 34.4484 137.081 33.5474V20.5487L148.39 35.5918C148.708 36.0564 149.151 36.4023 149.708 36.6203C150.147 36.7921 150.595 36.8793 151.038 36.8793C151.95 36.8793 152.762 36.5504 153.385 35.927C154.008 35.3041 154.337 34.4812 154.337 33.5474V11.3801C154.337 10.446 154.007 9.62305 153.383 8.99886C152.76 8.37686 151.949 8.04796 151.038 8.04796Z" fill="#E54724"/>
<path d="M176.233 14.4501C177.144 14.4501 177.946 14.1523 178.553 13.5893C179.184 13.0034 179.532 12.1838 179.532 11.2818C179.532 10.3575 179.201 9.54994 178.575 8.94642C177.965 8.35875 177.155 8.04796 176.233 8.04796H161.433C160.531 8.04796 159.721 8.37024 159.089 8.9809C158.442 9.60566 158.101 10.4352 158.101 11.3801V33.5474C158.101 34.46 158.436 35.277 159.07 35.9115C159.703 36.5446 160.521 36.8793 161.433 36.8793H176.233C177.155 36.8793 177.965 36.5687 178.576 35.9806C179.201 35.3769 179.532 34.5695 179.532 33.6455C179.532 32.7444 179.185 31.9254 178.554 31.3388L178.511 31.3003C177.909 30.7616 177.123 30.4772 176.233 30.4772H164.765V25.5503H172.533C173.423 25.5503 174.22 25.2464 174.84 24.67C175.48 24.0726 175.832 23.2484 175.832 22.3492C175.832 21.4495 175.48 20.6251 174.838 20.0259C174.22 19.4517 173.423 19.1481 172.533 19.1481H164.765V14.4501H176.233Z" fill="#E54724"/>
<path d="M190.282 15.1514C191.442 14.4253 192.732 14.0573 194.116 14.0573C195.256 14.0573 196.166 14.1892 196.821 14.4495C197.502 14.7203 198.234 15.1877 199.014 15.8526C199.659 16.3777 200.391 16.644 201.188 16.644C202.003 16.644 202.759 16.3527 203.373 15.802C204.029 15.2146 204.39 14.4001 204.39 13.5086C204.39 13.0076 204.303 12.5466 204.13 12.1381C203.931 11.6679 203.576 11.232 203.129 10.8979C201.749 9.78504 200.352 8.96871 198.974 8.47177C197.59 7.97353 195.955 7.72053 194.116 7.72053C191.49 7.72053 189.053 8.38897 186.872 9.70744C184.703 11.0187 182.971 12.8183 181.724 15.0563C180.479 17.2898 179.848 19.7765 179.848 22.4474C179.848 25.1391 180.479 27.6414 181.722 29.8839C182.97 32.1367 184.705 33.9385 186.878 35.2397C189.057 36.545 191.492 37.2068 194.116 37.2068C197.474 37.2068 200.517 36.1272 203.161 33.9977L203.29 33.881C203.945 33.2264 204.291 32.4093 204.291 31.5172C204.291 30.6282 204 29.8433 203.448 29.2471C202.871 28.6256 202.081 28.2833 201.222 28.2833C200.53 28.2833 199.846 28.5197 199.163 29.0021C197.54 30.22 195.842 30.8375 194.116 30.8375C192.731 30.8375 191.442 30.4695 190.282 29.7432C189.097 29.0016 188.141 27.9795 187.44 26.7043C186.737 25.4274 186.381 23.9952 186.381 22.4474C186.381 20.9194 186.738 19.4912 187.443 18.2021C188.143 16.9191 189.098 15.8929 190.282 15.1514Z" fill="#E54724"/>
<path d="M229.08 8.96756V8.9671C228.478 8.36593 227.689 8.04796 226.798 8.04796H209.28C208.389 8.04796 207.6 8.36593 206.998 8.96733C206.397 9.56895 206.079 10.358 206.079 11.2492C206.079 12.1409 206.397 12.9301 206.999 13.5313C207.6 14.1324 208.389 14.4501 209.28 14.4501H214.723V33.5474C214.723 34.4606 215.059 35.2779 215.692 35.911C216.326 36.5446 217.143 36.8793 218.055 36.8793C218.968 36.8793 219.786 36.5446 220.42 35.911C221.053 35.2774 221.388 34.46 221.388 33.5474V14.4501H226.798C227.69 14.4501 228.478 14.1322 229.079 13.5313C229.681 12.9303 229.999 12.1412 229.999 11.2492C229.999 10.3578 229.681 9.56895 229.08 8.96756Z" fill="#E54724"/>
<path d="M30.5716 2.77582C30.5716 4.30905 29.3287 5.55191 27.7957 5.55191C26.2626 5.55191 25.0199 4.30905 25.0199 2.77582C25.0199 1.24287 26.2626 4.29153e-06 27.7957 4.29153e-06C29.3287 4.29153e-06 30.5716 1.24287 30.5716 2.77582Z" fill="#E54724"/>
<path d="M30.5716 10.5406C30.5716 12.0737 29.3287 13.3165 27.7957 13.3165C26.2626 13.3165 25.0199 12.0737 25.0199 10.5406C25.0199 9.00745 26.2626 7.76482 27.7957 7.76482C29.3287 7.76482 30.5716 9.00745 30.5716 10.5406Z" fill="#E54724"/>
<path d="M30.5716 18.3052C30.5716 19.8383 29.3287 21.0812 27.7957 21.0812C26.2626 21.0812 25.0199 19.8383 25.0199 18.3052C25.0199 16.7721 26.2626 15.5294 27.7957 15.5294C29.3287 15.5294 30.5716 16.7721 30.5716 18.3052Z" fill="#E54724"/>
<path d="M29.9219 26.07C29.9219 27.603 28.679 28.8457 27.146 28.8457C25.6129 28.8457 24.3701 27.603 24.3701 26.07C24.3701 24.5368 25.6129 23.2941 27.146 23.2941C28.679 23.2941 29.9219 24.5368 29.9219 26.07Z" fill="#E54724"/>
<path d="M22.4135 10.5406C22.4135 12.0737 21.1707 13.3165 19.6377 13.3165C18.1045 13.3165 16.8618 12.0737 16.8618 10.5406C16.8618 9.00745 18.1045 7.76482 19.6377 7.76482C21.1707 7.76482 22.4135 9.00745 22.4135 10.5406Z" fill="#E54724"/>
<path d="M22.4135 18.3052C22.4135 19.8383 21.1707 21.0812 19.6377 21.0812C18.1045 21.0812 16.8618 19.8383 16.8618 18.3052C16.8618 16.7721 18.1045 15.5294 19.6377 15.5294C21.1707 15.5294 22.4135 16.7721 22.4135 18.3052Z" fill="#E54724"/>
<path d="M40.8236 18.3052C40.8236 19.8383 39.5807 21.0812 38.0478 21.0812C36.5146 21.0812 35.2717 19.8383 35.2717 18.3052C35.2717 16.7721 36.5146 15.5294 38.0478 15.5294C39.5807 15.5294 40.8236 16.7721 40.8236 18.3052Z" fill="#E54724"/>
</svg>
