<svg width="222" height="65" viewBox="0 0 222 65" fill="none" xmlns="http://www.w3.org/2000/svg">
<path d="M174.021 14.4423C172.572 15.2445 172.394 17.1608 173.642 18.208C174.6 19.0325 175.825 18.9879 176.784 18.1412C177.408 17.5841 177.519 17.339 177.519 16.47C177.519 15.6678 177.385 15.3336 176.94 14.8657C176.227 14.1526 174.867 13.9521 174.021 14.4423Z" fill="white"/>
<path d="M98.9289 14.487C98.5501 14.5761 98.5278 15.4674 98.5278 29.3494C98.5278 43.6324 98.5501 44.1226 98.9511 44.5014C99.3968 44.9025 100.957 45.0362 101.87 44.7465L102.338 44.5906L102.271 29.8841L102.204 15.1777L101.67 14.7544C101.179 14.3533 99.9093 14.2196 98.9289 14.487Z" fill="white"/>
<path d="M109.959 16.9381C109.602 17.0718 109.535 40.0449 109.892 41.315C110.293 42.7634 111.028 43.5879 112.61 44.39C113.925 45.0362 114.415 45.1476 116.175 45.259C118.649 45.3705 119.963 45.0808 120.855 44.1895C121.545 43.4764 121.635 42.8971 121.144 41.9612L120.81 41.3373L119.696 41.7607C117.423 42.6297 114.861 42.2063 113.813 40.7803C113.368 40.1786 113.345 39.8221 113.279 33.4716L113.212 26.8092H116.866C120.988 26.8092 121.256 26.7201 121.256 25.2048C121.256 23.6451 121.389 23.6896 117.111 23.6896H113.234V20.5924C113.234 17.6288 113.212 17.4506 112.744 17.1386C112.276 16.8044 110.56 16.6707 109.959 16.9381Z" fill="white"/>
<path d="M80.3009 22.8203C76.4683 23.3105 74.2623 24.7812 74.8862 26.3855C75.3096 27.5219 75.6438 27.5888 77.471 26.8312C78.3846 26.4524 79.9444 26.0067 80.9025 25.873C85.1362 25.2714 87.6095 26.8757 87.6095 30.2181C87.6095 30.9088 87.5427 31.4882 87.4535 31.4882C86.0943 31.5105 78.9639 32.4463 78.0949 32.7137C76.29 33.2485 74.8862 34.318 74.1509 35.7218C73.5939 36.7468 73.4825 37.1925 73.4825 38.6186C73.4602 41.6044 74.7971 43.5207 77.8052 44.6794C79.5656 45.3479 84.0889 45.5038 86.3394 44.9691C88.434 44.4566 90.0383 43.7212 90.7291 42.9859L91.2861 42.362V35.3208C91.2861 28.9034 91.2415 28.1458 90.8627 27.1654C89.9492 24.7812 87.6318 23.2214 84.4454 22.798C82.596 22.5529 82.2394 22.5529 80.3009 22.8203ZM87.6095 37.8164V41.2479L86.6959 41.6044C84.5345 42.4734 80.8579 42.4734 79.0531 41.6267C77.3819 40.8245 76.6688 38.6408 77.5379 37.0588C78.3846 35.5436 79.7884 35.1648 87.3421 34.4072C87.5427 34.3849 87.6095 35.2093 87.6095 37.8164Z" fill="white"/>
<path d="M133.288 22.8205C129.456 23.4667 126.425 26.3188 125.378 30.2851C124.91 32.0009 124.91 35.8557 125.378 37.5937C126.693 42.585 130.614 45.2812 136.519 45.3035C141.8 45.3035 145.477 42.7856 143.315 40.6242C142.87 40.1785 142.87 40.1785 142.023 40.7356C140.33 41.8497 138.748 42.2285 136.297 42.1394C133.712 42.0279 132.375 41.56 130.971 40.2231C129.924 39.1981 128.386 36.1677 128.943 36.1677C128.988 36.1677 132.263 35.722 136.207 35.165C140.151 34.6079 143.471 34.1623 143.583 34.1623C143.694 34.1623 144.029 33.9171 144.318 33.6052C144.764 33.1818 144.875 32.8476 144.875 31.8894C144.853 27.277 141.533 23.4667 136.943 22.7982C135.182 22.5531 134.96 22.5531 133.288 22.8205ZM138.101 26.3188C139.349 26.965 140.575 28.4357 140.976 29.7949C141.421 31.2655 141.399 31.4661 140.82 31.5998C140.53 31.6443 138.012 32.0009 135.182 32.3797C132.375 32.7362 129.723 33.115 129.3 33.1818L128.542 33.2932L128.698 32.0009C128.876 30.4856 129.723 28.5248 130.57 27.6335C131.172 26.9873 132.442 26.2297 133.511 25.8955C134.514 25.5612 137.121 25.8063 138.101 26.3188Z" fill="white"/>
<path d="M193.005 22.7092C187.858 23.4668 184.672 26.0515 183.513 30.4412C183.09 32.0232 183.112 36.1678 183.535 37.839C184.828 42.8079 189.039 45.5041 195.011 45.2367C197.685 45.1253 199.155 44.6574 200.292 43.6101C201.183 42.7634 201.25 42.0058 200.492 41.1368L199.957 40.5351L198.442 41.2927C197.083 41.9389 196.637 42.0503 194.788 42.1395C192.159 42.2509 190.688 41.7829 189.24 40.3569C187.613 38.7303 186.989 36.9922 186.989 34.0509C186.989 31.0205 187.702 29.1934 189.462 27.589C191.713 25.5613 195.3 25.2494 198.375 26.8092L199.757 27.4999L200.269 27.0097C201.383 25.9624 200.626 24.3581 198.598 23.4891C197.038 22.8206 194.587 22.4864 193.005 22.7092Z" fill="white"/>
<path d="M211.611 22.8204C208.848 23.2438 206.687 24.8927 206.04 27.1209C205.617 28.5024 205.617 29.1263 206.018 30.4633C206.731 32.8475 208.024 33.6942 212.948 35.0535C216.602 36.0562 217.093 36.3013 217.739 37.3486C218.429 38.485 218.34 39.9779 217.516 40.9137C216.625 41.9387 215.377 42.273 212.792 42.1393C210.697 42.0279 209.182 41.5154 207.199 40.2453C206.575 39.8442 206.575 39.8442 206.018 40.4681C204.481 42.2507 206.575 44.4121 210.475 45.1028C212.369 45.4148 216.112 45.2588 217.65 44.7686C221.906 43.4317 223.398 38.3067 220.502 35.0535C219.254 33.672 217.917 33.048 214.396 32.1567C211.299 31.3769 210.631 31.0872 209.962 30.2405C209.405 29.5274 209.338 28.0345 209.851 27.2992C211.143 25.4497 215.176 25.2492 218.541 26.8312C220.19 27.6111 220.301 27.6111 220.725 26.9872C221.683 25.628 220.569 24.0237 218.118 23.2661C216.424 22.7536 213.416 22.5307 211.611 22.8204Z" fill="white"/>
<path d="M148.975 23.1102C148.574 23.2885 148.195 23.5336 148.128 23.6673C147.906 24.0015 149.599 28.8814 151.983 34.8531C154.434 40.9807 155.794 43.9443 156.462 44.5237C157.019 45.0362 159.136 45.1253 159.938 44.6796C161.164 44.0112 167.826 27.0542 167.871 24.514C167.871 23.489 167.514 23.0434 166.467 22.8874C165.13 22.6646 164.573 23.0657 164.261 24.4026C163.526 27.4553 158.601 41.2927 158.245 41.2927C158.066 41.2927 155.816 35.3656 153.588 28.926C151.426 22.7092 151.025 22.2189 148.975 23.1102Z" fill="white"/>
<path d="M173.798 23.1549C173.419 23.2663 173.397 23.957 173.397 33.6944C173.397 43.6993 173.419 44.1449 173.82 44.5014C174.266 44.9025 175.826 45.0362 176.739 44.7465C177.207 44.5906 177.207 44.5906 177.14 34.2738C177.073 22.5532 177.185 23.244 175.246 23.1103C174.667 23.088 173.998 23.1103 173.798 23.1549Z" fill="white"/>
<path d="M34.632 65L55.389 24.374H41.514L20.757 65H34.632Z" fill="#21AA6F"/>
<path d="M20.757 65L0 24.374H13.875L34.632 65H20.757Z" fill="#1DB577"/>
<path d="M43.179 0.620117L63.936 41.2461H50.061L29.304 0.620117H43.179Z" fill="#E27329"/>
<path d="M29.3039 0.620117L8.54694 41.2461H22.4219L43.1789 0.620117H29.3039Z" fill="#F57F25"/>
</svg>
