<svg width="103" height="17" viewBox="0 0 103 17" fill="none" xmlns="http://www.w3.org/2000/svg">
<path d="M9.42241 13.54C8.6846 14.0691 7.81861 14.3588 6.91031 14.3816C4.3639 14.4453 2.27905 12.2973 2.27905 9.75013V6.60358C2.27905 6.18182 2.62089 5.83987 3.04269 5.83987H3.65613V9.86782C3.65613 9.90724 3.65814 9.94607 3.66201 9.98449C3.72855 11.6816 5.10421 13.006 6.79433 13.006C7.56055 13.006 8.29347 12.729 8.86692 12.2243C9.0799 12.0368 9.23743 11.7853 9.27827 11.5045C9.32886 11.156 9.22229 10.8157 8.98766 10.562C8.78097 10.3382 8.49973 10.2085 8.19555 10.1966C7.89032 10.1825 7.60088 10.2921 7.37733 10.4989C7.21222 10.6516 6.9953 10.7332 6.76924 10.7267C6.29673 10.7131 5.93516 10.2944 5.93516 9.82165V4.7625C5.93516 4.13317 5.42495 3.62305 4.79568 3.62305H2.84007C1.27157 3.62305 0 4.89456 0 6.4631V9.72005C0 13.4949 3.08831 16.6989 6.86303 16.6618C8.24283 16.6483 9.56182 16.2256 10.6884 15.4363C10.9315 15.266 11.1311 15.03 11.2048 14.7423C11.2951 14.39 11.2176 14.0277 10.9934 13.7453C10.6175 13.272 9.91353 13.1878 9.42241 13.54Z" fill="#363B48"/>
<path d="M25.0602 6.78515C25.5796 6.45986 26.1573 6.2951 26.7771 6.2951C27.2877 6.2951 27.6952 6.35414 27.9884 6.47071C28.2935 6.59197 28.6213 6.80129 28.9705 7.09908C29.2594 7.33421 29.5872 7.4535 29.9445 7.4535C30.3095 7.4535 30.6477 7.32304 30.9229 7.0764C31.2164 6.81337 31.378 6.44859 31.378 6.04936C31.378 5.825 31.339 5.61855 31.2617 5.43558C31.1728 5.22505 31.0135 5.02981 30.8133 4.88019C30.1955 4.38183 29.5696 4.01626 28.9526 3.79371C28.3328 3.57059 27.6008 3.45728 26.7771 3.45728C25.6012 3.45728 24.5098 3.75663 23.5328 4.34708C22.5616 4.9343 21.786 5.74021 21.2276 6.74246C20.67 7.74268 20.3874 8.85633 20.3874 10.0524C20.3874 11.2578 20.6699 12.3784 21.2267 13.3827C21.7855 14.3916 22.5625 15.1985 23.5355 15.7812C24.5113 16.3657 25.602 16.6621 26.7771 16.6621C28.2809 16.6621 29.6437 16.1786 30.8276 15.225L30.8858 15.1727C31.1788 14.8796 31.334 14.5136 31.334 14.1142C31.334 13.716 31.2034 13.3645 30.9562 13.0975C30.6979 12.8192 30.3439 12.6659 29.9593 12.6659C29.6496 12.6659 29.343 12.7718 29.0374 12.9878C28.3102 13.5332 27.5498 13.8098 26.7771 13.8098C26.157 13.8098 25.5794 13.645 25.0599 13.3197C24.5295 12.9877 24.1012 12.5299 23.7873 11.9588C23.4725 11.3869 23.313 10.7456 23.313 10.0524C23.313 9.36811 23.4729 8.72854 23.7885 8.15122C24.1021 7.57667 24.53 7.11704 25.0602 6.78515Z" fill="#363B48"/>
<path d="M38.118 13.8243C37.424 13.8243 36.7949 13.6591 36.2479 13.3334C35.7005 13.0074 35.2676 12.5561 34.9614 11.9917C34.6504 11.4189 34.4927 10.7665 34.4927 10.0524C34.4927 9.33845 34.6504 8.68604 34.9614 8.11305C35.2672 7.54961 35.6972 7.10109 36.2392 6.77972C36.7823 6.4581 37.4143 6.2951 38.118 6.2951C38.8217 6.2951 39.4538 6.4581 39.9967 6.77972C40.5382 7.10064 40.9683 7.54931 41.2744 8.11305C41.5854 8.68614 41.7432 9.33864 41.7432 10.0524C41.7432 10.7663 41.5854 11.4188 41.2744 11.9918C40.968 12.556 40.5353 13.0074 39.9881 13.3334C39.441 13.6591 38.8119 13.8243 38.118 13.8243ZM41.4896 4.29915V4.29901C40.4979 3.74054 39.3638 3.45728 38.118 3.45728C36.8623 3.45728 35.7228 3.74054 34.7319 4.29901C33.7309 4.86299 32.943 5.65934 32.3902 6.66566C31.8438 7.65965 31.5669 8.7991 31.5669 10.0524C31.5669 11.3049 31.8437 12.4463 32.3893 13.445C32.9423 14.4569 33.7305 15.2562 34.7317 15.8203C35.7228 16.3789 36.862 16.6621 38.118 16.6621C39.3741 16.6621 40.5115 16.3787 41.4985 15.8195C42.4932 15.2557 43.2802 14.4576 43.8376 13.4476C44.3893 12.448 44.6691 11.3057 44.6691 10.0524C44.6691 8.7988 44.3892 7.65844 43.8368 6.66289C43.2788 5.65768 42.4892 4.86243 41.4896 4.29915Z" fill="#363B48"/>
<path d="M55.0413 3.6041C54.6374 3.6041 54.2746 3.74843 53.9914 4.0219C53.7021 4.30169 53.549 4.6732 53.549 5.09633V10.9323L48.4577 4.15986L48.4344 4.13175C48.3039 3.98263 48.14 3.8581 47.9472 3.76144C47.738 3.65702 47.5199 3.6041 47.2991 3.6041C46.8904 3.6041 46.5268 3.75152 46.2473 4.03065C45.9687 4.30984 45.8214 4.67828 45.8214 5.09633V15.0235C45.8214 15.4424 45.969 15.811 46.2473 16.0892C46.5264 16.3681 46.8902 16.5156 47.2991 16.5156C47.7215 16.5156 48.0931 16.3628 48.3742 16.0728C48.647 15.7898 48.7911 15.427 48.7911 15.0235V9.20217L53.8559 15.9391C53.9984 16.1473 54.1967 16.3022 54.4455 16.3996C54.6427 16.4766 54.843 16.5156 55.0413 16.5156C55.4502 16.5156 55.8135 16.3682 56.0924 16.0893C56.3713 15.8105 56.5188 15.4419 56.5188 15.0235V5.09633C56.5188 4.67839 56.3713 4.30984 56.0917 4.02986C55.8125 3.75127 55.4493 3.6041 55.0413 3.6041Z" fill="#363B48"/>
<path d="M67.6404 3.6041C67.2364 3.6041 66.8736 3.74843 66.5906 4.0219C66.301 4.30184 66.1479 4.67335 66.1479 5.09633V10.9323L61.0587 4.16228L61.0334 4.13175C60.9031 3.98282 60.7395 3.85845 60.546 3.76144C60.3365 3.65702 60.1185 3.6041 59.898 3.6041C59.4895 3.6041 59.126 3.75152 58.8465 4.0305C58.5679 4.30948 58.4206 4.67798 58.4206 5.09633V15.0235C58.4206 15.4424 58.568 15.811 58.8465 16.0889C59.1252 16.3681 59.4888 16.5156 59.898 16.5156C60.3208 16.5156 60.6922 16.3627 60.973 16.0728C61.246 15.7898 61.3902 15.427 61.3902 15.0235V9.20232L66.4548 15.9391C66.5973 16.1471 66.7956 16.302 67.0447 16.3996C67.2417 16.4766 67.442 16.5156 67.6404 16.5156C68.0489 16.5156 68.4124 16.3684 68.6917 16.0892C68.9704 15.8102 69.1177 15.4417 69.1177 15.0235V5.09633C69.1177 4.67803 68.9702 4.30948 68.6909 4.02995C68.4118 3.75139 68.0486 3.6041 67.6404 3.6041Z" fill="#363B48"/>
<path d="M78.9214 6.47119C79.3294 6.47119 79.6886 6.33781 79.9601 6.08569C80.243 5.82332 80.3987 5.45627 80.3987 5.05232C80.3987 4.6384 80.2506 4.27674 79.9702 4.00646C79.6972 3.74328 79.3344 3.6041 78.9214 3.6041H72.2935C71.8896 3.6041 71.5267 3.74843 71.2436 4.0219C70.9543 4.30169 70.8013 4.6732 70.8013 5.09633V15.0235C70.8013 15.4322 70.9512 15.7981 71.2351 16.0822C71.5188 16.3657 71.8849 16.5156 72.2935 16.5156H78.9214C79.3344 16.5156 79.697 16.3766 79.9704 16.1132C80.2506 15.8428 80.3987 15.4812 80.3987 15.0674C80.3987 14.6639 80.2432 14.2971 79.9606 14.0344L79.9417 14.0172C79.672 13.7759 79.3198 13.6486 78.9214 13.6486H73.7857V11.4422H77.2643C77.6628 11.4422 78.02 11.3061 78.2974 11.0479C78.5842 10.7804 78.742 10.4113 78.742 10.0086C78.742 9.60572 78.584 9.23652 78.2965 8.9682C78.0197 8.71106 77.6628 8.57506 77.2643 8.57506H73.7857V6.47119H78.9214Z" fill="#363B48"/>
<path d="M85.2165 6.78505C85.736 6.45986 86.3137 6.2951 86.9336 6.2951C87.4441 6.2951 87.8516 6.35414 88.1448 6.47071C88.4499 6.59197 88.7777 6.80129 89.1269 7.09908C89.4158 7.33421 89.7436 7.4535 90.1007 7.4535C90.4656 7.4535 90.8041 7.32304 91.0793 7.0764C91.3728 6.81337 91.5344 6.44859 91.5344 6.04936C91.5344 5.825 91.4954 5.61855 91.4181 5.43558C91.3292 5.22505 91.1699 5.02981 90.9697 4.88019C90.3519 4.38183 89.726 4.01626 89.109 3.79371C88.4892 3.57059 87.7572 3.45728 86.9336 3.45728C85.7576 3.45728 84.6662 3.75663 83.6892 4.34708C82.718 4.9343 81.9424 5.74021 81.384 6.74246C80.8264 7.74268 80.5438 8.85633 80.5438 10.0524C80.5438 11.2578 80.8263 12.3784 81.3831 13.3827C81.9421 14.3916 82.7188 15.1985 83.6919 15.7812C84.6677 16.3657 85.7585 16.6621 86.9336 16.6621C88.4374 16.6621 89.8001 16.1786 90.984 15.225L91.042 15.1727C91.3352 14.8796 91.4904 14.5136 91.4904 14.1142C91.4904 13.716 91.3598 13.3645 91.1126 13.0975C90.8542 12.8192 90.5003 12.6659 90.1157 12.6659C89.806 12.6659 89.4994 12.7718 89.1938 12.9878C88.4668 13.5332 87.7062 13.8098 86.9336 13.8098C86.3134 13.8098 85.7358 13.645 85.2165 13.3197C84.6859 12.9876 84.2576 12.5299 83.9437 11.9588C83.629 11.3869 83.4694 10.7456 83.4694 10.0524C83.4694 9.36811 83.6293 8.72854 83.9449 8.15122C84.2584 7.57667 84.6864 7.11709 85.2165 6.78505Z" fill="#363B48"/>
<path d="M102.587 4.01593V4.01572C102.317 3.7465 101.964 3.6041 101.565 3.6041H93.7201C93.3211 3.6041 92.9677 3.7465 92.698 4.01582C92.4288 4.28525 92.2866 4.6386 92.2866 5.03773C92.2866 5.43707 92.4291 5.79047 92.6983 6.05969C92.9677 6.32891 93.3208 6.47119 93.7201 6.47119H96.1577V15.0235C96.1577 15.4325 96.3078 15.7985 96.5915 16.082C96.8752 16.3657 97.2412 16.5156 97.6499 16.5156C98.0585 16.5156 98.4248 16.3657 98.7088 16.082C98.9923 15.7982 99.1422 15.4322 99.1422 15.0235V6.47119H101.565C101.964 6.47119 102.318 6.32881 102.587 6.05969C102.856 5.79058 102.999 5.43716 102.999 5.03773C102.999 4.6385 102.856 4.28525 102.587 4.01593Z" fill="#363B48"/>
<path d="M13.6944 1.24262C13.6944 1.92925 13.1378 2.48584 12.4513 2.48584C11.7647 2.48584 11.2082 1.92925 11.2082 1.24262C11.2082 0.556122 11.7647 -0.000469208 12.4513 -0.000469208C13.1378 -0.000469208 13.6944 0.556122 13.6944 1.24262Z" fill="#363B48"/>
<path d="M13.6944 4.72028C13.6944 5.40684 13.1378 5.96338 12.4513 5.96338C11.7647 5.96338 11.2082 5.40684 11.2082 4.72028C11.2082 4.03367 11.7647 3.47719 12.4513 3.47719C13.1378 3.47719 13.6944 4.03367 13.6944 4.72028Z" fill="#363B48"/>
<path d="M13.6944 8.19729C13.6944 8.88384 13.1378 9.44043 12.4513 9.44043C11.7647 9.44043 11.2082 8.88384 11.2082 8.19729C11.2082 7.51072 11.7647 6.95419 12.4513 6.95419C13.1378 6.95419 13.6944 7.51072 13.6944 8.19729Z" fill="#363B48"/>
<path d="M13.4013 11.6749C13.4013 12.3614 12.8447 12.918 12.1582 12.918C11.4716 12.918 10.9151 12.3614 10.9151 11.6749C10.9151 10.9883 11.4716 10.4318 12.1582 10.4318C12.8447 10.4318 13.4013 10.9883 13.4013 11.6749Z" fill="#363B48"/>
<path d="M10.0389 4.72028C10.0389 5.40684 9.48227 5.96338 8.79575 5.96338C8.10915 5.96338 7.55261 5.40684 7.55261 4.72028C7.55261 4.03367 8.10915 3.47719 8.79575 3.47719C9.48227 3.47719 10.0389 4.03367 10.0389 4.72028Z" fill="#363B48"/>
<path d="M10.0389 8.19729C10.0389 8.88384 9.48227 9.44043 8.79575 9.44043C8.10915 9.44043 7.55261 8.88384 7.55261 8.19729C7.55261 7.51072 8.10915 6.95419 8.79575 6.95419C9.48227 6.95419 10.0389 7.51072 10.0389 8.19729Z" fill="#363B48"/>
<path d="M18.2812 8.19729C18.2812 8.88384 17.7246 9.44043 17.0381 9.44043C16.3515 9.44043 15.7949 8.88384 15.7949 8.19729C15.7949 7.51072 16.3515 6.95419 17.0381 6.95419C17.7246 6.95419 18.2812 7.51072 18.2812 8.19729Z" fill="#363B48"/>
</svg>
